<svg width="100" height="78" viewBox="0 0 100 78" fill="none" xmlns="http://www.w3.org/2000/svg">
<g clip-path="url(#clip0_2227_14306)">
<rect width="4.7619" height="126.984" fill="#FEF2F2"/>
<rect x="4.76172" width="4.7619" height="126.984" fill="#FEFAE8"/>
<rect x="9.52393" width="4.7619" height="126.984" fill="#FEF0E2"/>
<rect x="14.2856" width="4.7619" height="126.984" fill="#FEF2F2"/>
<rect x="19.0474" width="4.7619" height="126.984" fill="#FEFAE8"/>
<rect x="23.8096" width="4.7619" height="126.984" fill="#FEF0E2"/>
<rect x="28.5713" width="4.7619" height="126.984" fill="#FEF2F2"/>
<rect x="33.3335" width="4.7619" height="126.984" fill="#FEFAE8"/>
<rect x="38.0952" width="4.7619" height="126.984" fill="#FEF0E2"/>
<rect x="42.8569" width="4.7619" height="126.984" fill="#FEF2F2"/>
<rect x="47.6191" width="4.7619" height="126.984" fill="#FEFAE8"/>
<rect x="52.3809" width="4.7619" height="126.984" fill="#FEF0E2"/>
<rect x="57.1426" width="4.7619" height="126.984" fill="#FEF2F2"/>
<rect x="61.9048" width="4.7619" height="126.984" fill="#FEFAE8"/>
<rect x="66.6665" width="4.7619" height="126.984" fill="#FEF0E2"/>
<rect x="71.4282" width="4.7619" height="126.984" fill="#FEF2F2"/>
<rect x="76.1904" width="4.7619" height="126.984" fill="#FEFAE8"/>
<rect x="80.9521" width="4.7619" height="126.984" fill="#FEF0E2"/>
<rect x="85.7144" width="4.7619" height="126.984" fill="#FEF2F2"/>
<rect x="90.4761" width="4.7619" height="126.984" fill="#FEFAE8"/>
<rect x="95.2378" width="4.7619" height="126.984" fill="#FEF0E2"/>
</g>
<defs>
<clipPath id="clip0_2227_14306">
<rect width="100" height="78" rx="4" fill="white"/>
</clipPath>
</defs>
</svg>
