<svg width="100" height="78" viewBox="0 0 100 78" fill="none" xmlns="http://www.w3.org/2000/svg">
<g clip-path="url(#clip0_2227_13969)">
<g clip-path="url(#clip1_2227_13969)">
<rect width="185.068" height="154.224" transform="translate(-1 -1.5)" fill="#F0F9FF"/>
<g opacity="0.8">
<g clip-path="url(#clip2_2227_13969)">
<path d="M11.8125 10.4424C11.9593 10.4424 12.1001 10.5007 12.2039 10.6045C12.3078 10.7083 12.3661 10.8492 12.3661 10.996V11.5496C12.3661 11.6964 12.3078 11.8373 12.2039 11.9411C12.1001 12.0449 11.9593 12.1032 11.8125 12.1032C11.6656 12.1032 11.5248 12.0449 11.421 11.9411C11.3172 11.8373 11.2589 11.6964 11.2589 11.5496V10.996C11.2589 10.8492 11.3172 10.7083 11.421 10.6045C11.5248 10.5007 11.6656 10.4424 11.8125 10.4424ZM15.3357 9.30743L15.7271 9.69884C15.828 9.80326 15.8838 9.9431 15.8825 10.0883C15.8813 10.2334 15.823 10.3723 15.7204 10.4749C15.6178 10.5776 15.4789 10.6358 15.3337 10.6371C15.1886 10.6383 15.0487 10.5825 14.9443 10.4817L14.5529 10.0903C14.4521 9.98584 14.3963 9.84599 14.3975 9.70083C14.3988 9.55568 14.457 9.41682 14.5597 9.31417C14.6623 9.21153 14.8012 9.1533 14.9463 9.15204C15.0915 9.15078 15.2313 9.20658 15.3357 9.30743ZM8.28922 9.30743C8.38885 9.20814 8.52253 9.15049 8.66312 9.1462C8.80372 9.14191 8.94067 9.19129 9.04617 9.28432C9.15168 9.37734 9.21781 9.50704 9.23115 9.64706C9.24449 9.78709 9.20403 9.92694 9.11799 10.0382L9.07204 10.0903L8.68063 10.4817C8.581 10.581 8.44731 10.6386 8.30672 10.6429C8.16613 10.6472 8.02917 10.5978 7.92367 10.5048C7.81817 10.4118 7.75203 10.2821 7.73869 10.142C7.72536 10.002 7.76581 9.86216 7.85185 9.75088L7.8978 9.69884L8.28922 9.30743ZM11.8125 3.24525C12.6935 3.24525 13.5384 3.59522 14.1613 4.21817C14.7842 4.84112 15.1342 5.68601 15.1342 6.56699C15.1342 7.44798 14.7842 8.29287 14.1613 8.91582C13.5384 9.53877 12.6935 9.88873 11.8125 9.88873C10.9315 9.88873 10.0866 9.53877 9.46365 8.91582C8.8407 8.29287 8.49074 7.44798 8.49074 6.56699C8.49074 5.68601 8.8407 4.84112 9.46365 4.21817C10.0866 3.59522 10.9315 3.24525 11.8125 3.24525ZM7.38349 6.01337C7.5246 6.01353 7.66032 6.06756 7.76292 6.16443C7.86553 6.26129 7.92728 6.39368 7.93555 6.53455C7.94382 6.67541 7.89798 6.81412 7.80742 6.92233C7.71685 7.03054 7.58838 7.10008 7.44826 7.11674L7.38349 7.12062H6.82987C6.68876 7.12046 6.55304 7.06643 6.45043 6.96956C6.34782 6.8727 6.28608 6.7403 6.27781 6.59944C6.26954 6.45858 6.31537 6.31987 6.40594 6.21166C6.4965 6.10345 6.62497 6.03391 6.76509 6.01725L6.82987 6.01337H7.38349ZM16.7951 6.01337C16.9419 6.01337 17.0827 6.0717 17.1866 6.17552C17.2904 6.27935 17.3487 6.42017 17.3487 6.56699C17.3487 6.71382 17.2904 6.85464 17.1866 6.95847C17.0827 7.06229 16.9419 7.12062 16.7951 7.12062H16.2415C16.0946 7.12062 15.9538 7.06229 15.85 6.95847C15.7462 6.85464 15.6878 6.71382 15.6878 6.56699C15.6878 6.42017 15.7462 6.27935 15.85 6.17552C15.9538 6.0717 16.0946 6.01337 16.2415 6.01337H16.7951ZM7.8978 2.65232C7.99313 2.557 8.11997 2.49974 8.25451 2.49128C8.38906 2.48282 8.52207 2.52374 8.62859 2.60637L8.68063 2.65232L9.07204 3.04374C9.17133 3.14336 9.22898 3.27705 9.23327 3.41764C9.23756 3.55824 9.18818 3.69519 9.09515 3.80069C9.00213 3.90619 8.87243 3.97233 8.73241 3.98567C8.59238 3.99901 8.45253 3.95855 8.34126 3.87251L8.28922 3.82656L7.8978 3.43515C7.79402 3.33133 7.73571 3.19054 7.73571 3.04374C7.73571 2.89694 7.79402 2.75614 7.8978 2.65232ZM15.7271 2.65232C15.8309 2.75614 15.8892 2.89694 15.8892 3.04374C15.8892 3.19054 15.8309 3.33133 15.7271 3.43515L15.3357 3.82656C15.2847 3.87944 15.2236 3.92161 15.156 3.95063C15.0885 3.97964 15.0158 3.99491 14.9423 3.99555C14.8688 3.99619 14.7959 3.98218 14.7279 3.95435C14.6598 3.92651 14.598 3.8854 14.546 3.83342C14.4941 3.78144 14.453 3.71963 14.4251 3.65159C14.3973 3.58355 14.3833 3.51065 14.3839 3.43714C14.3846 3.36363 14.3998 3.29098 14.4288 3.22344C14.4579 3.1559 14.5 3.09481 14.5529 3.04374L14.9443 2.65232C15.0481 2.54854 15.1889 2.49023 15.3357 2.49023C15.4825 2.49023 15.6233 2.54854 15.7271 2.65232ZM11.8125 1.03076C11.9593 1.03076 12.1001 1.08909 12.2039 1.19291C12.3078 1.29674 12.3661 1.43755 12.3661 1.58439V2.13801C12.3661 2.28484 12.3078 2.42565 12.2039 2.52948C12.1001 2.6333 11.9593 2.69163 11.8125 2.69163C11.6656 2.69163 11.5248 2.6333 11.421 2.52948C11.3172 2.42565 11.2589 2.28484 11.2589 2.13801V1.58439C11.2589 1.43755 11.3172 1.29674 11.421 1.19291C11.5248 1.08909 11.6656 1.03076 11.8125 1.03076Z" fill="#DBEAFE"/>
</g>
<path d="M40.7288 1.77784C40.4557 1.56844 40.1224 1.45238 39.7783 1.44677C39.2069 1.43348 38.6671 1.69756 38.2901 1.96552C37.5571 1.51763 36.9033 1.49936 36.3768 1.80109C35.9112 2.06794 35.6322 2.54018 35.4844 2.93491C34.7536 3.00688 34.2708 3.34072 34.0206 3.83289C33.7881 4.28907 33.7925 4.81391 33.8645 5.23023L33.8312 5.26511L33.7698 5.31051C33.5317 5.45999 33.421 5.7368 33.3651 5.9361C33.3007 6.17686 33.2672 6.42485 33.2654 6.67408C33.2621 6.92598 33.2859 7.18895 33.3446 7.41981C33.3978 7.62631 33.5035 7.90423 33.736 8.06312L36.637 10.0412L36.668 10.0706C36.6857 10.0927 36.6968 10.1215 36.699 10.1514L36.6946 10.1973C36.6442 10.4049 36.6071 10.6873 36.6868 10.9541C36.7308 11.1066 36.8149 11.2445 36.9304 11.3533C37.0572 11.4718 37.215 11.5471 37.391 11.5831L37.6391 11.6296C38.1971 11.7215 38.6284 11.7054 39.2263 11.5831L39.2927 11.567C39.4441 11.5287 39.5832 11.4525 39.6969 11.3456C39.8242 11.2238 39.8973 11.0776 39.9366 10.9348C39.992 10.7316 39.982 10.5201 39.9521 10.3413L39.9178 10.1752C39.9113 10.1486 39.9123 10.1208 39.9206 10.0947C39.9289 10.0686 39.9442 10.0454 39.9648 10.0274L42.9959 8.06921L43.0103 8.0598L43.0231 8.04984C43.255 7.87157 43.3735 7.59144 43.4344 7.34673C43.4992 7.0893 43.5185 6.79865 43.5014 6.52128C43.4869 6.24329 43.4298 5.96917 43.332 5.70856C43.239 5.47604 43.0828 5.21584 42.8226 5.07411C42.9411 4.76076 42.9721 4.45959 42.9206 4.17724C42.8671 3.89897 42.7393 3.64036 42.5508 3.42874C42.2325 3.06224 41.7818 2.83304 41.4142 2.70903C41.2363 2.29935 41.0079 1.98895 40.7288 1.77784ZM37.9712 7.12086V4.35274C37.9712 4.24262 38.015 4.137 38.0929 4.05914C38.1707 3.98127 38.2763 3.93752 38.3865 3.93752C38.4966 3.93752 38.6022 3.98127 38.6801 4.05914C38.7579 4.137 38.8017 4.24262 38.8017 4.35274V7.12086C38.8017 7.23098 38.7579 7.33659 38.6801 7.41446C38.6022 7.49233 38.4966 7.53607 38.3865 7.53607C38.2763 7.53607 38.1707 7.49233 38.0929 7.41446C38.015 7.33659 37.9712 7.23098 37.9712 7.12086ZM35.9931 5.06913C36.2146 5.00989 36.4416 5.1411 36.5014 5.36255L36.9315 6.96695L36.9404 7.00847C36.9574 7.11026 36.9359 7.21473 36.8801 7.30154C36.8243 7.38834 36.7382 7.45125 36.6385 7.478C36.5388 7.50475 36.4328 7.49343 36.341 7.44623C36.2492 7.39904 36.1783 7.31936 36.1421 7.22272L36.1293 7.18175L35.6992 5.57791C35.685 5.52523 35.6814 5.47029 35.6885 5.41621C35.6956 5.36213 35.7132 5.30998 35.7405 5.26273C35.7677 5.21548 35.804 5.17407 35.8473 5.14085C35.8905 5.10763 35.9405 5.08326 35.9931 5.06913ZM40.1348 7.47407C40.0285 7.44552 39.9379 7.37596 39.8829 7.28067C39.8279 7.18538 39.813 7.07214 39.8414 6.96584L40.271 5.36089C40.2995 5.25444 40.3692 5.16369 40.4647 5.10861C40.5602 5.05353 40.6736 5.03863 40.78 5.06719C40.8865 5.09575 40.9772 5.16543 41.0323 5.26089C41.0874 5.35636 41.1023 5.46979 41.0737 5.57625L40.643 7.18009C40.6145 7.28636 40.5449 7.37695 40.4496 7.43197C40.3543 7.48699 40.2411 7.50248 40.1348 7.47407Z" fill="#E0E7FF"/>
<g clip-path="url(#clip3_2227_13969)">
<path d="M64.9604 10.4424C65.1073 10.4424 65.2481 10.5007 65.3519 10.6045C65.4557 10.7083 65.514 10.8492 65.514 10.996V11.5496C65.514 11.6964 65.4557 11.8373 65.3519 11.9411C65.2481 12.0449 65.1073 12.1032 64.9604 12.1032C64.8136 12.1032 64.6728 12.0449 64.569 11.9411C64.4651 11.8373 64.4068 11.6964 64.4068 11.5496V10.996C64.4068 10.8492 64.4651 10.7083 64.569 10.6045C64.6728 10.5007 64.8136 10.4424 64.9604 10.4424ZM68.4837 9.30743L68.8751 9.69884C68.9759 9.80326 69.0317 9.9431 69.0305 10.0883C69.0292 10.2334 68.971 10.3723 68.8684 10.4749C68.7657 10.5776 68.6268 10.6358 68.4817 10.6371C68.3365 10.6383 68.1967 10.5825 68.0923 10.4817L67.7009 10.0903C67.6 9.98584 67.5442 9.84599 67.5455 9.70083C67.5467 9.55568 67.605 9.41682 67.7076 9.31417C67.8102 9.21153 67.9491 9.1533 68.0943 9.15204C68.2394 9.15078 68.3793 9.20658 68.4837 9.30743ZM61.4372 9.30743C61.5368 9.20814 61.6705 9.15049 61.8111 9.1462C61.9517 9.14191 62.0886 9.19129 62.1941 9.28432C62.2996 9.37734 62.3658 9.50704 62.3791 9.64706C62.3924 9.78709 62.352 9.92694 62.2659 10.0382L62.22 10.0903L61.8286 10.4817C61.7289 10.581 61.5953 10.6386 61.4547 10.6429C61.3141 10.6472 61.1771 10.5978 61.0716 10.5048C60.9661 10.4118 60.9 10.2821 60.8866 10.142C60.8733 10.002 60.9138 9.86216 60.9998 9.75088L61.0458 9.69884L61.4372 9.30743ZM64.9604 3.24525C65.8414 3.24525 66.6863 3.59522 67.3092 4.21817C67.9322 4.84112 68.2822 5.68601 68.2822 6.56699C68.2822 7.44798 67.9322 8.29287 67.3092 8.91582C66.6863 9.53877 65.8414 9.88873 64.9604 9.88873C64.0794 9.88873 63.2345 9.53877 62.6116 8.91582C61.9887 8.29287 61.6387 7.44798 61.6387 6.56699C61.6387 5.68601 61.9887 4.84112 62.6116 4.21817C63.2345 3.59522 64.0794 3.24525 64.9604 3.24525ZM60.5314 6.01337C60.6725 6.01353 60.8083 6.06756 60.9109 6.16443C61.0135 6.26129 61.0752 6.39368 61.0835 6.53455C61.0918 6.67541 61.0459 6.81412 60.9554 6.92233C60.8648 7.03054 60.7363 7.10008 60.5962 7.11674L60.5314 7.12062H59.9778C59.8367 7.12046 59.701 7.06643 59.5984 6.96956C59.4958 6.8727 59.434 6.7403 59.4258 6.59944C59.4175 6.45858 59.4633 6.31987 59.5539 6.21166C59.6445 6.10345 59.7729 6.03391 59.913 6.01725L59.9778 6.01337H60.5314ZM69.943 6.01337C70.0899 6.01337 70.2307 6.0717 70.3345 6.17552C70.4383 6.27935 70.4967 6.42017 70.4967 6.56699C70.4967 6.71382 70.4383 6.85464 70.3345 6.95847C70.2307 7.06229 70.0899 7.12062 69.943 7.12062H69.3894C69.2426 7.12062 69.1018 7.06229 68.9979 6.95847C68.8941 6.85464 68.8358 6.71382 68.8358 6.56699C68.8358 6.42017 68.8941 6.27935 68.9979 6.17552C69.1018 6.0717 69.2426 6.01337 69.3894 6.01337H69.943ZM61.0458 2.65232C61.1411 2.557 61.2679 2.49974 61.4025 2.49128C61.537 2.48282 61.67 2.52374 61.7765 2.60637L61.8286 2.65232L62.22 3.04374C62.3193 3.14336 62.3769 3.27705 62.3812 3.41764C62.3855 3.55824 62.3361 3.69519 62.2431 3.80069C62.1501 3.90619 62.0204 3.97233 61.8804 3.98567C61.7403 3.99901 61.6005 3.95855 61.4892 3.87251L61.4372 3.82656L61.0458 3.43515C60.942 3.33133 60.8837 3.19054 60.8837 3.04374C60.8837 2.89694 60.942 2.75614 61.0458 2.65232ZM68.8751 2.65232C68.9789 2.75614 69.0372 2.89694 69.0372 3.04374C69.0372 3.19054 68.9789 3.33133 68.8751 3.43515L68.4837 3.82656C68.4326 3.87944 68.3715 3.92161 68.304 3.95063C68.2364 3.97964 68.1638 3.99491 68.0903 3.99555C68.0168 3.99619 67.9439 3.98218 67.8758 3.95435C67.8078 3.92651 67.746 3.8854 67.694 3.83342C67.642 3.78144 67.6009 3.71963 67.5731 3.65159C67.5452 3.58355 67.5312 3.51065 67.5319 3.43714C67.5325 3.36363 67.5478 3.29098 67.5768 3.22344C67.6058 3.1559 67.648 3.09481 67.7009 3.04374L68.0923 2.65232C68.1961 2.54854 68.3369 2.49023 68.4837 2.49023C68.6305 2.49023 68.7713 2.54854 68.8751 2.65232ZM64.9604 1.03076C65.1073 1.03076 65.2481 1.08909 65.3519 1.19291C65.4557 1.29674 65.514 1.43755 65.514 1.58439V2.13801C65.514 2.28484 65.4557 2.42565 65.3519 2.52948C65.2481 2.6333 65.1073 2.69163 64.9604 2.69163C64.8136 2.69163 64.6728 2.6333 64.569 2.52948C64.4651 2.42565 64.4068 2.28484 64.4068 2.13801V1.58439C64.4068 1.43755 64.4651 1.29674 64.569 1.19291C64.6728 1.08909 64.8136 1.03076 64.9604 1.03076Z" fill="#DBEAFE"/>
</g>
<path d="M93.8763 1.77784C93.6031 1.56844 93.2699 1.45238 92.9257 1.44677C92.3544 1.43348 91.8146 1.69756 91.4376 1.96552C90.7046 1.51763 90.0508 1.49936 89.5243 1.80109C89.0587 2.06794 88.7796 2.54018 88.6318 2.93491C87.901 3.00688 87.4183 3.34072 87.168 3.83289C86.9355 4.28907 86.94 4.81391 87.0119 5.23023L86.9787 5.26511L86.9173 5.31051C86.6792 5.45999 86.5685 5.7368 86.5126 5.9361C86.4481 6.17686 86.4146 6.42485 86.4129 6.67408C86.4096 6.92598 86.4334 7.18895 86.4921 7.41981C86.5452 7.62631 86.651 7.90423 86.8835 8.06312L89.7845 10.0412L89.8155 10.0706C89.8332 10.0927 89.8443 10.1215 89.8465 10.1514L89.842 10.1973C89.7917 10.4049 89.7546 10.6873 89.8343 10.9541C89.8783 11.1066 89.9624 11.2445 90.0779 11.3533C90.2047 11.4718 90.3624 11.5471 90.5385 11.5831L90.7865 11.6296C91.3446 11.7215 91.7758 11.7054 92.3738 11.5831L92.4402 11.567C92.5915 11.5287 92.7306 11.4525 92.8443 11.3456C92.9717 11.2238 93.0448 11.0776 93.0841 10.9348C93.1394 10.7316 93.1295 10.5201 93.0996 10.3413L93.0652 10.1752C93.0588 10.1486 93.0598 10.1208 93.0681 10.0947C93.0764 10.0686 93.0917 10.0454 93.1123 10.0274L96.1434 8.06921L96.1578 8.0598L96.1705 8.04984C96.4025 7.87157 96.521 7.59144 96.5819 7.34673C96.6466 7.0893 96.666 6.79865 96.6488 6.52128C96.6344 6.24329 96.5773 5.96917 96.4794 5.70856C96.3864 5.47604 96.2303 5.21584 95.9701 5.07411C96.0886 4.76076 96.1196 4.45959 96.0681 4.17724C96.0145 3.89897 95.8867 3.64036 95.6983 3.42874C95.3799 3.06224 94.9293 2.83304 94.5617 2.70903C94.3838 2.29935 94.1553 1.98895 93.8763 1.77784ZM91.1187 7.12086V4.35274C91.1187 4.24262 91.1624 4.137 91.2403 4.05914C91.3182 3.98127 91.4238 3.93752 91.5339 3.93752C91.644 3.93752 91.7497 3.98127 91.8275 4.05914C91.9054 4.137 91.9491 4.24262 91.9491 4.35274V7.12086C91.9491 7.23098 91.9054 7.33659 91.8275 7.41446C91.7497 7.49233 91.644 7.53607 91.5339 7.53607C91.4238 7.53607 91.3182 7.49233 91.2403 7.41446C91.1624 7.33659 91.1187 7.23098 91.1187 7.12086ZM89.1406 5.06913C89.3621 5.00989 89.589 5.1411 89.6488 5.36255L90.079 6.96695L90.0879 7.00847C90.1049 7.11026 90.0834 7.21473 90.0276 7.30154C89.9718 7.38834 89.8856 7.45125 89.786 7.478C89.6863 7.50475 89.5802 7.49343 89.4884 7.44623C89.3967 7.39904 89.3258 7.31936 89.2895 7.22272L89.2768 7.18175L88.8466 5.57791C88.8325 5.52523 88.8288 5.47029 88.8359 5.41621C88.843 5.36213 88.8607 5.30998 88.8879 5.26273C88.9152 5.21548 88.9515 5.17407 88.9947 5.14085C89.038 5.10763 89.0879 5.08326 89.1406 5.06913ZM93.2823 7.47407C93.176 7.44552 93.0854 7.37596 93.0304 7.28067C92.9754 7.18538 92.9604 7.07214 92.9888 6.96584L93.4185 5.36089C93.447 5.25444 93.5167 5.16369 93.6122 5.10861C93.7076 5.05353 93.8211 5.03863 93.9275 5.06719C94.034 5.09575 94.1247 5.16543 94.1798 5.26089C94.2349 5.35636 94.2498 5.46979 94.2212 5.57625L93.7905 7.18009C93.7619 7.28636 93.6924 7.37695 93.5971 7.43197C93.5018 7.48699 93.3886 7.50248 93.2823 7.47407Z" fill="#E0E7FF"/>
<path d="M14.1546 23.6065C13.8814 23.3971 13.5482 23.281 13.204 23.2754C12.6327 23.2621 12.0929 23.5262 11.7159 23.7941C10.9829 23.3462 10.3291 23.328 9.80258 23.6297C9.33699 23.8965 9.05796 24.3688 8.91014 24.7635C8.17936 24.8355 7.6966 25.1693 7.44636 25.6615C7.21384 26.1177 7.21827 26.6425 7.29024 27.0588L7.25702 27.0937L7.19557 27.1391C6.95751 27.2886 6.84679 27.5654 6.79087 27.7647C6.72645 28.0055 6.69296 28.2535 6.69122 28.5027C6.6879 28.7546 6.71171 29.0176 6.77039 29.2484C6.82354 29.4549 6.92928 29.7328 7.1618 29.8917L10.0628 31.8698L10.0938 31.8992C10.1115 31.9213 10.1226 31.9501 10.1248 31.98L10.1204 32.026C10.07 32.2336 10.0329 32.5159 10.1126 32.7828C10.1566 32.9352 10.2407 33.0731 10.3562 33.1819C10.483 33.3004 10.6408 33.3757 10.8168 33.4117L11.0648 33.4582C11.6229 33.5501 12.0542 33.534 12.6521 33.4117L12.7185 33.3956C12.8699 33.3573 13.0089 33.2811 13.1227 33.1742C13.25 33.0524 13.3231 32.9062 13.3624 32.7634C13.4177 32.5602 13.4078 32.3487 13.3779 32.1699L13.3436 32.0038C13.3371 31.9772 13.3381 31.9494 13.3464 31.9233C13.3547 31.8973 13.37 31.874 13.3906 31.856L16.4217 29.8978L16.4361 29.8884L16.4488 29.8784C16.6808 29.7002 16.7993 29.42 16.8602 29.1753C16.9249 28.9179 16.9443 28.6273 16.9272 28.3499C16.9127 28.0719 16.8556 27.7978 16.7578 27.5372C16.6647 27.3047 16.5086 27.0445 16.2484 26.9027C16.3669 26.5894 16.3979 26.2882 16.3464 26.0059C16.2928 25.7276 16.1651 25.469 15.9766 25.2574C15.6583 24.8909 15.2076 24.6617 14.84 24.5376C14.6621 24.128 14.4336 23.8176 14.1546 23.6065ZM11.397 28.9495V26.1814C11.397 26.0712 11.4408 25.9656 11.5186 25.8877C11.5965 25.8099 11.7021 25.7661 11.8122 25.7661C11.9224 25.7661 12.028 25.8099 12.1058 25.8877C12.1837 25.9656 12.2275 26.0712 12.2275 26.1814V28.9495C12.2275 29.0596 12.1837 29.1652 12.1058 29.2431C12.028 29.3209 11.9224 29.3647 11.8122 29.3647C11.7021 29.3647 11.5965 29.3209 11.5186 29.2431C11.4408 29.1652 11.397 29.0596 11.397 28.9495ZM9.41892 26.8977C9.64037 26.8385 9.86736 26.9697 9.92715 27.1912L10.3573 28.7956L10.3662 28.8371C10.3832 28.9389 10.3617 29.0433 10.3059 29.1302C10.2501 29.217 10.1639 29.2799 10.0643 29.3066C9.9646 29.3334 9.85854 29.322 9.76676 29.2748C9.67498 29.2276 9.60407 29.148 9.56785 29.0513L9.55511 29.0104L9.12495 27.4065C9.1108 27.3538 9.10716 27.2989 9.11425 27.2448C9.12134 27.1907 9.13901 27.1386 9.16626 27.0913C9.19351 27.0441 9.2298 27.0027 9.27305 26.9695C9.31631 26.9362 9.36624 26.9119 9.41892 26.8977ZM13.5606 29.3027C13.4543 29.2741 13.3637 29.2046 13.3087 29.1093C13.2537 29.014 13.2387 28.9008 13.2672 28.7945L13.6968 27.1895C13.7253 27.083 13.795 26.9923 13.8905 26.9372C13.9859 26.8821 14.0994 26.8672 14.2058 26.8958C14.3123 26.9244 14.403 26.994 14.4581 27.0895C14.5132 27.185 14.5281 27.2984 14.4995 27.4049L14.0688 29.0087C14.0403 29.115 13.9707 29.2056 13.8754 29.2606C13.7801 29.3156 13.6669 29.3311 13.5606 29.3027Z" fill="#E0E7FF"/>
<g clip-path="url(#clip4_2227_13969)">
<path d="M38.3862 32.271C38.533 32.271 38.6739 32.3293 38.7777 32.4331C38.8815 32.5369 38.9398 32.6778 38.9398 32.8246V33.3782C38.9398 33.525 38.8815 33.6659 38.7777 33.7697C38.6739 33.8735 38.533 33.9318 38.3862 33.9318C38.2394 33.9318 38.0986 33.8735 37.9947 33.7697C37.8909 33.6659 37.8326 33.525 37.8326 33.3782V32.8246C37.8326 32.6778 37.8909 32.5369 37.9947 32.4331C38.0986 32.3293 38.2394 32.271 38.3862 32.271ZM41.9095 31.136L42.3009 31.5275C42.4017 31.6319 42.4575 31.7717 42.4563 31.9169C42.455 32.062 42.3968 32.2009 42.2941 32.3035C42.1915 32.4062 42.0526 32.4644 41.9075 32.4657C41.7623 32.4669 41.6225 32.4111 41.5181 32.3103L41.1266 31.9189C41.0258 31.8145 40.97 31.6746 40.9713 31.5294C40.9725 31.3843 41.0307 31.2454 41.1334 31.1428C41.236 31.0401 41.3749 30.9819 41.52 30.9807C41.6652 30.9794 41.805 31.0352 41.9095 31.136ZM34.8629 31.136C34.9626 31.0368 35.0963 30.9791 35.2369 30.9748C35.3774 30.9705 35.5144 31.0199 35.6199 31.1129C35.7254 31.206 35.7915 31.3357 35.8049 31.4757C35.8182 31.6157 35.7778 31.7556 35.6917 31.8668L35.6458 31.9189L35.2544 32.3103C35.1547 32.4096 35.021 32.4672 34.8805 32.4715C34.7399 32.4758 34.6029 32.4264 34.4974 32.3334C34.3919 32.2404 34.3258 32.1107 34.3124 31.9706C34.2991 31.8306 34.3395 31.6908 34.4256 31.5795L34.4715 31.5275L34.8629 31.136ZM38.3862 25.0739C39.2672 25.0739 40.1121 25.4238 40.735 26.0468C41.358 26.6697 41.7079 27.5146 41.7079 28.3956C41.7079 29.2766 41.358 30.1215 40.735 30.7444C40.1121 31.3674 39.2672 31.7173 38.3862 31.7173C37.5052 31.7173 36.6603 31.3674 36.0374 30.7444C35.4144 30.1215 35.0645 29.2766 35.0645 28.3956C35.0645 27.5146 35.4144 26.6697 36.0374 26.0468C36.6603 25.4238 37.5052 25.0739 38.3862 25.0739ZM33.9572 27.842C34.0983 27.8421 34.234 27.8962 34.3367 27.993C34.4393 28.0899 34.501 28.2223 34.5093 28.3632C34.5175 28.504 34.4717 28.6427 34.3811 28.7509C34.2906 28.8591 34.1621 28.9287 34.022 28.9454L33.9572 28.9492H33.4036C33.2625 28.9491 33.1268 28.895 33.0242 28.7982C32.9216 28.7013 32.8598 28.5689 32.8515 28.4281C32.8433 28.2872 32.8891 28.1485 32.9797 28.0403C33.0702 27.9321 33.1987 27.8625 33.3388 27.8459L33.4036 27.842H33.9572ZM43.3688 27.842C43.5156 27.842 43.6565 27.9003 43.7603 28.0041C43.8641 28.108 43.9224 28.2488 43.9224 28.3956C43.9224 28.5424 43.8641 28.6833 43.7603 28.7871C43.6565 28.8909 43.5156 28.9492 43.3688 28.9492H42.8152C42.6684 28.9492 42.5275 28.8909 42.4237 28.7871C42.3199 28.6833 42.2616 28.5424 42.2616 28.3956C42.2616 28.2488 42.3199 28.108 42.4237 28.0041C42.5275 27.9003 42.6684 27.842 42.8152 27.842H43.3688ZM34.4715 24.4809C34.5669 24.3856 34.6937 24.3284 34.8282 24.3199C34.9628 24.3114 35.0958 24.3524 35.2023 24.435L35.2544 24.4809L35.6458 24.8723C35.7451 24.972 35.8027 25.1057 35.807 25.2463C35.8113 25.3868 35.7619 25.5238 35.6689 25.6293C35.5759 25.7348 35.4462 25.8009 35.3061 25.8143C35.1661 25.8276 35.0263 25.7872 34.915 25.7011L34.8629 25.6552L34.4715 25.2638C34.3677 25.1599 34.3094 25.0192 34.3094 24.8723C34.3094 24.7255 34.3677 24.5848 34.4715 24.4809ZM42.3009 24.4809C42.4047 24.5848 42.463 24.7255 42.463 24.8723C42.463 25.0192 42.4047 25.1599 42.3009 25.2638L41.9095 25.6552C41.8584 25.708 41.7973 25.7502 41.7298 25.7792C41.6622 25.8083 41.5896 25.8235 41.5161 25.8242C41.4426 25.8248 41.3696 25.8108 41.3016 25.783C41.2336 25.7551 41.1718 25.714 41.1198 25.662C41.0678 25.6101 41.0267 25.5482 40.9989 25.4802C40.971 25.4122 40.957 25.3393 40.9576 25.2658C40.9583 25.1922 40.9736 25.1196 41.0026 25.0521C41.0316 24.9845 41.0738 24.9234 41.1266 24.8723L41.5181 24.4809C41.6219 24.3771 41.7627 24.3188 41.9095 24.3188C42.0563 24.3188 42.1971 24.3771 42.3009 24.4809ZM38.3862 22.8594C38.533 22.8594 38.6739 22.9177 38.7777 23.0215C38.8815 23.1254 38.9398 23.2662 38.9398 23.413V23.9666C38.9398 24.1135 38.8815 24.2543 38.7777 24.3581C38.6739 24.4619 38.533 24.5202 38.3862 24.5202C38.2394 24.5202 38.0986 24.4619 37.9947 24.3581C37.8909 24.2543 37.8326 24.1135 37.8326 23.9666V23.413C37.8326 23.2662 37.8909 23.1254 37.9947 23.0215C38.0986 22.9177 38.2394 22.8594 38.3862 22.8594Z" fill="#DBEAFE"/>
</g>
<path d="M67.3026 23.6065C67.0294 23.3971 66.6961 23.281 66.352 23.2754C65.7807 23.2621 65.2409 23.5262 64.8639 23.7941C64.1309 23.3462 63.477 23.328 62.9505 23.6297C62.4849 23.8965 62.2059 24.3688 62.0581 24.7635C61.3273 24.8355 60.8446 25.1693 60.5943 25.6615C60.3618 26.1177 60.3662 26.6425 60.4382 27.0588L60.405 27.0937L60.3435 27.1391C60.1055 27.2886 59.9947 27.5654 59.9388 27.7647C59.8744 28.0055 59.8409 28.2535 59.8392 28.5027C59.8358 28.7546 59.8597 29.0176 59.9183 29.2484C59.9715 29.4549 60.0772 29.7328 60.3098 29.8917L63.2107 31.8698L63.2417 31.8992C63.2595 31.9213 63.2705 31.9501 63.2727 31.98L63.2683 32.026C63.2179 32.2336 63.1808 32.5159 63.2606 32.7828C63.3045 32.9352 63.3887 33.0731 63.5042 33.1819C63.6309 33.3004 63.7887 33.3757 63.9648 33.4117L64.2128 33.4582C64.7708 33.5501 65.2021 33.534 65.8 33.4117L65.8665 33.3956C66.0178 33.3573 66.1569 33.2811 66.2706 33.1742C66.3979 33.0524 66.471 32.9062 66.5103 32.7634C66.5657 32.5602 66.5557 32.3487 66.5258 32.1699L66.4915 32.0038C66.4851 31.9772 66.4861 31.9494 66.4944 31.9233C66.5027 31.8973 66.5179 31.874 66.5386 31.856L69.5697 29.8978L69.584 29.8884L69.5968 29.8784C69.8287 29.7002 69.9472 29.42 70.0081 29.1753C70.0729 28.9179 70.0923 28.6273 70.0751 28.3499C70.0607 28.0719 70.0035 27.7978 69.9057 27.5372C69.8127 27.3047 69.6566 27.0445 69.3964 26.9027C69.5148 26.5894 69.5458 26.2882 69.4944 26.0059C69.4408 25.7276 69.313 25.469 69.1245 25.2574C68.8062 24.8909 68.3556 24.6617 67.988 24.5376C67.8101 24.128 67.5816 23.8176 67.3026 23.6065ZM64.545 28.9495V26.1814C64.545 26.0712 64.5887 25.9656 64.6666 25.8877C64.7445 25.8099 64.8501 25.7661 64.9602 25.7661C65.0703 25.7661 65.1759 25.8099 65.2538 25.8877C65.3317 25.9656 65.3754 26.0712 65.3754 26.1814V28.9495C65.3754 29.0596 65.3317 29.1652 65.2538 29.2431C65.1759 29.3209 65.0703 29.3647 64.9602 29.3647C64.8501 29.3647 64.7445 29.3209 64.6666 29.2431C64.5887 29.1652 64.545 29.0596 64.545 28.9495ZM62.5669 26.8977C62.7883 26.8385 63.0153 26.9697 63.0751 27.1912L63.5053 28.7956L63.5141 28.8371C63.5311 28.9389 63.5097 29.0433 63.4538 29.1302C63.398 29.217 63.3119 29.2799 63.2122 29.3066C63.1125 29.3334 63.0065 29.322 62.9147 29.2748C62.8229 29.2276 62.752 29.148 62.7158 29.0513L62.7031 29.0104L62.2729 27.4065C62.2587 27.3538 62.2551 27.2989 62.2622 27.2448C62.2693 27.1907 62.287 27.1386 62.3142 27.0913C62.3415 27.0441 62.3777 27.0027 62.421 26.9695C62.4643 26.9362 62.5142 26.9119 62.5669 26.8977ZM66.7085 29.3027C66.6023 29.2741 66.5117 29.2046 66.4567 29.1093C66.4016 29.014 66.3867 28.9008 66.4151 28.7945L66.8447 27.1895C66.8733 27.083 66.943 26.9923 67.0384 26.9372C67.1339 26.8821 67.2473 26.8672 67.3538 26.8958C67.4602 26.9244 67.551 26.994 67.6061 27.0895C67.6611 27.185 67.676 27.2984 67.6475 27.4049L67.2168 29.0087C67.1882 29.115 67.1187 29.2056 67.0234 29.2606C66.9281 29.3156 66.8148 29.3311 66.7085 29.3027Z" fill="#E0E7FF"/>
<g clip-path="url(#clip5_2227_13969)">
<path d="M91.5342 32.271C91.681 32.271 91.8218 32.3293 91.9256 32.4331C92.0294 32.5369 92.0878 32.6778 92.0878 32.8246V33.3782C92.0878 33.525 92.0294 33.6659 91.9256 33.7697C91.8218 33.8735 91.681 33.9318 91.5342 33.9318C91.3873 33.9318 91.2465 33.8735 91.1427 33.7697C91.0389 33.6659 90.9805 33.525 90.9805 33.3782V32.8246C90.9805 32.6778 91.0389 32.5369 91.1427 32.4331C91.2465 32.3293 91.3873 32.271 91.5342 32.271ZM95.0574 31.136L95.4488 31.5275C95.5497 31.6319 95.6055 31.7717 95.6042 31.9169C95.603 32.062 95.5447 32.2009 95.4421 32.3035C95.3394 32.4062 95.2006 32.4644 95.0554 32.4657C94.9103 32.4669 94.7704 32.4111 94.666 32.3103L94.2746 31.9189C94.1737 31.8145 94.1179 31.6746 94.1192 31.5294C94.1205 31.3843 94.1787 31.2454 94.2813 31.1428C94.384 31.0401 94.5228 30.9819 94.668 30.9807C94.8132 30.9794 94.953 31.0352 95.0574 31.136ZM88.0109 31.136C88.1105 31.0368 88.2442 30.9791 88.3848 30.9748C88.5254 30.9705 88.6624 31.0199 88.7679 31.1129C88.8734 31.206 88.9395 31.3357 88.9528 31.4757C88.9662 31.6157 88.9257 31.7556 88.8397 31.8668L88.7937 31.9189L88.4023 32.3103C88.3027 32.4096 88.169 32.4672 88.0284 32.4715C87.8878 32.4758 87.7509 32.4264 87.6454 32.3334C87.5398 32.2404 87.4737 32.1107 87.4604 31.9706C87.447 31.8306 87.4875 31.6908 87.5735 31.5795L87.6195 31.5275L88.0109 31.136ZM91.5342 25.0739C92.4151 25.0739 93.26 25.4238 93.883 26.0468C94.5059 26.6697 94.8559 27.5146 94.8559 28.3956C94.8559 29.2766 94.5059 30.1215 93.883 30.7444C93.26 31.3674 92.4151 31.7173 91.5342 31.7173C90.6532 31.7173 89.8083 31.3674 89.1853 30.7444C88.5624 30.1215 88.2124 29.2766 88.2124 28.3956C88.2124 27.5146 88.5624 26.6697 89.1853 26.0468C89.8083 25.4238 90.6532 25.0739 91.5342 25.0739ZM87.1052 27.842C87.2463 27.8421 87.382 27.8962 87.4846 27.993C87.5872 28.0899 87.649 28.2223 87.6572 28.3632C87.6655 28.504 87.6197 28.6427 87.5291 28.7509C87.4385 28.8591 87.3101 28.9287 87.1699 28.9454L87.1052 28.9492H86.5515C86.4104 28.9491 86.2747 28.895 86.1721 28.7982C86.0695 28.7013 86.0078 28.5689 85.9995 28.4281C85.9912 28.2872 86.037 28.1485 86.1276 28.0403C86.2182 27.9321 86.3467 27.8625 86.4868 27.8459L86.5515 27.842H87.1052ZM96.5168 27.842C96.6636 27.842 96.8044 27.9003 96.9082 28.0041C97.0121 28.108 97.0704 28.2488 97.0704 28.3956C97.0704 28.5424 97.0121 28.6833 96.9082 28.7871C96.8044 28.8909 96.6636 28.9492 96.5168 28.9492H95.9631C95.8163 28.9492 95.6755 28.8909 95.5717 28.7871C95.4678 28.6833 95.4095 28.5424 95.4095 28.3956C95.4095 28.2488 95.4678 28.108 95.5717 28.0041C95.6755 27.9003 95.8163 27.842 95.9631 27.842H96.5168ZM87.6195 24.4809C87.7148 24.3856 87.8416 24.3284 87.9762 24.3199C88.1107 24.3114 88.2437 24.3524 88.3503 24.435L88.4023 24.4809L88.7937 24.8723C88.893 24.972 88.9507 25.1057 88.955 25.2463C88.9592 25.3868 88.9099 25.5238 88.8168 25.6293C88.7238 25.7348 88.5941 25.8009 88.4541 25.8143C88.3141 25.8276 88.1742 25.7872 88.0629 25.7011L88.0109 25.6552L87.6195 25.2638C87.5157 25.1599 87.4574 25.0192 87.4574 24.8723C87.4574 24.7255 87.5157 24.5848 87.6195 24.4809ZM95.4488 24.4809C95.5526 24.5848 95.6109 24.7255 95.6109 24.8723C95.6109 25.0192 95.5526 25.1599 95.4488 25.2638L95.0574 25.6552C95.0063 25.708 94.9453 25.7502 94.8777 25.7792C94.8102 25.8083 94.7375 25.8235 94.664 25.8242C94.5905 25.8248 94.5176 25.8108 94.4496 25.783C94.3815 25.7551 94.3197 25.714 94.2677 25.662C94.2157 25.6101 94.1746 25.5482 94.1468 25.4802C94.119 25.4122 94.105 25.3393 94.1056 25.2658C94.1062 25.1922 94.1215 25.1196 94.1505 25.0521C94.1795 24.9845 94.2217 24.9234 94.2746 24.8723L94.666 24.4809C94.7698 24.3771 94.9106 24.3188 95.0574 24.3188C95.2042 24.3188 95.345 24.3771 95.4488 24.4809ZM91.5342 22.8594C91.681 22.8594 91.8218 22.9177 91.9256 23.0215C92.0294 23.1254 92.0878 23.2662 92.0878 23.413V23.9666C92.0878 24.1135 92.0294 24.2543 91.9256 24.3581C91.8218 24.4619 91.681 24.5202 91.5342 24.5202C91.3873 24.5202 91.2465 24.4619 91.1427 24.3581C91.0389 24.2543 90.9805 24.1135 90.9805 23.9666V23.413C90.9805 23.2662 91.0389 23.1254 91.1427 23.0215C91.2465 22.9177 91.3873 22.8594 91.5342 22.8594Z" fill="#DBEAFE"/>
</g>
<g clip-path="url(#clip6_2227_13969)">
<path d="M11.8125 54.0996C11.9593 54.0996 12.1001 54.1579 12.2039 54.2617C12.3078 54.3656 12.3661 54.5064 12.3661 54.6532V55.2068C12.3661 55.3537 12.3078 55.4945 12.2039 55.5983C12.1001 55.7021 11.9593 55.7605 11.8125 55.7605C11.6656 55.7605 11.5248 55.7021 11.421 55.5983C11.3172 55.4945 11.2589 55.3537 11.2589 55.2068V54.6532C11.2589 54.5064 11.3172 54.3656 11.421 54.2617C11.5248 54.1579 11.6656 54.0996 11.8125 54.0996ZM15.3357 52.9647L15.7271 53.3561C15.828 53.4605 15.8838 53.6003 15.8825 53.7455C15.8813 53.8906 15.823 54.0295 15.7204 54.1321C15.6178 54.2348 15.4789 54.293 15.3337 54.2943C15.1886 54.2955 15.0487 54.2397 14.9443 54.1389L14.5529 53.7475C14.4521 53.6431 14.3963 53.5032 14.3975 53.3581C14.3988 53.2129 14.457 53.074 14.5597 52.9714C14.6623 52.8688 14.8012 52.8105 14.9463 52.8093C15.0915 52.808 15.2313 52.8638 15.3357 52.9647ZM8.28922 52.9647C8.38885 52.8654 8.52253 52.8077 8.66312 52.8034C8.80372 52.7991 8.94067 52.8485 9.04617 52.9415C9.15168 53.0346 9.21781 53.1643 9.23115 53.3043C9.24449 53.4443 9.20403 53.5842 9.11799 53.6954L9.07204 53.7475L8.68063 54.1389C8.581 54.2382 8.44731 54.2958 8.30672 54.3001C8.16613 54.3044 8.02917 54.255 7.92367 54.162C7.81817 54.069 7.75203 53.9393 7.73869 53.7993C7.72536 53.6592 7.76581 53.5194 7.85185 53.4081L7.8978 53.3561L8.28922 52.9647ZM11.8125 46.9025C12.6935 46.9025 13.5384 47.2524 14.1613 47.8754C14.7842 48.4983 15.1342 49.3432 15.1342 50.2242C15.1342 51.1052 14.7842 51.9501 14.1613 52.573C13.5384 53.196 12.6935 53.546 11.8125 53.546C10.9315 53.546 10.0866 53.196 9.46365 52.573C8.8407 51.9501 8.49074 51.1052 8.49074 50.2242C8.49074 49.3432 8.8407 48.4983 9.46365 47.8754C10.0866 47.2524 10.9315 46.9025 11.8125 46.9025ZM7.38349 49.6706C7.5246 49.6708 7.66032 49.7248 7.76292 49.8217C7.86553 49.9185 7.92728 50.0509 7.93555 50.1918C7.94382 50.3326 7.89798 50.4713 7.80742 50.5796C7.71685 50.6878 7.58838 50.7573 7.44826 50.774L7.38349 50.7778H6.82987C6.68876 50.7777 6.55304 50.7237 6.45043 50.6268C6.34782 50.5299 6.28608 50.3975 6.27781 50.2567C6.26954 50.1158 6.31537 49.9771 6.40594 49.8689C6.4965 49.7607 6.62497 49.6911 6.76509 49.6745L6.82987 49.6706H7.38349ZM16.7951 49.6706C16.9419 49.6706 17.0827 49.7289 17.1866 49.8328C17.2904 49.9366 17.3487 50.0774 17.3487 50.2242C17.3487 50.3711 17.2904 50.5119 17.1866 50.6157C17.0827 50.7195 16.9419 50.7778 16.7951 50.7778H16.2415C16.0946 50.7778 15.9538 50.7195 15.85 50.6157C15.7462 50.5119 15.6878 50.3711 15.6878 50.2242C15.6878 50.0774 15.7462 49.9366 15.85 49.8328C15.9538 49.7289 16.0946 49.6706 16.2415 49.6706H16.7951ZM7.8978 46.3096C7.99313 46.2142 8.11997 46.157 8.25451 46.1485C8.38906 46.14 8.52207 46.181 8.62859 46.2636L8.68063 46.3096L9.07204 46.701C9.17133 46.8006 9.22898 46.9343 9.23327 47.0749C9.23756 47.2155 9.18818 47.3524 9.09515 47.4579C9.00213 47.5634 8.87243 47.6296 8.73241 47.6429C8.59238 47.6562 8.45253 47.6158 8.34126 47.5297L8.28922 47.4838L7.8978 47.0924C7.79402 46.9886 7.73571 46.8478 7.73571 46.701C7.73571 46.5542 7.79402 46.4134 7.8978 46.3096ZM15.7271 46.3096C15.8309 46.4134 15.8892 46.5542 15.8892 46.701C15.8892 46.8478 15.8309 46.9886 15.7271 47.0924L15.3357 47.4838C15.2847 47.5367 15.2236 47.5788 15.156 47.6079C15.0885 47.6369 15.0158 47.6521 14.9423 47.6528C14.8688 47.6534 14.7959 47.6394 14.7279 47.6116C14.6598 47.5837 14.598 47.5426 14.546 47.4906C14.4941 47.4387 14.453 47.3769 14.4251 47.3088C14.3973 47.2408 14.3833 47.1679 14.3839 47.0944C14.3846 47.0209 14.3998 46.9482 14.4288 46.8807C14.4579 46.8131 14.5 46.752 14.5529 46.701L14.9443 46.3096C15.0481 46.2058 15.1889 46.1475 15.3357 46.1475C15.4825 46.1475 15.6233 46.2058 15.7271 46.3096ZM11.8125 44.688C11.9593 44.688 12.1001 44.7463 12.2039 44.8501C12.3078 44.954 12.3661 45.0948 12.3661 45.2416V45.7952C12.3661 45.9421 12.3078 46.0829 12.2039 46.1867C12.1001 46.2905 11.9593 46.3489 11.8125 46.3489C11.6656 46.3489 11.5248 46.2905 11.421 46.1867C11.3172 46.0829 11.2589 45.9421 11.2589 45.7952V45.2416C11.2589 45.0948 11.3172 44.954 11.421 44.8501C11.5248 44.7463 11.6656 44.688 11.8125 44.688Z" fill="#DBEAFE"/>
</g>
<path d="M40.7288 45.4351C40.4557 45.2257 40.1224 45.1096 39.7783 45.104C39.2069 45.0907 38.6671 45.3548 38.2901 45.6227C37.5571 45.1749 36.9033 45.1566 36.3768 45.4583C35.9112 45.7252 35.6322 46.1974 35.4844 46.5921C34.7536 46.6641 34.2708 46.9979 34.0206 47.4901C33.7881 47.9463 33.7925 48.4711 33.8645 48.8875L33.8312 48.9223L33.7698 48.9677C33.5317 49.1172 33.421 49.394 33.3651 49.5933C33.3007 49.8341 33.2672 50.0821 33.2654 50.3313C33.2621 50.5832 33.2859 50.8462 33.3446 51.077C33.3978 51.2835 33.5035 51.5615 33.736 51.7203L36.637 53.6984L36.668 53.7278C36.6857 53.7499 36.6968 53.7787 36.699 53.8086L36.6946 53.8546C36.6442 54.0622 36.6071 54.3445 36.6868 54.6114C36.7308 54.7638 36.8149 54.9017 36.9304 55.0105C37.0572 55.129 37.215 55.2043 37.391 55.2403L37.6391 55.2868C38.1971 55.3787 38.6284 55.3626 39.2263 55.2403L39.2927 55.2242C39.4441 55.1859 39.5832 55.1097 39.6969 55.0028C39.8242 54.881 39.8973 54.7348 39.9366 54.592C39.992 54.3888 39.982 54.1773 39.9521 53.9985L39.9178 53.8324C39.9113 53.8058 39.9123 53.778 39.9206 53.7519C39.9289 53.7259 39.9442 53.7026 39.9648 53.6846L42.9959 51.7264L43.0103 51.717L43.0231 51.7071C43.255 51.5288 43.3735 51.2487 43.4344 51.004C43.4992 50.7465 43.5185 50.4559 43.5014 50.1785C43.4869 49.9005 43.4298 49.6264 43.332 49.3658C43.239 49.1333 43.0828 48.8731 42.8226 48.7313C42.9411 48.418 42.9721 48.1168 42.9206 47.8345C42.8671 47.5562 42.7393 47.2976 42.5508 47.086C42.2325 46.7195 41.7818 46.4903 41.4142 46.3663C41.2363 45.9566 41.0079 45.6462 40.7288 45.4351ZM37.9712 50.7781V48.01C37.9712 47.8998 38.015 47.7942 38.0929 47.7164C38.1707 47.6385 38.2763 47.5947 38.3865 47.5947C38.4966 47.5947 38.6022 47.6385 38.6801 47.7164C38.7579 47.7942 38.8017 47.8998 38.8017 48.01V50.7781C38.8017 50.8882 38.7579 50.9938 38.6801 51.0717C38.6022 51.1496 38.4966 51.1933 38.3865 51.1933C38.2763 51.1933 38.1707 51.1496 38.0929 51.0717C38.015 50.9938 37.9712 50.8882 37.9712 50.7781ZM35.9931 48.7264C36.2146 48.6671 36.4416 48.7983 36.5014 49.0198L36.9315 50.6242L36.9404 50.6657C36.9574 50.7675 36.9359 50.872 36.8801 50.9588C36.8243 51.0456 36.7382 51.1085 36.6385 51.1352C36.5388 51.162 36.4328 51.1507 36.341 51.1035C36.2492 51.0563 36.1783 50.9766 36.1421 50.8799L36.1293 50.839L35.6992 49.2351C35.685 49.1825 35.6814 49.1275 35.6885 49.0734C35.6956 49.0194 35.7132 48.9672 35.7405 48.92C35.7677 48.8727 35.804 48.8313 35.8473 48.7981C35.8905 48.7649 35.9405 48.7405 35.9931 48.7264ZM40.1348 51.1313C40.0285 51.1027 39.9379 51.0332 39.8829 50.9379C39.8279 50.8426 39.813 50.7294 39.8414 50.6231L40.271 49.0181C40.2995 48.9117 40.3692 48.8209 40.4647 48.7658C40.5602 48.7108 40.6736 48.6959 40.78 48.7244C40.8865 48.753 40.9772 48.8227 41.0323 48.9181C41.0874 49.0136 41.1023 49.127 41.0737 49.2335L40.643 50.8373C40.6145 50.9436 40.5449 51.0342 40.4496 51.0892C40.3543 51.1442 40.2411 51.1597 40.1348 51.1313Z" fill="#E0E7FF"/>
<g clip-path="url(#clip7_2227_13969)">
<path d="M64.9604 54.0996C65.1073 54.0996 65.2481 54.1579 65.3519 54.2617C65.4557 54.3656 65.514 54.5064 65.514 54.6532V55.2068C65.514 55.3537 65.4557 55.4945 65.3519 55.5983C65.2481 55.7021 65.1073 55.7605 64.9604 55.7605C64.8136 55.7605 64.6728 55.7021 64.569 55.5983C64.4651 55.4945 64.4068 55.3537 64.4068 55.2068V54.6532C64.4068 54.5064 64.4651 54.3656 64.569 54.2617C64.6728 54.1579 64.8136 54.0996 64.9604 54.0996ZM68.4837 52.9647L68.8751 53.3561C68.9759 53.4605 69.0317 53.6003 69.0305 53.7455C69.0292 53.8906 68.971 54.0295 68.8684 54.1321C68.7657 54.2348 68.6268 54.293 68.4817 54.2943C68.3365 54.2955 68.1967 54.2397 68.0923 54.1389L67.7009 53.7475C67.6 53.6431 67.5442 53.5032 67.5455 53.3581C67.5467 53.2129 67.605 53.074 67.7076 52.9714C67.8102 52.8688 67.9491 52.8105 68.0943 52.8093C68.2394 52.808 68.3793 52.8638 68.4837 52.9647ZM61.4372 52.9647C61.5368 52.8654 61.6705 52.8077 61.8111 52.8034C61.9517 52.7991 62.0886 52.8485 62.1941 52.9415C62.2996 53.0346 62.3658 53.1643 62.3791 53.3043C62.3924 53.4443 62.352 53.5842 62.2659 53.6954L62.22 53.7475L61.8286 54.1389C61.7289 54.2382 61.5953 54.2958 61.4547 54.3001C61.3141 54.3044 61.1771 54.255 61.0716 54.162C60.9661 54.069 60.9 53.9393 60.8866 53.7993C60.8733 53.6592 60.9138 53.5194 60.9998 53.4081L61.0458 53.3561L61.4372 52.9647ZM64.9604 46.9025C65.8414 46.9025 66.6863 47.2524 67.3092 47.8754C67.9322 48.4983 68.2822 49.3432 68.2822 50.2242C68.2822 51.1052 67.9322 51.9501 67.3092 52.573C66.6863 53.196 65.8414 53.546 64.9604 53.546C64.0794 53.546 63.2345 53.196 62.6116 52.573C61.9887 51.9501 61.6387 51.1052 61.6387 50.2242C61.6387 49.3432 61.9887 48.4983 62.6116 47.8754C63.2345 47.2524 64.0794 46.9025 64.9604 46.9025ZM60.5314 49.6706C60.6725 49.6708 60.8083 49.7248 60.9109 49.8217C61.0135 49.9185 61.0752 50.0509 61.0835 50.1918C61.0918 50.3326 61.0459 50.4713 60.9554 50.5796C60.8648 50.6878 60.7363 50.7573 60.5962 50.774L60.5314 50.7778H59.9778C59.8367 50.7777 59.701 50.7237 59.5984 50.6268C59.4958 50.5299 59.434 50.3975 59.4258 50.2567C59.4175 50.1158 59.4633 49.9771 59.5539 49.8689C59.6445 49.7607 59.7729 49.6911 59.913 49.6745L59.9778 49.6706H60.5314ZM69.943 49.6706C70.0899 49.6706 70.2307 49.7289 70.3345 49.8328C70.4383 49.9366 70.4967 50.0774 70.4967 50.2242C70.4967 50.3711 70.4383 50.5119 70.3345 50.6157C70.2307 50.7195 70.0899 50.7778 69.943 50.7778H69.3894C69.2426 50.7778 69.1018 50.7195 68.9979 50.6157C68.8941 50.5119 68.8358 50.3711 68.8358 50.2242C68.8358 50.0774 68.8941 49.9366 68.9979 49.8328C69.1018 49.7289 69.2426 49.6706 69.3894 49.6706H69.943ZM61.0458 46.3096C61.1411 46.2142 61.2679 46.157 61.4025 46.1485C61.537 46.14 61.67 46.181 61.7765 46.2636L61.8286 46.3096L62.22 46.701C62.3193 46.8006 62.3769 46.9343 62.3812 47.0749C62.3855 47.2155 62.3361 47.3524 62.2431 47.4579C62.1501 47.5634 62.0204 47.6296 61.8804 47.6429C61.7403 47.6562 61.6005 47.6158 61.4892 47.5297L61.4372 47.4838L61.0458 47.0924C60.942 46.9886 60.8837 46.8478 60.8837 46.701C60.8837 46.5542 60.942 46.4134 61.0458 46.3096ZM68.8751 46.3096C68.9789 46.4134 69.0372 46.5542 69.0372 46.701C69.0372 46.8478 68.9789 46.9886 68.8751 47.0924L68.4837 47.4838C68.4326 47.5367 68.3715 47.5788 68.304 47.6079C68.2364 47.6369 68.1638 47.6521 68.0903 47.6528C68.0168 47.6534 67.9439 47.6394 67.8758 47.6116C67.8078 47.5837 67.746 47.5426 67.694 47.4906C67.642 47.4387 67.6009 47.3769 67.5731 47.3088C67.5452 47.2408 67.5312 47.1679 67.5319 47.0944C67.5325 47.0209 67.5478 46.9482 67.5768 46.8807C67.6058 46.8131 67.648 46.752 67.7009 46.701L68.0923 46.3096C68.1961 46.2058 68.3369 46.1475 68.4837 46.1475C68.6305 46.1475 68.7713 46.2058 68.8751 46.3096ZM64.9604 44.688C65.1073 44.688 65.2481 44.7463 65.3519 44.8501C65.4557 44.954 65.514 45.0948 65.514 45.2416V45.7952C65.514 45.9421 65.4557 46.0829 65.3519 46.1867C65.2481 46.2905 65.1073 46.3489 64.9604 46.3489C64.8136 46.3489 64.6728 46.2905 64.569 46.1867C64.4651 46.0829 64.4068 45.9421 64.4068 45.7952V45.2416C64.4068 45.0948 64.4651 44.954 64.569 44.8501C64.6728 44.7463 64.8136 44.688 64.9604 44.688Z" fill="#DBEAFE"/>
</g>
<path d="M93.8763 45.4351C93.6031 45.2257 93.2699 45.1096 92.9257 45.104C92.3544 45.0907 91.8146 45.3548 91.4376 45.6227C90.7046 45.1749 90.0508 45.1566 89.5243 45.4583C89.0587 45.7252 88.7796 46.1974 88.6318 46.5921C87.901 46.6641 87.4183 46.9979 87.168 47.4901C86.9355 47.9463 86.94 48.4711 87.0119 48.8875L86.9787 48.9223L86.9173 48.9677C86.6792 49.1172 86.5685 49.394 86.5126 49.5933C86.4481 49.8341 86.4146 50.0821 86.4129 50.3313C86.4096 50.5832 86.4334 50.8462 86.4921 51.077C86.5452 51.2835 86.651 51.5615 86.8835 51.7203L89.7845 53.6984L89.8155 53.7278C89.8332 53.7499 89.8443 53.7787 89.8465 53.8086L89.842 53.8546C89.7917 54.0622 89.7546 54.3445 89.8343 54.6114C89.8783 54.7638 89.9624 54.9017 90.0779 55.0105C90.2047 55.129 90.3624 55.2043 90.5385 55.2403L90.7865 55.2868C91.3446 55.3787 91.7758 55.3626 92.3738 55.2403L92.4402 55.2242C92.5915 55.1859 92.7306 55.1097 92.8443 55.0028C92.9717 54.881 93.0448 54.7348 93.0841 54.592C93.1394 54.3888 93.1295 54.1773 93.0996 53.9985L93.0652 53.8324C93.0588 53.8058 93.0598 53.778 93.0681 53.7519C93.0764 53.7259 93.0917 53.7026 93.1123 53.6846L96.1434 51.7264L96.1578 51.717L96.1705 51.7071C96.4025 51.5288 96.521 51.2487 96.5819 51.004C96.6466 50.7465 96.666 50.4559 96.6488 50.1785C96.6344 49.9005 96.5773 49.6264 96.4794 49.3658C96.3864 49.1333 96.2303 48.8731 95.9701 48.7313C96.0886 48.418 96.1196 48.1168 96.0681 47.8345C96.0145 47.5562 95.8867 47.2976 95.6983 47.086C95.3799 46.7195 94.9293 46.4903 94.5617 46.3663C94.3838 45.9566 94.1553 45.6462 93.8763 45.4351ZM91.1187 50.7781V48.01C91.1187 47.8998 91.1624 47.7942 91.2403 47.7164C91.3182 47.6385 91.4238 47.5947 91.5339 47.5947C91.644 47.5947 91.7497 47.6385 91.8275 47.7164C91.9054 47.7942 91.9491 47.8998 91.9491 48.01V50.7781C91.9491 50.8882 91.9054 50.9938 91.8275 51.0717C91.7497 51.1496 91.644 51.1933 91.5339 51.1933C91.4238 51.1933 91.3182 51.1496 91.2403 51.0717C91.1624 50.9938 91.1187 50.8882 91.1187 50.7781ZM89.1406 48.7264C89.3621 48.6671 89.589 48.7983 89.6488 49.0198L90.079 50.6242L90.0879 50.6657C90.1049 50.7675 90.0834 50.872 90.0276 50.9588C89.9718 51.0456 89.8856 51.1085 89.786 51.1352C89.6863 51.162 89.5802 51.1507 89.4884 51.1035C89.3967 51.0563 89.3258 50.9766 89.2895 50.8799L89.2768 50.839L88.8466 49.2351C88.8325 49.1825 88.8288 49.1275 88.8359 49.0734C88.843 49.0194 88.8607 48.9672 88.8879 48.92C88.9152 48.8727 88.9515 48.8313 88.9947 48.7981C89.038 48.7649 89.0879 48.7405 89.1406 48.7264ZM93.2823 51.1313C93.176 51.1027 93.0854 51.0332 93.0304 50.9379C92.9754 50.8426 92.9604 50.7294 92.9888 50.6231L93.4185 49.0181C93.447 48.9117 93.5167 48.8209 93.6122 48.7658C93.7076 48.7108 93.8211 48.6959 93.9275 48.7244C94.034 48.753 94.1247 48.8227 94.1798 48.9181C94.2349 49.0136 94.2498 49.127 94.2212 49.2335L93.7905 50.8373C93.7619 50.9436 93.6924 51.0342 93.5971 51.0892C93.5018 51.1442 93.3886 51.1597 93.2823 51.1313Z" fill="#E0E7FF"/>
<path d="M14.1546 67.2632C13.8814 67.0538 13.5482 66.9377 13.204 66.9321C12.6327 66.9188 12.0929 67.1829 11.7159 67.4509C10.9829 67.003 10.3291 66.9847 9.80258 67.2864C9.33699 67.5533 9.05796 68.0255 8.91014 68.4203C8.17936 68.4922 7.6966 68.8261 7.44636 69.3182C7.21384 69.7744 7.21827 70.2993 7.29024 70.7156L7.25702 70.7505L7.19557 70.7959C6.95751 70.9453 6.84679 71.2221 6.79087 71.4215C6.72645 71.6622 6.69296 71.9102 6.69122 72.1594C6.6879 72.4113 6.71171 72.6743 6.77039 72.9052C6.82354 73.1117 6.92928 73.3896 7.1618 73.5485L10.0628 75.5266L10.0938 75.5559C10.1115 75.5781 10.1226 75.6068 10.1248 75.6367L10.1204 75.6827C10.07 75.8903 10.0329 76.1726 10.1126 76.4395C10.1566 76.592 10.2407 76.7298 10.3562 76.8387C10.483 76.9571 10.6408 77.0324 10.8168 77.0684L11.0648 77.1149C11.6229 77.2068 12.0542 77.1908 12.6521 77.0684L12.7185 77.0524C12.8699 77.0141 13.0089 76.9378 13.1227 76.8309C13.25 76.7091 13.3231 76.563 13.3624 76.4201C13.4177 76.2169 13.4078 76.0055 13.3779 75.8266L13.3436 75.6605C13.3371 75.634 13.3381 75.6061 13.3464 75.5801C13.3547 75.554 13.37 75.5307 13.3906 75.5127L16.4217 73.5546L16.4361 73.5452L16.4488 73.5352C16.6808 73.3569 16.7993 73.0768 16.8602 72.8321C16.9249 72.5747 16.9443 72.284 16.9272 72.0066C16.9127 71.7286 16.8556 71.4545 16.7578 71.1939C16.6647 70.9614 16.5086 70.7012 16.2484 70.5595C16.3669 70.2461 16.3979 69.9449 16.3464 69.6626C16.2928 69.3843 16.1651 69.1257 15.9766 68.9141C15.6583 68.5476 15.2076 68.3184 14.84 68.1944C14.6621 67.7847 14.4336 67.4743 14.1546 67.2632ZM11.397 72.6062V69.8381C11.397 69.728 11.4408 69.6224 11.5186 69.5445C11.5965 69.4666 11.7021 69.4229 11.8122 69.4229C11.9224 69.4229 12.028 69.4666 12.1058 69.5445C12.1837 69.6224 12.2275 69.728 12.2275 69.8381V72.6062C12.2275 72.7163 12.1837 72.8219 12.1058 72.8998C12.028 72.9777 11.9224 73.0214 11.8122 73.0214C11.7021 73.0214 11.5965 72.9777 11.5186 72.8998C11.4408 72.8219 11.397 72.7163 11.397 72.6062ZM9.41892 70.5545C9.64037 70.4952 9.86736 70.6265 9.92715 70.8479L10.3573 72.4523L10.3662 72.4938C10.3832 72.5956 10.3617 72.7001 10.3059 72.7869C10.2501 72.8737 10.1639 72.9366 10.0643 72.9634C9.9646 72.9901 9.85854 72.9788 9.76676 72.9316C9.67498 72.8844 9.60407 72.8047 9.56785 72.7081L9.55511 72.6671L9.12495 71.0633C9.1108 71.0106 9.10716 70.9556 9.11425 70.9016C9.12134 70.8475 9.13901 70.7953 9.16626 70.7481C9.19351 70.7008 9.2298 70.6594 9.27305 70.6262C9.31631 70.593 9.36624 70.5686 9.41892 70.5545ZM13.5606 72.9594C13.4543 72.9309 13.3637 72.8613 13.3087 72.766C13.2537 72.6707 13.2387 72.5575 13.2672 72.4512L13.6968 70.8462C13.7253 70.7398 13.795 70.649 13.8905 70.594C13.9859 70.5389 14.0994 70.524 14.2058 70.5525C14.3123 70.5811 14.403 70.6508 14.4581 70.7462C14.5132 70.8417 14.5281 70.9551 14.4995 71.0616L14.0688 72.6654C14.0403 72.7717 13.9707 72.8623 13.8754 72.9173C13.7801 72.9723 13.6669 72.9878 13.5606 72.9594Z" fill="#E0E7FF"/>
<g clip-path="url(#clip8_2227_13969)">
<path d="M38.3862 75.9282C38.533 75.9282 38.6739 75.9865 38.7777 76.0904C38.8815 76.1942 38.9398 76.335 38.9398 76.4818V77.0354C38.9398 77.1823 38.8815 77.3231 38.7777 77.4269C38.6739 77.5307 38.533 77.5891 38.3862 77.5891C38.2394 77.5891 38.0986 77.5307 37.9947 77.4269C37.8909 77.3231 37.8326 77.1823 37.8326 77.0354V76.4818C37.8326 76.335 37.8909 76.1942 37.9947 76.0904C38.0986 75.9865 38.2394 75.9282 38.3862 75.9282ZM41.9095 74.7933L42.3009 75.1847C42.4017 75.2891 42.4575 75.4289 42.4563 75.5741C42.455 75.7193 42.3968 75.8581 42.2941 75.9608C42.1915 76.0634 42.0526 76.1216 41.9075 76.1229C41.7623 76.1242 41.6225 76.0684 41.5181 75.9675L41.1266 75.5761C41.0258 75.4717 40.97 75.3318 40.9713 75.1867C40.9725 75.0415 41.0307 74.9027 41.1334 74.8C41.236 74.6974 41.3749 74.6391 41.52 74.6379C41.6652 74.6366 41.805 74.6924 41.9095 74.7933ZM34.8629 74.7933C34.9626 74.694 35.0963 74.6363 35.2369 74.632C35.3774 74.6277 35.5144 74.6771 35.6199 74.7702C35.7254 74.8632 35.7915 74.9929 35.8049 75.1329C35.8182 75.2729 35.7778 75.4128 35.6917 75.5241L35.6458 75.5761L35.2544 75.9675C35.1547 76.0668 35.021 76.1244 34.8805 76.1287C34.7399 76.133 34.6029 76.0836 34.4974 75.9906C34.3919 75.8976 34.3258 75.7679 34.3124 75.6279C34.2991 75.4878 34.3395 75.348 34.4256 75.2367L34.4715 75.1847L34.8629 74.7933ZM38.3862 68.7311C39.2672 68.7311 40.1121 69.0811 40.735 69.704C41.358 70.327 41.7079 71.1719 41.7079 72.0528C41.7079 72.9338 41.358 73.7787 40.735 74.4017C40.1121 75.0246 39.2672 75.3746 38.3862 75.3746C37.5052 75.3746 36.6603 75.0246 36.0374 74.4017C35.4144 73.7787 35.0645 72.9338 35.0645 72.0528C35.0645 71.1719 35.4144 70.327 36.0374 69.704C36.6603 69.0811 37.5052 68.7311 38.3862 68.7311ZM33.9572 71.4992C34.0983 71.4994 34.234 71.5534 34.3367 71.6503C34.4393 71.7471 34.501 71.8795 34.5093 72.0204C34.5175 72.1613 34.4717 72.3 34.3811 72.4082C34.2906 72.5164 34.1621 72.5859 34.022 72.6026L33.9572 72.6065H33.4036C33.2625 72.6063 33.1268 72.5523 33.0242 72.4554C32.9216 72.3585 32.8598 72.2261 32.8515 72.0853C32.8433 71.9444 32.8891 71.8057 32.9797 71.6975C33.0702 71.5893 33.1987 71.5198 33.3388 71.5031L33.4036 71.4992H33.9572ZM43.3688 71.4992C43.5156 71.4992 43.6565 71.5575 43.7603 71.6614C43.8641 71.7652 43.9224 71.906 43.9224 72.0528C43.9224 72.1997 43.8641 72.3405 43.7603 72.4443C43.6565 72.5481 43.5156 72.6065 43.3688 72.6065H42.8152C42.6684 72.6065 42.5275 72.5481 42.4237 72.4443C42.3199 72.3405 42.2616 72.1997 42.2616 72.0528C42.2616 71.906 42.3199 71.7652 42.4237 71.6614C42.5275 71.5575 42.6684 71.4992 42.8152 71.4992H43.3688ZM34.4715 68.1382C34.5669 68.0428 34.6937 67.9856 34.8282 67.9771C34.9628 67.9687 35.0958 68.0096 35.2023 68.0922L35.2544 68.1382L35.6458 68.5296C35.7451 68.6292 35.8027 68.7629 35.807 68.9035C35.8113 69.0441 35.7619 69.181 35.6689 69.2865C35.5759 69.392 35.4462 69.4582 35.3061 69.4715C35.1661 69.4848 35.0263 69.4444 34.915 69.3584L34.8629 69.3124L34.4715 68.921C34.3677 68.8172 34.3094 68.6764 34.3094 68.5296C34.3094 68.3828 34.3677 68.242 34.4715 68.1382ZM42.3009 68.1382C42.4047 68.242 42.463 68.3828 42.463 68.5296C42.463 68.6764 42.4047 68.8172 42.3009 68.921L41.9095 69.3124C41.8584 69.3653 41.7973 69.4075 41.7298 69.4365C41.6622 69.4655 41.5896 69.4808 41.5161 69.4814C41.4426 69.482 41.3696 69.468 41.3016 69.4402C41.2336 69.4124 41.1718 69.3712 41.1198 69.3193C41.0678 69.2673 41.0267 69.2055 40.9989 69.1374C40.971 69.0694 40.957 68.9965 40.9576 68.923C40.9583 68.8495 40.9736 68.7768 41.0026 68.7093C41.0316 68.6417 41.0738 68.5806 41.1266 68.5296L41.5181 68.1382C41.6219 68.0344 41.7627 67.9761 41.9095 67.9761C42.0563 67.9761 42.1971 68.0344 42.3009 68.1382ZM38.3862 66.5166C38.533 66.5166 38.6739 66.5749 38.7777 66.6788C38.8815 66.7826 38.9398 66.9234 38.9398 67.0702V67.6238C38.9398 67.7707 38.8815 67.9115 38.7777 68.0153C38.6739 68.1191 38.533 68.1775 38.3862 68.1775C38.2394 68.1775 38.0986 68.1191 37.9947 68.0153C37.8909 67.9115 37.8326 67.7707 37.8326 67.6238V67.0702C37.8326 66.9234 37.8909 66.7826 37.9947 66.6788C38.0986 66.5749 38.2394 66.5166 38.3862 66.5166Z" fill="#DBEAFE"/>
</g>
<path d="M67.3026 67.2632C67.0294 67.0538 66.6961 66.9377 66.352 66.9321C65.7807 66.9188 65.2409 67.1829 64.8639 67.4509C64.1309 67.003 63.477 66.9847 62.9505 67.2864C62.4849 67.5533 62.2059 68.0255 62.0581 68.4203C61.3273 68.4922 60.8446 68.8261 60.5943 69.3182C60.3618 69.7744 60.3662 70.2993 60.4382 70.7156L60.405 70.7505L60.3435 70.7959C60.1055 70.9453 59.9947 71.2221 59.9388 71.4215C59.8744 71.6622 59.8409 71.9102 59.8392 72.1594C59.8358 72.4113 59.8597 72.6743 59.9183 72.9052C59.9715 73.1117 60.0772 73.3896 60.3098 73.5485L63.2107 75.5266L63.2417 75.5559C63.2595 75.5781 63.2705 75.6068 63.2727 75.6367L63.2683 75.6827C63.2179 75.8903 63.1808 76.1726 63.2606 76.4395C63.3045 76.592 63.3887 76.7298 63.5042 76.8387C63.6309 76.9571 63.7887 77.0324 63.9648 77.0684L64.2128 77.1149C64.7708 77.2068 65.2021 77.1908 65.8 77.0684L65.8665 77.0524C66.0178 77.0141 66.1569 76.9378 66.2706 76.8309C66.3979 76.7091 66.471 76.563 66.5103 76.4201C66.5657 76.2169 66.5557 76.0055 66.5258 75.8266L66.4915 75.6605C66.4851 75.634 66.4861 75.6061 66.4944 75.5801C66.5027 75.554 66.5179 75.5307 66.5386 75.5127L69.5697 73.5546L69.584 73.5452L69.5968 73.5352C69.8287 73.3569 69.9472 73.0768 70.0081 72.8321C70.0729 72.5747 70.0923 72.284 70.0751 72.0066C70.0607 71.7286 70.0035 71.4545 69.9057 71.1939C69.8127 70.9614 69.6566 70.7012 69.3964 70.5595C69.5148 70.2461 69.5458 69.9449 69.4944 69.6626C69.4408 69.3843 69.313 69.1257 69.1245 68.9141C68.8062 68.5476 68.3556 68.3184 67.988 68.1944C67.8101 67.7847 67.5816 67.4743 67.3026 67.2632ZM64.545 72.6062V69.8381C64.545 69.728 64.5887 69.6224 64.6666 69.5445C64.7445 69.4666 64.8501 69.4229 64.9602 69.4229C65.0703 69.4229 65.1759 69.4666 65.2538 69.5445C65.3317 69.6224 65.3754 69.728 65.3754 69.8381V72.6062C65.3754 72.7163 65.3317 72.8219 65.2538 72.8998C65.1759 72.9777 65.0703 73.0214 64.9602 73.0214C64.8501 73.0214 64.7445 72.9777 64.6666 72.8998C64.5887 72.8219 64.545 72.7163 64.545 72.6062ZM62.5669 70.5545C62.7883 70.4952 63.0153 70.6265 63.0751 70.8479L63.5053 72.4523L63.5141 72.4938C63.5311 72.5956 63.5097 72.7001 63.4538 72.7869C63.398 72.8737 63.3119 72.9366 63.2122 72.9634C63.1125 72.9901 63.0065 72.9788 62.9147 72.9316C62.8229 72.8844 62.752 72.8047 62.7158 72.7081L62.7031 72.6671L62.2729 71.0633C62.2587 71.0106 62.2551 70.9556 62.2622 70.9016C62.2693 70.8475 62.287 70.7953 62.3142 70.7481C62.3415 70.7008 62.3777 70.6594 62.421 70.6262C62.4643 70.593 62.5142 70.5686 62.5669 70.5545ZM66.7085 72.9594C66.6023 72.9309 66.5117 72.8613 66.4567 72.766C66.4016 72.6707 66.3867 72.5575 66.4151 72.4512L66.8447 70.8462C66.8733 70.7398 66.943 70.649 67.0384 70.594C67.1339 70.5389 67.2473 70.524 67.3538 70.5525C67.4602 70.5811 67.551 70.6508 67.6061 70.7462C67.6611 70.8417 67.676 70.9551 67.6475 71.0616L67.2168 72.6654C67.1882 72.7717 67.1187 72.8623 67.0234 72.9173C66.9281 72.9723 66.8148 72.9878 66.7085 72.9594Z" fill="#E0E7FF"/>
<g clip-path="url(#clip9_2227_13969)">
<path d="M91.5342 75.9282C91.681 75.9282 91.8218 75.9865 91.9256 76.0904C92.0294 76.1942 92.0878 76.335 92.0878 76.4818V77.0354C92.0878 77.1823 92.0294 77.3231 91.9256 77.4269C91.8218 77.5307 91.681 77.5891 91.5342 77.5891C91.3873 77.5891 91.2465 77.5307 91.1427 77.4269C91.0389 77.3231 90.9805 77.1823 90.9805 77.0354V76.4818C90.9805 76.335 91.0389 76.1942 91.1427 76.0904C91.2465 75.9865 91.3873 75.9282 91.5342 75.9282ZM95.0574 74.7933L95.4488 75.1847C95.5497 75.2891 95.6055 75.4289 95.6042 75.5741C95.603 75.7193 95.5447 75.8581 95.4421 75.9608C95.3394 76.0634 95.2006 76.1216 95.0554 76.1229C94.9103 76.1242 94.7704 76.0684 94.666 75.9675L94.2746 75.5761C94.1737 75.4717 94.1179 75.3318 94.1192 75.1867C94.1205 75.0415 94.1787 74.9027 94.2813 74.8C94.384 74.6974 94.5228 74.6391 94.668 74.6379C94.8132 74.6366 94.953 74.6924 95.0574 74.7933ZM88.0109 74.7933C88.1105 74.694 88.2442 74.6363 88.3848 74.632C88.5254 74.6277 88.6624 74.6771 88.7679 74.7702C88.8734 74.8632 88.9395 74.9929 88.9528 75.1329C88.9662 75.2729 88.9257 75.4128 88.8397 75.5241L88.7937 75.5761L88.4023 75.9675C88.3027 76.0668 88.169 76.1244 88.0284 76.1287C87.8878 76.133 87.7509 76.0836 87.6454 75.9906C87.5398 75.8976 87.4737 75.7679 87.4604 75.6279C87.447 75.4878 87.4875 75.348 87.5735 75.2367L87.6195 75.1847L88.0109 74.7933ZM91.5342 68.7311C92.4151 68.7311 93.26 69.0811 93.883 69.704C94.5059 70.327 94.8559 71.1719 94.8559 72.0528C94.8559 72.9338 94.5059 73.7787 93.883 74.4017C93.26 75.0246 92.4151 75.3746 91.5342 75.3746C90.6532 75.3746 89.8083 75.0246 89.1853 74.4017C88.5624 73.7787 88.2124 72.9338 88.2124 72.0528C88.2124 71.1719 88.5624 70.327 89.1853 69.704C89.8083 69.0811 90.6532 68.7311 91.5342 68.7311ZM87.1052 71.4992C87.2463 71.4994 87.382 71.5534 87.4846 71.6503C87.5872 71.7471 87.649 71.8795 87.6572 72.0204C87.6655 72.1613 87.6197 72.3 87.5291 72.4082C87.4385 72.5164 87.3101 72.5859 87.1699 72.6026L87.1052 72.6065H86.5515C86.4104 72.6063 86.2747 72.5523 86.1721 72.4554C86.0695 72.3585 86.0078 72.2261 85.9995 72.0853C85.9912 71.9444 86.037 71.8057 86.1276 71.6975C86.2182 71.5893 86.3467 71.5198 86.4868 71.5031L86.5515 71.4992H87.1052ZM96.5168 71.4992C96.6636 71.4992 96.8044 71.5575 96.9082 71.6614C97.0121 71.7652 97.0704 71.906 97.0704 72.0528C97.0704 72.1997 97.0121 72.3405 96.9082 72.4443C96.8044 72.5481 96.6636 72.6065 96.5168 72.6065H95.9631C95.8163 72.6065 95.6755 72.5481 95.5717 72.4443C95.4678 72.3405 95.4095 72.1997 95.4095 72.0528C95.4095 71.906 95.4678 71.7652 95.5717 71.6614C95.6755 71.5575 95.8163 71.4992 95.9631 71.4992H96.5168ZM87.6195 68.1382C87.7148 68.0428 87.8416 67.9856 87.9762 67.9771C88.1107 67.9687 88.2437 68.0096 88.3503 68.0922L88.4023 68.1382L88.7937 68.5296C88.893 68.6292 88.9507 68.7629 88.955 68.9035C88.9592 69.0441 88.9099 69.181 88.8168 69.2865C88.7238 69.392 88.5941 69.4582 88.4541 69.4715C88.3141 69.4848 88.1742 69.4444 88.0629 69.3584L88.0109 69.3124L87.6195 68.921C87.5157 68.8172 87.4574 68.6764 87.4574 68.5296C87.4574 68.3828 87.5157 68.242 87.6195 68.1382ZM95.4488 68.1382C95.5526 68.242 95.6109 68.3828 95.6109 68.5296C95.6109 68.6764 95.5526 68.8172 95.4488 68.921L95.0574 69.3124C95.0063 69.3653 94.9453 69.4075 94.8777 69.4365C94.8102 69.4655 94.7375 69.4808 94.664 69.4814C94.5905 69.482 94.5176 69.468 94.4496 69.4402C94.3815 69.4124 94.3197 69.3712 94.2677 69.3193C94.2157 69.2673 94.1746 69.2055 94.1468 69.1374C94.119 69.0694 94.105 68.9965 94.1056 68.923C94.1062 68.8495 94.1215 68.7768 94.1505 68.7093C94.1795 68.6417 94.2217 68.5806 94.2746 68.5296L94.666 68.1382C94.7698 68.0344 94.9106 67.9761 95.0574 67.9761C95.2042 67.9761 95.345 68.0344 95.4488 68.1382ZM91.5342 66.5166C91.681 66.5166 91.8218 66.5749 91.9256 66.6788C92.0294 66.7826 92.0878 66.9234 92.0878 67.0702V67.6238C92.0878 67.7707 92.0294 67.9115 91.9256 68.0153C91.8218 68.1191 91.681 68.1775 91.5342 68.1775C91.3873 68.1775 91.2465 68.1191 91.1427 68.0153C91.0389 67.9115 90.9805 67.7707 90.9805 67.6238V67.0702C90.9805 66.9234 91.0389 66.7826 91.1427 66.6788C91.2465 66.5749 91.3873 66.5166 91.5342 66.5166Z" fill="#DBEAFE"/>
</g>
</g>
</g>
</g>
<defs>
<clipPath id="clip0_2227_13969">
<rect width="100" height="78" rx="4" fill="white"/>
</clipPath>
<clipPath id="clip1_2227_13969">
<rect width="185.068" height="154.224" fill="white" transform="translate(-1 -1.5)"/>
</clipPath>
<clipPath id="clip2_2227_13969">
<rect width="13.287" height="13.287" fill="white" transform="translate(5.16895 -0.0761719)"/>
</clipPath>
<clipPath id="clip3_2227_13969">
<rect width="13.287" height="13.287" fill="white" transform="translate(58.3169 -0.0761719)"/>
</clipPath>
<clipPath id="clip4_2227_13969">
<rect width="13.287" height="13.287" fill="white" transform="translate(31.7427 21.752)"/>
</clipPath>
<clipPath id="clip5_2227_13969">
<rect width="13.287" height="13.287" fill="white" transform="translate(84.8906 21.752)"/>
</clipPath>
<clipPath id="clip6_2227_13969">
<rect width="13.287" height="13.287" fill="white" transform="translate(5.16895 43.5806)"/>
</clipPath>
<clipPath id="clip7_2227_13969">
<rect width="13.287" height="13.287" fill="white" transform="translate(58.3169 43.5806)"/>
</clipPath>
<clipPath id="clip8_2227_13969">
<rect width="13.287" height="13.287" fill="white" transform="translate(31.7427 65.4092)"/>
</clipPath>
<clipPath id="clip9_2227_13969">
<rect width="13.287" height="13.287" fill="white" transform="translate(84.8906 65.4092)"/>
</clipPath>
</defs>
</svg>
