<svg width="100" height="78" viewBox="0 0 100 78" fill="none" xmlns="http://www.w3.org/2000/svg">
<g clip-path="url(#clip0_2986_15737)">
<rect width="100.714" height="83.9287" transform="translate(0 -2.96436)" fill="#FEFCE8"/>
<g opacity="0.4">
<path fill-rule="evenodd" clip-rule="evenodd" d="M13.3198 11.4717C13.3198 10.6293 14.0028 9.94727 14.8442 9.94727H22.5272C23.3696 9.94727 24.0516 10.6293 24.0516 11.4717V13.8062H24.2711C24.8722 13.8062 25.36 14.294 25.36 14.895V17.8437C25.36 18.4012 24.9419 18.8602 24.4018 18.9247C24.4276 18.6225 24.3903 18.3183 24.2922 18.0313C24.1942 17.7444 24.0375 17.4809 23.8322 17.2577C23.6269 17.0345 23.3774 16.8565 23.0996 16.7349C22.8218 16.6132 22.5218 16.5507 22.2185 16.5513C21.9152 16.5518 21.6154 16.6154 21.338 16.738C21.0607 16.8606 20.8118 17.0396 20.6073 17.2635C20.4028 17.4875 20.2471 17.7515 20.1501 18.0388C20.0531 18.3261 20.0169 18.6305 20.0437 18.9325H18.2084C18.2331 18.6436 18.2002 18.3525 18.1114 18.0764C18.0227 17.8003 17.8799 17.5446 17.6914 17.3242C17.5029 17.1037 17.2725 16.923 17.0135 16.7925C16.7545 16.6619 16.4721 16.5842 16.1828 16.5638C15.8935 16.5434 15.603 16.5808 15.3283 16.6737C15.0535 16.7666 14.8 16.9133 14.5825 17.1051C14.3649 17.2969 14.1877 17.53 14.0611 17.791C13.9345 18.0519 13.8611 18.3354 13.8451 18.625C13.6808 18.4942 13.5483 18.3279 13.4573 18.1386C13.3664 17.9493 13.3194 17.7418 13.3198 17.5318V11.4717ZM14.8442 12.1023C14.7865 12.1023 14.7311 12.1253 14.6902 12.1661C14.6494 12.207 14.6265 12.2623 14.6265 12.3201V13.8445H16.38V12.1023H14.8442ZM17.6866 12.1023V13.8445H19.6317V12.1023H17.6866ZM22.7459 13.8445H20.9375V12.1023H22.5272C22.585 12.1023 22.6404 12.1253 22.6812 12.1661C22.722 12.207 22.745 12.2623 22.745 12.3201L22.7459 13.8445ZM17.1273 18.74C17.1315 18.8868 17.1061 19.0329 17.0528 19.1698C16.9995 19.3066 16.9193 19.4314 16.8169 19.5366C16.7145 19.6419 16.5921 19.7256 16.4568 19.7828C16.3216 19.8399 16.1762 19.8694 16.0293 19.8694C15.8825 19.8694 15.7371 19.8399 15.6019 19.7828C15.4666 19.7256 15.3441 19.6419 15.2418 19.5366C15.1394 19.4314 15.0592 19.3066 15.0059 19.1698C14.9525 19.0329 14.9272 18.8868 14.9313 18.74C14.9394 18.4542 15.0586 18.1827 15.2636 17.9834C15.4687 17.784 15.7434 17.6725 16.0293 17.6725C16.3153 17.6725 16.59 17.784 16.795 17.9834C17.0001 18.1827 17.1193 18.4542 17.1273 18.74ZM23.3208 18.74C23.3208 19.0313 23.205 19.3107 22.9991 19.5167C22.7931 19.7227 22.5137 19.8385 22.2223 19.8385C21.931 19.8385 21.6516 19.7227 21.4456 19.5167C21.2396 19.3107 21.1239 19.0313 21.1239 18.74C21.1239 18.4487 21.2396 18.1693 21.4456 17.9633C21.6516 17.7573 21.931 17.6416 22.2223 17.6416C22.5137 17.6416 22.7931 17.7573 22.9991 17.9633C23.205 18.1693 23.3208 18.4487 23.3208 18.74Z" fill="#FFE37D"/>
<path d="M55.5596 11.367L53.0577 8.86454C52.9745 8.78132 52.8757 8.71531 52.767 8.67027C52.6583 8.62523 52.5418 8.60205 52.4241 8.60205C52.3064 8.60205 52.1899 8.62523 52.0812 8.67027C51.9725 8.71531 51.8737 8.78132 51.7905 8.86454L44.8857 15.7699C44.8021 15.8528 44.7359 15.9515 44.6908 16.0602C44.6457 16.1689 44.6227 16.2855 44.6231 16.4032V18.9057C44.6231 19.1433 44.7174 19.3712 44.8855 19.5392C45.0535 19.7072 45.2814 19.8016 45.519 19.8016H48.0214C48.1391 19.802 48.2557 19.779 48.3645 19.7339C48.4732 19.6888 48.5719 19.6226 48.6547 19.539L55.5596 12.6342C55.6428 12.551 55.7088 12.4522 55.7538 12.3435C55.7989 12.2348 55.8221 12.1182 55.8221 12.0006C55.8221 11.8829 55.7989 11.7664 55.7538 11.6577C55.7088 11.549 55.6428 11.4502 55.5596 11.367ZM45.7043 16.2179L50.7635 11.1587L51.6976 12.0932L46.6389 17.1519L45.7043 16.2179ZM45.519 17.2992L47.1255 18.9057H45.519V17.2992ZM48.2068 18.7203L47.2722 17.7858L52.3314 12.7266L53.2654 13.6611L48.2068 18.7203Z" fill="#FFE37D"/>
<path fill-rule="evenodd" clip-rule="evenodd" d="M74.7554 11.4717C74.7554 10.6293 75.4383 9.94727 76.2798 9.94727H83.9628C84.8051 9.94727 85.4872 10.6293 85.4872 11.4717V13.8062H85.7067C86.3077 13.8062 86.7955 14.294 86.7955 14.895V17.8437C86.7955 18.4012 86.3774 18.8602 85.8373 18.9247C85.8631 18.6225 85.8258 18.3183 85.7278 18.0313C85.6297 17.7444 85.4731 17.4809 85.2678 17.2577C85.0625 17.0345 84.813 16.8565 84.5352 16.7349C84.2574 16.6132 83.9573 16.5507 83.654 16.5513C83.3508 16.5518 83.051 16.6154 82.7736 16.738C82.4962 16.8606 82.2474 17.0396 82.0429 17.2635C81.8384 17.4875 81.6827 17.7515 81.5856 18.0388C81.4886 18.3261 81.4524 18.6305 81.4793 18.9325H79.6439C79.6687 18.6436 79.6357 18.3525 79.547 18.0764C79.4583 17.8003 79.3155 17.5446 79.127 17.3242C78.9385 17.1037 78.708 16.923 78.449 16.7925C78.1901 16.6619 77.9077 16.5842 77.6184 16.5638C77.3291 16.5434 77.0386 16.5808 76.7638 16.6737C76.4891 16.7666 76.2356 16.9133 76.018 17.1051C75.8005 17.2969 75.6233 17.53 75.4967 17.791C75.3701 18.0519 75.2966 18.3354 75.2806 18.625C75.1164 18.4942 74.9838 18.3279 74.8929 18.1386C74.8019 17.9493 74.7549 17.7418 74.7554 17.5318V11.4717ZM76.2798 12.1023C76.222 12.1023 76.1666 12.1253 76.1258 12.1661C76.0849 12.207 76.062 12.2623 76.062 12.3201V13.8445H77.8155V12.1023H76.2798ZM79.1221 12.1023V13.8445H81.0673V12.1023H79.1221ZM84.1814 13.8445H82.373V12.1023H83.9628C84.0205 12.1023 84.0759 12.1253 84.1168 12.1661C84.1576 12.207 84.1805 12.2623 84.1805 12.3201L84.1814 13.8445ZM78.5629 18.74C78.567 18.8868 78.5417 19.0329 78.4884 19.1698C78.435 19.3066 78.3548 19.4314 78.2525 19.5366C78.1501 19.6419 78.0277 19.7256 77.8924 19.7828C77.7571 19.8399 77.6117 19.8694 77.4649 19.8694C77.318 19.8694 77.1727 19.8399 77.0374 19.7828C76.9021 19.7256 76.7797 19.6419 76.6773 19.5366C76.5749 19.4314 76.4947 19.3066 76.4414 19.1698C76.3881 19.0329 76.3628 18.8868 76.3669 18.74C76.3749 18.4542 76.4942 18.1827 76.6992 17.9834C76.9042 17.784 77.1789 17.6725 77.4649 17.6725C77.7509 17.6725 78.0256 17.784 78.2306 17.9834C78.4356 18.1827 78.5548 18.4542 78.5629 18.74ZM84.7563 18.74C84.7563 19.0313 84.6406 19.3107 84.4346 19.5167C84.2286 19.7227 83.9492 19.8385 83.6579 19.8385C83.3666 19.8385 83.0872 19.7227 82.8812 19.5167C82.6752 19.3107 82.5594 19.0313 82.5594 18.74C82.5594 18.4487 82.6752 18.1693 82.8812 17.9633C83.0872 17.7573 83.3666 17.6416 83.6579 17.6416C83.9492 17.6416 84.2286 17.7573 84.4346 17.9633C84.6406 18.1693 84.7563 18.4487 84.7563 18.74Z" fill="#FFE37D"/>
<path d="M24.8423 35.9407L22.3404 33.4383C22.2572 33.355 22.1584 33.289 22.0497 33.244C21.941 33.199 21.8245 33.1758 21.7068 33.1758C21.5891 33.1758 21.4726 33.199 21.3639 33.244C21.2552 33.289 21.1564 33.355 21.0732 33.4383L14.1684 40.3437C14.0848 40.4266 14.0186 40.5252 13.9735 40.634C13.9284 40.7427 13.9054 40.8593 13.9058 40.977V43.4794C13.9058 43.717 14.0002 43.9449 14.1682 44.1129C14.3362 44.281 14.5641 44.3754 14.8017 44.3754H17.3041C17.4218 44.3757 17.5384 44.3527 17.6472 44.3076C17.7559 44.2625 17.8546 44.1963 17.9375 44.1127L24.8423 37.2079C24.9255 37.1247 24.9915 37.0259 25.0366 36.9172C25.0816 36.8085 25.1048 36.692 25.1048 36.5743C25.1048 36.4566 25.0816 36.3401 25.0366 36.2314C24.9915 36.1227 24.9255 36.0239 24.8423 35.9407ZM14.987 40.7916L20.0463 35.7324L20.9803 36.667L15.9216 41.7256L14.987 40.7916ZM14.8017 41.8729L16.4082 43.4794H14.8017V41.8729ZM17.4895 43.2941L16.5549 42.3595L21.6141 37.3003L22.5481 38.2349L17.4895 43.2941Z" fill="#FFE37D"/>
<path fill-rule="evenodd" clip-rule="evenodd" d="M44.0371 36.0449C44.0371 35.2026 44.72 34.5205 45.5615 34.5205H53.2445C54.0868 34.5205 54.7689 35.2026 54.7689 36.0449V38.3794H54.9884C55.5895 38.3794 56.0773 38.8672 56.0773 39.4683V42.4169C56.0773 42.9744 55.6592 43.4335 55.1191 43.4979C55.1449 43.1958 55.1076 42.8915 55.0095 42.6046C54.9115 42.3176 54.7548 42.0542 54.5495 41.831C54.3442 41.6078 54.0947 41.4297 53.8169 41.3081C53.5391 41.1865 53.239 41.124 52.9358 41.1245C52.6325 41.1251 52.3327 41.1887 52.0553 41.3113C51.778 41.4339 51.5291 41.6128 51.3246 41.8368C51.1201 42.0607 50.9644 42.3247 50.8674 42.612C50.7704 42.8993 50.7341 43.2037 50.761 43.5058H48.9257C48.9504 43.2168 48.9175 42.9258 48.8287 42.6497C48.74 42.3735 48.5972 42.1178 48.4087 41.8974C48.2202 41.677 47.9898 41.4962 47.7308 41.3657C47.4718 41.2352 47.1894 41.1575 46.9001 41.1371C46.6108 41.1167 46.3203 41.154 46.0456 41.2469C45.7708 41.3399 45.5173 41.4865 45.2998 41.6783C45.0822 41.8701 44.905 42.1033 44.7784 42.3642C44.6518 42.6252 44.5784 42.9087 44.5624 43.1983C44.3981 43.0674 44.2656 42.9011 44.1746 42.7118C44.0836 42.5225 44.0366 42.3151 44.0371 42.1051V36.0449ZM45.5615 36.6756C45.5038 36.6756 45.4484 36.6985 45.4075 36.7394C45.3667 36.7802 45.3437 36.8356 45.3437 36.8933V38.4178H47.0972V36.6756H45.5615ZM48.4039 36.6756V38.4178H50.349V36.6756H48.4039ZM53.4631 38.4178H51.6548V36.6756H53.2445C53.3023 36.6756 53.3577 36.6985 53.3985 36.7394C53.4393 36.7802 53.4623 36.8356 53.4623 36.8933L53.4631 38.4178ZM47.8446 43.3133C47.8488 43.4601 47.8234 43.6062 47.7701 43.743C47.7168 43.8798 47.6366 44.0046 47.5342 44.1099C47.4318 44.2152 47.3094 44.2989 47.1741 44.356C47.0388 44.4132 46.8935 44.4426 46.7466 44.4426C46.5998 44.4426 46.4544 44.4132 46.3191 44.356C46.1839 44.2989 46.0614 44.2152 45.9591 44.1099C45.8567 44.0046 45.7765 43.8798 45.7232 43.743C45.6698 43.6062 45.6445 43.4601 45.6486 43.3133C45.6567 43.0274 45.7759 42.756 45.9809 42.5566C46.186 42.3573 46.4607 42.2457 46.7466 42.2457C47.0326 42.2457 47.3073 42.3573 47.5123 42.5566C47.7174 42.756 47.8366 43.0274 47.8446 43.3133ZM54.0381 43.3133C54.0381 43.6046 53.9223 43.884 53.7163 44.09C53.5103 44.296 53.2309 44.4117 52.9396 44.4117C52.6483 44.4117 52.3689 44.296 52.1629 44.09C51.9569 43.884 51.8412 43.6046 51.8412 43.3133C51.8412 43.0219 51.9569 42.7425 52.1629 42.5365C52.3689 42.3305 52.6483 42.2148 52.9396 42.2148C53.2309 42.2148 53.5103 42.3305 53.7163 42.5365C53.9223 42.7425 54.0381 43.0219 54.0381 43.3133Z" fill="#FFE37D"/>
<path d="M86.2798 35.9407L83.7779 33.4383C83.6947 33.355 83.5959 33.289 83.4872 33.244C83.3785 33.199 83.262 33.1758 83.1443 33.1758C83.0266 33.1758 82.9101 33.199 82.8014 33.244C82.6927 33.289 82.5939 33.355 82.5107 33.4383L75.6059 40.3437C75.5223 40.4266 75.4561 40.5252 75.411 40.634C75.3659 40.7427 75.3429 40.8593 75.3433 40.977V43.4794C75.3433 43.717 75.4377 43.9449 75.6057 44.1129C75.7737 44.281 76.0016 44.3754 76.2392 44.3754H78.7416C78.8593 44.3757 78.9759 44.3527 79.0847 44.3076C79.1934 44.2625 79.2921 44.1963 79.375 44.1127L86.2798 37.2079C86.363 37.1247 86.429 37.0259 86.4741 36.9172C86.5191 36.8085 86.5423 36.692 86.5423 36.5743C86.5423 36.4566 86.5191 36.3401 86.4741 36.2314C86.429 36.1227 86.363 36.0239 86.2798 35.9407ZM76.4245 40.7916L81.4838 35.7324L82.4178 36.667L77.3591 41.7256L76.4245 40.7916ZM76.2392 41.8729L77.8457 43.4794H76.2392V41.8729ZM78.927 43.2941L77.9924 42.3595L83.0516 37.3003L83.9856 38.2349L78.927 43.2941Z" fill="#FFE37D"/>
<path fill-rule="evenodd" clip-rule="evenodd" d="M13.3198 60.6201C13.3198 59.7778 14.0028 59.0957 14.8442 59.0957H22.5272C23.3696 59.0957 24.0516 59.7778 24.0516 60.6201V62.9546H24.2711C24.8722 62.9546 25.36 63.4424 25.36 64.0435V66.9921C25.36 67.5496 24.9419 68.0087 24.4018 68.0731C24.4276 67.771 24.3903 67.4667 24.2922 67.1798C24.1942 66.8928 24.0375 66.6294 23.8322 66.4062C23.6269 66.183 23.3774 66.0049 23.0996 65.8833C22.8218 65.7617 22.5218 65.6992 22.2185 65.6997C21.9152 65.7002 21.6154 65.7639 21.338 65.8865C21.0607 66.0091 20.8118 66.188 20.6073 66.412C20.4028 66.6359 20.2471 66.8999 20.1501 67.1872C20.0531 67.4745 20.0169 67.7789 20.0437 68.081H18.2084C18.2331 67.792 18.2002 67.501 18.1114 67.2249C18.0227 66.9487 17.8799 66.693 17.6914 66.4726C17.5029 66.2522 17.2725 66.0714 17.0135 65.9409C16.7545 65.8104 16.4721 65.7326 16.1828 65.7123C15.8935 65.6919 15.603 65.7292 15.3283 65.8221C15.0535 65.9151 14.8 66.0617 14.5825 66.2535C14.3649 66.4453 14.1877 66.6785 14.0611 66.9394C13.9345 67.2004 13.8611 67.4839 13.8451 67.7735C13.6808 67.6426 13.5483 67.4763 13.4573 67.287C13.3664 67.0977 13.3194 66.8903 13.3198 66.6803V60.6201ZM14.8442 61.2508C14.7865 61.2508 14.7311 61.2737 14.6902 61.3146C14.6494 61.3554 14.6265 61.4108 14.6265 61.4685V62.9929H16.38V61.2508H14.8442ZM17.6866 61.2508V62.9929H19.6317V61.2508H17.6866ZM22.7459 62.9929H20.9375V61.2508H22.5272C22.585 61.2508 22.6404 61.2737 22.6812 61.3146C22.722 61.3554 22.745 61.4108 22.745 61.4685L22.7459 62.9929ZM17.1273 67.8885C17.1315 68.0352 17.1061 68.1814 17.0528 68.3182C16.9995 68.455 16.9193 68.5798 16.8169 68.6851C16.7145 68.7904 16.5921 68.8741 16.4568 68.9312C16.3216 68.9884 16.1762 69.0178 16.0293 69.0178C15.8825 69.0178 15.7371 68.9884 15.6019 68.9312C15.4666 68.8741 15.3441 68.7904 15.2418 68.6851C15.1394 68.5798 15.0592 68.455 15.0059 68.3182C14.9525 68.1814 14.9272 68.0352 14.9313 67.8885C14.9394 67.6026 15.0586 67.3312 15.2636 67.1318C15.4687 66.9325 15.7434 66.8209 16.0293 66.8209C16.3153 66.8209 16.59 66.9325 16.795 67.1318C17.0001 67.3312 17.1193 67.6026 17.1273 67.8885ZM23.3208 67.8885C23.3208 68.1798 23.205 68.4592 22.9991 68.6652C22.7931 68.8712 22.5137 68.9869 22.2223 68.9869C21.931 68.9869 21.6516 68.8712 21.4456 68.6652C21.2396 68.4592 21.1239 68.1798 21.1239 67.8885C21.1239 67.5971 21.2396 67.3177 21.4456 67.1117C21.6516 66.9057 21.931 66.79 22.2223 66.79C22.5137 66.79 22.7931 66.9057 22.9991 67.1117C23.205 67.3177 23.3208 67.5971 23.3208 67.8885Z" fill="#FFE37D"/>
<path d="M55.5596 60.5149L53.0577 58.0125C52.9745 57.9293 52.8757 57.8633 52.767 57.8182C52.6583 57.7732 52.5418 57.75 52.4241 57.75C52.3064 57.75 52.1899 57.7732 52.0812 57.8182C51.9725 57.8633 51.8737 57.9293 51.7905 58.0125L44.8857 64.9179C44.8021 65.0008 44.7359 65.0994 44.6908 65.2082C44.6457 65.3169 44.6227 65.4335 44.6231 65.5512V68.0536C44.6231 68.2913 44.7174 68.5191 44.8855 68.6872C45.0535 68.8552 45.2814 68.9496 45.519 68.9496H48.0214C48.1391 68.9499 48.2557 68.9269 48.3645 68.8818C48.4732 68.8368 48.5719 68.7705 48.6547 68.687L55.5596 61.7821C55.6428 61.6989 55.7088 61.6001 55.7538 61.4914C55.7989 61.3827 55.8221 61.2662 55.8221 61.1485C55.8221 61.0309 55.7989 60.9143 55.7538 60.8056C55.7088 60.6969 55.6428 60.5981 55.5596 60.5149ZM45.7043 65.3658L50.7635 60.3066L51.6976 61.2412L46.6389 66.2999L45.7043 65.3658ZM45.519 66.4471L47.1255 68.0536H45.519V66.4471ZM48.2068 67.8683L47.2722 66.9337L52.3314 61.8745L53.2654 62.8091L48.2068 67.8683Z" fill="#FFE37D"/>
<path fill-rule="evenodd" clip-rule="evenodd" d="M74.7554 60.6201C74.7554 59.7778 75.4383 59.0957 76.2798 59.0957H83.9628C84.8051 59.0957 85.4872 59.7778 85.4872 60.6201V62.9546H85.7067C86.3077 62.9546 86.7955 63.4424 86.7955 64.0435V66.9921C86.7955 67.5496 86.3774 68.0087 85.8373 68.0731C85.8631 67.771 85.8258 67.4667 85.7278 67.1798C85.6297 66.8928 85.4731 66.6294 85.2678 66.4062C85.0625 66.183 84.813 66.0049 84.5352 65.8833C84.2574 65.7617 83.9573 65.6992 83.654 65.6997C83.3508 65.7002 83.051 65.7639 82.7736 65.8865C82.4962 66.0091 82.2474 66.188 82.0429 66.412C81.8384 66.6359 81.6827 66.8999 81.5856 67.1872C81.4886 67.4745 81.4524 67.7789 81.4793 68.081H79.6439C79.6687 67.792 79.6357 67.501 79.547 67.2249C79.4583 66.9487 79.3155 66.693 79.127 66.4726C78.9385 66.2522 78.708 66.0714 78.449 65.9409C78.1901 65.8104 77.9077 65.7326 77.6184 65.7123C77.3291 65.6919 77.0386 65.7292 76.7638 65.8221C76.4891 65.9151 76.2356 66.0617 76.018 66.2535C75.8005 66.4453 75.6233 66.6785 75.4967 66.9394C75.3701 67.2004 75.2966 67.4839 75.2806 67.7735C75.1164 67.6426 74.9838 67.4763 74.8929 67.287C74.8019 67.0977 74.7549 66.8903 74.7554 66.6803V60.6201ZM76.2798 61.2508C76.222 61.2508 76.1666 61.2737 76.1258 61.3146C76.0849 61.3554 76.062 61.4108 76.062 61.4685V62.9929H77.8155V61.2508H76.2798ZM79.1221 61.2508V62.9929H81.0673V61.2508H79.1221ZM84.1814 62.9929H82.373V61.2508H83.9628C84.0205 61.2508 84.0759 61.2737 84.1168 61.3146C84.1576 61.3554 84.1805 61.4108 84.1805 61.4685L84.1814 62.9929ZM78.5629 67.8885C78.567 68.0352 78.5417 68.1814 78.4884 68.3182C78.435 68.455 78.3548 68.5798 78.2525 68.6851C78.1501 68.7904 78.0277 68.8741 77.8924 68.9312C77.7571 68.9884 77.6117 69.0178 77.4649 69.0178C77.318 69.0178 77.1727 68.9884 77.0374 68.9312C76.9021 68.8741 76.7797 68.7904 76.6773 68.6851C76.5749 68.5798 76.4947 68.455 76.4414 68.3182C76.3881 68.1814 76.3628 68.0352 76.3669 67.8885C76.3749 67.6026 76.4942 67.3312 76.6992 67.1318C76.9042 66.9325 77.1789 66.8209 77.4649 66.8209C77.7509 66.8209 78.0256 66.9325 78.2306 67.1318C78.4356 67.3312 78.5548 67.6026 78.5629 67.8885ZM84.7563 67.8885C84.7563 68.1798 84.6406 68.4592 84.4346 68.6652C84.2286 68.8712 83.9492 68.9869 83.6579 68.9869C83.3666 68.9869 83.0872 68.8712 82.8812 68.6652C82.6752 68.4592 82.5594 68.1798 82.5594 67.8885C82.5594 67.5971 82.6752 67.3177 82.8812 67.1117C83.0872 66.9057 83.3666 66.79 83.6579 66.79C83.9492 66.79 84.2286 66.9057 84.4346 67.1117C84.6406 67.3177 84.7563 67.5971 84.7563 67.8885Z" fill="#FFE37D"/>
</g>
</g>
<defs>
<clipPath id="clip0_2986_15737">
<rect width="100" height="78" rx="4" fill="white"/>
</clipPath>
</defs>
</svg>
