<svg width="390" height="326" viewBox="0 0 390 326" fill="none" xmlns="http://www.w3.org/2000/svg">
<g clip-path="url(#clip0_2149_13860)">
<rect width="390" height="325" transform="translate(0 0.5)" fill="#FEFEFE"/>
<rect y="0.5" width="19.5" height="520" fill="#FEF2F2"/>
<rect x="19.5" y="0.5" width="19.5" height="520" fill="#FEFAE8"/>
<rect x="39" y="0.5" width="19.5" height="520" fill="#FEF0E2"/>
<rect x="58.5" y="0.5" width="19.5" height="520" fill="#FEF2F2"/>
<rect x="78" y="0.5" width="19.5" height="520" fill="#FEFAE8"/>
<rect x="97.5" y="0.5" width="19.5" height="520" fill="#FEF0E2"/>
<rect x="117" y="0.5" width="19.5" height="520" fill="#FEF2F2"/>
<rect x="136.5" y="0.5" width="19.5" height="520" fill="#FEFAE8"/>
<rect x="156" y="0.5" width="19.5" height="520" fill="#FEF0E2"/>
<rect x="175.5" y="0.5" width="19.5" height="520" fill="#FEF2F2"/>
<rect x="195" y="0.5" width="19.5" height="520" fill="#FEFAE8"/>
<rect x="214.5" y="0.5" width="19.5" height="520" fill="#FEF0E2"/>
<rect x="234" y="0.5" width="19.5" height="520" fill="#FEF2F2"/>
<rect x="253.5" y="0.5" width="19.5" height="520" fill="#FEFAE8"/>
<rect x="273" y="0.5" width="19.5" height="520" fill="#FEF0E2"/>
<rect x="292.5" y="0.5" width="19.5" height="520" fill="#FEF2F2"/>
<rect x="312" y="0.5" width="19.5" height="520" fill="#FEFAE8"/>
<rect x="331.5" y="0.5" width="19.5" height="520" fill="#FEF0E2"/>
<rect x="351" y="0.5" width="19.5" height="520" fill="#FEF2F2"/>
<rect x="370.5" y="0.5" width="19.5" height="520" fill="#FEFAE8"/>
</g>
<defs>
<clipPath id="clip0_2149_13860">
<rect width="390" height="325" fill="white" transform="translate(0 0.5)"/>
</clipPath>
</defs>
</svg>
