<svg width="52" height="53" viewBox="0 0 52 53" fill="none" xmlns="http://www.w3.org/2000/svg">
<mask id="mask0_3024_14932" style="mask-type:alpha" maskUnits="userSpaceOnUse" x="0" y="0" width="52" height="53">
<circle cx="26" cy="26.4941" r="26" fill="#F7F7F7"/>
</mask>
<g mask="url(#mask0_3024_14932)">
<rect y="0.494141" width="52" height="52" fill="#FEFBF2"/>
</g>
<g clip-path="url(#clip0_3024_14932)">
<path d="M25.999 11.4941C23.2143 11.4941 20.5436 12.6004 18.5744 14.5695C16.6053 16.5387 15.499 19.2094 15.499 21.9941V27.2861C15.4993 27.5188 15.4453 27.7484 15.3415 27.9566L12.766 33.1061C12.6402 33.3577 12.5808 33.6373 12.5935 33.9183C12.6061 34.1993 12.6904 34.4724 12.8383 34.7117C12.9861 34.9509 13.1927 35.1484 13.4384 35.2854C13.6841 35.4223 13.9608 35.4942 14.242 35.4941H37.756C38.0373 35.4942 38.314 35.4223 38.5596 35.2854C38.8053 35.1484 39.0119 34.9509 39.1598 34.7117C39.3077 34.4724 39.392 34.1993 39.4046 33.9183C39.4173 33.6373 39.3579 33.3577 39.232 33.1061L36.658 27.9566C36.5537 27.7485 36.4993 27.519 36.499 27.2861V21.9941C36.499 19.2094 35.3928 16.5387 33.4237 14.5695C31.4545 12.6004 28.7838 11.4941 25.999 11.4941ZM25.999 39.9941C25.0681 39.9944 24.16 39.7061 23.3998 39.1688C22.6395 38.6315 22.0646 37.8718 21.754 36.9941H30.244C29.9335 37.8718 29.3586 38.6315 28.5983 39.1688C27.8381 39.7061 26.93 39.9944 25.999 39.9941Z" fill="#FACC15"/>
</g>
<defs>
<clipPath id="clip0_3024_14932">
<rect width="36" height="36" fill="white" transform="translate(8 8.49414)"/>
</clipPath>
</defs>
</svg>
