<svg width="173" height="173" viewBox="0 0 173 173" fill="none" xmlns="http://www.w3.org/2000/svg">
<rect width="172.71" height="172.71" rx="8" fill="#F4FBF8"/>
<g opacity="0.6">
<rect width="172.71" height="172.71" rx="8" fill="url(#paint0_linear_2343_13317)" style="mix-blend-mode:multiply"/>
</g>
<path d="M142.206 64.1271C145.895 65.883 144.644 71.4219 140.558 71.4219V71.4219C138.441 71.4219 136.725 73.1382 136.725 75.2553V130.535C136.725 133.265 134.512 135.478 131.783 135.478H40.6149C37.8855 135.478 35.6729 133.265 35.6729 130.535V75.2555C35.6729 73.1382 33.9565 71.4219 31.8393 71.4219V71.4219C27.7535 71.4219 26.5025 65.8828 30.1917 64.1268L84.0742 38.4797C85.418 37.8401 86.9785 37.8401 88.3222 38.4797L142.206 64.1271Z" fill="#35C284"/>
<path d="M86.3268 37.3726L87.7908 38.2445L89.2129 38.7497L90.9214 38.8848L91.0372 38.8912L91.1306 38.962L92.4272 39.8983L93.9587 40.3713L94.0714 40.4067L94.1486 40.4936L95.2586 41.7645L96.6679 42.2664L98.3603 42.453L98.4793 42.4659L98.5759 42.5431L99.8049 43.547L101.382 43.8365L101.497 43.8591L101.584 43.9363L102.82 45.0592L104.213 45.767L105.744 46.3269L105.789 46.343L105.828 46.3687L107.167 47.2407L108.717 47.6782L108.762 47.6911L108.801 47.7136L110.214 48.489L111.713 49.1293L113.261 49.7117L114.808 50.2973L114.879 50.323L114.937 50.3745L116.137 51.4459L117.681 51.7806L117.755 51.7966L117.816 51.8352L119.165 52.7008L120.712 53.1512L120.738 53.1576L120.767 53.1705L122.266 53.8526L122.311 53.8719L122.353 53.9041L123.676 54.9562L124.937 55.8378L126.575 55.9858L126.665 55.9923L126.742 56.0373L128.141 56.832L129.67 57.3919L129.679 57.3983L129.689 57.4015L131.205 58.0547L131.237 58.0675L131.269 58.0901L132.614 58.9813L134.103 59.628L134.158 59.6506L134.2 59.6859L135.49 60.7381L136.8 61.5071L138.492 61.5617L138.653 61.5682L138.769 61.6808L139.943 62.852L141.407 63.415L141.414 63.4182L142.945 64.0457L143.077 64.1004L143.148 64.2258L143.93 65.6287L143.936 65.6383L144.644 67.0186L144.689 67.1023L144.692 67.1988L144.724 68.8558L144.728 68.9716L144.667 69.0714L143.811 70.5289L143.753 70.6319L143.643 70.6866L142.173 71.4459L142.096 71.4845L142.009 71.491L140.97 71.5553V71.6872L140.728 71.7966L140.638 71.8384L140.558 71.8738H140.471L139.01 71.8899L138.016 72.9646L137.537 74.3996L137.035 75.9021L136.967 77.453L137.17 79.0649L137.179 79.1325L137.167 79.2001L136.854 80.7413L137.356 82.2857L137.392 82.3951L137.366 82.5045L137.006 84.0585L137.334 85.6222L137.353 85.7155L137.331 85.8056L136.941 87.3661L137.247 88.9234L137.253 88.9555V88.9909L137.295 90.6351L137.469 92.2535L137.472 92.2953L137.469 92.3339L137.315 93.933L137.36 95.5804V95.5997L137.327 97.247V97.2856L137.318 97.321L136.986 98.9137L137.028 100.471L137.411 102.086L137.434 102.173L137.414 102.26L137.102 103.814L137.485 105.378L137.504 105.461L137.492 105.545L137.208 107.192L137.038 108.769L137.128 110.394L137.331 112.015V112.038L137.334 112.06L137.356 113.708V113.721L137.327 115.368L137.344 117.002V117.054L137.331 117.102L136.954 118.708L136.748 120.3L136.957 121.896L136.961 121.928V121.961L136.919 123.544L137.379 125.13L137.405 125.22L137.389 125.313L137.102 126.961L136.851 128.515L137.298 130.072L137.331 130.188L137.295 130.304L136.819 131.903L136.816 131.912L136.813 131.925L136.253 133.447L136.224 133.528L136.163 133.589L135.03 134.77L134.982 134.818L134.921 134.85L133.466 135.6L133.441 135.612L133.415 135.622L131.797 136.192L131.674 136.233L131.552 136.201L129.969 135.77L128.38 135.831H128.335L126.719 135.712L125.12 135.915L125.046 135.925L124.972 135.905L123.412 135.522L121.848 135.809L121.803 135.818L121.758 135.815L120.117 135.751L118.518 135.783L116.874 135.95L116.816 135.957L116.758 135.944L115.207 135.654L113.659 136.134L113.521 136.179L113.389 136.124L111.832 135.516L110.329 135.625L108.746 136.243L108.605 136.298L108.466 136.25L106.925 135.738L105.394 136.092L105.342 136.102H105.291L103.643 136.057H103.592L103.54 136.044L102.025 135.616L100.513 136.233L100.41 136.275L100.3 136.259L98.6531 136.028H98.6466L98.6402 136.024L97.0218 135.732L95.397 135.651H93.7946L92.1827 135.844L90.5385 136.102L90.5224 136.105L90.5031 136.108L88.8558 136.227L88.83 136.23L88.8043 136.227L87.1569 136.134L87.1022 136.131L87.0508 136.114L85.5225 135.609L84.0006 136.06L83.888 136.095L83.7754 136.063L82.1956 135.629L80.6512 135.764L79.0456 136.176L79.0038 136.188H78.962L77.3146 136.262L77.2213 136.266L77.1344 136.23L75.6222 135.587L74.1196 136.034L74.0649 136.05H74.0102L72.3629 136.085L72.3178 136.089L72.276 136.079L70.7091 135.773L69.1325 136.063L69.0971 136.069H67.4208L67.424 136.073L65.7767 136.124H65.7509L64.1036 136.076L64.0456 136.073L63.9877 136.057L62.4819 135.564L60.9794 136.185L60.8796 136.224L60.7767 136.214L59.1293 136.024H59.1132L59.0971 136.021L57.4755 135.706L55.8668 135.658V135.654L54.2323 135.651H54.2194L52.5849 135.603L51.0083 135.654L49.4285 136.224L49.3063 136.269L49.1808 136.233L47.5592 135.777L46.0276 135.651L44.435 135.999L44.3867 136.011L44.3352 136.008L42.6911 135.96L41.0566 135.976H40.9826L40.9086 135.95L39.3964 135.384L37.8295 135.098L37.7297 135.078L37.6493 135.017L36.3365 133.981L36.2915 133.946L36.2561 133.898L35.2329 132.485L35.1654 132.395L35.1557 132.279L35.0013 130.539L34.9981 130.493L35.0013 130.448L35.2072 128.814L35.3584 127.199L35.1557 125.609L35.1525 125.587V125.564L35.1268 123.917V123.888L35.13 123.859L35.3391 122.234L35.3552 120.645L35.1364 119.026L35.1332 119.01V118.997L35.027 117.363L34.8597 115.715L34.8501 115.613L34.8919 115.516L35.545 113.965L35.4131 112.466L34.9112 110.857L34.8694 110.728L34.9112 110.603L35.4099 109.078L34.953 107.556L34.9369 107.495V107.43L34.9659 105.783V105.757L35.101 104.139L34.9434 102.537L34.9369 102.482L34.9466 102.424L35.2233 100.822L35.1557 99.2194V99.2161L34.9884 97.5945L34.982 97.543L34.9916 97.4916L35.2297 95.9053L34.9884 94.3223L34.9755 94.2258L35.0045 94.1325L35.4968 92.5977L35.1235 91.063L35.1171 91.0437V91.0276L34.8629 89.3802L34.8468 89.2805L34.879 89.184L35.4131 87.6042L35.3842 86.0308V85.9922L35.3906 85.9568L35.6416 84.406L35.1042 82.8616L35.0849 82.8101L35.0817 82.7554L34.8565 79.4607L34.8533 79.4446V79.4285L34.8694 77.7812V77.7168L34.8887 77.6557L35.4067 76.0855L35.2844 74.5733L34.6924 73.1737L33.5534 72.1988L32.0412 71.7451H32.0347L30.5547 71.2625L28.8205 71.0212L28.5212 70.9794L28.4698 70.6834L28.1802 68.9845L27.3919 67.5399L27.2632 67.3082L27.4241 67.0958L28.4344 65.7413L29.1776 64.3964L29.242 64.2773L29.3642 64.2194L30.7831 63.5566L31.9961 62.4208L32.1055 62.3179L32.2535 62.3114L33.9073 62.2085L35.1718 61.3043L35.1782 61.3011L36.5489 60.352L36.5811 60.3294L36.6165 60.3134L38.0997 59.6473L39.5283 58.8494L39.5508 58.8365L39.5766 58.8269L41.0695 58.2381L42.4562 57.3822L42.556 57.3179H42.675L44.3224 57.3243L45.4067 56.1628L45.5161 56.047L45.6705 56.0309L47.2664 55.8829L48.3957 54.7439L48.4987 54.6377L48.6467 54.6248L50.3037 54.4543L51.6454 53.7271L53.0225 52.7908L54.3545 51.7966L54.4446 51.7291L54.554 51.7162L56.2078 51.5232L57.5881 50.7799L58.9781 49.9273L59.0263 49.8951L59.0843 49.879L60.5836 49.4543L61.7226 48.2638L61.787 48.193L61.8771 48.1609L63.4311 47.5881L63.4601 47.5785L63.489 47.5721L65.0334 47.2535L66.2014 46.1338L66.3172 46.0244L66.4749 46.0212L68.1126 45.9697L69.2548 44.8822L69.3481 44.7954L69.4736 44.7728L71.0598 44.5187L72.2921 43.518L72.3758 43.4504L72.4851 43.4311L74.1164 43.1673L75.4452 42.4755L76.5939 41.2014L76.6615 41.1274L76.758 41.092L78.312 40.5225L78.3474 40.5096L78.386 40.5032L80.0237 40.2265L81.4427 39.5347L82.9227 38.8108L82.9485 38.7979L82.9742 38.7883L84.4703 38.2864L85.8957 37.379L86.108 37.2439L86.3268 37.3726ZM84.8629 39.0135L84.821 39.0393L84.7728 39.0553L83.2702 39.5573L81.8062 40.2748L80.3262 40.9987L80.2715 41.0244L80.2104 41.0341L78.5598 41.3044L77.1377 41.8256L76.0115 43.0804L75.9633 43.1351L75.8957 43.1705L74.435 43.9299L74.377 43.962L74.3095 43.9717L72.7232 44.2259L71.4942 45.2265L71.4105 45.2973L71.3011 45.3134L69.731 45.5643L68.5695 46.6776L68.4568 46.7838L68.2992 46.7902L66.6583 46.8353L65.5193 47.9324L65.4356 48.0129L65.3166 48.0386L63.6853 48.37L62.2471 48.9009L61.1016 50.1075L61.0244 50.1879L60.915 50.2201L59.361 50.6576L58 51.4942L57.9871 51.5006L57.9774 51.5071L56.5264 52.2889L56.4556 52.3275L56.3783 52.334L54.7535 52.5238L53.5019 53.4601L53.4955 53.4665L53.489 53.4697L52.1119 54.4125L52.0926 54.4221L52.0765 54.435L50.6255 55.2201L50.5515 55.2587L50.471 55.2683L48.8784 55.426L47.749 56.5682L47.6428 56.6744L47.4948 56.6872L45.9054 56.8352L44.805 58.0193L44.6827 58.1512H44.4993L42.7908 58.1415L41.4813 58.9556L41.4524 58.9749L41.417 58.9877L39.9144 59.5766L38.489 60.3745L38.473 60.3841L38.4569 60.3906L36.9768 61.0534L35.648 61.98L34.2902 62.9485L34.1937 63.0193L34.0779 63.0257L32.4498 63.1222L31.2979 64.2065L31.2497 64.2516L31.1918 64.2773L29.834 64.9079L29.1454 66.1628L29.1326 66.1885L29.1165 66.211L28.2381 67.3758L28.9395 68.6531L28.9717 68.7142L28.9846 68.7818L29.2323 70.2458L30.7059 70.4517L30.7413 70.4581L30.7767 70.4678L32.2793 70.9568L33.8816 71.4395L33.9652 71.4652L34.0296 71.5199L35.3037 72.6139L35.3777 72.6782L35.4163 72.7683L36.0727 74.3159L36.0984 74.377L36.1049 74.4446L36.2368 76.1048L36.2432 76.1885L36.2175 76.2689L35.6898 77.8487L35.677 79.406L35.7896 81.0534L35.8957 82.6332L36.4524 84.2387L36.4878 84.3384L36.4717 84.4414L36.2078 86.063L36.24 87.6621L36.2432 87.7329L36.2175 87.8005L35.6898 89.3545L35.9311 90.9021L36.3269 92.5141L36.3526 92.6267L36.3172 92.7361L35.8153 94.2934L36.0534 95.8442L36.0631 95.9053L36.0534 95.9665L35.8121 97.5591L35.9794 99.1582V99.184L36.0502 100.831V100.876L36.0437 100.918L35.767 102.501L35.9247 104.104L35.9279 104.139L35.9247 104.178L35.7896 105.825L35.7606 107.376L36.2368 108.968L36.2754 109.091L36.2336 109.213L35.7349 110.728L36.2111 112.257L36.2271 112.298L36.2304 112.344L36.3752 113.991L36.3848 114.094L36.3462 114.187L35.6898 115.738L35.8475 117.279V117.295L35.9504 118.914H35.9537L36.1789 120.561L36.1821 120.59V120.622L36.1628 122.27V122.292L36.1596 122.318L35.9504 123.936L35.973 125.529L36.1821 127.154L36.1853 127.199L36.1821 127.244L36.0277 128.891V128.904L35.825 130.513L35.9633 132.093L36.8964 133.373L38.074 134.303L39.5798 134.58L39.6152 134.589L39.6473 134.599L41.1242 135.149L42.6975 135.136H42.7136L44.3095 135.181L45.9086 134.834L45.9697 134.821L46.0309 134.827L47.6782 134.963L47.7168 134.966L47.7554 134.975L49.2741 135.403L50.7992 134.856L50.8603 134.834H50.9247L52.572 134.779H52.5978L54.2451 134.827H54.2419L55.8829 134.834H55.8925L57.5399 134.885H57.572L57.6042 134.892L59.2516 135.21L60.7638 135.381L62.3114 134.747L62.453 134.689L62.5978 134.734L64.1904 135.252L65.7606 135.297L67.3983 135.249H67.4112L69.0167 135.246L70.6319 134.953L70.7091 134.94L70.7831 134.953L72.3758 135.259L73.9459 135.226L75.5321 134.757L75.6737 134.715L75.8088 134.773L77.3693 135.432L78.8815 135.365L80.4871 134.956L80.5225 134.95L80.5546 134.946L82.202 134.802L82.276 134.795L82.3468 134.815L83.8815 135.236L85.4163 134.786L85.5385 134.75L85.6608 134.789L87.2567 135.313L88.8429 135.4L90.4163 135.284L92.0572 135.033L92.0733 135.03L93.7206 134.831L93.7432 134.827H95.4259L95.4388 134.831L97.0861 134.914H97.1119L97.1376 134.918L98.785 135.214H98.7818L100.304 135.429L101.851 134.802L101.983 134.747L102.118 134.786L103.724 135.236L105.255 135.275L106.854 134.908L106.97 134.882L107.08 134.921L108.582 135.423L110.094 134.837L110.152 134.815L110.214 134.808L111.861 134.689L111.954 134.683L112.041 134.718L113.553 135.304L115.062 134.84L115.162 134.808L115.262 134.827L116.845 135.123L118.437 134.966L118.454 134.963H118.47L120.117 134.927H120.143L121.745 134.988L123.347 134.699L123.434 134.683L123.518 134.705L125.094 135.085L126.665 134.892L126.706 134.885L126.745 134.889L128.347 135.004L129.995 134.946L130.059 134.943L130.12 134.959L131.642 135.371L133.116 134.85L134.48 134.149L135.51 133.08L136.037 131.642L136.472 130.181L136.034 128.653L136.008 128.563L136.024 128.473L136.288 126.826V126.819L136.558 125.265L136.111 123.711L136.092 123.65L136.095 123.585L136.134 121.97L135.925 120.355L135.918 120.304L135.925 120.249L136.137 118.602L136.14 118.582L136.143 118.56L136.517 116.954L136.504 115.362V115.352L136.533 113.717L136.51 112.089L136.307 110.468L136.304 110.455V110.439L136.214 108.791V108.759L136.217 108.727L136.394 107.08V107.067L136.398 107.054L136.661 105.487L136.282 103.927L136.262 103.836L136.279 103.746L136.587 102.186L136.221 100.629L136.208 100.587V100.545L136.163 98.8976L136.159 98.8493L136.169 98.8011L136.504 97.1956L136.536 95.6029L136.491 93.9555V93.9041L136.645 92.2953L136.475 90.693V90.6608L136.433 89.0521L136.118 87.4337L136.098 87.3436L136.121 87.2535L136.507 85.6962L136.182 84.1454L136.163 84.0553L136.185 83.9684L136.539 82.4305L136.037 80.8925L136.005 80.7895L136.028 80.6833L136.343 79.1036L136.147 77.5205L136.143 77.4884V77.453L136.214 75.8056L136.217 75.7477L136.237 75.693L136.755 74.139V74.1357L137.266 72.6235L137.295 72.5399L137.353 72.4755L138.524 71.2046L138.647 71.0727L138.824 71.0695L140.146 71.0534V70.7831L140.532 70.7606L141.871 70.6705L143.164 70.0077L143.898 68.7529L143.869 67.3114L143.203 66.018V66.0148L142.495 64.7503L141.111 64.1808V64.184L139.567 63.592L139.486 63.5598L139.425 63.4987L138.299 62.379L136.668 62.3275L136.562 62.3243L136.472 62.2696L135.046 61.433L135.02 61.417L134.995 61.3977L133.727 60.3616L132.266 59.7278L132.231 59.7117L132.202 59.6924L130.847 58.7947L129.387 58.1673L127.833 57.5946L127.8 57.5849L127.771 57.5688L126.407 56.7966L124.75 56.6486L124.641 56.639L124.551 56.5746L123.183 55.6158L123.164 55.6029L121.871 54.5766L120.464 53.9363L118.878 53.473L118.82 53.4569L118.772 53.4247L117.43 52.5656L115.854 52.2278L115.748 52.2053L115.667 52.1313L114.441 51.0373L112.971 50.4807L111.423 49.9015L111.414 49.8983L111.407 49.8951L109.889 49.2484L109.869 49.2387L109.853 49.2291L108.444 48.4569L106.883 48.0161L106.822 48L106.771 47.9678L105.416 47.083L103.907 46.5328L103.885 46.5264L103.862 46.5135L102.392 45.767L102.344 45.7413L102.302 45.7059L101.114 44.6248L99.554 44.3417L99.4478 44.3224L99.3674 44.2548L98.1511 43.2574L96.536 43.0804L96.4877 43.0772L96.4426 43.0611L94.8822 42.5045L94.7824 42.4691L94.7116 42.3887L93.6016 41.1242L92.128 40.6705L92.0604 40.6512L92.0057 40.6094L90.7412 39.6956L89.1003 39.5669L89.0456 39.5637L88.9941 39.5444L87.4819 39.0103L87.4433 38.9974L87.4079 38.9781L86.1241 38.2091L84.8629 39.0135Z" fill="#35C284"/>
<path d="M57.0719 99.0179C60.0747 99.0179 61.7154 100.875 61.7154 104.219C61.7154 106.169 61.1581 107.593 60.1366 108.491C61.4058 110.069 62.0249 112.67 62.0249 116.292H58.9293C58.9293 111.246 57.8768 109.512 54.6263 109.512H48.0326V116.292H44.875V99.0179H57.0719ZM48.0326 106.695H55.555C57.5362 106.695 58.6197 105.828 58.6197 104.25C58.6197 102.671 57.5362 101.804 55.555 101.804H48.0326V106.695Z" fill="#FEFEFE"/>
<path d="M74.2474 113.784C78.6123 113.784 80.5626 111.308 80.5626 107.5C80.5626 103.692 78.6123 101.216 74.2474 101.216C69.8516 101.216 67.9014 103.692 67.9014 107.5C67.9014 111.308 69.8516 113.784 74.2474 113.784ZM64.8057 107.5C64.8057 102.516 68.18 98.4297 74.2474 98.4297C80.284 98.4297 83.6582 102.516 83.6582 107.5C83.6582 112.484 80.284 116.57 74.2474 116.57C68.18 116.57 64.8057 112.484 64.8057 107.5Z" fill="#FEFEFE"/>
<path d="M94.9557 113.784C99.3206 113.784 101.271 111.308 101.271 107.5C101.271 103.692 99.3206 101.216 94.9557 101.216C90.5599 101.216 88.6096 103.692 88.6096 107.5C88.6096 111.308 90.5599 113.784 94.9557 113.784ZM85.5139 107.5C85.5139 102.516 88.8882 98.4297 94.9557 98.4297C100.992 98.4297 104.366 102.516 104.366 107.5C104.366 112.484 100.992 116.57 94.9557 116.57C88.8882 116.57 85.5139 112.484 85.5139 107.5Z" fill="#FEFEFE"/>
<path d="M110.463 99.0179L117.181 109.481H117.49L124.208 99.0179H127.52L127.489 99.0798V116.261H124.394V103.909L119.007 112.298H115.664L110.308 103.94V116.261H107.213V99.0179H110.463Z" fill="#FEFEFE"/>
<path d="M65.316 73.971C68.3188 73.971 71.5073 77.0666 71.5073 82.7317C71.5073 88.0872 68.3188 91.2138 65.316 91.2138H52.8096V73.971H65.316ZM55.9671 88.3967H64.1087C66.0899 88.3967 68.4117 86.2917 68.4117 82.7317C68.4117 78.8312 66.0899 76.788 64.1087 76.788H55.9671V88.3967Z" fill="#FEFEFE"/>
<path d="M82.8169 88.7373C87.1817 88.7373 89.132 86.2607 89.132 82.4531C89.132 78.6454 87.1817 76.1689 82.8169 76.1689C78.421 76.1689 76.4708 78.6454 76.4708 82.4531C76.4708 86.2607 78.421 88.7373 82.8169 88.7373ZM73.3751 82.4531C73.3751 77.4691 76.7494 73.3828 82.8169 73.3828C88.8534 73.3828 92.2277 77.4691 92.2277 82.4531C92.2277 87.4371 88.8534 91.5234 82.8169 91.5234C76.7494 91.5234 73.3751 87.4371 73.3751 82.4531Z" fill="#FEFEFE"/>
<path d="M107.209 73.971C110.212 73.971 111.852 75.8284 111.852 79.1717C111.852 81.122 111.295 82.546 110.274 83.4437C111.543 85.0225 112.162 87.6228 112.162 91.2447H109.066C109.066 86.1988 108.014 84.4653 104.763 84.4653H98.1696V91.2447H95.0121V73.971H107.209ZM98.1696 81.6482H105.692C107.673 81.6482 108.757 80.7814 108.757 79.2026C108.757 77.6239 107.673 76.7571 105.692 76.7571H98.1696V81.6482Z" fill="#FEFEFE"/>
<path d="M116.491 73.971H119.586V91.2138H116.491V73.971Z" fill="#FEFEFE"/>
<path d="M90.0209 72.8979C90.3153 72.7249 90.6802 72.9647 90.6383 73.3036L90.2207 76.6769C90.1832 76.9798 89.8409 77.1381 89.5858 76.9705L87.0729 75.3194C86.8179 75.1518 86.8273 74.7748 87.0904 74.6202L90.0209 72.8979Z" fill="#FEFEFE"/>
<path d="M75.589 72.8979C75.2946 72.7249 74.9296 72.9647 74.9716 73.3036L75.3892 76.6769C75.4266 76.9798 75.769 77.1381 76.024 76.9705L78.537 75.3194C78.792 75.1518 78.7826 74.7748 78.5195 74.6202L75.589 72.8979Z" fill="#FEFEFE"/>
<defs>
<linearGradient id="paint0_linear_2343_13317" x1="86.3552" y1="0" x2="86.3552" y2="172.71" gradientUnits="userSpaceOnUse">
<stop stop-color="#D0D0D0"/>
<stop offset="0.336538" stop-color="white"/>
</linearGradient>
</defs>
</svg>
