<svg width="144" height="120" viewBox="0 0 144 120" fill="none" xmlns="http://www.w3.org/2000/svg">
<path d="M139.997 32.357C144.475 34.4888 142.956 41.2134 137.996 41.2134C135.426 41.2134 133.342 43.2971 133.342 45.8675V112.983C133.342 116.297 130.656 118.983 127.342 118.983H16.6586C13.3449 118.983 10.6586 116.297 10.6586 112.983V45.8675C10.6586 43.2971 8.57487 41.2134 6.00449 41.2134C1.04427 41.2134 -0.474506 34.4888 4.00424 32.357L69.4217 1.21913C71.0531 0.442582 72.9476 0.442583 74.5791 1.21913L139.997 32.357Z" fill="#35C284"/>
<path d="M137.996 41.2134L138.205 41.6679L138.496 41.5343V41.2134H137.996ZM137.905 41.255L137.697 40.8005L137.695 40.8015L137.905 41.255ZM136.238 42.0295L136.027 41.576L136.011 41.5836L135.995 41.5925L136.238 42.0295ZM134.6 42.9404L134.357 42.5034L134.29 42.5408L134.237 42.5967L134.6 42.9404ZM133.156 44.4668L132.792 44.1231L132.621 44.3039L132.662 44.5494L133.156 44.4668ZM133.506 46.5566L134.004 46.5965L134.009 46.5349L133.999 46.474L133.506 46.5566ZM133.345 48.5566L133.839 48.6335L133.842 48.6151L133.843 48.5965L133.345 48.5566ZM133.034 50.5566L132.54 50.4796L132.521 50.5976L132.558 50.7111L133.034 50.5566ZM133.684 52.5566L134.158 52.7141L134.21 52.5582L134.159 52.402L133.684 52.5566ZM133.02 54.5566L132.545 54.399L132.512 54.5007L132.522 54.6073L133.02 54.5566ZM133.224 56.5566L133.721 56.6134L133.727 56.5597L133.721 56.5058L133.224 56.5566ZM132.995 58.5566L132.498 58.4997L132.493 58.5457L132.496 58.5918L132.995 58.5566ZM133.136 60.5566L132.638 60.5918L132.638 60.6019L132.639 60.6119L133.136 60.5566ZM133.359 62.5566L133.859 62.5494L133.859 62.5252L133.856 62.5012L133.359 62.5566ZM133.388 64.5566L133.872 64.6802L133.889 64.6159L133.888 64.5494L133.388 64.5566ZM132.877 66.5566L132.393 66.4329L132.374 66.507L132.378 66.5833L132.877 66.5566ZM132.984 68.5565L132.485 68.5833L132.489 68.6486L132.509 68.7109L132.984 68.5565ZM133.633 70.5565L134.133 70.556L134.133 70.4772L134.109 70.4022L133.633 70.5565ZM133.636 72.5565L134.134 72.6003L134.136 72.5782L134.136 72.556L133.636 72.5565ZM133.46 74.5566L133.955 74.6274L133.957 74.6139L133.958 74.6003L133.46 74.5566ZM133.174 76.5566L133.668 76.631L133.669 76.6274L133.174 76.5566ZM132.872 78.5566L132.378 78.4821L132.359 78.6072L132.402 78.7261L132.872 78.5566ZM133.593 80.5566L134.093 80.5589L134.094 80.4703L134.064 80.387L133.593 80.5566ZM133.584 82.5566L134.07 82.6752L134.084 82.6179L134.084 82.5589L133.584 82.5566ZM133.095 84.5566L132.61 84.4379L132.582 84.553L132.608 84.6684L133.095 84.5566ZM133.554 86.5566L134.054 86.5736L134.056 86.5084L134.042 86.4447L133.554 86.5566ZM133.486 88.5566L133.966 88.696L133.984 88.636L133.986 88.5736L133.486 88.5566ZM132.905 90.5566L132.425 90.4171L132.383 90.5627L132.428 90.7072L132.905 90.5566ZM133.537 92.5566L134.037 92.5335L134.034 92.4682L134.014 92.4059L133.537 92.5566ZM133.63 94.5566L133.13 94.5796L133.13 94.5859L133.63 94.5566ZM133.747 96.5566L134.208 96.7515L134.253 96.6439L134.246 96.5272L133.747 96.5566ZM132.9 98.5565L132.44 98.3616L132.367 98.5344L132.425 98.7126L132.9 98.5565ZM133.557 100.557L134.041 100.683L134.078 100.541L134.032 100.401L133.557 100.557ZM133.033 102.557L132.549 102.43L132.514 102.563L132.552 102.696L133.033 102.557ZM133.613 104.557L134.109 104.613L134.121 104.514L134.093 104.417L133.613 104.557ZM133.385 106.557L132.888 106.5L132.882 106.552L132.887 106.603L133.385 106.557ZM133.573 108.557L134.071 108.601L134.076 108.555L134.071 108.51L133.573 108.557ZM133.395 110.557L133.892 110.615L133.893 110.608L133.893 110.601L133.395 110.557ZM133.159 112.557L132.662 112.498L132.658 112.534L132.659 112.571L133.159 112.557ZM133.216 114.56L133.647 114.813L133.72 114.689L133.715 114.546L133.216 114.56ZM132.204 116.278L132.587 116.6L132.614 116.568L132.635 116.531L132.204 116.278ZM130.933 117.786L131.233 118.186L131.278 118.152L131.315 118.109L130.933 117.786ZM129.271 119.033L129.31 119.532L129.455 119.521L129.571 119.433L129.271 119.033ZM127.194 119.197L127.128 119.692L127.18 119.699L127.233 119.695L127.194 119.197ZM125.194 118.933L125.259 118.437L125.174 118.426L125.09 118.443L125.194 118.933ZM123.194 119.356L123.21 119.855L123.254 119.854L123.297 119.845L123.194 119.356ZM121.194 119.42L121.131 119.916L121.17 119.921L121.21 119.919L121.194 119.42ZM119.194 119.168L119.256 118.672L119.236 118.669L119.216 118.668L119.194 119.168ZM117.194 119.078L117.216 118.579L117.188 118.578L117.161 118.58L117.194 119.078ZM115.194 119.21L115.108 119.703L115.167 119.713L115.227 119.709L115.194 119.21ZM113.194 118.864L113.279 118.371L113.173 118.353L113.07 118.38L113.194 118.864ZM111.194 119.377L111.095 119.867L111.207 119.889L111.318 119.861L111.194 119.377ZM109.194 118.972L109.293 118.482L109.257 118.475L109.22 118.473L109.194 118.972ZM107.194 118.865L107.22 118.366L107.163 118.363L107.106 118.373L107.194 118.865ZM105.194 119.221L105.115 119.715L105.198 119.728L105.281 119.713L105.194 119.221ZM103.194 118.903L103.272 118.409L103.19 118.396L103.108 118.41L103.194 118.903ZM101.194 119.25L101.174 119.75L101.227 119.752L101.279 119.743L101.194 119.25ZM99.1937 119.172L99.2133 118.672L99.1981 118.672L99.1828 118.672L99.1937 119.172ZM97.1937 119.215L97.2035 119.715L97.2046 119.715L97.1937 119.215ZM95.1937 119.255L95.1882 119.755L95.1958 119.755L95.2035 119.754L95.1937 119.255ZM93.1937 119.233L93.1992 118.733L93.1696 118.732L93.1402 118.736L93.1937 119.233ZM91.1937 119.448L91.032 119.921L91.1369 119.957L91.2472 119.945L91.1937 119.448ZM89.1937 118.764L89.3553 118.291L89.304 118.274L89.25 118.268L89.1937 118.764ZM87.1937 118.538L87.25 118.041L87.2255 118.038L87.2008 118.038L87.1937 118.538ZM85.1937 118.509L85.2008 118.009L85.1057 118.008L85.0167 118.042L85.1937 118.509ZM83.1937 119.266L83.0729 119.751L83.2245 119.789L83.3706 119.734L83.1937 119.266ZM81.1937 118.768L81.3145 118.283L81.2505 118.267L81.1846 118.268L81.1937 118.768ZM79.1937 118.804L79.172 119.304L79.1874 119.305L79.2028 119.304L79.1937 118.804ZM77.1937 118.718L77.2154 118.218L77.1977 118.217L77.18 118.218L77.1937 118.718ZM75.1937 118.772L75.18 118.273L75.1226 118.274L75.0671 118.289L75.1937 118.772ZM73.1937 119.296L73.1223 119.791L73.2224 119.805L73.3203 119.78L73.1937 119.296ZM71.1937 119.008L71.2651 118.513L71.237 118.509L71.2087 118.508L71.1937 119.008ZM69.1937 118.947L69.2087 118.448L69.1905 118.447L69.1724 118.448L69.1937 118.947ZM67.1937 119.033L67.0939 119.523L67.1539 119.535L67.215 119.532L67.1937 119.033ZM65.1937 118.626L65.2934 118.136L65.2124 118.119L65.1303 118.13L65.1937 118.626ZM63.1937 118.881L63.1303 118.385L63.1228 118.386L63.1154 118.387L63.1937 118.881ZM61.1937 119.198L61.2226 119.697L61.2474 119.696L61.272 119.692L61.1937 119.198ZM59.1937 119.314L59.0733 119.799L59.1469 119.818L59.2226 119.813L59.1937 119.314ZM57.1937 118.818L57.3141 118.333L57.2866 118.326L57.2584 118.322L57.1937 118.818ZM55.1937 118.557L55.2584 118.061L55.1746 118.05L55.0919 118.067L55.1937 118.557ZM53.1937 118.973L53.2124 119.472L53.2544 119.471L53.2955 119.462L53.1937 118.973ZM51.1937 119.048L51.1733 119.547L51.1928 119.548L51.2124 119.547L51.1937 119.048ZM49.1937 118.966L49.2141 118.466L49.1542 118.464L49.0955 118.476L49.1937 118.966ZM47.1937 119.366L47.0958 119.857L47.1938 119.876L47.2919 119.857L47.1937 119.366ZM45.1937 118.967L45.2916 118.477L45.1813 118.455L45.0721 118.482L45.1937 118.967ZM43.1937 119.468L43.1714 119.968L43.2444 119.971L43.3153 119.953L43.1937 119.468ZM41.1937 119.379L41.2159 118.88L41.2028 118.879L41.1896 118.879L41.1937 119.379ZM39.1937 119.396L39.0594 119.877L39.1273 119.896L39.1978 119.896L39.1937 119.396ZM37.1937 118.838L37.328 118.356L37.2607 118.338L37.1909 118.338L37.1937 118.838ZM35.1937 118.849L35.1909 118.349L35.1776 118.349L35.1937 118.849ZM33.1937 118.914L33.1776 118.414L33.1679 118.414L33.1583 118.415L33.1937 118.914ZM31.1937 119.055L31.1224 119.55L31.1755 119.558L31.2291 119.554L31.1937 119.055ZM29.1937 118.767L29.265 118.273L29.1915 118.262L29.1181 118.273L29.1937 118.767ZM27.1937 119.073L27.1796 119.573L27.2247 119.575L27.2693 119.568L27.1937 119.073ZM25.1937 119.017L25.2078 118.517L25.1982 118.517L25.1937 119.017ZM23.1937 118.999L23.0795 119.486L23.1336 119.498L23.1891 119.499L23.1937 118.999ZM21.1937 118.53L21.3079 118.043L21.2473 118.029L21.1851 118.03L21.1937 118.53ZM19.1937 118.564L19.1851 118.064L19.1485 118.065L19.1123 118.071L19.1937 118.564ZM17.1937 118.894L17.1944 119.394L17.235 119.394L17.275 119.387L17.1937 118.894ZM15.1853 118.897L14.9282 119.326L15.0472 119.397L15.186 119.397L15.1853 118.897ZM13.4741 117.871L13.1842 118.278L13.2002 118.29L13.217 118.3L13.4741 117.871ZM11.85 116.715L11.3875 116.905L11.4423 117.039L11.5601 117.122L11.85 116.715ZM11.0921 114.869L10.6057 114.985L10.6148 115.023L10.6296 115.059L11.0921 114.869ZM10.6327 112.943L10.1328 112.956L10.1341 113.008L10.1463 113.059L10.6327 112.943ZM10.5828 110.943L11.0827 110.931L11.0816 110.888L11.0734 110.847L10.5828 110.943ZM10.1891 108.943L9.72224 108.764L9.67072 108.899L9.69852 109.04L10.1891 108.943ZM10.9559 106.943L11.4228 107.122L11.4491 107.054L11.4546 106.98L10.9559 106.943ZM11.1046 104.943L11.6032 104.98L11.6115 104.869L11.5715 104.764L11.1046 104.943ZM10.3381 102.943L9.87037 102.766L9.80312 102.944L9.87121 103.122L10.3381 102.943ZM11.0938 100.943L11.5615 101.12L11.5928 101.037L11.5938 100.949L11.0938 100.943ZM11.1152 98.9432L11.6151 98.9485L11.6159 98.8785L11.5974 98.8109L11.1152 98.9432ZM10.5667 96.9432L10.0766 96.844L10.053 96.9606L10.0845 97.0754L10.5667 96.9432ZM10.9714 94.9432L11.4615 95.0423L11.4769 94.9663L11.4685 94.8891L10.9714 94.9432ZM10.7539 92.9432L11.251 92.8891L11.2465 92.8481L11.2354 92.8083L10.7539 92.9432ZM10.1938 90.9432L9.69389 90.9358L9.69282 91.0082L9.71236 91.078L10.1938 90.9432ZM10.2233 88.9432L9.74699 88.7912L9.72447 88.8617L9.72338 88.9358L10.2233 88.9432ZM10.8616 86.9432L11.3379 87.0952L11.3805 86.9618L11.3476 86.8257L10.8616 86.9432ZM10.3781 84.9432L9.87812 84.9375L9.87741 85L9.89208 85.0607L10.3781 84.9432ZM10.4007 82.9432L9.93019 82.7739L9.90164 82.8532L9.90069 82.9375L10.4007 82.9432ZM11.1203 80.9432L11.5908 81.1125L11.6494 80.9494L11.5946 80.785L11.1203 80.9432ZM10.4536 78.9432L9.95526 78.9024L9.94692 79.0043L9.97925 79.1013L10.4536 78.9432ZM10.6173 76.9432L10.1269 76.8454L10.1213 76.8737L10.1189 76.9024L10.6173 76.9432ZM11.016 74.9432L11.5063 75.0409L11.53 74.9222L11.4967 74.8057L11.016 74.9432ZM10.4442 72.9432L9.94773 73.0028L9.95248 73.0424L9.96342 73.0806L10.4442 72.9432ZM10.2037 70.9432L9.73224 70.7768L9.69338 70.8869L9.70732 71.0028L10.2037 70.9432ZM10.9095 68.9432L11.381 69.1096L11.4278 68.9769L11.3986 68.8394L10.9095 68.9432ZM10.4851 66.9432L9.98712 66.8988L9.98046 66.9735L9.99603 67.0469L10.4851 66.9432ZM10.6634 64.9432L10.1654 64.8981L10.1654 64.8988L10.6634 64.9432ZM10.8445 62.9432L11.3424 62.9883L11.3475 62.9323L11.34 62.8766L10.8445 62.9432ZM10.5758 60.9432L10.0842 60.8521L10.0696 60.9306L10.0802 61.0097L10.5758 60.9432ZM10.9461 58.9432L11.4378 59.0342L11.4535 58.949L11.4397 58.8634L10.9461 58.9432ZM10.6229 56.9432L10.1293 56.8632L10.1164 56.9431L10.1293 57.0229L10.6229 56.9432ZM10.9469 54.9432L11.4405 55.0231L11.4536 54.9422L11.4402 54.8614L10.9469 54.9432ZM10.6154 52.9432L10.1159 52.9209L10.1136 52.9732L10.1221 53.0249L10.6154 52.9432ZM10.7045 50.9432L11.204 50.9654L11.2045 50.9542L11.2045 50.943L10.7045 50.9432ZM10.704 48.9432L11.204 48.943L11.204 48.9045L11.1981 48.8665L10.704 48.9432ZM10.3935 46.9432L9.89667 46.9991L9.89784 47.0095L9.89945 47.0199L10.3935 46.9432ZM10.1777 45.0271L10.6745 44.9711L10.6658 44.8938L10.6341 44.8229L10.1777 45.0271ZM9.43775 43.3736L9.89414 43.1694L9.88619 43.1516L9.87689 43.1345L9.43775 43.3736ZM8.44036 41.5415L8.8795 41.3024L8.73873 41.0439L8.44432 41.0415L8.44036 41.5415ZM6.36667 41.5251L6.2293 42.0058L6.2947 42.0245L6.36271 42.0251L6.36667 41.5251ZM4.41415 40.9672L4.07557 41.3351L4.1628 41.4154L4.27678 41.4479L4.41415 40.9672ZM2.98868 39.6554L2.62952 40.0032L2.63952 40.0135L2.6501 40.0233L2.98868 39.6554ZM1.6297 38.2522L1.14535 38.3763L1.17827 38.5048L1.27054 38.6001L1.6297 38.2522ZM1.12122 36.2676L0.637315 36.1417L0.604825 36.2667L0.636861 36.3917L1.12122 36.2676ZM1.64667 34.2473L1.37102 33.8301L1.21103 33.9358L1.16277 34.1214L1.64667 34.2473ZM3.35227 33.1203L3.62792 33.5374L3.6882 33.4976L3.73474 33.4423L3.35227 33.1203ZM4.72035 31.4955L4.64833 31.0007L4.46028 31.028L4.33788 31.1734L4.72035 31.4955ZM6.79183 31.1939L6.86386 31.6887L6.99385 31.6698L7.09775 31.5894L6.79183 31.1939ZM8.41076 29.9416L8.17859 29.4988L8.13963 29.5192L8.10484 29.5461L8.41076 29.9416ZM10.1834 29.0122L10.011 28.5429L9.98024 28.5542L9.95123 28.5694L10.1834 29.0122ZM12.0687 28.3197L12.2412 28.789L12.2949 28.7693L12.3428 28.7378L12.0687 28.3197ZM13.757 27.2131L13.6742 26.72L13.5707 26.7374L13.4829 26.7949L13.757 27.2131ZM15.8081 26.8686L15.8909 27.3617L15.9253 27.3559L15.9586 27.3455L15.8081 26.8686ZM17.7338 26.2609L17.8843 26.7377L17.9787 26.708L18.0546 26.6445L17.7338 26.2609ZM19.3182 24.936L19.086 24.4932L19.0385 24.5181L18.9974 24.5524L19.3182 24.936ZM21.0907 24.0064L21.3229 24.4492L21.3263 24.4474L21.0907 24.0064ZM22.8566 23.0628L22.653 22.6061L22.6367 22.6134L22.621 22.6218L22.8566 23.0628ZM24.6839 22.2483L24.5918 21.7568L24.534 21.7677L24.4803 21.7916L24.6839 22.2483ZM26.7175 21.8671L26.8096 22.3585L26.8917 22.3431L26.9643 22.3019L26.7175 21.8671ZM28.4613 20.8771L28.2843 20.4095L28.2481 20.4232L28.2144 20.4423L28.4613 20.8771ZM30.3382 20.1669L30.5152 20.6346L30.5956 20.6041L30.6612 20.5486L30.3382 20.1669ZM31.9172 18.8307L31.7529 18.3584L31.6651 18.3889L31.5942 18.449L31.9172 18.8307ZM33.8176 18.1697L33.9818 18.642L34.0344 18.6237L34.0817 18.5943L33.8176 18.1697ZM35.5266 17.1067L35.3921 16.6252L35.3232 16.6444L35.2625 16.6821L35.5266 17.1067ZM37.4816 16.5605L37.6162 17.0421L37.7075 17.0166L37.7831 16.9594L37.4816 16.5605ZM39.1107 15.3295L39.0155 14.8387L38.9017 14.8607L38.8093 14.9306L39.1107 15.3295ZM41.1385 14.9362L41.2337 15.4271L41.353 15.4039L41.4483 15.3287L41.1385 14.9362ZM42.7486 13.6653L42.5443 13.2089L42.4876 13.2343L42.4388 13.2728L42.7486 13.6653ZM44.5746 12.8481L44.4996 12.3538L44.4324 12.364L44.3704 12.3918L44.5746 12.8481ZM46.6404 12.5346L46.7154 13.0289L46.8785 13.0042L46.9949 12.8872L46.6404 12.5346ZM48.1385 11.0285L47.9 10.5891L47.8357 10.624L47.7841 10.6759L48.1385 11.0285ZM49.8988 10.0731L49.7101 9.61004L49.6845 9.62047L49.6602 9.63366L49.8988 10.0731ZM51.7541 9.31739L51.9427 9.78045L51.9431 9.78029L51.7541 9.31739ZM53.6086 8.56012L53.7976 9.02302L53.8202 9.01379L53.8418 9.0024L53.6086 8.56012ZM55.3792 7.62645L55.2729 7.13788L55.2063 7.15237L55.146 7.18418L55.3792 7.62645ZM57.3864 7.18989L57.4927 7.67846L57.6145 7.65198L57.7096 7.57143L57.3864 7.18989ZM58.965 5.85288L58.8871 5.359L58.7487 5.38083L58.6419 5.47134L58.965 5.85288ZM61.0252 5.52769L61.1032 6.02157L61.2061 6.00533L61.2939 5.94937L61.0252 5.52769ZM62.7248 4.44479L62.5688 3.96976L62.5091 3.98936L62.4561 4.02311L62.7248 4.44479ZM64.6403 3.8156L64.7964 4.29063L64.8661 4.26772L64.9263 4.22574L64.6403 3.8156ZM66.3034 2.656L66.1793 2.17165L66.0916 2.19411L66.0174 2.24586L66.3034 2.656ZM68.2776 2.15012L68.4017 2.63447L68.4532 2.62128L68.5007 2.59756L68.2776 2.15012ZM70.0427 1.26983L69.9505 0.778404L69.882 0.791263L69.8196 0.822385L70.0427 1.26983ZM71.9064 0.920178L72.0005 0.429105L71.9074 0.411274L71.8142 0.428752L71.9064 0.920178ZM73.7588 1.27497L73.6647 1.76604L73.7017 1.77312L73.7393 1.77459L73.7588 1.27497ZM75.882 1.3575L76.256 1.02556L76.1145 0.866153L75.9015 0.857874L75.882 1.3575ZM77.3239 2.98178L76.95 3.31371L77.0422 3.41758L77.1748 3.45902L77.3239 2.98178ZM79.2521 3.58441L79.5378 3.17411L79.4747 3.13013L79.4012 3.10718L79.2521 3.58441ZM80.9156 4.74296L80.6299 5.15327L80.6809 5.18881L80.7391 5.21077L80.9156 4.74296ZM82.7934 5.45146L83.0264 5.00904L82.9989 4.99459L82.9699 4.98365L82.7934 5.45146ZM84.5645 6.38405L84.3315 6.82646L84.3969 6.8609L84.4695 6.87494L84.5645 6.38405ZM86.5927 6.7766L86.9125 6.39228L86.8138 6.31012L86.6877 6.28571L86.5927 6.7766ZM88.1792 8.09693L87.8594 8.48125L87.9517 8.55808L88.0688 8.58459L88.1792 8.09693ZM90.1788 8.54955L90.3004 8.06443L90.2892 8.06189L90.1788 8.54955ZM92.1577 9.04555L92.4537 8.64259L92.3745 8.58443L92.2793 8.56055L92.1577 9.04555ZM93.7988 10.2511L94.1059 9.85626L94.0949 9.84819L93.7988 10.2511ZM95.4156 11.5081L95.1087 11.9028L95.1419 11.9287L95.1791 11.9486L95.4156 11.5081ZM97.1797 12.4552L96.9432 12.8958L96.9643 12.907L96.9863 12.9163L97.1797 12.4552ZM99.026 13.23L98.8325 13.6911L98.8631 13.7039L98.8951 13.7126L99.026 13.23ZM100.988 13.7622L101.143 13.287L101.131 13.283L101.119 13.2796L100.988 13.7622ZM102.904 14.3898L103.141 13.9494L103.102 13.9284L103.06 13.9146L102.904 14.3898ZM104.668 15.338L104.431 15.7784L104.459 15.7933L104.488 15.8046L104.668 15.338ZM106.54 16.0583L106.725 15.5937L106.719 15.5916L106.54 16.0583ZM108.402 16.7992L108.662 16.3717L108.626 16.35L108.587 16.3346L108.402 16.7992ZM110.121 17.842L109.861 18.2695L109.889 18.286L109.918 18.2989L110.121 17.842ZM111.949 18.6552L112.255 18.2599L112.207 18.2229L112.152 18.1983L111.949 18.6552ZM113.567 19.9086L113.261 20.3039L113.322 20.3514L113.395 20.378L113.567 19.9086ZM115.453 20.6002L115.673 20.1513L115.65 20.1398L115.625 20.1308L115.453 20.6002ZM117.248 21.4814L117.5 21.049L117.484 21.0402L117.469 21.0325L117.248 21.4814ZM118.984 22.4891L118.733 22.9216L118.743 22.9271L118.984 22.4891ZM120.739 23.4549L120.498 23.893L120.551 23.9222L120.61 23.9379L120.739 23.4549ZM122.704 23.9807L122.842 23.5L122.833 23.4977L122.704 23.9807ZM124.653 24.5397L124.933 24.1254L124.867 24.081L124.791 24.0591L124.653 24.5397ZM126.329 25.6722L126.617 25.2632L126.609 25.2579L126.329 25.6722ZM127.988 26.84L127.7 27.2489L127.743 27.2794L127.792 27.3002L127.988 26.84ZM129.83 27.623L129.635 28.0832L129.648 28.0889L129.662 28.0938L129.83 27.623ZM131.723 28.3004L131.987 27.8756L131.941 27.8475L131.891 27.8296L131.723 28.3004ZM133.432 29.3624L133.72 28.9533L133.708 28.9452L133.696 28.9377L133.432 29.3624ZM135.092 30.5283L134.805 30.9375L134.902 31.0055L135.019 31.0229L135.092 30.5283ZM137.162 30.8346L137.309 30.3567L137.272 30.3455L137.235 30.34L137.162 30.8346ZM139.093 31.4297L139.356 31.0044L139.302 30.9707L139.241 30.9518L139.093 31.4297ZM140.841 32.5104L141.245 32.2162L141.187 32.1368L141.104 32.0851L140.841 32.5104ZM142.056 34.1808L142.49 33.9315L142.476 33.9083L142.461 33.8866L142.056 34.1808ZM143.125 36.0384L143.557 36.2894L143.702 36.0395L143.558 35.7891L143.125 36.0384ZM142.028 37.9288L141.595 37.6778L141.59 37.6864L142.028 37.9288ZM141.141 39.5277L141.502 39.8735L141.547 39.8267L141.579 39.7701L141.141 39.5277ZM139.788 40.9409L139.815 41.4403L140.012 41.4298L140.149 41.2867L139.788 40.9409ZM137.996 41.0356L137.97 40.5363L137.496 40.5613V41.0356H137.996ZM137.996 41.2134L137.788 40.7588L137.697 40.8005L137.905 41.255L138.114 41.7096L138.205 41.6679L137.996 41.2134ZM137.905 41.255L137.695 40.8015L136.027 41.576L136.238 42.0295L136.448 42.4829L138.116 41.7085L137.905 41.255ZM136.238 42.0295L135.995 41.5925L134.357 42.5034L134.6 42.9404L134.843 43.3773L136.481 42.4664L136.238 42.0295ZM134.6 42.9404L134.237 42.5967L132.792 44.1231L133.156 44.4668L133.519 44.8105L134.963 43.284L134.6 42.9404ZM133.156 44.4668L132.662 44.5494L133.012 46.6391L133.506 46.5566L133.999 46.474L133.649 44.3842L133.156 44.4668ZM133.506 46.5566L133.007 46.5166L132.847 48.5166L133.345 48.5566L133.843 48.5965L134.004 46.5965L133.506 46.5566ZM133.345 48.5566L132.851 48.4796L132.54 50.4796L133.034 50.5566L133.528 50.6335L133.839 48.6335L133.345 48.5566ZM133.034 50.5566L132.558 50.7111L133.208 52.7111L133.684 52.5566L134.159 52.402L133.509 50.402L133.034 50.5566ZM133.684 52.5566L133.209 52.399L132.545 54.399L133.02 54.5566L133.494 54.7141L134.158 52.7141L133.684 52.5566ZM133.02 54.5566L132.522 54.6073L132.726 56.6073L133.224 56.5566L133.721 56.5058L133.517 54.5058L133.02 54.5566ZM133.224 56.5566L132.727 56.4997L132.498 58.4997L132.995 58.5566L133.492 58.6134L133.721 56.6134L133.224 56.5566ZM132.995 58.5566L132.496 58.5918L132.638 60.5918L133.136 60.5566L133.635 60.5213L133.494 58.5213L132.995 58.5566ZM133.136 60.5566L132.639 60.6119L132.862 62.6119L133.359 62.5566L133.856 62.5012L133.633 60.5012L133.136 60.5566ZM133.359 62.5566L132.859 62.5637L132.888 64.5637L133.388 64.5566L133.888 64.5494L133.859 62.5494L133.359 62.5566ZM133.388 64.5566L132.903 64.4329L132.393 66.4329L132.877 66.5566L133.362 66.6802L133.872 64.6802L133.388 64.5566ZM132.877 66.5566L132.378 66.5833L132.485 68.5833L132.984 68.5565L133.484 68.5298L133.377 66.5298L132.877 66.5566ZM132.984 68.5565L132.509 68.7109L133.158 70.7109L133.633 70.5565L134.109 70.4022L133.46 68.4022L132.984 68.5565ZM133.633 70.5565L133.133 70.5571L133.136 72.5571L133.636 72.5565L134.136 72.556L134.133 70.556L133.633 70.5565ZM133.636 72.5565L133.137 72.5128L132.962 74.5128L133.46 74.5566L133.958 74.6003L134.134 72.6003L133.636 72.5565ZM133.46 74.5566L132.965 74.4857L132.679 76.4857L133.174 76.5566L133.669 76.6274L133.955 74.6274L133.46 74.5566ZM133.174 76.5566L132.679 76.4821L132.378 78.4821L132.872 78.5566L133.367 78.631L133.668 76.631L133.174 76.5566ZM132.872 78.5566L132.402 78.7261L133.123 80.7261L133.593 80.5566L134.064 80.387L133.343 78.387L132.872 78.5566ZM133.593 80.5566L133.093 80.5542L133.084 82.5542L133.584 82.5566L134.084 82.5589L134.093 80.5589L133.593 80.5566ZM133.584 82.5566L133.098 82.4379L132.61 84.4379L133.095 84.5566L133.581 84.6752L134.07 82.6752L133.584 82.5566ZM133.095 84.5566L132.608 84.6684L133.067 86.6684L133.554 86.5566L134.042 86.4447L133.583 84.4447L133.095 84.5566ZM133.554 86.5566L133.055 86.5395L132.986 88.5395L133.486 88.5566L133.986 88.5736L134.054 86.5736L133.554 86.5566ZM133.486 88.5566L133.006 88.4171L132.425 90.4171L132.905 90.5566L133.385 90.6961L133.966 88.696L133.486 88.5566ZM132.905 90.5566L132.428 90.7072L133.06 92.7072L133.537 92.5566L134.014 92.4059L133.382 90.4059L132.905 90.5566ZM133.537 92.5566L133.038 92.5796L133.13 94.5796L133.63 94.5566L134.129 94.5335L134.037 92.5335L133.537 92.5566ZM133.63 94.5566L133.13 94.5859L133.248 96.5859L133.747 96.5566L134.246 96.5272L134.129 94.5272L133.63 94.5566ZM133.747 96.5566L133.287 96.3616L132.44 98.3616L132.9 98.5565L133.361 98.7515L134.208 96.7515L133.747 96.5566ZM132.9 98.5565L132.425 98.7126L133.082 100.713L133.557 100.557L134.032 100.401L133.376 98.4005L132.9 98.5565ZM133.557 100.557L133.074 100.43L132.549 102.43L133.033 102.557L133.516 102.683L134.041 100.683L133.557 100.557ZM133.033 102.557L132.552 102.696L133.132 104.696L133.613 104.557L134.093 104.417L133.513 102.417L133.033 102.557ZM133.613 104.557L133.116 104.5L132.888 106.5L133.385 106.557L133.882 106.613L134.109 104.613L133.613 104.557ZM133.385 106.557L132.887 106.603L133.076 108.604L133.573 108.557L134.071 108.51L133.883 106.51L133.385 106.557ZM133.573 108.557L133.075 108.512L132.897 110.512L133.395 110.557L133.893 110.601L134.071 108.601L133.573 108.557ZM133.395 110.557L132.899 110.498L132.662 112.498L133.159 112.557L133.655 112.615L133.892 110.615L133.395 110.557ZM133.159 112.557L132.659 112.571L132.716 114.574L133.216 114.56L133.715 114.546L133.659 112.542L133.159 112.557ZM133.216 114.56L132.785 114.306L131.773 116.024L132.204 116.278L132.635 116.531L133.647 114.813L133.216 114.56ZM132.204 116.278L131.822 115.955L130.55 117.464L130.933 117.786L131.315 118.109L132.587 116.6L132.204 116.278ZM130.933 117.786L130.633 117.387L128.971 118.634L129.271 119.033L129.571 119.433L131.233 118.186L130.933 117.786ZM129.271 119.033L129.232 118.535L127.155 118.698L127.194 119.197L127.233 119.695L129.31 119.532L129.271 119.033ZM127.194 119.197L127.259 118.701L125.259 118.437L125.194 118.933L125.128 119.428L127.128 119.692L127.194 119.197ZM125.194 118.933L125.09 118.443L123.09 118.866L123.194 119.356L123.297 119.845L125.297 119.422L125.194 118.933ZM123.194 119.356L123.178 118.856L121.178 118.92L121.194 119.42L121.21 119.919L123.21 119.855L123.194 119.356ZM121.194 119.42L121.256 118.924L119.256 118.672L119.194 119.168L119.131 119.664L121.131 119.916L121.194 119.42ZM119.194 119.168L119.216 118.668L117.216 118.579L117.194 119.078L117.171 119.578L119.171 119.667L119.194 119.168ZM117.194 119.078L117.161 118.58L115.161 118.711L115.194 119.21L115.227 119.709L117.227 119.577L117.194 119.078ZM115.194 119.21L115.279 118.718L113.279 118.371L113.194 118.864L113.108 119.357L115.108 119.703L115.194 119.21ZM113.194 118.864L113.07 118.38L111.07 118.892L111.194 119.377L111.318 119.861L113.318 119.348L113.194 118.864ZM111.194 119.377L111.293 118.887L109.293 118.482L109.194 118.972L109.095 119.462L111.095 119.867L111.194 119.377ZM109.194 118.972L109.22 118.473L107.22 118.366L107.194 118.865L107.167 119.365L109.167 119.472L109.194 118.972ZM107.194 118.865L107.106 118.373L105.106 118.729L105.194 119.221L105.281 119.713L107.281 119.358L107.194 118.865ZM105.194 119.221L105.272 118.727L103.272 118.409L103.194 118.903L103.115 119.396L105.115 119.715L105.194 119.221ZM103.194 118.903L103.108 118.41L101.108 118.758L101.194 119.25L101.279 119.743L103.279 119.395L103.194 118.903ZM101.194 119.25L101.213 118.751L99.2133 118.672L99.1937 119.172L99.174 119.671L101.174 119.75L101.194 119.25ZM99.1937 119.172L99.1828 118.672L97.1828 118.716L97.1937 119.215L97.2046 119.715L99.2046 119.672L99.1937 119.172ZM97.1937 119.215L97.1839 118.716L95.1839 118.755L95.1937 119.255L95.2035 119.754L97.2035 119.715L97.1937 119.215ZM95.1937 119.255L95.1992 118.755L93.1992 118.733L93.1937 119.233L93.1882 119.733L95.1882 119.755L95.1937 119.255ZM93.1937 119.233L93.1402 118.736L91.1402 118.951L91.1937 119.448L91.2472 119.945L93.2472 119.73L93.1937 119.233ZM91.1937 119.448L91.3553 118.975L89.3553 118.291L89.1937 118.764L89.032 119.238L91.032 119.921L91.1937 119.448ZM89.1937 118.764L89.25 118.268L87.25 118.041L87.1937 118.538L87.1373 119.034L89.1373 119.261L89.1937 118.764ZM87.1937 118.538L87.2008 118.038L85.2008 118.009L85.1937 118.509L85.1866 119.009L87.1866 119.038L87.1937 118.538ZM85.1937 118.509L85.0167 118.042L83.0167 118.798L83.1937 119.266L83.3706 119.734L85.3706 118.977L85.1937 118.509ZM83.1937 119.266L83.3145 118.781L81.3145 118.283L81.1937 118.768L81.0729 119.253L83.0729 119.751L83.1937 119.266ZM81.1937 118.768L81.1846 118.268L79.1846 118.305L79.1937 118.804L79.2028 119.304L81.2028 119.268L81.1937 118.768ZM79.1937 118.804L79.2154 118.305L77.2154 118.218L77.1937 118.718L77.172 119.217L79.172 119.304L79.1937 118.804ZM77.1937 118.718L77.18 118.218L75.18 118.273L75.1937 118.772L75.2074 119.272L77.2074 119.217L77.1937 118.718ZM75.1937 118.772L75.0671 118.289L73.0671 118.812L73.1937 119.296L73.3203 119.78L75.3203 119.256L75.1937 118.772ZM73.1937 119.296L73.2651 118.801L71.2651 118.513L71.1937 119.008L71.1223 119.502L73.1223 119.791L73.1937 119.296ZM71.1937 119.008L71.2087 118.508L69.2087 118.448L69.1937 118.947L69.1787 119.447L71.1787 119.507L71.1937 119.008ZM69.1937 118.947L69.1724 118.448L67.1724 118.533L67.1937 119.033L67.215 119.532L69.215 119.447L69.1937 118.947ZM67.1937 119.033L67.2934 118.543L65.2934 118.136L65.1937 118.626L65.0939 119.116L67.0939 119.523L67.1937 119.033ZM65.1937 118.626L65.1303 118.13L63.1303 118.385L63.1937 118.881L63.257 119.377L65.257 119.122L65.1937 118.626ZM63.1937 118.881L63.1154 118.387L61.1154 118.704L61.1937 119.198L61.272 119.692L63.272 119.375L63.1937 118.881ZM61.1937 119.198L61.1648 118.699L59.1648 118.815L59.1937 119.314L59.2226 119.813L61.2226 119.697L61.1937 119.198ZM59.1937 119.314L59.3141 118.829L57.3141 118.333L57.1937 118.818L57.0733 119.303L59.0733 119.799L59.1937 119.314ZM57.1937 118.818L57.2584 118.322L55.2584 118.061L55.1937 118.557L55.1289 119.052L57.1289 119.314L57.1937 118.818ZM55.1937 118.557L55.0919 118.067L53.0919 118.483L53.1937 118.973L53.2955 119.462L55.2955 119.046L55.1937 118.557ZM53.1937 118.973L53.175 118.473L51.175 118.548L51.1937 119.048L51.2124 119.547L53.2124 119.472L53.1937 118.973ZM51.1937 119.048L51.2141 118.548L49.2141 118.466L49.1937 118.966L49.1733 119.465L51.1733 119.547L51.1937 119.048ZM49.1937 118.966L49.0955 118.476L47.0955 118.876L47.1937 119.366L47.2919 119.857L49.2919 119.456L49.1937 118.966ZM47.1937 119.366L47.2916 118.876L45.2916 118.477L45.1937 118.967L45.0958 119.457L47.0958 119.857L47.1937 119.366ZM45.1937 118.967L45.0721 118.482L43.0721 118.983L43.1937 119.468L43.3153 119.953L45.3153 119.452L45.1937 118.967ZM43.1937 119.468L43.2159 118.969L41.2159 118.88L41.1937 119.379L41.1714 119.879L43.1714 119.968L43.1937 119.468ZM41.1937 119.379L41.1896 118.879L39.1896 118.896L39.1937 119.396L39.1978 119.896L41.1978 119.879L41.1937 119.379ZM39.1937 119.396L39.328 118.914L37.328 118.356L37.1937 118.838L37.0594 119.32L39.0594 119.877L39.1937 119.396ZM37.1937 118.838L37.1909 118.338L35.1909 118.349L35.1937 118.849L35.1965 119.349L37.1965 119.338L37.1937 118.838ZM35.1937 118.849L35.1776 118.349L33.1776 118.414L33.1937 118.914L33.2098 119.413L35.2098 119.349L35.1937 118.849ZM33.1937 118.914L33.1583 118.415L31.1583 118.557L31.1937 119.055L31.2291 119.554L33.2291 119.412L33.1937 118.914ZM31.1937 119.055L31.265 118.561L29.265 118.273L29.1937 118.767L29.1224 119.262L31.1224 119.55L31.1937 119.055ZM29.1937 118.767L29.1181 118.273L27.1181 118.579L27.1937 119.073L27.2693 119.568L29.2693 119.262L29.1937 118.767ZM27.1937 119.073L27.2078 118.574L25.2078 118.517L25.1937 119.017L25.1796 119.517L27.1796 119.573L27.1937 119.073ZM25.1937 119.017L25.1982 118.517L23.1982 118.499L23.1937 118.999L23.1891 119.499L25.1891 119.517L25.1937 119.017ZM23.1937 118.999L23.3079 118.512L21.3079 118.043L21.1937 118.53L21.0795 119.016L23.0795 119.486L23.1937 118.999ZM21.1937 118.53L21.1851 118.03L19.1851 118.064L19.1937 118.564L19.2023 119.064L21.2023 119.03L21.1937 118.53ZM19.1937 118.564L19.1123 118.071L17.1123 118.4L17.1937 118.894L17.275 119.387L19.275 119.057L19.1937 118.564ZM17.1937 118.894L17.1929 118.394L15.1845 118.397L15.1853 118.897L15.186 119.397L17.1944 119.394L17.1937 118.894ZM15.1853 118.897L15.4424 118.468L13.7312 117.442L13.4741 117.871L13.217 118.3L14.9282 119.326L15.1853 118.897ZM13.4741 117.871L13.764 117.463L12.1399 116.308L11.85 116.715L11.5601 117.122L13.1842 118.278L13.4741 117.871ZM11.85 116.715L12.3125 116.525L11.5546 114.679L11.0921 114.869L10.6296 115.059L11.3875 116.905L11.85 116.715ZM11.0921 114.869L11.5785 114.753L11.119 112.827L10.6327 112.943L10.1463 113.059L10.6057 114.985L11.0921 114.869ZM10.6327 112.943L11.1325 112.931L11.0827 110.931L10.5828 110.943L10.083 110.956L10.1328 112.956L10.6327 112.943ZM10.5828 110.943L11.0734 110.847L10.6797 108.847L10.1891 108.943L9.69852 109.04L10.0922 111.04L10.5828 110.943ZM10.1891 108.943L10.656 109.122L11.4228 107.122L10.9559 106.943L10.4891 106.764L9.72224 108.764L10.1891 108.943ZM10.9559 106.943L11.4546 106.98L11.6032 104.98L11.1046 104.943L10.606 104.906L10.4573 106.906L10.9559 106.943ZM11.1046 104.943L11.5715 104.764L10.805 102.764L10.3381 102.943L9.87121 103.122L10.6377 105.122L11.1046 104.943ZM10.3381 102.943L10.8058 103.12L11.5615 101.12L11.0938 100.943L10.6261 100.766L9.87037 102.766L10.3381 102.943ZM11.0938 100.943L11.5938 100.949L11.6151 98.9485L11.1152 98.9432L10.6152 98.9378L10.5938 100.938L11.0938 100.943ZM11.1152 98.9432L11.5974 98.8109L11.0489 96.8109L10.5667 96.9432L10.0845 97.0754L10.633 99.0754L11.1152 98.9432ZM10.5667 96.9432L11.0568 97.0423L11.4615 95.0423L10.9714 94.9432L10.4814 94.844L10.0766 96.844L10.5667 96.9432ZM10.9714 94.9432L11.4685 94.8891L11.251 92.8891L10.7539 92.9432L10.2569 92.9972L10.4744 94.9972L10.9714 94.9432ZM10.7539 92.9432L11.2354 92.8083L10.6753 90.8083L10.1938 90.9432L9.71236 91.078L10.2725 93.078L10.7539 92.9432ZM10.1938 90.9432L10.6938 90.9505L10.7233 88.9505L10.2233 88.9432L9.72338 88.9358L9.69389 90.9358L10.1938 90.9432ZM10.2233 88.9432L10.6997 89.0952L11.3379 87.0952L10.8616 86.9432L10.3852 86.7912L9.74699 88.7912L10.2233 88.9432ZM10.8616 86.9432L11.3476 86.8257L10.8641 84.8257L10.3781 84.9432L9.89208 85.0607L10.3755 87.0607L10.8616 86.9432ZM10.3781 84.9432L10.8781 84.9488L10.9006 82.9488L10.4007 82.9432L9.90069 82.9375L9.87812 84.9375L10.3781 84.9432ZM10.4007 82.9432L10.8711 83.1125L11.5908 81.1125L11.1203 80.9432L10.6498 80.7739L9.93019 82.7739L10.4007 82.9432ZM11.1203 80.9432L11.5946 80.785L10.9279 78.785L10.4536 78.9432L9.97925 79.1013L10.646 81.1013L11.1203 80.9432ZM10.4536 78.9432L10.9519 78.9839L11.1156 76.9839L10.6173 76.9432L10.1189 76.9024L9.95526 78.9024L10.4536 78.9432ZM10.6173 76.9432L11.1076 77.0409L11.5063 75.0409L11.016 74.9432L10.5256 74.8454L10.1269 76.8454L10.6173 76.9432ZM11.016 74.9432L11.4967 74.8057L10.9249 72.8057L10.4442 72.9432L9.96342 73.0806L10.5353 75.0806L11.016 74.9432ZM10.4442 72.9432L10.9406 72.8835L10.7002 70.8835L10.2037 70.9432L9.70732 71.0028L9.94773 73.0028L10.4442 72.9432ZM10.2037 70.9432L10.6753 71.1096L11.381 69.1096L10.9095 68.9432L10.438 68.7768L9.73224 70.7768L10.2037 70.9432ZM10.9095 68.9432L11.3986 68.8394L10.9743 66.8394L10.4851 66.9432L9.99603 67.0469L10.4204 69.0469L10.9095 68.9432ZM10.4851 66.9432L10.9832 66.9876L11.1614 64.9875L10.6634 64.9432L10.1654 64.8988L9.98712 66.8988L10.4851 66.9432ZM10.6634 64.9432L11.1613 64.9883L11.3424 62.9883L10.8445 62.9432L10.3465 62.8981L10.1654 64.8981L10.6634 64.9432ZM10.8445 62.9432L11.34 62.8766L11.0713 60.8766L10.5758 60.9432L10.0802 61.0097L10.3489 63.0097L10.8445 62.9432ZM10.5758 60.9432L11.0674 61.0342L11.4378 59.0342L10.9461 58.9432L10.4545 58.8521L10.0842 60.8521L10.5758 60.9432ZM10.9461 58.9432L11.4397 58.8634L11.1165 56.8634L10.6229 56.9432L10.1293 57.0229L10.4525 59.0229L10.9461 58.9432ZM10.6229 56.9432L11.1164 57.0231L11.4405 55.0231L10.9469 54.9432L10.4533 54.8632L10.1293 56.8632L10.6229 56.9432ZM10.9469 54.9432L11.4402 54.8614L11.1087 52.8614L10.6154 52.9432L10.1221 53.0249L10.4536 55.0249L10.9469 54.9432ZM10.6154 52.9432L11.1149 52.9654L11.204 50.9654L10.7045 50.9432L10.205 50.9209L10.1159 52.9209L10.6154 52.9432ZM10.7045 50.9432L11.2045 50.943L11.204 48.943L10.704 48.9432L10.204 48.9433L10.2045 50.9433L10.7045 50.9432ZM10.704 48.9432L11.1981 48.8665L10.8876 46.8665L10.3935 46.9432L9.89945 47.0199L10.2099 49.0199L10.704 48.9432ZM10.3935 46.9432L10.8904 46.8872L10.6745 44.9711L10.1777 45.0271L9.68082 45.0831L9.89667 46.9991L10.3935 46.9432ZM10.1777 45.0271L10.6341 44.8229L9.89414 43.1694L9.43775 43.3736L8.98136 43.5778L9.72129 45.2313L10.1777 45.0271ZM9.43775 43.3736L9.87689 43.1345L8.8795 41.3024L8.44036 41.5415L8.00121 41.7806L8.99861 43.6127L9.43775 43.3736ZM8.44036 41.5415L8.44432 41.0415L6.37064 41.0251L6.36667 41.5251L6.36271 42.0251L8.43639 42.0415L8.44036 41.5415ZM6.36667 41.5251L6.50404 41.0443L4.55151 40.4864L4.41415 40.9672L4.27678 41.4479L6.2293 42.0058L6.36667 41.5251ZM4.41415 40.9672L4.75273 40.5993L3.32726 39.2874L2.98868 39.6554L2.6501 40.0233L4.07557 41.3351L4.41415 40.9672ZM2.98868 39.6554L3.34784 39.3075L1.98886 37.9044L1.6297 38.2522L1.27054 38.6001L2.62952 40.0032L2.98868 39.6554ZM1.6297 38.2522L2.11406 38.1281L1.60557 36.1435L1.12122 36.2676L0.636861 36.3917L1.14535 38.3763L1.6297 38.2522ZM1.12122 36.2676L1.60512 36.3935L2.13057 34.3731L1.64667 34.2473L1.16277 34.1214L0.637315 36.1417L1.12122 36.2676ZM1.64667 34.2473L1.92232 34.6644L3.62792 33.5374L3.35227 33.1203L3.07662 32.7031L1.37102 33.8301L1.64667 34.2473ZM3.35227 33.1203L3.73474 33.4423L5.10283 31.8175L4.72035 31.4955L4.33788 31.1734L2.96979 32.7982L3.35227 33.1203ZM4.72035 31.4955L4.79238 31.9902L6.86386 31.6887L6.79183 31.1939L6.71981 30.6991L4.64833 31.0007L4.72035 31.4955ZM6.79183 31.1939L7.09775 31.5894L8.71668 30.3371L8.41076 29.9416L8.10484 29.5461L6.48591 30.7984L6.79183 31.1939ZM8.41076 29.9416L8.64293 30.3844L10.4156 29.4551L10.1834 29.0122L9.95123 28.5694L8.17859 29.4988L8.41076 29.9416ZM10.1834 29.0122L10.3558 29.4816L12.2412 28.789L12.0687 28.3197L11.8963 27.8503L10.011 28.5429L10.1834 29.0122ZM12.0687 28.3197L12.3428 28.7378L14.0311 27.6312L13.757 27.2131L13.4829 26.7949L11.7947 27.9015L12.0687 28.3197ZM13.757 27.2131L13.8398 27.7062L15.8909 27.3617L15.8081 26.8686L15.7253 26.3755L13.6742 26.72L13.757 27.2131ZM15.8081 26.8686L15.9586 27.3455L17.8843 26.7377L17.7338 26.2609L17.5834 25.7841L15.6576 26.3918L15.8081 26.8686ZM17.7338 26.2609L18.0546 26.6445L19.6389 25.3196L19.3182 24.936L18.9974 24.5524L17.4131 25.8774L17.7338 26.2609ZM19.3182 24.936L19.5504 25.3788L21.3229 24.4492L21.0907 24.0064L20.8585 23.5636L19.086 24.4932L19.3182 24.936ZM21.0907 24.0064L21.3263 24.4474L23.0922 23.5038L22.8566 23.0628L22.621 22.6218L20.8551 23.5654L21.0907 24.0064ZM22.8566 23.0628L23.0602 23.5195L24.8875 22.705L24.6839 22.2483L24.4803 21.7916L22.653 22.6061L22.8566 23.0628ZM24.6839 22.2483L24.776 22.7397L26.8096 22.3585L26.7175 21.8671L26.6253 21.3757L24.5918 21.7568L24.6839 22.2483ZM26.7175 21.8671L26.9643 22.3019L28.7081 21.312L28.4613 20.8771L28.2144 20.4423L26.4706 21.4323L26.7175 21.8671ZM28.4613 20.8771L28.6382 21.3448L30.5152 20.6346L30.3382 20.1669L30.1613 19.6993L28.2843 20.4095L28.4613 20.8771ZM30.3382 20.1669L30.6612 20.5486L32.2402 19.2123L31.9172 18.8307L31.5942 18.449L30.0152 19.7852L30.3382 20.1669ZM31.9172 18.8307L32.0814 19.3029L33.9818 18.642L33.8176 18.1697L33.6533 17.6975L31.7529 18.3584L31.9172 18.8307ZM33.8176 18.1697L34.0817 18.5943L35.7907 17.5313L35.5266 17.1067L35.2625 16.6821L33.5535 17.7451L33.8176 18.1697ZM35.5266 17.1067L35.6612 17.5883L37.6162 17.0421L37.4816 16.5605L37.3471 16.0789L35.3921 16.6252L35.5266 17.1067ZM37.4816 16.5605L37.7831 16.9594L39.4121 15.7285L39.1107 15.3295L38.8093 14.9306L37.1802 16.1616L37.4816 16.5605ZM39.1107 15.3295L39.2059 15.8204L41.2337 15.4271L41.1385 14.9362L41.0433 14.4454L39.0155 14.8387L39.1107 15.3295ZM41.1385 14.9362L41.4483 15.3287L43.0584 14.0577L42.7486 13.6653L42.4388 13.2728L40.8287 14.5438L41.1385 14.9362ZM42.7486 13.6653L42.9528 14.1217L44.7788 13.3045L44.5746 12.8481L44.3704 12.3918L42.5443 13.2089L42.7486 13.6653ZM44.5746 12.8481L44.6497 13.3425L46.7154 13.0289L46.6404 12.5346L46.5654 12.0403L44.4996 12.3538L44.5746 12.8481ZM46.6404 12.5346L46.9949 12.8872L48.493 11.3812L48.1385 11.0285L47.7841 10.6759L46.2859 12.182L46.6404 12.5346ZM48.1385 11.0285L48.3771 11.468L50.1373 10.5125L49.8988 10.0731L49.6602 9.63366L47.9 10.5891L48.1385 11.0285ZM49.8988 10.0731L50.0874 10.5362L51.9427 9.78045L51.7541 9.31739L51.5654 8.85433L49.7101 9.61004L49.8988 10.0731ZM51.7541 9.31739L51.9431 9.78029L53.7976 9.02302L53.6086 8.56012L53.4196 8.09722L51.565 8.8545L51.7541 9.31739ZM53.6086 8.56012L53.8418 9.0024L55.6124 8.06873L55.3792 7.62645L55.146 7.18418L53.3754 8.11784L53.6086 8.56012ZM55.3792 7.62645L55.4855 8.11503L57.4927 7.67846L57.3864 7.18989L57.2802 6.70131L55.2729 7.13788L55.3792 7.62645ZM57.3864 7.18989L57.7096 7.57143L59.2882 6.23443L58.965 5.85288L58.6419 5.47134L57.0633 6.80834L57.3864 7.18989ZM58.965 5.85288L59.043 6.34677L61.1032 6.02157L61.0252 5.52769L60.9473 5.0338L58.8871 5.359L58.965 5.85288ZM61.0252 5.52769L61.2939 5.94937L62.9935 4.86647L62.7248 4.44479L62.4561 4.02311L60.7566 5.10601L61.0252 5.52769ZM62.7248 4.44479L62.8808 4.91982L64.7964 4.29063L64.6403 3.8156L64.4843 3.34057L62.5688 3.96976L62.7248 4.44479ZM64.6403 3.8156L64.9263 4.22574L66.5894 3.06614L66.3034 2.656L66.0174 2.24586L64.3543 3.40546L64.6403 3.8156ZM66.3034 2.656L66.4275 3.14035L68.4017 2.63447L68.2776 2.15012L68.1535 1.66577L66.1793 2.17165L66.3034 2.656ZM68.2776 2.15012L68.5007 2.59756L70.2659 1.71727L70.0427 1.26983L69.8196 0.822385L68.0545 1.70267L68.2776 2.15012ZM70.0427 1.26983L70.1349 1.76126L71.9986 1.4116L71.9064 0.920178L71.8142 0.428752L69.9505 0.778404L70.0427 1.26983ZM71.9064 0.920178L71.8124 1.41125L73.6647 1.76604L73.7588 1.27497L73.8528 0.783892L72.0005 0.429105L71.9064 0.920178ZM73.7588 1.27497L73.7393 1.77459L75.8626 1.85712L75.882 1.3575L75.9015 0.857874L73.7782 0.775343L73.7588 1.27497ZM75.882 1.3575L75.5081 1.68943L76.95 3.31371L77.3239 2.98178L77.6978 2.64985L76.256 1.02556L75.882 1.3575ZM77.3239 2.98178L77.1748 3.45902L79.1029 4.06165L79.2521 3.58441L79.4012 3.10718L77.4731 2.50455L77.3239 2.98178ZM79.2521 3.58441L78.9663 3.99472L80.6299 5.15327L80.9156 4.74296L81.2014 4.33266L79.5378 3.17411L79.2521 3.58441ZM80.9156 4.74296L80.7391 5.21077L82.6169 5.91927L82.7934 5.45146L82.9699 4.98365L81.0921 4.27515L80.9156 4.74296ZM82.7934 5.45146L82.5604 5.89387L84.3315 6.82646L84.5645 6.38405L84.7975 5.94164L83.0264 5.00904L82.7934 5.45146ZM84.5645 6.38405L84.4695 6.87494L86.4977 7.26749L86.5927 6.7766L86.6877 6.28571L84.6595 5.89316L84.5645 6.38405ZM86.5927 6.7766L86.2728 7.16092L87.8594 8.48125L88.1792 8.09693L88.499 7.71261L86.9125 6.39228L86.5927 6.7766ZM88.1792 8.09693L88.0688 8.58459L90.0684 9.03722L90.1788 8.54955L90.2892 8.06189L88.2896 7.60927L88.1792 8.09693ZM90.1788 8.54955L90.0572 9.03455L92.0361 9.53054L92.1577 9.04555L92.2793 8.56055L90.3003 8.06456L90.1788 8.54955ZM92.1577 9.04555L91.8617 9.4485L93.5028 10.6541L93.7988 10.2511L94.0949 9.84819L92.4537 8.64259L92.1577 9.04555ZM93.7988 10.2511L93.492 10.6459L95.1087 11.9028L95.4156 11.5081L95.7225 11.1134L94.1057 9.85641L93.7988 10.2511ZM95.4156 11.5081L95.1791 11.9486L96.9432 12.8958L97.1797 12.4552L97.4163 12.0147L95.6521 11.0676L95.4156 11.5081ZM97.1797 12.4552L96.9863 12.9163L98.8325 13.6911L99.026 13.23L99.2195 12.769L97.3732 11.9942L97.1797 12.4552ZM99.026 13.23L98.8951 13.7126L100.857 14.2447L100.988 13.7622L101.119 13.2796L99.1569 12.7474L99.026 13.23ZM100.988 13.7622L100.832 14.2374L102.748 14.8649L102.904 14.3898L103.06 13.9146L101.143 13.287L100.988 13.7622ZM102.904 14.3898L102.667 14.8301L104.431 15.7784L104.668 15.338L104.904 14.8976L103.141 13.9494L102.904 14.3898ZM104.668 15.338L104.488 15.8046L106.36 16.5249L106.54 16.0583L106.719 15.5916L104.847 14.8713L104.668 15.338ZM106.54 16.0583L106.355 16.5229L108.217 17.2638L108.402 16.7992L108.587 16.3346L106.725 15.5937L106.54 16.0583ZM108.402 16.7992L108.143 17.2266L109.861 18.2695L110.121 17.842L110.38 17.4146L108.662 16.3717L108.402 16.7992ZM110.121 17.842L109.918 18.2989L111.745 19.112L111.949 18.6552L112.152 18.1983L110.324 17.3852L110.121 17.842ZM111.949 18.6552L111.643 19.0505L113.261 20.3039L113.567 19.9086L113.873 19.5133L112.255 18.2599L111.949 18.6552ZM113.567 19.9086L113.395 20.378L115.281 21.0696L115.453 20.6002L115.625 20.1308L113.739 19.4392L113.567 19.9086ZM115.453 20.6002L115.233 21.0491L117.028 21.9302L117.248 21.4814L117.469 21.0325L115.673 20.1513L115.453 20.6002ZM117.248 21.4814L116.997 21.9138L118.733 22.9215L118.984 22.4891L119.235 22.0567L117.5 21.049L117.248 21.4814ZM118.984 22.4891L118.743 22.9271L120.498 23.893L120.739 23.4549L120.98 23.0169L119.225 22.051L118.984 22.4891ZM120.739 23.4549L120.61 23.9379L122.575 24.4637L122.704 23.9807L122.833 23.4977L120.868 22.9719L120.739 23.4549ZM122.704 23.9807L122.566 24.4614L124.515 25.0203L124.653 24.5397L124.791 24.0591L122.842 23.5001L122.704 23.9807ZM124.653 24.5397L124.373 24.954L126.049 26.0865L126.329 25.6722L126.609 25.2579L124.933 24.1254L124.653 24.5397ZM126.329 25.6722L126.041 26.081L127.7 27.2489L127.988 26.84L128.276 26.4311L126.617 25.2633L126.329 25.6722ZM127.988 26.84L127.792 27.3002L129.635 28.0832L129.83 27.623L130.026 27.1629L128.183 26.3798L127.988 26.84ZM129.83 27.623L129.662 28.0938L131.554 28.7711L131.723 28.3004L131.891 27.8296L129.999 27.1523L129.83 27.623ZM131.723 28.3004L131.459 28.7251L133.168 29.7871L133.432 29.3624L133.696 28.9377L131.987 27.8756L131.723 28.3004ZM133.432 29.3624L133.145 29.7716L134.805 30.9375L135.092 30.5283L135.38 30.1191L133.72 28.9533L133.432 29.3624ZM135.092 30.5283L135.019 31.0229L137.088 31.3292L137.162 30.8346L137.235 30.34L135.166 30.0337L135.092 30.5283ZM137.162 30.8346L137.014 31.3124L138.946 31.9075L139.093 31.4297L139.241 30.9518L137.309 30.3567L137.162 30.8346ZM139.093 31.4297L138.83 31.8549L140.578 32.9356L140.841 32.5104L141.104 32.0851L139.356 31.0044L139.093 31.4297ZM140.841 32.5104L140.436 32.8046L141.652 34.475L142.056 34.1808L142.461 33.8866L141.245 32.2162L140.841 32.5104ZM142.056 34.1808L141.623 34.4301L142.692 36.2878L143.125 36.0384L143.558 35.7891L142.49 33.9315L142.056 34.1808ZM143.125 36.0384L142.693 35.7874L141.595 37.6778L142.028 37.9288L142.46 38.1798L143.557 36.2894L143.125 36.0384ZM142.028 37.9288L141.59 37.6864L140.704 39.2853L141.141 39.5277L141.579 39.7701L142.465 38.1713L142.028 37.9288ZM141.141 39.5277L140.78 39.1819L139.427 40.5952L139.788 40.9409L140.149 41.2867L141.502 39.8735L141.141 39.5277ZM139.788 40.9409L139.762 40.4416L137.97 40.5363L137.996 41.0356L138.023 41.5349L139.815 41.4403L139.788 40.9409ZM137.996 41.0356H137.496V41.2134H137.996H138.496V41.0356H137.996Z" fill="#35C284"/>
<path d="M36.6398 74.716C40.2854 74.716 42.2773 76.971 42.2773 81.03C42.2773 83.3978 41.6008 85.1266 40.3606 86.2165C41.9015 88.1332 42.6531 91.2902 42.6531 95.6875H38.8948C38.8948 89.5614 37.617 87.4568 33.6708 87.4568H25.6655V95.6875H21.832V74.716H36.6398ZM25.6655 84.0367H34.7982C37.2036 84.0367 38.519 82.9843 38.519 81.0676C38.519 79.1509 37.2036 78.0985 34.7982 78.0985H25.6655V84.0367Z" fill="#FEFEFE"/>
<path d="M57.4921 92.6432C62.7913 92.6432 65.159 89.6366 65.159 85.0138C65.159 80.3911 62.7913 77.3844 57.4921 77.3844C52.1552 77.3844 49.7875 80.3911 49.7875 85.0138C49.7875 89.6366 52.1552 92.6432 57.4921 92.6432ZM46.0292 85.0138C46.0292 78.9629 50.1257 74.002 57.4921 74.002C64.8208 74.002 68.9174 78.9629 68.9174 85.0138C68.9174 91.0647 64.8208 96.0257 57.4921 96.0257C50.1257 96.0257 46.0292 91.0647 46.0292 85.0138Z" fill="#FEFEFE"/>
<path d="M82.6332 92.6432C87.9324 92.6432 90.3002 89.6366 90.3002 85.0138C90.3002 80.3911 87.9324 77.3844 82.6332 77.3844C77.2964 77.3844 74.9286 80.3911 74.9286 85.0138C74.9286 89.6366 77.2964 92.6432 82.6332 92.6432ZM71.1703 85.0138C71.1703 78.9629 75.2669 74.002 82.6332 74.002C89.9619 74.002 94.0585 78.9629 94.0585 85.0138C94.0585 91.0647 89.9619 96.0257 82.6332 96.0257C75.2669 96.0257 71.1703 91.0647 71.1703 85.0138Z" fill="#FEFEFE"/>
<path d="M101.46 74.716L109.616 87.4192H109.992L118.147 74.716H122.169L122.131 74.7912V95.6499H118.373V80.6542L111.833 90.8392H107.774L101.272 80.6918V95.6499H97.5141V74.716H101.46Z" fill="#FEFEFE"/>
<path d="M46.6485 44.3078C50.294 44.3078 54.1651 48.0662 54.1651 54.9439C54.1651 61.4458 50.294 65.2417 46.6485 65.2417H31.4648V44.3078H46.6485ZM35.2983 61.8216H45.1827C47.5881 61.8216 50.4068 59.266 50.4068 54.9439C50.4068 50.2084 47.5881 47.7279 45.1827 47.7279H35.2983V61.8216Z" fill="#FEFEFE"/>
<path d="M67.8956 62.235C73.1949 62.235 75.5626 59.2284 75.5626 54.6056C75.5626 49.9829 73.1949 46.9762 67.8956 46.9762C62.5588 46.9762 60.1911 49.9829 60.1911 54.6056C60.1911 59.2284 62.5588 62.235 67.8956 62.235ZM56.4327 54.6056C56.4327 48.5547 60.5293 43.5938 67.8956 43.5938C75.2244 43.5938 79.3209 48.5547 79.3209 54.6056C79.3209 60.6565 75.2244 65.6175 67.8956 65.6175C60.5293 65.6175 56.4327 60.6565 56.4327 54.6056Z" fill="#FEFEFE"/>
<path d="M97.5092 44.3078C101.155 44.3078 103.147 46.5628 103.147 50.6218C103.147 52.9896 102.47 54.7184 101.23 55.8083C102.771 57.725 103.522 60.882 103.522 65.2793H99.7642C99.7642 59.1532 98.4863 57.0485 94.5401 57.0485H86.5349V65.2793H82.7014V44.3078H97.5092ZM86.5349 53.6285H95.6676C98.0729 53.6285 99.3883 52.5761 99.3883 50.6594C99.3883 48.7427 98.0729 47.6903 95.6676 47.6903H86.5349V53.6285Z" fill="#FEFEFE"/>
<path d="M108.778 44.3078H112.536V65.2417H108.778V44.3078Z" fill="#FEFEFE"/>
<path d="M76.6428 43.0046C77.0002 42.7946 77.4432 43.0857 77.3923 43.4971L76.8854 47.5926C76.8398 47.9603 76.4242 48.1525 76.1146 47.9491L73.0637 45.9445C72.7541 45.741 72.7655 45.2833 73.0849 45.0955L76.6428 43.0046Z" fill="#FEFEFE"/>
<path d="M59.1209 43.0046C58.7635 42.7946 58.3204 43.0857 58.3714 43.4971L58.8783 47.5926C58.9238 47.9603 59.3395 48.1525 59.6491 47.9491L62.7 45.9445C63.0096 45.741 62.9981 45.2833 62.6787 45.0955L59.1209 43.0046Z" fill="#FEFEFE"/>
</svg>
