<svg width="200" height="200" viewBox="0 0 200 200" fill="none" xmlns="http://www.w3.org/2000/svg">
<rect width="200" height="200" fill="#F7F7F7"/>
<path d="M167.996 69.5474C172.474 71.6792 170.956 78.4038 165.995 78.4038V78.4038C163.425 78.4038 161.341 80.4875 161.341 83.0579V150.172C161.341 153.486 158.655 156.172 155.341 156.172H44.6587C41.345 156.172 38.6587 153.486 38.6587 150.172V83.0581C38.6587 80.4876 36.5749 78.4038 34.0044 78.4038V78.4038C29.044 78.4038 27.5252 71.679 32.0041 69.5471L97.4208 38.4096C99.0523 37.633 100.947 37.633 102.578 38.4096L167.996 69.5474Z" fill="#E5E5E5"/>
<path d="M100.156 37.0688L101.933 38.1235L103.66 38.7368L105.734 38.9009L105.875 38.9087L105.988 38.9946L107.566 40.1353L109.421 40.7056L109.558 40.7485L109.652 40.854L111 42.397L112.707 43.0063L114.761 43.2329L114.91 43.2485L115.023 43.3423L116.519 44.5649L118.429 44.9126L118.57 44.9399L118.675 45.0337L120.175 46.397L121.871 47.2563L123.73 47.936L123.781 47.9556L123.828 47.9868L125.453 49.0454L127.335 49.5767L127.39 49.5923L127.441 49.6196L129.167 50.5688L130.996 51.3462H130.992L132.855 52.0454L134.73 52.7563L134.82 52.7876L134.886 52.8501L136.343 54.1509L138.222 54.5571L138.312 54.5767L138.386 54.6235L140.027 55.6743L141.898 56.2212L141.933 56.2329L141.964 56.2446L143.789 57.0728L143.843 57.0962L143.89 57.1353L145.5 58.4126L147.031 59.4829L149.019 59.6626L149.125 59.6704L149.218 59.7251L150.921 60.6899L152.777 61.3696L152.789 61.3774L152.8 61.3813L154.64 62.1743L154.679 62.1899L154.714 62.2173L156.359 63.3032L158.16 64.0845L158.222 64.1118L158.277 64.1548L159.843 65.4321L161.433 66.3657L163.484 66.4321L163.683 66.4399L163.824 66.5767L165.246 67.9985L167.023 68.6821L167.035 68.686L168.89 69.4478L169.054 69.5142L169.136 69.6665L170.085 71.3696L170.089 71.3774L170.093 71.3813L170.957 73.0571L171.011 73.1587L171.015 73.2759L171.054 75.2876L171.058 75.4282L170.984 75.5493L169.945 77.3188L169.875 77.4438L169.746 77.5103L167.957 78.4321L167.863 78.479L167.761 78.4868L166.496 78.5649V78.7251L166.203 78.8579L166.113 78.9009L166.019 78.9438H165.914L164.121 78.9712L162.91 80.2837L162.324 82.0142L161.718 83.8423L161.636 85.7251L161.882 87.686L161.894 87.7642L161.878 87.8462L161.496 89.7095L162.109 91.5923L162.152 91.7251L162.121 91.8579L161.683 93.7446L162.082 95.6431L162.105 95.7563L162.078 95.8696L161.605 97.7642L161.976 99.6509L161.984 99.6938V99.7329L162.035 101.694L162.242 103.694L162.25 103.745L162.246 103.795L162.058 105.749L162.113 107.733V107.756L162.074 109.756L162.07 109.803L162.062 109.85L161.656 111.799L161.71 113.69L162.175 115.631L162.203 115.737L162.179 115.846L161.8 117.733L162.265 119.627L162.289 119.729L162.273 119.831L161.929 121.831L161.722 123.749L161.828 125.713L162.074 127.686L162.078 127.713V127.741L162.109 129.741V129.756L162.074 131.756L162.089 133.745L162.093 133.803L162.078 133.862L161.621 135.811L161.371 137.745L161.621 139.682L161.628 139.721L161.625 139.76L161.578 141.678L162.136 143.608L162.167 143.717L162.148 143.834L161.8 145.834L161.492 147.709L162.039 149.608L162.078 149.749L162.035 149.889L161.457 151.831L161.453 151.846L161.449 151.858L160.769 153.706L160.734 153.803L160.66 153.881L159.285 155.311L159.226 155.374L159.152 155.409L157.386 156.319L157.359 156.334L157.324 156.346L155.359 157.042L155.21 157.092L155.062 157.053L153.128 156.526L151.21 156.604H151.183L151.156 156.6L149.195 156.456L147.253 156.702L147.164 156.713L147.074 156.694L145.171 156.229L143.281 156.577L143.226 156.584H143.171L141.179 156.506L139.203 156.549L137.242 156.745L137.171 156.752L137.101 156.741L135.222 156.385L133.339 156.971L133.171 157.022L133.011 156.959L131.109 156.221L129.308 156.35L127.375 157.104L127.207 157.17L127.035 157.112L125.164 156.487L123.304 156.917L123.242 156.932L123.179 156.928L121.179 156.877H121.117L121.058 156.858L119.222 156.338L117.378 157.092L117.253 157.139L117.121 157.124L115.121 156.842L115.113 156.838H115.105L113.14 156.483L111.167 156.385H109.222L107.253 156.624L107.25 156.62L105.269 156.932L105.25 156.936H105.23L103.23 157.081L103.195 157.084H103.164L101.164 156.967L101.097 156.963L101.035 156.944L99.1792 156.334L97.3315 156.881L97.1948 156.92L97.0581 156.881L95.1519 156.354L93.2847 156.514L91.3159 157.022L91.2651 157.034L91.2144 157.038L89.2144 157.124L89.1011 157.131L88.9956 157.084L87.1597 156.307L85.3354 156.85L85.269 156.866L85.2026 156.87L83.2026 156.913H83.1479L83.0972 156.905L81.1831 156.534L79.2808 156.881L79.2378 156.889H77.2026L77.2065 156.893L75.2065 156.959H75.1753L73.1753 156.897H73.105L73.0386 156.874L71.2104 156.276L69.3823 157.03L69.2612 157.081L69.1362 157.065L67.1362 156.838L67.0972 156.831L65.1284 156.448L63.1753 156.389V156.385L61.1909 156.381H61.1753L59.1909 156.323L57.2886 156.385L55.3589 157.077L55.2104 157.131L55.0581 157.088L53.0972 156.534L51.2183 156.385L49.3003 156.807L49.2378 156.819H49.1753L47.1792 156.756L45.1948 156.776L45.105 156.78L45.019 156.745L43.1792 156.061L41.2769 155.709L41.1558 155.69L41.0581 155.612L39.4644 154.354L39.4097 154.311L39.3667 154.256L38.1245 152.542L38.0425 152.428L38.0308 152.292L37.8433 150.174L37.8394 150.124L37.8472 150.069L38.0933 148.084L38.2769 146.124L38.0308 144.194L38.0269 144.167V144.139L37.9956 142.139V142.104L37.9995 142.069L38.2534 140.096L38.2729 138.163L38.0073 136.198L38.0034 136.182V136.163L37.8745 134.182L37.6714 132.182L37.6597 132.053L37.7104 131.936L38.5034 130.053L38.3433 128.233L37.7339 126.28L37.6831 126.127L37.7339 125.975L38.3394 124.124L37.7847 122.276L37.7651 122.202V122.124L37.8003 120.124V120.088L37.9644 118.127L37.7729 116.178L37.7651 116.112L37.7769 116.045L38.1128 114.1L38.0308 112.151V112.147L37.8276 110.182L37.8237 110.12L37.8315 110.057L38.1206 108.131L37.8276 106.206L37.812 106.088L37.8472 105.979L38.4448 104.116L37.9917 102.249L37.9878 102.229L37.9839 102.206L37.6753 100.206L37.6558 100.084L37.6948 99.9712L38.3433 98.0532L38.3081 96.1392V96.0962L38.3159 96.0493L38.6167 94.1704L37.9683 92.2954L37.9448 92.2329L37.9409 92.1665L37.6675 88.1665L37.6636 88.147L37.6675 88.1274L37.6831 86.1274V86.0493L37.7065 85.9751L38.3354 84.0688L38.187 82.229L37.4683 80.5298L36.0972 79.354L34.2534 78.7993L34.2417 78.7954L32.4448 78.2095L30.3394 77.9204L29.9761 77.8696L29.9175 77.5063L29.562 75.4438L28.605 73.6899L28.4487 73.4087L28.644 73.1509L29.8706 71.5103L30.7729 69.8735L30.8511 69.7329L30.9995 69.6626L32.7144 68.8579L34.1948 67.4751L34.3237 67.354L34.5073 67.3423L36.5112 67.2212L38.0503 66.1235L38.0581 66.1196L39.7222 64.9634L39.7612 64.9399L39.8042 64.9204L41.605 64.1079L43.3394 63.1431L43.3667 63.1235L43.3979 63.1118L45.23 62.3892L46.894 61.3579L47.0151 61.2798L47.1597 61.2837L49.1558 61.2915L50.4761 59.8774L50.605 59.7368L50.7964 59.7212L52.7339 59.5376L54.1011 58.1548L54.23 58.0259L54.4097 58.0103L56.4136 57.8071L58.0776 56.9087L59.7222 55.7837L61.3394 54.5767L61.4487 54.4985L61.5815 54.4829L63.5854 54.2446L65.2378 53.3579L66.9526 52.3071L67.0112 52.272L67.0776 52.2524L68.8979 51.7329L70.2847 50.2876L70.3628 50.2017L70.4722 50.1626L72.3589 49.4712L72.394 49.4556L72.4292 49.4478L74.3042 49.061L75.7222 47.7056L75.8589 47.5688L76.0542 47.5649L78.0464 47.5024L79.4292 46.1821L79.5425 46.0767L79.6948 46.0532L81.6167 45.7407L83.1128 44.5298L83.2183 44.4438L83.3511 44.4243L85.312 44.104L86.9487 43.2563L88.3394 41.7173L88.4214 41.6235L88.5386 41.5806L90.4253 40.8892L90.4683 40.8735L90.5151 40.8657L92.4917 40.5376L94.2261 39.6899L96.0229 38.811L96.0503 38.7954L96.0815 38.7876L97.8979 38.1743L99.6323 37.0767L99.8901 36.9087L100.156 37.0688ZM98.3784 39.0571L98.3237 39.0884L98.269 39.1079L96.4331 39.7212L94.6675 40.5884H94.6636L92.8667 41.4673L92.8042 41.4985L92.73 41.5103L90.7065 41.8462L88.9995 42.4712L87.6323 43.9946L87.5737 44.061L87.4917 44.104L85.7183 45.0259L85.644 45.0649L85.5659 45.0767L83.6401 45.3853L82.1479 46.604L82.0425 46.686L81.9097 46.7095L80.0034 47.0103L78.5972 48.3618L78.4565 48.4946L78.2651 48.4985L76.2729 48.5571L74.894 49.8853L74.7886 49.9868L74.6479 50.0142L72.6753 50.4165L70.9292 51.0571L69.5269 52.5259L69.4331 52.6235L69.3042 52.6626L67.4136 53.1938L65.7612 54.2095L65.7378 54.2251L63.9761 55.1743L63.8901 55.2212L63.7964 55.2329L61.8315 55.4556L60.3003 56.5962L60.2925 56.604L60.2847 56.6079L58.6167 57.7524L58.5933 57.7681L58.5698 57.7798L56.812 58.7329L56.7222 58.7837L56.6206 58.7915L54.6831 58.9868L53.3198 60.3696L53.1909 60.4985L53.0112 60.5181L51.0776 60.6978L49.7417 62.1353L49.5933 62.2954H49.3745L47.2925 62.2837L45.7104 63.2681L45.6714 63.2915L45.6284 63.3071L43.8081 64.022L42.0776 64.9946L42.0581 65.0024L42.0386 65.0142L40.2651 65.8032L38.6284 66.9321L38.6323 66.936L36.98 68.1196L36.8628 68.2017L36.7183 68.2095L34.7417 68.3306L33.3472 69.6431L33.2886 69.6978L33.2183 69.7329L31.5698 70.4985L30.7339 72.0181L30.7183 72.0493L30.6948 72.0767L29.6323 73.4907L30.4839 75.0415L30.5229 75.1157L30.5386 75.1978L30.8394 76.979L32.6284 77.229L32.6714 77.2329L32.7144 77.2485L34.5386 77.8384H34.5425L36.4839 78.4243L36.5854 78.4556L36.6636 78.5259L38.2144 79.854L38.3003 79.9321L38.3472 80.0376L39.144 81.9165L39.1753 81.9946L39.1831 82.0728L39.3433 84.0923L39.3511 84.1899L39.3198 84.2876L38.6792 86.2056L38.6675 88.1353L38.8003 90.0962L38.9292 92.0181L39.605 93.9673L39.6479 94.0845L39.6284 94.2095L39.3081 96.1782L39.3472 98.1196L39.3511 98.2095L39.3237 98.2915L38.6792 100.174L38.9644 102.01L39.4526 104.01L39.4839 104.151L39.4409 104.284L38.8315 106.174L39.1206 108.057L39.1323 108.131L39.1206 108.206L38.8276 110.139L39.0308 112.081V112.108L39.1167 114.108V114.163L39.1089 114.217L38.7729 116.139L38.9644 118.081L38.9683 118.127L38.9644 118.17L38.8003 120.17L38.7651 122.053L39.3433 123.987L39.3901 124.139L39.3394 124.288L38.7339 126.127L39.312 127.983L39.3315 128.034L39.3354 128.084L39.5112 130.084L39.5229 130.209L39.4761 130.327L38.6792 132.209L38.8706 134.081V134.1L38.9956 136.061L39.2729 138.061L39.2769 138.1V138.135L39.2534 140.135V140.167L39.2495 140.194L38.9956 142.159L39.0229 144.096L39.2769 146.069L39.2808 146.124L39.2769 146.178L39.0894 148.178V148.194L38.8433 150.147L39.0112 152.065L40.1362 153.612L41.5815 154.752L43.4019 155.084L43.4448 155.092L43.4839 155.108L45.2769 155.772L47.187 155.756H47.2065L49.144 155.815L51.0854 155.393L51.1597 155.377L51.2339 155.381L53.2339 155.545L53.2808 155.549L53.3276 155.565L55.1675 156.081L57.0229 155.42L57.0972 155.393L57.1753 155.389L59.1753 155.323H59.2065L61.2065 155.381H61.2026L63.1948 155.389H63.2065L65.2065 155.456H65.2456L65.2886 155.463L67.2495 155.842L69.1206 156.057L71.0034 155.284L71.1714 155.213L71.3472 155.272L73.269 155.897L75.187 155.956L77.1753 155.893H77.1909L79.1401 155.889L81.1011 155.534L81.1948 155.518L81.2847 155.538L83.2339 155.909L85.1089 155.87L87.0503 155.295L87.2222 155.245L87.3862 155.315L89.2808 156.12L91.1167 156.038L93.0659 155.542L93.1089 155.53L93.1479 155.526L95.1479 155.35L95.2378 155.342L95.3237 155.37L97.187 155.877L99.0503 155.331L99.1987 155.288L99.3472 155.338L101.285 155.971L103.183 156.081L105.128 155.94L107.117 155.631H107.132L109.132 155.389L109.164 155.385H111.218L113.218 155.487H113.25L113.281 155.495L115.257 155.85H115.261L117.125 156.112L119.003 155.35L119.164 155.288L119.328 155.334L121.261 155.877L123.136 155.928L125.078 155.483L125.218 155.452L125.351 155.495L127.175 156.104L129.011 155.393L129.082 155.366L129.156 155.362L131.156 155.217L131.269 155.209L131.375 155.249L133.21 155.959L135.042 155.397L135.164 155.362L135.285 155.385L137.218 155.741L139.144 155.549H139.183L141.183 155.506H141.21L143.156 155.581L145.101 155.229L145.207 155.209L145.312 155.233L147.214 155.698L149.128 155.459L149.179 155.456L149.23 155.459L151.207 155.6L153.171 155.526H153.25L153.324 155.545L155.171 156.042L156.96 155.413L158.617 154.561L159.867 153.26L160.507 151.514L161.035 149.741L160.503 147.885L160.472 147.776L160.492 147.667L160.812 145.667V145.663L161.14 143.772L160.597 141.885L160.574 141.811L160.578 141.733L160.625 139.772L160.371 137.811L160.363 137.749L160.371 137.682L160.628 135.682V135.659L160.636 135.631L161.085 133.698L161.074 131.752V131.737L161.109 129.752L161.078 127.776L160.835 125.807L160.832 125.792V125.776L160.722 123.776V123.733L160.726 123.694L160.941 121.694V121.678L160.945 121.663L161.265 119.76L160.804 117.866L160.781 117.756L160.8 117.651L161.175 115.756L160.726 113.862L160.714 113.811V113.76L160.66 111.76L160.656 111.702L160.667 111.647L161.074 109.678L161.113 107.76L161.058 105.76L161.054 105.729L161.058 105.702L161.246 103.745L161.039 101.799V101.78L161.035 101.76L160.984 99.7837L160.605 97.8423L160.582 97.7329L160.609 97.6274L161.078 95.7368L160.683 93.8501L160.66 93.7407L160.687 93.6353L161.117 91.7681L160.507 89.9009L160.468 89.7759L160.492 89.647L160.878 87.7329L160.64 85.811L160.632 85.7681L160.636 85.7251L160.722 83.7251L160.726 83.6548L160.75 83.5884L161.378 81.6978L162 79.8618L162.031 79.7603L162.105 79.6821L163.527 78.1392L163.675 77.979H163.886L165.496 77.9478V77.6313L165.964 77.6001L167.589 77.4907L169.156 76.6899L170.05 75.1626L170.015 73.4126L169.207 71.8423V71.8384L168.347 70.3071L166.656 69.6118V69.6079L164.792 68.897L164.695 68.8579L164.617 68.7837L163.253 67.4243L161.273 67.3618L161.144 67.3579L161.035 67.2915L159.304 66.2759L159.273 66.2563L159.242 66.2329L157.695 64.9712L155.925 64.2056L155.886 64.186L155.851 64.1626L154.203 63.0728L152.429 62.3071L150.546 61.6157L150.507 61.604L150.472 61.5845L148.816 60.647L146.804 60.4673L146.671 60.4556L146.562 60.3774L144.902 59.2134L144.89 59.2056L144.875 59.1978L143.308 57.9517L141.601 57.1743L139.675 56.6118L139.605 56.5923L139.546 56.5532L137.917 55.5103L136.003 55.1001L135.875 55.0728L135.777 54.9829L134.289 53.6548L132.5 52.979L130.625 52.2759L130.601 52.2681L128.761 51.4829L128.738 51.4712L128.718 51.4595L127.007 50.522L125.113 49.9868L125.039 49.9673L124.976 49.9282L123.332 48.854L121.5 48.186L121.468 48.1782L121.445 48.1626L119.66 47.2563L119.601 47.2251L119.55 47.1821L118.105 45.8696L116.085 45.5024L115.984 45.4204L114.507 44.2095L112.55 43.9946L112.492 43.9907L112.437 43.9712L110.542 43.2954L110.417 43.2524L110.332 43.1548L108.988 41.6196L107.195 41.0688L107.117 41.0454L107.05 40.9946L105.515 39.8853L103.519 39.729L103.457 39.7251L103.394 39.7017L101.554 39.0532L101.507 39.0376L101.468 39.0142L99.9058 38.0845L98.3784 39.0571Z" fill="#E5E5E5"/>
<path d="M64.6396 111.906C68.2852 111.906 70.2771 114.161 70.2771 118.22C70.2771 120.588 69.6006 122.317 68.3603 123.406C69.9012 125.323 70.6529 128.48 70.6529 132.877H66.8946C66.8946 126.751 65.6167 124.647 61.6705 124.647H53.6653V132.877H49.8318V111.906H64.6396ZM53.6653 121.227H62.798C65.2033 121.227 66.5187 120.174 66.5187 118.258C66.5187 116.341 65.2033 115.288 62.798 115.288H53.6653V121.227Z" fill="#FEFEFE"/>
<path d="M85.4918 129.833C90.7911 129.833 93.1588 126.827 93.1588 122.204C93.1588 117.581 90.7911 114.574 85.4918 114.574C80.155 114.574 77.7873 117.581 77.7873 122.204C77.7873 126.827 80.155 129.833 85.4918 129.833ZM74.0289 122.204C74.0289 116.153 78.1255 111.192 85.4918 111.192C92.8206 111.192 96.9171 116.153 96.9171 122.204C96.9171 128.255 92.8206 133.216 85.4918 133.216C78.1255 133.216 74.0289 128.255 74.0289 122.204Z" fill="#FEFEFE"/>
<path d="M110.633 129.833C115.932 129.833 118.3 126.827 118.3 122.204C118.3 117.581 115.932 114.574 110.633 114.574C105.296 114.574 102.928 117.581 102.928 122.204C102.928 126.827 105.296 129.833 110.633 129.833ZM99.1701 122.204C99.1701 116.153 103.267 111.192 110.633 111.192C117.962 111.192 122.058 116.153 122.058 122.204C122.058 128.255 117.962 133.216 110.633 133.216C103.267 133.216 99.1701 128.255 99.1701 122.204Z" fill="#FEFEFE"/>
<path d="M129.46 111.906L137.616 124.609H137.991L146.147 111.906H150.168L150.131 111.981V132.84H146.373V117.844L139.833 128.029H135.774L129.272 117.882V132.84H125.514V111.906H129.46Z" fill="#FEFEFE"/>
<path d="M74.6482 81.4978C78.2938 81.4978 82.1649 85.2561 82.1649 92.1338C82.1649 98.6357 78.2938 102.432 74.6482 102.432H59.4646V81.4978H74.6482ZM63.2981 99.0116H73.1825C75.5878 99.0116 78.4066 96.4559 78.4066 92.1338C78.4066 87.3983 75.5878 84.9178 73.1825 84.9178H63.2981V99.0116Z" fill="#FEFEFE"/>
<path d="M95.8954 99.425C101.195 99.425 103.562 96.4183 103.562 91.7956C103.562 87.1728 101.195 84.1662 95.8954 84.1662C90.5586 84.1662 88.1908 87.1728 88.1908 91.7956C88.1908 96.4183 90.5586 99.425 95.8954 99.425ZM84.4325 91.7956C84.4325 85.7447 88.5291 80.7837 95.8954 80.7837C103.224 80.7837 107.321 85.7447 107.321 91.7956C107.321 97.8465 103.224 102.807 95.8954 102.807C88.5291 102.807 84.4325 97.8465 84.4325 91.7956Z" fill="#FEFEFE"/>
<path d="M125.509 81.4978C129.154 81.4978 131.146 83.7528 131.146 87.8118C131.146 90.1795 130.47 91.9083 129.23 92.9982C130.771 94.915 131.522 98.072 131.522 102.469H127.764C127.764 96.3432 126.486 94.2385 122.54 94.2385H114.535V102.469H110.701V81.4978H125.509ZM114.535 90.8184H123.667C126.073 90.8184 127.388 89.7661 127.388 87.8493C127.388 85.9326 126.073 84.8803 123.667 84.8803H114.535V90.8184Z" fill="#FEFEFE"/>
<path d="M136.777 81.4978H140.536V102.432H136.777V81.4978Z" fill="#FEFEFE"/>
<path d="M104.642 80.1946C105 79.9845 105.443 80.2756 105.392 80.6871L104.885 84.7825C104.839 85.1502 104.424 85.3424 104.114 85.139L101.063 83.1344C100.754 82.931 100.765 82.4732 101.084 82.2855L104.642 80.1946Z" fill="#FEFEFE"/>
<path d="M87.1209 80.1946C86.7635 79.9845 86.3204 80.2756 86.3714 80.6871L86.8783 84.7825C86.9238 85.1502 87.3395 85.3424 87.6491 85.139L90.7 83.1344C91.0096 82.931 90.9981 82.4732 90.6787 82.2855L87.1209 80.1946Z" fill="#FEFEFE"/>
</svg>
