<svg width="100" height="79" viewBox="0 0 100 79" fill="none" xmlns="http://www.w3.org/2000/svg">
<g clip-path="url(#clip0_2249_16464)">
<rect y="0.5" width="100" height="78" rx="4" fill="white"/>
<g clip-path="url(#clip1_2249_16464)">
<rect width="148.43" height="123.311" transform="translate(-24.2148 -22.1553)" fill="#FFE8C7"/>
<g clip-path="url(#clip2_2249_16464)">
<path d="M13.6242 -7.64192C13.6242 -8.94479 13.1199 -10.1294 12.2959 -11.0133C13.1199 -11.8972 13.6242 -13.0823 13.6242 -14.3847C13.6242 -17.1184 11.4037 -19.335 8.66488 -19.335C7.21955 -19.335 5.91891 -18.7178 5.01282 -17.733C4.10622 -18.7173 2.80558 -19.335 1.36076 -19.335C-0.0840538 -19.335 -1.38521 -18.7178 -2.2913 -17.733C-3.1979 -18.7173 -4.49854 -19.335 -5.94335 -19.335C-7.38817 -19.335 -8.68932 -18.7178 -9.59541 -17.733C-10.502 -18.7173 -11.8027 -19.335 -13.2475 -19.335C-14.6923 -19.335 -15.9934 -18.7178 -16.8995 -17.733C-17.8061 -18.7173 -19.1068 -19.335 -20.5516 -19.335C-21.9964 -19.335 -23.2976 -18.7178 -24.2036 -17.733C-25.1102 -18.7173 -26.4109 -19.335 -27.8557 -19.335C-29.3005 -19.335 -30.6017 -18.7178 -31.5078 -17.733C-32.4159 -18.7178 -33.7165 -19.335 -35.1619 -19.335C-36.6072 -19.335 -37.9078 -18.7178 -38.8139 -17.733C-39.7205 -18.7178 -41.0212 -19.335 -42.4665 -19.335C-43.9118 -19.335 -45.2125 -18.7178 -46.1186 -17.733C-47.0252 -18.7178 -48.3253 -19.335 -49.7706 -19.335C-52.5094 -19.335 -54.73 -17.1184 -54.73 -14.3847C-54.73 -13.0818 -54.2256 -11.8972 -53.4016 -11.0133C-54.2256 -10.1294 -54.73 -8.94428 -54.73 -7.64192C-54.73 -6.22741 -54.1353 -4.95117 -53.182 -4.04931C-54.1353 -3.14693 -54.73 -1.87069 -54.73 -0.456175C-54.73 0.958338 -54.1353 2.23458 -53.182 3.13644C-54.1353 4.03882 -54.73 5.31455 -54.73 6.72957C-54.73 8.03244 -54.2256 9.21701 -53.4016 10.101C-54.2256 10.9849 -54.73 12.17 -54.73 13.4723C-54.73 16.2061 -52.5094 18.4226 -49.7706 18.4226C-48.3253 18.4226 -47.0246 17.8055 -46.1186 16.8207C-45.212 17.805 -43.9113 18.4226 -42.4665 18.4226C-41.0217 18.4226 -39.7205 17.8055 -38.8144 16.8207C-37.9078 17.805 -36.6072 18.4226 -35.1624 18.4226C-33.7176 18.4226 -32.4164 17.8055 -31.5103 16.8207C-30.6037 17.805 -29.3031 18.4226 -27.8583 18.4226C-26.4135 18.4226 -25.1123 17.8055 -24.2062 16.8207C-23.2996 17.805 -21.999 18.4226 -20.5542 18.4226C-19.1093 18.4226 -17.8082 17.8055 -16.9021 16.8207C-15.9955 17.805 -14.6948 18.4226 -13.25 18.4226C-11.8052 18.4226 -10.5041 17.8055 -9.59798 16.8207C-8.69137 17.805 -7.39073 18.4226 -5.94592 18.4226C-4.5011 18.4226 -3.19995 17.8055 -2.29386 16.8207C-1.38726 17.805 -0.0866155 18.4226 1.3582 18.4226C2.80301 18.4226 4.10417 17.8055 5.01025 16.8207C5.91685 17.805 7.2175 18.4226 8.66231 18.4226C11.4011 18.4226 13.6217 16.2061 13.6217 13.4723C13.6217 12.1695 13.1173 10.9849 12.2933 10.101C13.1173 9.21701 13.6217 8.03193 13.6217 6.72957C13.6217 5.31506 13.027 4.03882 12.0737 3.13696C13.027 2.23509 13.6217 0.958851 13.6217 -0.455663C13.6217 -1.87018 13.027 -3.14641 12.0737 -4.04828C13.027 -4.95015 13.6217 -6.22639 13.6217 -7.6409L13.6242 -7.64192Z" fill="#FFCD95" fill-opacity="0.5"/>
</g>
<g clip-path="url(#clip3_2249_16464)">
<path d="M13.6242 32.3146C13.6242 31.0118 13.1199 29.8272 12.2959 28.9432C13.1199 28.0593 13.6242 26.8742 13.6242 25.5719C13.6242 22.8381 11.4037 20.6216 8.66488 20.6216C7.21955 20.6216 5.91891 21.2387 5.01282 22.2235C4.10622 21.2392 2.80558 20.6216 1.36076 20.6216C-0.0840538 20.6216 -1.38521 21.2387 -2.2913 22.2235C-3.1979 21.2392 -4.49854 20.6216 -5.94335 20.6216C-7.38817 20.6216 -8.68932 21.2387 -9.59541 22.2235C-10.502 21.2392 -11.8027 20.6216 -13.2475 20.6216C-14.6923 20.6216 -15.9934 21.2387 -16.8995 22.2235C-17.8061 21.2392 -19.1068 20.6216 -20.5516 20.6216C-21.9964 20.6216 -23.2976 21.2387 -24.2036 22.2235C-25.1102 21.2392 -26.4109 20.6216 -27.8557 20.6216C-29.3005 20.6216 -30.6017 21.2387 -31.5078 22.2235C-32.4159 21.2387 -33.7165 20.6216 -35.1619 20.6216C-36.6072 20.6216 -37.9078 21.2387 -38.8139 22.2235C-39.7205 21.2387 -41.0212 20.6216 -42.4665 20.6216C-43.9118 20.6216 -45.2125 21.2387 -46.1186 22.2235C-47.0252 21.2387 -48.3253 20.6216 -49.7706 20.6216C-52.5094 20.6216 -54.73 22.8381 -54.73 25.5719C-54.73 26.8747 -54.2256 28.0593 -53.4016 28.9432C-54.2256 29.8272 -54.73 31.0123 -54.73 32.3146C-54.73 33.7291 -54.1353 35.0054 -53.182 35.9072C-54.1353 36.8096 -54.73 38.0859 -54.73 39.5004C-54.73 40.9149 -54.1353 42.1911 -53.182 43.093C-54.1353 43.9954 -54.73 45.2711 -54.73 46.6861C-54.73 47.989 -54.2256 49.1736 -53.4016 50.0575C-54.2256 50.9414 -54.73 52.1265 -54.73 53.4289C-54.73 56.1626 -52.5094 58.3792 -49.7706 58.3792C-48.3253 58.3792 -47.0246 57.762 -46.1186 56.7772C-45.212 57.7615 -43.9113 58.3792 -42.4665 58.3792C-41.0217 58.3792 -39.7205 57.762 -38.8144 56.7772C-37.9078 57.7615 -36.6072 58.3792 -35.1624 58.3792C-33.7176 58.3792 -32.4164 57.762 -31.5103 56.7772C-30.6037 57.7615 -29.3031 58.3792 -27.8583 58.3792C-26.4135 58.3792 -25.1123 57.762 -24.2062 56.7772C-23.2996 57.7615 -21.999 58.3792 -20.5542 58.3792C-19.1093 58.3792 -17.8082 57.762 -16.9021 56.7772C-15.9955 57.7615 -14.6948 58.3792 -13.25 58.3792C-11.8052 58.3792 -10.5041 57.762 -9.59798 56.7772C-8.69137 57.7615 -7.39073 58.3792 -5.94592 58.3792C-4.5011 58.3792 -3.19995 57.762 -2.29386 56.7772C-1.38726 57.7615 -0.0866155 58.3792 1.3582 58.3792C2.80301 58.3792 4.10417 57.762 5.01025 56.7772C5.91685 57.7615 7.2175 58.3792 8.66231 58.3792C11.4011 58.3792 13.6217 56.1626 13.6217 53.4289C13.6217 52.126 13.1173 50.9414 12.2933 50.0575C13.1173 49.1736 13.6217 47.9885 13.6217 46.6861C13.6217 45.2716 13.027 43.9954 12.0737 43.0935C13.027 42.1916 13.6217 40.9154 13.6217 39.5009C13.6217 38.0864 13.027 36.8101 12.0737 35.9083C13.027 35.0064 13.6217 33.7302 13.6217 32.3156L13.6242 32.3146Z" fill="#FFCD95" fill-opacity="0.5"/>
</g>
<g clip-path="url(#clip4_2249_16464)">
<path d="M13.6242 72.2712C13.6242 70.9683 13.1199 69.7837 12.2959 68.8998C13.1199 68.0158 13.6242 66.8308 13.6242 65.5284C13.6242 62.7946 11.4037 60.5781 8.66488 60.5781C7.21955 60.5781 5.91891 61.1952 5.01282 62.1801C4.10622 61.1958 2.80558 60.5781 1.36076 60.5781C-0.0840538 60.5781 -1.38521 61.1952 -2.2913 62.1801C-3.1979 61.1958 -4.49854 60.5781 -5.94335 60.5781C-7.38817 60.5781 -8.68932 61.1952 -9.59541 62.1801C-10.502 61.1958 -11.8027 60.5781 -13.2475 60.5781C-14.6923 60.5781 -15.9934 61.1952 -16.8995 62.1801C-17.8061 61.1958 -19.1068 60.5781 -20.5516 60.5781C-21.9964 60.5781 -23.2976 61.1952 -24.2036 62.1801C-25.1102 61.1958 -26.4109 60.5781 -27.8557 60.5781C-29.3005 60.5781 -30.6017 61.1952 -31.5078 62.1801C-32.4159 61.1952 -33.7165 60.5781 -35.1619 60.5781C-36.6072 60.5781 -37.9078 61.1952 -38.8139 62.1801C-39.7205 61.1952 -41.0212 60.5781 -42.4665 60.5781C-43.9118 60.5781 -45.2125 61.1952 -46.1186 62.1801C-47.0252 61.1952 -48.3253 60.5781 -49.7706 60.5781C-52.5094 60.5781 -54.73 62.7946 -54.73 65.5284C-54.73 66.8313 -54.2256 68.0158 -53.4016 68.8998C-54.2256 69.7837 -54.73 70.9688 -54.73 72.2712C-54.73 73.6857 -54.1353 74.9619 -53.182 75.8638C-54.1353 76.7662 -54.73 78.0424 -54.73 79.4569C-54.73 80.8714 -54.1353 82.1477 -53.182 83.0495C-54.1353 83.9519 -54.73 85.2276 -54.73 86.6427C-54.73 87.9455 -54.2256 89.1301 -53.4016 90.014C-54.2256 90.898 -54.73 92.0831 -54.73 93.3854C-54.73 96.1192 -52.5094 98.3357 -49.7706 98.3357C-48.3253 98.3357 -47.0246 97.7186 -46.1186 96.7337C-45.212 97.7181 -43.9113 98.3357 -42.4665 98.3357C-41.0217 98.3357 -39.7205 97.7186 -38.8144 96.7337C-37.9078 97.7181 -36.6072 98.3357 -35.1624 98.3357C-33.7176 98.3357 -32.4164 97.7186 -31.5103 96.7337C-30.6037 97.7181 -29.3031 98.3357 -27.8583 98.3357C-26.4135 98.3357 -25.1123 97.7186 -24.2062 96.7337C-23.2996 97.7181 -21.999 98.3357 -20.5542 98.3357C-19.1093 98.3357 -17.8082 97.7186 -16.9021 96.7337C-15.9955 97.7181 -14.6948 98.3357 -13.25 98.3357C-11.8052 98.3357 -10.5041 97.7186 -9.59798 96.7337C-8.69137 97.7181 -7.39073 98.3357 -5.94592 98.3357C-4.5011 98.3357 -3.19995 97.7186 -2.29386 96.7337C-1.38726 97.7181 -0.0866155 98.3357 1.3582 98.3357C2.80301 98.3357 4.10417 97.7186 5.01025 96.7337C5.91685 97.7181 7.2175 98.3357 8.66231 98.3357C11.4011 98.3357 13.6217 96.1192 13.6217 93.3854C13.6217 92.0825 13.1173 90.898 12.2933 90.014C13.1173 89.1301 13.6217 87.945 13.6217 86.6427C13.6217 85.2281 13.027 83.9519 12.0737 83.05C13.027 82.1482 13.6217 80.8719 13.6217 79.4574C13.6217 78.0429 13.027 76.7667 12.0737 75.8648C13.027 74.9629 13.6217 73.6867 13.6217 72.2722L13.6242 72.2712Z" fill="#FFCD95" fill-opacity="0.5"/>
</g>
<g clip-path="url(#clip5_2249_16464)">
<path d="M84.177 -7.64192C84.177 -8.94479 83.6726 -10.1294 82.8486 -11.0133C83.6726 -11.8972 84.177 -13.0823 84.177 -14.3847C84.177 -17.1184 81.9564 -19.335 79.2176 -19.335C77.7723 -19.335 76.4716 -18.7178 75.5656 -17.733C74.659 -18.7173 73.3583 -19.335 71.9135 -19.335C70.4687 -19.335 69.1675 -18.7178 68.2614 -17.733C67.3548 -18.7173 66.0542 -19.335 64.6094 -19.335C63.1646 -19.335 61.8634 -18.7178 60.9573 -17.733C60.0507 -18.7173 58.7501 -19.335 57.3053 -19.335C55.8605 -19.335 54.5593 -18.7178 53.6532 -17.733C52.7466 -18.7173 51.446 -19.335 50.0012 -19.335C48.5563 -19.335 47.2552 -18.7178 46.3491 -17.733C45.4425 -18.7173 44.1418 -19.335 42.697 -19.335C41.2522 -19.335 39.9511 -18.7178 39.045 -17.733C38.1368 -18.7178 36.8362 -19.335 35.3909 -19.335C33.9455 -19.335 32.6449 -18.7178 31.7388 -17.733C30.8322 -18.7178 29.5316 -19.335 28.0862 -19.335C26.6409 -19.335 25.3403 -18.7178 24.4342 -17.733C23.5276 -18.7178 22.2275 -19.335 20.7821 -19.335C18.0433 -19.335 15.8228 -17.1184 15.8228 -14.3847C15.8228 -13.0818 16.3271 -11.8972 17.1511 -11.0133C16.3271 -10.1294 15.8228 -8.94428 15.8228 -7.64192C15.8228 -6.22741 16.4174 -4.95117 17.3707 -4.04931C16.4174 -3.14693 15.8228 -1.87069 15.8228 -0.456175C15.8228 0.958338 16.4174 2.23458 17.3707 3.13644C16.4174 4.03882 15.8228 5.31455 15.8228 6.72957C15.8228 8.03244 16.3271 9.21701 17.1511 10.101C16.3271 10.9849 15.8228 12.17 15.8228 13.4723C15.8228 16.2061 18.0433 18.4226 20.7821 18.4226C22.2275 18.4226 23.5281 17.8055 24.4342 16.8207C25.3408 17.805 26.6414 18.4226 28.0862 18.4226C29.5311 18.4226 30.8322 17.8055 31.7383 16.8207C32.6449 17.805 33.9455 18.4226 35.3904 18.4226C36.8352 18.4226 38.1363 17.8055 39.0424 16.8207C39.949 17.805 41.2497 18.4226 42.6945 18.4226C44.1393 18.4226 45.4404 17.8055 46.3465 16.8207C47.2531 17.805 48.5538 18.4226 49.9986 18.4226C51.4434 18.4226 52.7446 17.8055 53.6506 16.8207C54.5572 17.805 55.8579 18.4226 57.3027 18.4226C58.7475 18.4226 60.0487 17.8055 60.9548 16.8207C61.8614 17.805 63.162 18.4226 64.6068 18.4226C66.0516 18.4226 67.3528 17.8055 68.2589 16.8207C69.1655 17.805 70.4661 18.4226 71.9109 18.4226C73.3557 18.4226 74.6569 17.8055 75.563 16.8207C76.4696 17.805 77.7702 18.4226 79.215 18.4226C81.9538 18.4226 84.1744 16.2061 84.1744 13.4723C84.1744 12.1695 83.6701 10.9849 82.8461 10.101C83.6701 9.21701 84.1744 8.03193 84.1744 6.72957C84.1744 5.31506 83.5798 4.03882 82.6265 3.13696C83.5798 2.23509 84.1744 0.958851 84.1744 -0.455663C84.1744 -1.87018 83.5798 -3.14641 82.6265 -4.04828C83.5798 -4.95015 84.1744 -6.22639 84.1744 -7.6409L84.177 -7.64192Z" fill="#FFCD95" fill-opacity="0.5"/>
<path d="M33.2498 4.89703C33.4109 4.21571 32.9882 3.53304 32.3056 3.37223C31.6231 3.21143 30.9391 3.63339 30.778 4.3147C30.6169 4.99602 31.0397 5.6787 31.7222 5.8395C32.4048 6.00031 33.0887 5.57835 33.2498 4.89703Z" fill="#E89B30" fill-opacity="0.5"/>
<path d="M45.2396 4.89654C45.4007 4.21523 44.9779 3.53255 44.2954 3.37174C43.6128 3.21094 42.9289 3.6329 42.7678 4.31422C42.6067 4.99553 43.0294 5.67821 43.712 5.83902C44.3945 5.99982 45.0785 5.57786 45.2396 4.89654Z" fill="#E89B30" fill-opacity="0.5"/>
<path d="M57.2288 4.89654C57.3899 4.21523 56.9672 3.53255 56.2846 3.37174C55.6021 3.21094 54.9181 3.6329 54.757 4.31422C54.5959 4.99553 55.0187 5.67821 55.7012 5.83902C56.3838 5.99982 57.0677 5.57786 57.2288 4.89654Z" fill="#E89B30" fill-opacity="0.5"/>
<path d="M69.2191 4.89654C69.3802 4.21523 68.9574 3.53255 68.2749 3.37174C67.5923 3.21094 66.9084 3.6329 66.7473 4.31422C66.5862 4.99553 67.0089 5.67821 67.6915 5.83902C68.374 5.99982 69.058 5.57786 69.2191 4.89654Z" fill="#E89B30" fill-opacity="0.5"/>
</g>
<g clip-path="url(#clip6_2249_16464)">
<path d="M84.177 32.3146C84.177 31.0118 83.6726 29.8272 82.8486 28.9432C83.6726 28.0593 84.177 26.8742 84.177 25.5719C84.177 22.8381 81.9564 20.6216 79.2176 20.6216C77.7723 20.6216 76.4716 21.2387 75.5656 22.2235C74.659 21.2392 73.3583 20.6216 71.9135 20.6216C70.4687 20.6216 69.1675 21.2387 68.2614 22.2235C67.3548 21.2392 66.0542 20.6216 64.6094 20.6216C63.1646 20.6216 61.8634 21.2387 60.9573 22.2235C60.0507 21.2392 58.7501 20.6216 57.3053 20.6216C55.8605 20.6216 54.5593 21.2387 53.6532 22.2235C52.7466 21.2392 51.446 20.6216 50.0012 20.6216C48.5563 20.6216 47.2552 21.2387 46.3491 22.2235C45.4425 21.2392 44.1418 20.6216 42.697 20.6216C41.2522 20.6216 39.9511 21.2387 39.045 22.2235C38.1368 21.2387 36.8362 20.6216 35.3909 20.6216C33.9455 20.6216 32.6449 21.2387 31.7388 22.2235C30.8322 21.2387 29.5316 20.6216 28.0862 20.6216C26.6409 20.6216 25.3403 21.2387 24.4342 22.2235C23.5276 21.2387 22.2275 20.6216 20.7821 20.6216C18.0433 20.6216 15.8228 22.8381 15.8228 25.5719C15.8228 26.8747 16.3271 28.0593 17.1511 28.9432C16.3271 29.8272 15.8228 31.0123 15.8228 32.3146C15.8228 33.7291 16.4174 35.0054 17.3707 35.9072C16.4174 36.8096 15.8228 38.0859 15.8228 39.5004C15.8228 40.9149 16.4174 42.1911 17.3707 43.093C16.4174 43.9954 15.8228 45.2711 15.8228 46.6861C15.8228 47.989 16.3271 49.1736 17.1511 50.0575C16.3271 50.9414 15.8228 52.1265 15.8228 53.4289C15.8228 56.1626 18.0433 58.3792 20.7821 58.3792C22.2275 58.3792 23.5281 57.762 24.4342 56.7772C25.3408 57.7615 26.6414 58.3792 28.0862 58.3792C29.5311 58.3792 30.8322 57.762 31.7383 56.7772C32.6449 57.7615 33.9455 58.3792 35.3904 58.3792C36.8352 58.3792 38.1363 57.762 39.0424 56.7772C39.949 57.7615 41.2497 58.3792 42.6945 58.3792C44.1393 58.3792 45.4404 57.762 46.3465 56.7772C47.2531 57.7615 48.5538 58.3792 49.9986 58.3792C51.4434 58.3792 52.7446 57.762 53.6506 56.7772C54.5572 57.7615 55.8579 58.3792 57.3027 58.3792C58.7475 58.3792 60.0487 57.762 60.9548 56.7772C61.8614 57.7615 63.162 58.3792 64.6068 58.3792C66.0516 58.3792 67.3528 57.762 68.2589 56.7772C69.1655 57.7615 70.4661 58.3792 71.9109 58.3792C73.3557 58.3792 74.6569 57.762 75.563 56.7772C76.4696 57.7615 77.7702 58.3792 79.215 58.3792C81.9538 58.3792 84.1744 56.1626 84.1744 53.4289C84.1744 52.126 83.6701 50.9414 82.8461 50.0575C83.6701 49.1736 84.1744 47.9885 84.1744 46.6861C84.1744 45.2716 83.5798 43.9954 82.6265 43.0935C83.5798 42.1916 84.1744 40.9154 84.1744 39.5009C84.1744 38.0864 83.5798 36.8101 82.6265 35.9083C83.5798 35.0064 84.1744 33.7302 84.1744 32.3156L84.177 32.3146Z" fill="#FFCD95" fill-opacity="0.5"/>
<path d="M32.9125 35.3343C33.4084 34.8393 33.4084 34.0367 32.9125 33.5417C32.4166 33.0467 31.6126 33.0467 31.1167 33.5417C30.6208 34.0367 30.6208 34.8393 31.1167 35.3343C31.6126 35.8293 32.4166 35.8293 32.9125 35.3343Z" fill="#E89B30" fill-opacity="0.5"/>
<path d="M33.2498 44.8536C33.4109 44.1723 32.9882 43.4896 32.3056 43.3288C31.6231 43.168 30.9391 43.5899 30.778 44.2712C30.6169 44.9526 31.0397 45.6352 31.7222 45.796C32.4048 45.9569 33.0887 45.5349 33.2498 44.8536Z" fill="#E89B30" fill-opacity="0.5"/>
<path d="M44.9028 35.3338C45.3987 34.8388 45.3987 34.0362 44.9028 33.5412C44.4068 33.0462 43.6028 33.0462 43.1069 33.5412C42.611 34.0362 42.611 34.8388 43.1069 35.3338C43.6028 35.8288 44.4068 35.8288 44.9028 35.3338Z" fill="#E89B30" fill-opacity="0.5"/>
<path d="M45.2396 44.8531C45.4007 44.1718 44.9779 43.4891 44.2954 43.3283C43.6128 43.1675 42.9289 43.5894 42.7678 44.2708C42.6067 44.9521 43.0294 45.6348 43.712 45.7956C44.3945 45.9564 45.0785 45.5344 45.2396 44.8531Z" fill="#E89B30" fill-opacity="0.5"/>
<path d="M56.893 35.3338C57.3889 34.8388 57.3889 34.0362 56.893 33.5412C56.3971 33.0462 55.5931 33.0462 55.0971 33.5412C54.6012 34.0362 54.6012 34.8388 55.0971 35.3338C55.5931 35.8288 56.3971 35.8288 56.893 35.3338Z" fill="#E89B30" fill-opacity="0.5"/>
<path d="M57.2288 44.8531C57.3899 44.1718 56.9672 43.4891 56.2846 43.3283C55.6021 43.1675 54.9181 43.5894 54.757 44.2708C54.5959 44.9521 55.0187 45.6348 55.7012 45.7956C56.3838 45.9564 57.0677 45.5344 57.2288 44.8531Z" fill="#E89B30" fill-opacity="0.5"/>
<path d="M68.8832 35.3338C69.3791 34.8388 69.3791 34.0362 68.8832 33.5412C68.3873 33.0462 67.5833 33.0462 67.0874 33.5412C66.5915 34.0362 66.5915 34.8388 67.0874 35.3338C67.5833 35.8288 68.3873 35.8288 68.8832 35.3338Z" fill="#E89B30" fill-opacity="0.5"/>
<path d="M69.2191 44.8531C69.3802 44.1718 68.9574 43.4891 68.2749 43.3283C67.5923 43.1675 66.9084 43.5894 66.7473 44.2708C66.5862 44.9521 67.0089 45.6348 67.6915 45.7956C68.374 45.9564 69.058 45.5344 69.2191 44.8531Z" fill="#E89B30" fill-opacity="0.5"/>
</g>
<g clip-path="url(#clip7_2249_16464)">
<path d="M84.177 72.2712C84.177 70.9683 83.6726 69.7837 82.8486 68.8998C83.6726 68.0158 84.177 66.8308 84.177 65.5284C84.177 62.7946 81.9564 60.5781 79.2176 60.5781C77.7723 60.5781 76.4716 61.1952 75.5656 62.1801C74.659 61.1958 73.3583 60.5781 71.9135 60.5781C70.4687 60.5781 69.1675 61.1952 68.2614 62.1801C67.3548 61.1958 66.0542 60.5781 64.6094 60.5781C63.1646 60.5781 61.8634 61.1952 60.9573 62.1801C60.0507 61.1958 58.7501 60.5781 57.3053 60.5781C55.8605 60.5781 54.5593 61.1952 53.6532 62.1801C52.7466 61.1958 51.446 60.5781 50.0012 60.5781C48.5563 60.5781 47.2552 61.1952 46.3491 62.1801C45.4425 61.1958 44.1418 60.5781 42.697 60.5781C41.2522 60.5781 39.9511 61.1952 39.045 62.1801C38.1368 61.1952 36.8362 60.5781 35.3909 60.5781C33.9455 60.5781 32.6449 61.1952 31.7388 62.1801C30.8322 61.1952 29.5316 60.5781 28.0862 60.5781C26.6409 60.5781 25.3403 61.1952 24.4342 62.1801C23.5276 61.1952 22.2275 60.5781 20.7821 60.5781C18.0433 60.5781 15.8228 62.7946 15.8228 65.5284C15.8228 66.8313 16.3271 68.0158 17.1511 68.8998C16.3271 69.7837 15.8228 70.9688 15.8228 72.2712C15.8228 73.6857 16.4174 74.9619 17.3707 75.8638C16.4174 76.7662 15.8228 78.0424 15.8228 79.4569C15.8228 80.8714 16.4174 82.1477 17.3707 83.0495C16.4174 83.9519 15.8228 85.2276 15.8228 86.6427C15.8228 87.9455 16.3271 89.1301 17.1511 90.014C16.3271 90.898 15.8228 92.0831 15.8228 93.3854C15.8228 96.1192 18.0433 98.3357 20.7821 98.3357C22.2275 98.3357 23.5281 97.7186 24.4342 96.7337C25.3408 97.7181 26.6414 98.3357 28.0862 98.3357C29.5311 98.3357 30.8322 97.7186 31.7383 96.7337C32.6449 97.7181 33.9455 98.3357 35.3904 98.3357C36.8352 98.3357 38.1363 97.7186 39.0424 96.7337C39.949 97.7181 41.2497 98.3357 42.6945 98.3357C44.1393 98.3357 45.4404 97.7186 46.3465 96.7337C47.2531 97.7181 48.5538 98.3357 49.9986 98.3357C51.4434 98.3357 52.7446 97.7186 53.6506 96.7337C54.5572 97.7181 55.8579 98.3357 57.3027 98.3357C58.7475 98.3357 60.0487 97.7186 60.9548 96.7337C61.8614 97.7181 63.162 98.3357 64.6068 98.3357C66.0516 98.3357 67.3528 97.7186 68.2589 96.7337C69.1655 97.7181 70.4661 98.3357 71.9109 98.3357C73.3557 98.3357 74.6569 97.7186 75.563 96.7337C76.4696 97.7181 77.7702 98.3357 79.215 98.3357C81.9538 98.3357 84.1744 96.1192 84.1744 93.3854C84.1744 92.0825 83.6701 90.898 82.8461 90.014C83.6701 89.1301 84.1744 87.945 84.1744 86.6427C84.1744 85.2281 83.5798 83.9519 82.6265 83.05C83.5798 82.1482 84.1744 80.8719 84.1744 79.4574C84.1744 78.0429 83.5798 76.7667 82.6265 75.8648C83.5798 74.9629 84.1744 73.6867 84.1744 72.2722L84.177 72.2712Z" fill="#FFCD95" fill-opacity="0.5"/>
<path d="M32.9125 75.2903C33.4084 74.7953 33.4084 73.9928 32.9125 73.4978C32.4166 73.0028 31.6126 73.0028 31.1167 73.4978C30.6208 73.9928 30.6208 74.7953 31.1167 75.2903C31.6126 75.7853 32.4166 75.7853 32.9125 75.2903Z" fill="#E89B30" fill-opacity="0.5"/>
<path d="M44.9028 75.2898C45.3987 74.7948 45.3987 73.9923 44.9028 73.4973C44.4068 73.0023 43.6028 73.0023 43.1069 73.4973C42.611 73.9923 42.611 74.7948 43.1069 75.2898C43.6028 75.7848 44.4068 75.7848 44.9028 75.2898Z" fill="#E89B30" fill-opacity="0.5"/>
<path d="M56.893 75.2903C57.3889 74.7953 57.3889 73.9928 56.893 73.4978C56.3971 73.0028 55.5931 73.0028 55.0971 73.4978C54.6012 73.9928 54.6012 74.7953 55.0971 75.2903C55.5931 75.7853 56.3971 75.7853 56.893 75.2903Z" fill="#E89B30" fill-opacity="0.5"/>
<path d="M68.8832 75.2898C69.3791 74.7948 69.3791 73.9923 68.8832 73.4973C68.3873 73.0023 67.5833 73.0023 67.0874 73.4973C66.5915 73.9923 66.5915 74.7948 67.0874 75.2898C67.5833 75.7848 68.3873 75.7848 68.8832 75.2898Z" fill="#E89B30" fill-opacity="0.5"/>
</g>
<g clip-path="url(#clip8_2249_16464)">
<path d="M154.73 -7.64192C154.73 -8.94479 154.226 -10.1294 153.402 -11.0133C154.226 -11.8972 154.73 -13.0823 154.73 -14.3847C154.73 -17.1184 152.51 -19.335 149.771 -19.335C148.326 -19.335 147.025 -18.7178 146.119 -17.733C145.212 -18.7173 143.912 -19.335 142.467 -19.335C141.022 -19.335 139.721 -18.7178 138.815 -17.733C137.908 -18.7173 136.607 -19.335 135.163 -19.335C133.718 -19.335 132.417 -18.7178 131.511 -17.733C130.604 -18.7173 129.303 -19.335 127.858 -19.335C126.414 -19.335 125.113 -18.7178 124.206 -17.733C123.3 -18.7173 121.999 -19.335 120.554 -19.335C119.11 -19.335 117.808 -18.7178 116.902 -17.733C115.996 -18.7173 114.695 -19.335 113.25 -19.335C111.805 -19.335 110.504 -18.7178 109.598 -17.733C108.69 -18.7178 107.389 -19.335 105.944 -19.335C104.499 -19.335 103.198 -18.7178 102.292 -17.733C101.385 -18.7178 100.085 -19.335 98.6395 -19.335C97.1941 -19.335 95.8935 -18.7178 94.9874 -17.733C94.0808 -18.7178 92.7807 -19.335 91.3353 -19.335C88.5966 -19.335 86.376 -17.1184 86.376 -14.3847C86.376 -13.0818 86.8803 -11.8972 87.7043 -11.0133C86.8803 -10.1294 86.376 -8.94428 86.376 -7.64192C86.376 -6.22741 86.9706 -4.95117 87.9239 -4.04931C86.9706 -3.14693 86.376 -1.87069 86.376 -0.456175C86.376 0.958338 86.9706 2.23458 87.9239 3.13644C86.9706 4.03882 86.376 5.31455 86.376 6.72957C86.376 8.03244 86.8803 9.21701 87.7043 10.101C86.8803 10.9849 86.376 12.17 86.376 13.4723C86.376 16.2061 88.5966 18.4226 91.3353 18.4226C92.7807 18.4226 94.0813 17.8055 94.9874 16.8207C95.894 17.805 97.1946 18.4226 98.6395 18.4226C100.084 18.4226 101.385 17.8055 102.292 16.8207C103.198 17.805 104.499 18.4226 105.944 18.4226C107.388 18.4226 108.69 17.8055 109.596 16.8207C110.502 17.805 111.803 18.4226 113.248 18.4226C114.693 18.4226 115.994 17.8055 116.9 16.8207C117.806 17.805 119.107 18.4226 120.552 18.4226C121.997 18.4226 123.298 17.8055 124.204 16.8207C125.11 17.805 126.411 18.4226 127.856 18.4226C129.301 18.4226 130.602 17.8055 131.508 16.8207C132.415 17.805 133.715 18.4226 135.16 18.4226C136.605 18.4226 137.906 17.8055 138.812 16.8207C139.719 17.805 141.019 18.4226 142.464 18.4226C143.909 18.4226 145.21 17.8055 146.116 16.8207C147.023 17.805 148.323 18.4226 149.768 18.4226C152.507 18.4226 154.728 16.2061 154.728 13.4723C154.728 12.1695 154.223 10.9849 153.399 10.101C154.223 9.21701 154.728 8.03193 154.728 6.72957C154.728 5.31506 154.133 4.03882 153.18 3.13696C154.133 2.23509 154.728 0.958851 154.728 -0.455663C154.728 -1.87018 154.133 -3.14641 153.18 -4.04828C154.133 -4.95015 154.728 -6.22639 154.728 -7.6409L154.73 -7.64192Z" fill="#FFCD95" fill-opacity="0.5"/>
</g>
<g clip-path="url(#clip9_2249_16464)">
<path d="M154.73 32.3146C154.73 31.0118 154.226 29.8272 153.402 28.9432C154.226 28.0593 154.73 26.8742 154.73 25.5719C154.73 22.8381 152.51 20.6216 149.771 20.6216C148.326 20.6216 147.025 21.2387 146.119 22.2235C145.212 21.2392 143.912 20.6216 142.467 20.6216C141.022 20.6216 139.721 21.2387 138.815 22.2235C137.908 21.2392 136.607 20.6216 135.163 20.6216C133.718 20.6216 132.417 21.2387 131.511 22.2235C130.604 21.2392 129.303 20.6216 127.858 20.6216C126.414 20.6216 125.113 21.2387 124.206 22.2235C123.3 21.2392 121.999 20.6216 120.554 20.6216C119.11 20.6216 117.808 21.2387 116.902 22.2235C115.996 21.2392 114.695 20.6216 113.25 20.6216C111.805 20.6216 110.504 21.2387 109.598 22.2235C108.69 21.2387 107.389 20.6216 105.944 20.6216C104.499 20.6216 103.198 21.2387 102.292 22.2235C101.385 21.2387 100.085 20.6216 98.6395 20.6216C97.1941 20.6216 95.8935 21.2387 94.9874 22.2235C94.0808 21.2387 92.7807 20.6216 91.3353 20.6216C88.5966 20.6216 86.376 22.8381 86.376 25.5719C86.376 26.8747 86.8803 28.0593 87.7043 28.9432C86.8803 29.8272 86.376 31.0123 86.376 32.3146C86.376 33.7291 86.9706 35.0054 87.9239 35.9072C86.9706 36.8096 86.376 38.0859 86.376 39.5004C86.376 40.9149 86.9706 42.1911 87.9239 43.093C86.9706 43.9954 86.376 45.2711 86.376 46.6861C86.376 47.989 86.8803 49.1736 87.7043 50.0575C86.8803 50.9414 86.376 52.1265 86.376 53.4289C86.376 56.1626 88.5966 58.3792 91.3353 58.3792C92.7807 58.3792 94.0813 57.762 94.9874 56.7772C95.894 57.7615 97.1946 58.3792 98.6395 58.3792C100.084 58.3792 101.385 57.762 102.292 56.7772C103.198 57.7615 104.499 58.3792 105.944 58.3792C107.388 58.3792 108.69 57.762 109.596 56.7772C110.502 57.7615 111.803 58.3792 113.248 58.3792C114.693 58.3792 115.994 57.762 116.9 56.7772C117.806 57.7615 119.107 58.3792 120.552 58.3792C121.997 58.3792 123.298 57.762 124.204 56.7772C125.11 57.7615 126.411 58.3792 127.856 58.3792C129.301 58.3792 130.602 57.762 131.508 56.7772C132.415 57.7615 133.715 58.3792 135.16 58.3792C136.605 58.3792 137.906 57.762 138.812 56.7772C139.719 57.7615 141.019 58.3792 142.464 58.3792C143.909 58.3792 145.21 57.762 146.116 56.7772C147.023 57.7615 148.323 58.3792 149.768 58.3792C152.507 58.3792 154.728 56.1626 154.728 53.4289C154.728 52.126 154.223 50.9414 153.399 50.0575C154.223 49.1736 154.728 47.9885 154.728 46.6861C154.728 45.2716 154.133 43.9954 153.18 43.0935C154.133 42.1916 154.728 40.9154 154.728 39.5009C154.728 38.0864 154.133 36.8101 153.18 35.9083C154.133 35.0064 154.728 33.7302 154.728 32.3156L154.73 32.3146Z" fill="#FFCD95" fill-opacity="0.5"/>
</g>
<g clip-path="url(#clip10_2249_16464)">
<path d="M154.73 72.2712C154.73 70.9683 154.226 69.7837 153.402 68.8998C154.226 68.0158 154.73 66.8308 154.73 65.5284C154.73 62.7946 152.51 60.5781 149.771 60.5781C148.326 60.5781 147.025 61.1952 146.119 62.1801C145.212 61.1958 143.912 60.5781 142.467 60.5781C141.022 60.5781 139.721 61.1952 138.815 62.1801C137.908 61.1958 136.607 60.5781 135.163 60.5781C133.718 60.5781 132.417 61.1952 131.511 62.1801C130.604 61.1958 129.303 60.5781 127.858 60.5781C126.414 60.5781 125.113 61.1952 124.206 62.1801C123.3 61.1958 121.999 60.5781 120.554 60.5781C119.11 60.5781 117.808 61.1952 116.902 62.1801C115.996 61.1958 114.695 60.5781 113.25 60.5781C111.805 60.5781 110.504 61.1952 109.598 62.1801C108.69 61.1952 107.389 60.5781 105.944 60.5781C104.499 60.5781 103.198 61.1952 102.292 62.1801C101.385 61.1952 100.085 60.5781 98.6395 60.5781C97.1941 60.5781 95.8935 61.1952 94.9874 62.1801C94.0808 61.1952 92.7807 60.5781 91.3353 60.5781C88.5966 60.5781 86.376 62.7946 86.376 65.5284C86.376 66.8313 86.8803 68.0158 87.7043 68.8998C86.8803 69.7837 86.376 70.9688 86.376 72.2712C86.376 73.6857 86.9706 74.9619 87.9239 75.8638C86.9706 76.7662 86.376 78.0424 86.376 79.4569C86.376 80.8714 86.9706 82.1477 87.9239 83.0495C86.9706 83.9519 86.376 85.2276 86.376 86.6427C86.376 87.9455 86.8803 89.1301 87.7043 90.014C86.8803 90.898 86.376 92.0831 86.376 93.3854C86.376 96.1192 88.5966 98.3357 91.3353 98.3357C92.7807 98.3357 94.0813 97.7186 94.9874 96.7337C95.894 97.7181 97.1946 98.3357 98.6395 98.3357C100.084 98.3357 101.385 97.7186 102.292 96.7337C103.198 97.7181 104.499 98.3357 105.944 98.3357C107.388 98.3357 108.69 97.7186 109.596 96.7337C110.502 97.7181 111.803 98.3357 113.248 98.3357C114.693 98.3357 115.994 97.7186 116.9 96.7337C117.806 97.7181 119.107 98.3357 120.552 98.3357C121.997 98.3357 123.298 97.7186 124.204 96.7337C125.11 97.7181 126.411 98.3357 127.856 98.3357C129.301 98.3357 130.602 97.7186 131.508 96.7337C132.415 97.7181 133.715 98.3357 135.16 98.3357C136.605 98.3357 137.906 97.7186 138.812 96.7337C139.719 97.7181 141.019 98.3357 142.464 98.3357C143.909 98.3357 145.21 97.7186 146.116 96.7337C147.023 97.7181 148.323 98.3357 149.768 98.3357C152.507 98.3357 154.728 96.1192 154.728 93.3854C154.728 92.0825 154.223 90.898 153.399 90.014C154.223 89.1301 154.728 87.945 154.728 86.6427C154.728 85.2281 154.133 83.9519 153.18 83.05C154.133 82.1482 154.728 80.8719 154.728 79.4574C154.728 78.0429 154.133 76.7667 153.18 75.8648C154.133 74.9629 154.728 73.6867 154.728 72.2722L154.73 72.2712Z" fill="#FFCD95" fill-opacity="0.5"/>
</g>
</g>
</g>
<defs>
<clipPath id="clip0_2249_16464">
<rect y="0.5" width="100" height="78" rx="4" fill="white"/>
</clipPath>
<clipPath id="clip1_2249_16464">
<rect width="148.43" height="123.311" fill="white" transform="translate(-24.2148 -22.1553)"/>
</clipPath>
<clipPath id="clip2_2249_16464">
<rect width="68.3542" height="37.7576" fill="white" transform="translate(-54.73 -19.335)"/>
</clipPath>
<clipPath id="clip3_2249_16464">
<rect width="68.3542" height="37.7576" fill="white" transform="translate(-54.73 20.6216)"/>
</clipPath>
<clipPath id="clip4_2249_16464">
<rect width="68.3542" height="37.7576" fill="white" transform="translate(-54.73 60.5781)"/>
</clipPath>
<clipPath id="clip5_2249_16464">
<rect width="68.3542" height="37.7576" fill="white" transform="translate(15.8228 -19.335)"/>
</clipPath>
<clipPath id="clip6_2249_16464">
<rect width="68.3542" height="37.7576" fill="white" transform="translate(15.8228 20.6216)"/>
</clipPath>
<clipPath id="clip7_2249_16464">
<rect width="68.3542" height="37.7576" fill="white" transform="translate(15.8228 60.5781)"/>
</clipPath>
<clipPath id="clip8_2249_16464">
<rect width="68.3542" height="37.7576" fill="white" transform="translate(86.376 -19.335)"/>
</clipPath>
<clipPath id="clip9_2249_16464">
<rect width="68.3542" height="37.7576" fill="white" transform="translate(86.376 20.6216)"/>
</clipPath>
<clipPath id="clip10_2249_16464">
<rect width="68.3542" height="37.7576" fill="white" transform="translate(86.376 60.5781)"/>
</clipPath>
</defs>
</svg>
