<svg width="390" height="324" viewBox="0 0 390 324" fill="none" xmlns="http://www.w3.org/2000/svg">
<g clip-path="url(#clip0_2095_14161)">
<rect width="390" height="324" transform="translate(0 0.00195312)" fill="#FFE8C7"/>
<g clip-path="url(#clip1_2095_14161)">
<path d="M99.4217 38.1356C99.4217 34.7123 98.0965 31.5999 95.9314 29.2773C98.0965 26.9547 99.4217 23.8409 99.4217 20.419C99.4217 13.236 93.5871 7.41211 86.3909 7.41211C82.5933 7.41211 79.1759 9.0336 76.7951 11.6212C74.413 9.03494 70.9956 7.41211 67.1993 7.41211C63.4031 7.41211 59.9843 9.0336 57.6035 11.6212C55.2215 9.03494 51.804 7.41211 48.0078 7.41211C44.2115 7.41211 40.7927 9.0336 38.412 11.6212C36.0299 9.03494 32.6124 7.41211 28.8162 7.41211C25.0199 7.41211 21.6011 9.0336 19.2204 11.6212C16.8383 9.03494 13.4209 7.41211 9.6246 7.41211C5.82835 7.41211 2.40955 9.0336 0.0288086 11.6212C-2.35329 9.03494 -5.77072 7.41211 -9.56698 7.41211C-13.3632 7.41211 -16.782 9.0336 -19.1628 11.6212C-21.5489 9.0336 -24.9663 7.41211 -28.7639 7.41211C-32.5615 7.41211 -35.979 9.0336 -38.3597 11.6212C-40.7418 9.0336 -44.1593 7.41211 -47.9569 7.41211C-51.7545 7.41211 -55.1719 9.0336 -57.5527 11.6212C-59.9348 9.0336 -63.3508 7.41211 -67.1484 7.41211C-74.3446 7.41211 -80.1792 13.236 -80.1792 20.419C-80.1792 23.8423 -78.854 26.9547 -76.689 29.2773C-78.854 31.5999 -80.1792 34.7136 -80.1792 38.1356C-80.1792 41.8522 -78.6167 45.2055 -76.112 47.5752C-78.6167 49.9462 -80.1792 53.2995 -80.1792 57.0162C-80.1792 60.7328 -78.6167 64.0861 -76.112 66.4558C-78.6167 68.8268 -80.1792 72.1787 -80.1792 75.8967C-80.1792 79.32 -78.854 82.4325 -76.689 84.755C-78.854 87.0776 -80.1792 90.1914 -80.1792 93.6133C-80.1792 100.796 -74.3446 106.62 -67.1484 106.62C-63.3508 106.62 -59.9334 104.999 -57.5527 102.411C-55.1706 104.997 -51.7531 106.62 -47.9569 106.62C-44.1606 106.62 -40.7418 104.999 -38.3611 102.411C-35.979 104.997 -32.5615 106.62 -28.7653 106.62C-24.969 106.62 -21.5503 104.999 -19.1695 102.411C-16.7874 104.997 -13.37 106.62 -9.57372 106.62C-5.77747 106.62 -2.35868 104.999 0.0220718 102.411C2.40417 104.997 5.8216 106.62 9.61786 106.62C13.4141 106.62 16.8329 104.999 19.2137 102.411C21.5957 104.997 25.0132 106.62 28.8094 106.62C32.6057 106.62 36.0245 104.999 38.4052 102.411C40.7873 104.997 44.2048 106.62 48.001 106.62C51.7973 106.62 55.216 104.999 57.5968 102.411C59.9789 104.997 63.3963 106.62 67.1926 106.62C70.9889 106.62 74.4076 104.999 76.7884 102.411C79.1705 104.997 82.5879 106.62 86.3842 106.62C93.5803 106.62 99.4149 100.796 99.4149 93.6133C99.4149 90.19 98.0898 87.0776 95.9247 84.755C98.0898 82.4325 99.4149 79.3187 99.4149 75.8967C99.4149 72.1801 97.8525 68.8268 95.3477 66.4571C97.8525 64.0875 99.4149 60.7341 99.4149 57.0175C99.4149 53.3009 97.8525 49.9476 95.3477 47.5779C97.8525 45.2082 99.4149 41.8549 99.4149 38.1383L99.4217 38.1356Z" fill="#FFCD95" fill-opacity="0.5"/>
<path d="M27.7324 46.0684C29.0354 44.7677 29.0354 42.659 27.7324 41.3584C26.4294 40.0578 24.3168 40.0578 23.0138 41.3584C21.7108 42.659 21.7108 44.7677 23.0138 46.0684C24.3168 47.369 26.4294 47.369 27.7324 46.0684Z" fill="#E89B30" fill-opacity="0.5"/>
<path d="M28.6158 71.0807C29.0391 69.2905 27.9284 67.4968 26.1349 67.0743C24.3415 66.6517 22.5445 67.7604 22.1212 69.5506C21.6979 71.3408 22.8086 73.1345 24.6021 73.557C26.3955 73.9795 28.1925 72.8708 28.6158 71.0807Z" fill="#E89B30" fill-opacity="0.5"/>
<path d="M59.2366 46.0679C60.5396 44.7672 60.5396 42.6585 59.2366 41.3579C57.9336 40.0573 55.821 40.0573 54.518 41.3579C53.215 42.6585 53.215 44.7672 54.518 46.0679C55.821 47.3685 57.9336 47.3685 59.2366 46.0679Z" fill="#E89B30" fill-opacity="0.5"/>
<path d="M60.1197 71.0807C60.543 69.2905 59.4323 67.4968 57.6389 67.0743C55.8454 66.6517 54.0484 67.7604 53.6251 69.5506C53.2018 71.3408 54.3125 73.1345 56.106 73.557C57.8994 73.9795 59.6964 72.8708 60.1197 71.0807Z" fill="#E89B30" fill-opacity="0.5"/>
</g>
<g clip-path="url(#clip2_2095_14161)">
<path d="M99.4217 143.122C99.4217 139.699 98.0965 136.586 95.9314 134.264C98.0965 131.941 99.4217 128.827 99.4217 125.405C99.4217 118.222 93.5871 112.398 86.3909 112.398C82.5933 112.398 79.1759 114.02 76.7951 116.608C74.413 114.021 70.9956 112.398 67.1993 112.398C63.4031 112.398 59.9843 114.02 57.6035 116.608C55.2215 114.021 51.804 112.398 48.0078 112.398C44.2115 112.398 40.7927 114.02 38.412 116.608C36.0299 114.021 32.6124 112.398 28.8162 112.398C25.0199 112.398 21.6011 114.02 19.2204 116.608C16.8383 114.021 13.4209 112.398 9.6246 112.398C5.82835 112.398 2.40955 114.02 0.0288086 116.608C-2.35329 114.021 -5.77072 112.398 -9.56698 112.398C-13.3632 112.398 -16.782 114.02 -19.1628 116.608C-21.5489 114.02 -24.9663 112.398 -28.7639 112.398C-32.5615 112.398 -35.979 114.02 -38.3597 116.608C-40.7418 114.02 -44.1593 112.398 -47.9569 112.398C-51.7545 112.398 -55.1719 114.02 -57.5527 116.608C-59.9348 114.02 -63.3508 112.398 -67.1484 112.398C-74.3446 112.398 -80.1792 118.222 -80.1792 125.405C-80.1792 128.829 -78.854 131.941 -76.689 134.264C-78.854 136.586 -80.1792 139.7 -80.1792 143.122C-80.1792 146.839 -78.6167 150.192 -76.112 152.562C-78.6167 154.933 -80.1792 158.286 -80.1792 162.002C-80.1792 165.719 -78.6167 169.072 -76.112 171.442C-78.6167 173.813 -80.1792 177.165 -80.1792 180.883C-80.1792 184.306 -78.854 187.419 -76.689 189.741C-78.854 192.064 -80.1792 195.178 -80.1792 198.6C-80.1792 205.783 -74.3446 211.607 -67.1484 211.607C-63.3508 211.607 -59.9334 209.985 -57.5527 207.397C-55.1706 209.984 -51.7531 211.607 -47.9569 211.607C-44.1606 211.607 -40.7418 209.985 -38.3611 207.397C-35.979 209.984 -32.5615 211.607 -28.7653 211.607C-24.969 211.607 -21.5503 209.985 -19.1695 207.397C-16.7874 209.984 -13.37 211.607 -9.57372 211.607C-5.77747 211.607 -2.35868 209.985 0.0220718 207.397C2.40417 209.984 5.8216 211.607 9.61786 211.607C13.4141 211.607 16.8329 209.985 19.2137 207.397C21.5957 209.984 25.0132 211.607 28.8094 211.607C32.6057 211.607 36.0245 209.985 38.4052 207.397C40.7873 209.984 44.2048 211.607 48.001 211.607C51.7973 211.607 55.216 209.985 57.5968 207.397C59.9789 209.984 63.3963 211.607 67.1926 211.607C70.9889 211.607 74.4076 209.985 76.7884 207.397C79.1705 209.984 82.5879 211.607 86.3842 211.607C93.5803 211.607 99.4149 205.783 99.4149 198.6C99.4149 195.176 98.0898 192.064 95.9247 189.741C98.0898 187.419 99.4149 184.305 99.4149 180.883C99.4149 177.166 97.8525 173.813 95.3477 171.443C97.8525 169.074 99.4149 165.72 99.4149 162.004C99.4149 158.287 97.8525 154.934 95.3477 152.564C97.8525 150.195 99.4149 146.841 99.4149 143.125L99.4217 143.122Z" fill="#FFCD95" fill-opacity="0.5"/>
<path d="M27.7324 151.055C29.0354 149.754 29.0354 147.645 27.7324 146.345C26.4294 145.044 24.3168 145.044 23.0138 146.345C21.7108 147.645 21.7108 149.754 23.0138 151.055C24.3168 152.355 26.4294 152.355 27.7324 151.055Z" fill="#E89B30" fill-opacity="0.5"/>
<path d="M28.6158 176.067C29.0391 174.277 27.9284 172.483 26.1349 172.061C24.3415 171.638 22.5445 172.747 22.1212 174.537C21.6979 176.327 22.8086 178.121 24.6021 178.543C26.3955 178.966 28.1925 177.857 28.6158 176.067Z" fill="#E89B30" fill-opacity="0.5"/>
<path d="M59.2366 151.054C60.5396 149.754 60.5396 147.645 59.2366 146.344C57.9336 145.044 55.821 145.044 54.518 146.344C53.215 147.645 53.215 149.754 54.518 151.054C55.821 152.355 57.9336 152.355 59.2366 151.054Z" fill="#E89B30" fill-opacity="0.5"/>
<path d="M60.1197 176.067C60.543 174.277 59.4323 172.483 57.6389 172.061C55.8454 171.638 54.0484 172.747 53.6251 174.537C53.2018 176.327 54.3125 178.121 56.106 178.543C57.8994 178.966 59.6964 177.857 60.1197 176.067Z" fill="#E89B30" fill-opacity="0.5"/>
</g>
<g clip-path="url(#clip3_2095_14161)">
<path d="M99.4217 248.107C99.4217 244.684 98.0965 241.572 95.9314 239.249C98.0965 236.926 99.4217 233.813 99.4217 230.391C99.4217 223.208 93.5871 217.384 86.3909 217.384C82.5933 217.384 79.1759 219.005 76.7951 221.593C74.413 219.007 70.9956 217.384 67.1993 217.384C63.4031 217.384 59.9843 219.005 57.6035 221.593C55.2215 219.007 51.804 217.384 48.0078 217.384C44.2115 217.384 40.7927 219.005 38.412 221.593C36.0299 219.007 32.6124 217.384 28.8162 217.384C25.0199 217.384 21.6011 219.005 19.2204 221.593C16.8383 219.007 13.4209 217.384 9.6246 217.384C5.82835 217.384 2.40955 219.005 0.0288086 221.593C-2.35329 219.007 -5.77072 217.384 -9.56698 217.384C-13.3632 217.384 -16.782 219.005 -19.1628 221.593C-21.5489 219.005 -24.9663 217.384 -28.7639 217.384C-32.5615 217.384 -35.979 219.005 -38.3597 221.593C-40.7418 219.005 -44.1593 217.384 -47.9569 217.384C-51.7545 217.384 -55.1719 219.005 -57.5527 221.593C-59.9348 219.005 -63.3508 217.384 -67.1484 217.384C-74.3446 217.384 -80.1792 223.208 -80.1792 230.391C-80.1792 233.814 -78.854 236.926 -76.689 239.249C-78.854 241.572 -80.1792 244.685 -80.1792 248.107C-80.1792 251.824 -78.6167 255.177 -76.112 257.547C-78.6167 259.918 -80.1792 263.271 -80.1792 266.988C-80.1792 270.704 -78.6167 274.058 -76.112 276.427C-78.6167 278.798 -80.1792 282.15 -80.1792 285.868C-80.1792 289.292 -78.854 292.404 -76.689 294.727C-78.854 297.049 -80.1792 300.163 -80.1792 303.585C-80.1792 310.768 -74.3446 316.592 -67.1484 316.592C-63.3508 316.592 -59.9334 314.97 -57.5527 312.383C-55.1706 314.969 -51.7531 316.592 -47.9569 316.592C-44.1606 316.592 -40.7418 314.97 -38.3611 312.383C-35.979 314.969 -32.5615 316.592 -28.7653 316.592C-24.969 316.592 -21.5503 314.97 -19.1695 312.383C-16.7874 314.969 -13.37 316.592 -9.57372 316.592C-5.77747 316.592 -2.35868 314.97 0.0220718 312.383C2.40417 314.969 5.8216 316.592 9.61786 316.592C13.4141 316.592 16.8329 314.97 19.2137 312.383C21.5957 314.969 25.0132 316.592 28.8094 316.592C32.6057 316.592 36.0245 314.97 38.4052 312.383C40.7873 314.969 44.2048 316.592 48.001 316.592C51.7973 316.592 55.216 314.97 57.5968 312.383C59.9789 314.969 63.3963 316.592 67.1926 316.592C70.9889 316.592 74.4076 314.97 76.7884 312.383C79.1705 314.969 82.5879 316.592 86.3842 316.592C93.5803 316.592 99.4149 310.768 99.4149 303.585C99.4149 300.162 98.0898 297.049 95.9247 294.727C98.0898 292.404 99.4149 289.29 99.4149 285.868C99.4149 282.152 97.8525 278.798 95.3477 276.429C97.8525 274.059 99.4149 270.706 99.4149 266.989C99.4149 263.273 97.8525 259.919 95.3477 257.55C97.8525 255.18 99.4149 251.827 99.4149 248.11L99.4217 248.107Z" fill="#FFCD95" fill-opacity="0.5"/>
<path d="M27.7324 256.04C29.0354 254.739 29.0354 252.631 27.7324 251.33C26.4294 250.029 24.3168 250.029 23.0138 251.33C21.7108 252.631 21.7108 254.739 23.0138 256.04C24.3168 257.341 26.4294 257.341 27.7324 256.04Z" fill="#E89B30" fill-opacity="0.5"/>
<path d="M28.6158 281.052C29.0391 279.262 27.9284 277.468 26.1349 277.046C24.3415 276.623 22.5445 277.732 22.1212 279.522C21.6979 281.312 22.8086 283.106 24.6021 283.529C26.3955 283.951 28.1925 282.843 28.6158 281.052Z" fill="#E89B30" fill-opacity="0.5"/>
<path d="M59.2366 256.04C60.5396 254.739 60.5396 252.63 59.2366 251.33C57.9336 250.029 55.821 250.029 54.518 251.33C53.215 252.63 53.215 254.739 54.518 256.04C55.821 257.34 57.9336 257.34 59.2366 256.04Z" fill="#E89B30" fill-opacity="0.5"/>
<path d="M60.1197 281.052C60.543 279.262 59.4323 277.468 57.6389 277.046C55.8454 276.623 54.0484 277.732 53.6251 279.522C53.2018 281.312 54.3125 283.106 56.106 283.529C57.8994 283.951 59.6964 282.843 60.1197 281.052Z" fill="#E89B30" fill-opacity="0.5"/>
</g>
<g clip-path="url(#clip4_2095_14161)">
<path d="M284.8 38.1356C284.8 34.7123 283.475 31.5999 281.31 29.2773C283.475 26.9547 284.8 23.8409 284.8 20.419C284.8 13.236 278.966 7.41211 271.77 7.41211C267.972 7.41211 264.555 9.0336 262.174 11.6212C259.792 9.03494 256.374 7.41211 252.578 7.41211C248.782 7.41211 245.363 9.0336 242.982 11.6212C240.6 9.03494 237.183 7.41211 233.386 7.41211C229.59 7.41211 226.171 9.0336 223.791 11.6212C221.409 9.03494 217.991 7.41211 214.195 7.41211C210.399 7.41211 206.98 9.0336 204.599 11.6212C202.217 9.03494 198.8 7.41211 195.003 7.41211C191.207 7.41211 187.788 9.0336 185.407 11.6212C183.025 9.03494 179.608 7.41211 175.812 7.41211C172.015 7.41211 168.597 9.0336 166.216 11.6212C163.83 9.0336 160.412 7.41211 156.615 7.41211C152.817 7.41211 149.4 9.0336 147.019 11.6212C144.637 9.0336 141.219 7.41211 137.422 7.41211C133.624 7.41211 130.207 9.0336 127.826 11.6212C125.444 9.0336 122.028 7.41211 118.23 7.41211C111.034 7.41211 105.199 13.236 105.199 20.419C105.199 23.8423 106.525 26.9547 108.69 29.2773C106.525 31.5999 105.199 34.7136 105.199 38.1356C105.199 41.8522 106.762 45.2055 109.267 47.5752C106.762 49.9462 105.199 53.2995 105.199 57.0162C105.199 60.7328 106.762 64.0861 109.267 66.4558C106.762 68.8268 105.199 72.1787 105.199 75.8967C105.199 79.32 106.525 82.4325 108.69 84.755C106.525 87.0776 105.199 90.1914 105.199 93.6133C105.199 100.796 111.034 106.62 118.23 106.62C122.028 106.62 125.445 104.999 127.826 102.411C130.208 104.997 133.626 106.62 137.422 106.62C141.218 106.62 144.637 104.999 147.018 102.411C149.4 104.997 152.817 106.62 156.613 106.62C160.41 106.62 163.828 104.999 166.209 102.411C168.591 104.997 172.009 106.62 175.805 106.62C179.601 106.62 183.02 104.999 185.401 102.411C187.783 104.997 191.2 106.62 194.997 106.62C198.793 106.62 202.212 104.999 204.592 102.411C206.974 104.997 210.392 106.62 214.188 106.62C217.984 106.62 221.403 104.999 223.784 102.411C226.166 104.997 229.583 106.62 233.38 106.62C237.176 106.62 240.595 104.999 242.975 102.411C245.358 104.997 248.775 106.62 252.571 106.62C256.368 106.62 259.786 104.999 262.167 102.411C264.549 104.997 267.967 106.62 271.763 106.62C278.959 106.62 284.794 100.796 284.794 93.6133C284.794 90.19 283.468 87.0776 281.303 84.755C283.468 82.4325 284.794 79.3187 284.794 75.8967C284.794 72.1801 283.231 68.8268 280.726 66.4571C283.231 64.0875 284.794 60.7341 284.794 57.0175C284.794 53.3009 283.231 49.9476 280.726 47.5779C283.231 45.2082 284.794 41.8549 284.794 38.1383L284.8 38.1356Z" fill="#FFCD95" fill-opacity="0.5"/>
<path d="M150.103 46.0693C151.406 44.7687 151.406 42.66 150.103 41.3594C148.8 40.0588 146.687 40.0588 145.384 41.3594C144.081 42.66 144.081 44.7687 145.384 46.0693C146.687 47.3699 148.8 47.3699 150.103 46.0693Z" fill="#E89B30" fill-opacity="0.5"/>
<path d="M150.989 71.0821C151.412 69.292 150.301 67.4982 148.508 67.0757C146.715 66.6532 144.918 67.7619 144.494 69.5521C144.071 71.3422 145.182 73.136 146.975 73.5585C148.769 73.981 150.566 72.8723 150.989 71.0821Z" fill="#E89B30" fill-opacity="0.5"/>
<path d="M181.607 46.0679C182.91 44.7672 182.91 42.6585 181.607 41.3579C180.304 40.0573 178.191 40.0573 176.888 41.3579C175.585 42.6585 175.585 44.7672 176.888 46.0679C178.191 47.3685 180.304 47.3685 181.607 46.0679Z" fill="#E89B30" fill-opacity="0.5"/>
<path d="M182.492 71.0807C182.915 69.2905 181.804 67.4968 180.011 67.0743C178.217 66.6517 176.42 67.7604 175.997 69.5506C175.574 71.3408 176.685 73.1345 178.478 73.557C180.271 73.9795 182.069 72.8708 182.492 71.0807Z" fill="#E89B30" fill-opacity="0.5"/>
<path d="M213.111 46.0684C214.414 44.7677 214.414 42.659 213.111 41.3584C211.808 40.0578 209.696 40.0578 208.393 41.3584C207.089 42.659 207.089 44.7677 208.393 46.0684C209.696 47.369 211.808 47.369 213.111 46.0684Z" fill="#E89B30" fill-opacity="0.5"/>
<path d="M213.994 71.0807C214.418 69.2905 213.307 67.4968 211.514 67.0743C209.72 66.6517 207.923 67.7604 207.5 69.5506C207.077 71.3408 208.187 73.1345 209.981 73.557C211.774 73.9795 213.571 72.8708 213.994 71.0807Z" fill="#E89B30" fill-opacity="0.5"/>
<path d="M244.615 46.0679C245.918 44.7672 245.918 42.6585 244.615 41.3579C243.312 40.0573 241.2 40.0573 239.897 41.3579C238.594 42.6585 238.594 44.7672 239.897 46.0679C241.2 47.3685 243.312 47.3685 244.615 46.0679Z" fill="#E89B30" fill-opacity="0.5"/>
<path d="M245.498 71.0807C245.922 69.2905 244.811 67.4968 243.018 67.0743C241.224 66.6517 239.427 67.7604 239.004 69.5506C238.58 71.3408 239.691 73.1345 241.485 73.557C243.278 73.9795 245.075 72.8708 245.498 71.0807Z" fill="#E89B30" fill-opacity="0.5"/>
</g>
<g clip-path="url(#clip5_2095_14161)">
<path d="M284.8 143.122C284.8 139.699 283.475 136.586 281.31 134.264C283.475 131.941 284.8 128.827 284.8 125.405C284.8 118.222 278.966 112.398 271.77 112.398C267.972 112.398 264.555 114.02 262.174 116.608C259.792 114.021 256.374 112.398 252.578 112.398C248.782 112.398 245.363 114.02 242.982 116.608C240.6 114.021 237.183 112.398 233.386 112.398C229.59 112.398 226.171 114.02 223.791 116.608C221.409 114.021 217.991 112.398 214.195 112.398C210.399 112.398 206.98 114.02 204.599 116.608C202.217 114.021 198.8 112.398 195.003 112.398C191.207 112.398 187.788 114.02 185.407 116.608C183.025 114.021 179.608 112.398 175.812 112.398C172.015 112.398 168.597 114.02 166.216 116.608C163.83 114.02 160.412 112.398 156.615 112.398C152.817 112.398 149.4 114.02 147.019 116.608C144.637 114.02 141.219 112.398 137.422 112.398C133.624 112.398 130.207 114.02 127.826 116.608C125.444 114.02 122.028 112.398 118.23 112.398C111.034 112.398 105.199 118.222 105.199 125.405C105.199 128.829 106.525 131.941 108.69 134.264C106.525 136.586 105.199 139.7 105.199 143.122C105.199 146.839 106.762 150.192 109.267 152.562C106.762 154.933 105.199 158.286 105.199 162.002C105.199 165.719 106.762 169.072 109.267 171.442C106.762 173.813 105.199 177.165 105.199 180.883C105.199 184.306 106.525 187.419 108.69 189.741C106.525 192.064 105.199 195.178 105.199 198.6C105.199 205.783 111.034 211.607 118.23 211.607C122.028 211.607 125.445 209.985 127.826 207.397C130.208 209.984 133.626 211.607 137.422 211.607C141.218 211.607 144.637 209.985 147.018 207.397C149.4 209.984 152.817 211.607 156.613 211.607C160.41 211.607 163.828 209.985 166.209 207.397C168.591 209.984 172.009 211.607 175.805 211.607C179.601 211.607 183.02 209.985 185.401 207.397C187.783 209.984 191.2 211.607 194.997 211.607C198.793 211.607 202.212 209.985 204.592 207.397C206.974 209.984 210.392 211.607 214.188 211.607C217.984 211.607 221.403 209.985 223.784 207.397C226.166 209.984 229.583 211.607 233.38 211.607C237.176 211.607 240.595 209.985 242.975 207.397C245.358 209.984 248.775 211.607 252.571 211.607C256.368 211.607 259.786 209.985 262.167 207.397C264.549 209.984 267.967 211.607 271.763 211.607C278.959 211.607 284.794 205.783 284.794 198.6C284.794 195.176 283.468 192.064 281.303 189.741C283.468 187.419 284.794 184.305 284.794 180.883C284.794 177.166 283.231 173.813 280.726 171.443C283.231 169.074 284.794 165.72 284.794 162.004C284.794 158.287 283.231 154.934 280.726 152.564C283.231 150.195 284.794 146.841 284.794 143.125L284.8 143.122Z" fill="#FFCD95" fill-opacity="0.5"/>
<path d="M150.103 151.056C151.406 149.755 151.406 147.646 150.103 146.346C148.8 145.045 146.687 145.045 145.384 146.346C144.081 147.646 144.081 149.755 145.384 151.056C146.687 152.356 148.8 152.356 150.103 151.056Z" fill="#E89B30" fill-opacity="0.5"/>
<path d="M150.989 176.068C151.412 174.278 150.301 172.485 148.508 172.062C146.715 171.64 144.918 172.748 144.494 174.538C144.071 176.329 145.182 178.122 146.975 178.545C148.769 178.967 150.566 177.859 150.989 176.068Z" fill="#E89B30" fill-opacity="0.5"/>
<path d="M181.607 151.054C182.91 149.754 182.91 147.645 181.607 146.344C180.304 145.044 178.191 145.044 176.888 146.344C175.585 147.645 175.585 149.754 176.888 151.054C178.191 152.355 180.304 152.355 181.607 151.054Z" fill="#E89B30" fill-opacity="0.5"/>
<path d="M182.492 176.067C182.915 174.277 181.804 172.483 180.011 172.061C178.217 171.638 176.42 172.747 175.997 174.537C175.574 176.327 176.685 178.121 178.478 178.543C180.271 178.966 182.069 177.857 182.492 176.067Z" fill="#E89B30" fill-opacity="0.5"/>
<path d="M213.111 151.055C214.414 149.754 214.414 147.645 213.111 146.345C211.808 145.044 209.696 145.044 208.393 146.345C207.089 147.645 207.089 149.754 208.393 151.055C209.696 152.355 211.808 152.355 213.111 151.055Z" fill="#E89B30" fill-opacity="0.5"/>
<path d="M213.994 176.067C214.418 174.277 213.307 172.483 211.514 172.061C209.72 171.638 207.923 172.747 207.5 174.537C207.077 176.327 208.187 178.121 209.981 178.543C211.774 178.966 213.571 177.857 213.994 176.067Z" fill="#E89B30" fill-opacity="0.5"/>
<path d="M244.615 151.054C245.918 149.754 245.918 147.645 244.615 146.344C243.312 145.044 241.2 145.044 239.897 146.344C238.594 147.645 238.594 149.754 239.897 151.054C241.2 152.355 243.312 152.355 244.615 151.054Z" fill="#E89B30" fill-opacity="0.5"/>
<path d="M245.498 176.067C245.922 174.277 244.811 172.483 243.018 172.061C241.224 171.638 239.427 172.747 239.004 174.537C238.58 176.327 239.691 178.121 241.485 178.543C243.278 178.966 245.075 177.857 245.498 176.067Z" fill="#E89B30" fill-opacity="0.5"/>
</g>
<g clip-path="url(#clip6_2095_14161)">
<path d="M284.8 248.107C284.8 244.684 283.475 241.572 281.31 239.249C283.475 236.926 284.8 233.813 284.8 230.391C284.8 223.208 278.966 217.384 271.77 217.384C267.972 217.384 264.555 219.005 262.174 221.593C259.792 219.007 256.374 217.384 252.578 217.384C248.782 217.384 245.363 219.005 242.982 221.593C240.6 219.007 237.183 217.384 233.386 217.384C229.59 217.384 226.171 219.005 223.791 221.593C221.409 219.007 217.991 217.384 214.195 217.384C210.399 217.384 206.98 219.005 204.599 221.593C202.217 219.007 198.8 217.384 195.003 217.384C191.207 217.384 187.788 219.005 185.407 221.593C183.025 219.007 179.608 217.384 175.812 217.384C172.015 217.384 168.597 219.005 166.216 221.593C163.83 219.005 160.412 217.384 156.615 217.384C152.817 217.384 149.4 219.005 147.019 221.593C144.637 219.005 141.219 217.384 137.422 217.384C133.624 217.384 130.207 219.005 127.826 221.593C125.444 219.005 122.028 217.384 118.23 217.384C111.034 217.384 105.199 223.208 105.199 230.391C105.199 233.814 106.525 236.926 108.69 239.249C106.525 241.572 105.199 244.685 105.199 248.107C105.199 251.824 106.762 255.177 109.267 257.547C106.762 259.918 105.199 263.271 105.199 266.988C105.199 270.704 106.762 274.058 109.267 276.427C106.762 278.798 105.199 282.15 105.199 285.868C105.199 289.292 106.525 292.404 108.69 294.727C106.525 297.049 105.199 300.163 105.199 303.585C105.199 310.768 111.034 316.592 118.23 316.592C122.028 316.592 125.445 314.97 127.826 312.383C130.208 314.969 133.626 316.592 137.422 316.592C141.218 316.592 144.637 314.97 147.018 312.383C149.4 314.969 152.817 316.592 156.613 316.592C160.41 316.592 163.828 314.97 166.209 312.383C168.591 314.969 172.009 316.592 175.805 316.592C179.601 316.592 183.02 314.97 185.401 312.383C187.783 314.969 191.2 316.592 194.997 316.592C198.793 316.592 202.212 314.97 204.592 312.383C206.974 314.969 210.392 316.592 214.188 316.592C217.984 316.592 221.403 314.97 223.784 312.383C226.166 314.969 229.583 316.592 233.38 316.592C237.176 316.592 240.595 314.97 242.975 312.383C245.358 314.969 248.775 316.592 252.571 316.592C256.368 316.592 259.786 314.97 262.167 312.383C264.549 314.969 267.967 316.592 271.763 316.592C278.959 316.592 284.794 310.768 284.794 303.585C284.794 300.162 283.468 297.049 281.303 294.727C283.468 292.404 284.794 289.29 284.794 285.868C284.794 282.152 283.231 278.798 280.726 276.429C283.231 274.059 284.794 270.706 284.794 266.989C284.794 263.273 283.231 259.919 280.726 257.55C283.231 255.18 284.794 251.827 284.794 248.11L284.8 248.107Z" fill="#FFCD95" fill-opacity="0.5"/>
<path d="M150.103 256.041C151.406 254.74 151.406 252.632 150.103 251.331C148.8 250.03 146.687 250.03 145.384 251.331C144.081 252.632 144.081 254.74 145.384 256.041C146.687 257.342 148.8 257.342 150.103 256.041Z" fill="#E89B30" fill-opacity="0.5"/>
<path d="M150.989 281.054C151.412 279.264 150.301 277.47 148.508 277.047C146.715 276.625 144.918 277.734 144.494 279.524C144.071 281.314 145.182 283.108 146.975 283.53C148.769 283.953 150.566 282.844 150.989 281.054Z" fill="#E89B30" fill-opacity="0.5"/>
<path d="M181.607 256.04C182.91 254.739 182.91 252.63 181.607 251.33C180.304 250.029 178.191 250.029 176.888 251.33C175.585 252.63 175.585 254.739 176.888 256.04C178.191 257.34 180.304 257.34 181.607 256.04Z" fill="#E89B30" fill-opacity="0.5"/>
<path d="M182.492 281.052C182.915 279.262 181.804 277.468 180.011 277.046C178.217 276.623 176.42 277.732 175.997 279.522C175.574 281.312 176.685 283.106 178.478 283.529C180.271 283.951 182.069 282.843 182.492 281.052Z" fill="#E89B30" fill-opacity="0.5"/>
<path d="M213.111 256.04C214.414 254.739 214.414 252.631 213.111 251.33C211.808 250.029 209.696 250.029 208.393 251.33C207.089 252.631 207.089 254.739 208.393 256.04C209.696 257.341 211.808 257.341 213.111 256.04Z" fill="#E89B30" fill-opacity="0.5"/>
<path d="M213.994 281.052C214.418 279.262 213.307 277.468 211.514 277.046C209.72 276.623 207.923 277.732 207.5 279.522C207.077 281.312 208.187 283.106 209.981 283.529C211.774 283.951 213.571 282.843 213.994 281.052Z" fill="#E89B30" fill-opacity="0.5"/>
<path d="M244.615 256.04C245.918 254.739 245.918 252.63 244.615 251.33C243.312 250.029 241.2 250.029 239.897 251.33C238.594 252.63 238.594 254.739 239.897 256.04C241.2 257.34 243.312 257.34 244.615 256.04Z" fill="#E89B30" fill-opacity="0.5"/>
<path d="M245.498 281.052C245.922 279.262 244.811 277.468 243.018 277.046C241.224 276.623 239.427 277.732 239.004 279.522C238.58 281.312 239.691 283.106 241.485 283.529C243.278 283.951 245.075 282.843 245.498 281.052Z" fill="#E89B30" fill-opacity="0.5"/>
</g>
<g clip-path="url(#clip7_2095_14161)">
<path d="M470.179 38.1356C470.179 34.7123 468.854 31.5999 466.689 29.2773C468.854 26.9547 470.179 23.8409 470.179 20.419C470.179 13.236 464.345 7.41211 457.148 7.41211C453.351 7.41211 449.933 9.0336 447.553 11.6212C445.171 9.03494 441.753 7.41211 437.957 7.41211C434.161 7.41211 430.742 9.0336 428.361 11.6212C425.979 9.03494 422.562 7.41211 418.765 7.41211C414.969 7.41211 411.55 9.0336 409.17 11.6212C406.787 9.03494 403.37 7.41211 399.574 7.41211C395.777 7.41211 392.359 9.0336 389.978 11.6212C387.596 9.03494 384.178 7.41211 380.382 7.41211C376.586 7.41211 373.167 9.0336 370.786 11.6212C368.404 9.03494 364.987 7.41211 361.191 7.41211C357.394 7.41211 353.976 9.0336 351.595 11.6212C349.209 9.0336 345.791 7.41211 341.994 7.41211C338.196 7.41211 334.779 9.0336 332.398 11.6212C330.016 9.0336 326.598 7.41211 322.801 7.41211C319.003 7.41211 315.586 9.0336 313.205 11.6212C310.823 9.0336 307.407 7.41211 303.609 7.41211C296.413 7.41211 290.578 13.236 290.578 20.419C290.578 23.8423 291.904 26.9547 294.069 29.2773C291.904 31.5999 290.578 34.7136 290.578 38.1356C290.578 41.8522 292.141 45.2055 294.646 47.5752C292.141 49.9462 290.578 53.2995 290.578 57.0162C290.578 60.7328 292.141 64.0861 294.646 66.4558C292.141 68.8268 290.578 72.1787 290.578 75.8967C290.578 79.32 291.904 82.4325 294.069 84.755C291.904 87.0776 290.578 90.1914 290.578 93.6133C290.578 100.796 296.413 106.62 303.609 106.62C307.407 106.62 310.824 104.999 313.205 102.411C315.587 104.997 319.004 106.62 322.801 106.62C326.597 106.62 330.016 104.999 332.396 102.411C334.779 104.997 338.196 106.62 341.992 106.62C345.789 106.62 349.207 104.999 351.588 102.411C353.97 104.997 357.388 106.62 361.184 106.62C364.98 106.62 368.399 104.999 370.78 102.411C373.162 104.997 376.579 106.62 380.375 106.62C384.172 106.62 387.59 104.999 389.971 102.411C392.353 104.997 395.771 106.62 399.567 106.62C403.363 106.62 406.782 104.999 409.163 102.411C411.545 104.997 414.962 106.62 418.759 106.62C422.555 106.62 425.974 104.999 428.354 102.411C430.736 104.997 434.154 106.62 437.95 106.62C441.746 106.62 445.165 104.999 447.546 102.411C449.928 104.997 453.345 106.62 457.142 106.62C464.338 106.62 470.172 100.796 470.172 93.6133C470.172 90.19 468.847 87.0776 466.682 84.755C468.847 82.4325 470.172 79.3187 470.172 75.8967C470.172 72.1801 468.61 68.8268 466.105 66.4571C468.61 64.0875 470.172 60.7341 470.172 57.0175C470.172 53.3009 468.61 49.9476 466.105 47.5779C468.61 45.2082 470.172 41.8549 470.172 38.1383L470.179 38.1356Z" fill="#FFCD95" fill-opacity="0.5"/>
<path d="M335.482 46.0693C336.785 44.7687 336.785 42.66 335.482 41.3594C334.179 40.0588 332.066 40.0588 330.763 41.3594C329.46 42.66 329.46 44.7687 330.763 46.0693C332.066 47.3699 334.179 47.3699 335.482 46.0693Z" fill="#E89B30" fill-opacity="0.5"/>
<path d="M336.368 71.0821C336.791 69.292 335.68 67.4982 333.887 67.0757C332.093 66.6532 330.296 67.7619 329.873 69.5521C329.45 71.3422 330.561 73.136 332.354 73.5585C334.147 73.981 335.944 72.8723 336.368 71.0821Z" fill="#E89B30" fill-opacity="0.5"/>
<path d="M366.986 46.0679C368.289 44.7672 368.289 42.6585 366.986 41.3579C365.683 40.0573 363.57 40.0573 362.267 41.3579C360.964 42.6585 360.964 44.7672 362.267 46.0679C363.57 47.3685 365.683 47.3685 366.986 46.0679Z" fill="#E89B30" fill-opacity="0.5"/>
<path d="M367.871 71.0807C368.294 69.2905 367.183 67.4968 365.39 67.0743C363.596 66.6517 361.799 67.7604 361.376 69.5506C360.953 71.3408 362.063 73.1345 363.857 73.557C365.65 73.9795 367.447 72.8708 367.871 71.0807Z" fill="#E89B30" fill-opacity="0.5"/>
</g>
<g clip-path="url(#clip8_2095_14161)">
<path d="M470.179 143.122C470.179 139.699 468.854 136.586 466.689 134.264C468.854 131.941 470.179 128.827 470.179 125.405C470.179 118.222 464.345 112.398 457.148 112.398C453.351 112.398 449.933 114.02 447.553 116.608C445.171 114.021 441.753 112.398 437.957 112.398C434.161 112.398 430.742 114.02 428.361 116.608C425.979 114.021 422.562 112.398 418.765 112.398C414.969 112.398 411.55 114.02 409.17 116.608C406.787 114.021 403.37 112.398 399.574 112.398C395.777 112.398 392.359 114.02 389.978 116.608C387.596 114.021 384.178 112.398 380.382 112.398C376.586 112.398 373.167 114.02 370.786 116.608C368.404 114.021 364.987 112.398 361.191 112.398C357.394 112.398 353.976 114.02 351.595 116.608C349.209 114.02 345.791 112.398 341.994 112.398C338.196 112.398 334.779 114.02 332.398 116.608C330.016 114.02 326.598 112.398 322.801 112.398C319.003 112.398 315.586 114.02 313.205 116.608C310.823 114.02 307.407 112.398 303.609 112.398C296.413 112.398 290.578 118.222 290.578 125.405C290.578 128.829 291.904 131.941 294.069 134.264C291.904 136.586 290.578 139.7 290.578 143.122C290.578 146.839 292.141 150.192 294.646 152.562C292.141 154.933 290.578 158.286 290.578 162.002C290.578 165.719 292.141 169.072 294.646 171.442C292.141 173.813 290.578 177.165 290.578 180.883C290.578 184.306 291.904 187.419 294.069 189.741C291.904 192.064 290.578 195.178 290.578 198.6C290.578 205.783 296.413 211.607 303.609 211.607C307.407 211.607 310.824 209.985 313.205 207.397C315.587 209.984 319.004 211.607 322.801 211.607C326.597 211.607 330.016 209.985 332.396 207.397C334.779 209.984 338.196 211.607 341.992 211.607C345.789 211.607 349.207 209.985 351.588 207.397C353.97 209.984 357.388 211.607 361.184 211.607C364.98 211.607 368.399 209.985 370.78 207.397C373.162 209.984 376.579 211.607 380.375 211.607C384.172 211.607 387.59 209.985 389.971 207.397C392.353 209.984 395.771 211.607 399.567 211.607C403.363 211.607 406.782 209.985 409.163 207.397C411.545 209.984 414.962 211.607 418.759 211.607C422.555 211.607 425.974 209.985 428.354 207.397C430.736 209.984 434.154 211.607 437.95 211.607C441.746 211.607 445.165 209.985 447.546 207.397C449.928 209.984 453.345 211.607 457.142 211.607C464.338 211.607 470.172 205.783 470.172 198.6C470.172 195.176 468.847 192.064 466.682 189.741C468.847 187.419 470.172 184.305 470.172 180.883C470.172 177.166 468.61 173.813 466.105 171.443C468.61 169.074 470.172 165.72 470.172 162.004C470.172 158.287 468.61 154.934 466.105 152.564C468.61 150.195 470.172 146.841 470.172 143.125L470.179 143.122Z" fill="#FFCD95" fill-opacity="0.5"/>
<path d="M335.482 151.056C336.785 149.755 336.785 147.646 335.482 146.346C334.179 145.045 332.066 145.045 330.763 146.346C329.46 147.646 329.46 149.755 330.763 151.056C332.066 152.356 334.179 152.356 335.482 151.056Z" fill="#E89B30" fill-opacity="0.5"/>
<path d="M336.368 176.068C336.791 174.278 335.68 172.485 333.887 172.062C332.093 171.64 330.296 172.748 329.873 174.538C329.45 176.329 330.561 178.122 332.354 178.545C334.147 178.967 335.944 177.859 336.368 176.068Z" fill="#E89B30" fill-opacity="0.5"/>
<path d="M366.986 151.054C368.289 149.754 368.289 147.645 366.986 146.344C365.683 145.044 363.57 145.044 362.267 146.344C360.964 147.645 360.964 149.754 362.267 151.054C363.57 152.355 365.683 152.355 366.986 151.054Z" fill="#E89B30" fill-opacity="0.5"/>
<path d="M367.871 176.067C368.294 174.277 367.183 172.483 365.39 172.061C363.596 171.638 361.799 172.747 361.376 174.537C360.953 176.327 362.063 178.121 363.857 178.543C365.65 178.966 367.447 177.857 367.871 176.067Z" fill="#E89B30" fill-opacity="0.5"/>
</g>
<g clip-path="url(#clip9_2095_14161)">
<path d="M470.179 248.107C470.179 244.684 468.854 241.572 466.689 239.249C468.854 236.926 470.179 233.813 470.179 230.391C470.179 223.208 464.345 217.384 457.148 217.384C453.351 217.384 449.933 219.005 447.553 221.593C445.171 219.007 441.753 217.384 437.957 217.384C434.161 217.384 430.742 219.005 428.361 221.593C425.979 219.007 422.562 217.384 418.765 217.384C414.969 217.384 411.55 219.005 409.17 221.593C406.787 219.007 403.37 217.384 399.574 217.384C395.777 217.384 392.359 219.005 389.978 221.593C387.596 219.007 384.178 217.384 380.382 217.384C376.586 217.384 373.167 219.005 370.786 221.593C368.404 219.007 364.987 217.384 361.191 217.384C357.394 217.384 353.976 219.005 351.595 221.593C349.209 219.005 345.791 217.384 341.994 217.384C338.196 217.384 334.779 219.005 332.398 221.593C330.016 219.005 326.598 217.384 322.801 217.384C319.003 217.384 315.586 219.005 313.205 221.593C310.823 219.005 307.407 217.384 303.609 217.384C296.413 217.384 290.578 223.208 290.578 230.391C290.578 233.814 291.904 236.926 294.069 239.249C291.904 241.572 290.578 244.685 290.578 248.107C290.578 251.824 292.141 255.177 294.646 257.547C292.141 259.918 290.578 263.271 290.578 266.988C290.578 270.704 292.141 274.058 294.646 276.427C292.141 278.798 290.578 282.15 290.578 285.868C290.578 289.292 291.904 292.404 294.069 294.727C291.904 297.049 290.578 300.163 290.578 303.585C290.578 310.768 296.413 316.592 303.609 316.592C307.407 316.592 310.824 314.97 313.205 312.383C315.587 314.969 319.004 316.592 322.801 316.592C326.597 316.592 330.016 314.97 332.396 312.383C334.779 314.969 338.196 316.592 341.992 316.592C345.789 316.592 349.207 314.97 351.588 312.383C353.97 314.969 357.388 316.592 361.184 316.592C364.98 316.592 368.399 314.97 370.78 312.383C373.162 314.969 376.579 316.592 380.375 316.592C384.172 316.592 387.59 314.97 389.971 312.383C392.353 314.969 395.771 316.592 399.567 316.592C403.363 316.592 406.782 314.97 409.163 312.383C411.545 314.969 414.962 316.592 418.759 316.592C422.555 316.592 425.974 314.97 428.354 312.383C430.736 314.969 434.154 316.592 437.95 316.592C441.746 316.592 445.165 314.97 447.546 312.383C449.928 314.969 453.345 316.592 457.142 316.592C464.338 316.592 470.172 310.768 470.172 303.585C470.172 300.162 468.847 297.049 466.682 294.727C468.847 292.404 470.172 289.29 470.172 285.868C470.172 282.152 468.61 278.798 466.105 276.429C468.61 274.059 470.172 270.706 470.172 266.989C470.172 263.273 468.61 259.919 466.105 257.55C468.61 255.18 470.172 251.827 470.172 248.11L470.179 248.107Z" fill="#FFCD95" fill-opacity="0.5"/>
<path d="M335.482 256.041C336.785 254.74 336.785 252.632 335.482 251.331C334.179 250.03 332.066 250.03 330.763 251.331C329.46 252.632 329.46 254.74 330.763 256.041C332.066 257.342 334.179 257.342 335.482 256.041Z" fill="#E89B30" fill-opacity="0.5"/>
<path d="M336.368 281.054C336.791 279.264 335.68 277.47 333.887 277.047C332.093 276.625 330.296 277.734 329.873 279.524C329.45 281.314 330.561 283.108 332.354 283.53C334.147 283.953 335.944 282.844 336.368 281.054Z" fill="#E89B30" fill-opacity="0.5"/>
<path d="M366.986 256.04C368.289 254.739 368.289 252.63 366.986 251.33C365.683 250.029 363.57 250.029 362.267 251.33C360.964 252.63 360.964 254.739 362.267 256.04C363.57 257.34 365.683 257.34 366.986 256.04Z" fill="#E89B30" fill-opacity="0.5"/>
<path d="M367.871 281.052C368.294 279.262 367.183 277.468 365.39 277.046C363.596 276.623 361.799 277.732 361.376 279.522C360.953 281.312 362.063 283.106 363.857 283.529C365.65 283.951 367.447 282.843 367.871 281.052Z" fill="#E89B30" fill-opacity="0.5"/>
</g>
</g>
<defs>
<clipPath id="clip0_2095_14161">
<rect width="390" height="324" fill="white" transform="translate(0 0.00195312)"/>
</clipPath>
<clipPath id="clip1_2095_14161">
<rect width="179.601" height="99.2081" fill="white" transform="translate(-80.1792 7.41211)"/>
</clipPath>
<clipPath id="clip2_2095_14161">
<rect width="179.601" height="99.2081" fill="white" transform="translate(-80.1792 112.398)"/>
</clipPath>
<clipPath id="clip3_2095_14161">
<rect width="179.601" height="99.2081" fill="white" transform="translate(-80.1792 217.384)"/>
</clipPath>
<clipPath id="clip4_2095_14161">
<rect width="179.601" height="99.2081" fill="white" transform="translate(105.199 7.41211)"/>
</clipPath>
<clipPath id="clip5_2095_14161">
<rect width="179.601" height="99.2081" fill="white" transform="translate(105.199 112.398)"/>
</clipPath>
<clipPath id="clip6_2095_14161">
<rect width="179.601" height="99.2081" fill="white" transform="translate(105.199 217.384)"/>
</clipPath>
<clipPath id="clip7_2095_14161">
<rect width="179.601" height="99.2081" fill="white" transform="translate(290.578 7.41211)"/>
</clipPath>
<clipPath id="clip8_2095_14161">
<rect width="179.601" height="99.2081" fill="white" transform="translate(290.578 112.398)"/>
</clipPath>
<clipPath id="clip9_2095_14161">
<rect width="179.601" height="99.2081" fill="white" transform="translate(290.578 217.384)"/>
</clipPath>
</defs>
</svg>
