<svg width="390" height="120" viewBox="0 0 390 120" fill="none" xmlns="http://www.w3.org/2000/svg">
<g clip-path="url(#clip0_2149_13313)">
<rect width="390" height="120" transform="translate(0 0.00195312)" fill="#FFE8C7"/>
<g clip-path="url(#clip1_2149_13313)">
<path d="M99.4217 38.1356C99.4217 34.7123 98.0965 31.5999 95.9314 29.2773C98.0965 26.9547 99.4217 23.8409 99.4217 20.419C99.4217 13.236 93.5871 7.41211 86.3909 7.41211C82.5933 7.41211 79.1759 9.0336 76.7951 11.6212C74.413 9.03494 70.9956 7.41211 67.1993 7.41211C63.4031 7.41211 59.9843 9.0336 57.6035 11.6212C55.2215 9.03494 51.804 7.41211 48.0078 7.41211C44.2115 7.41211 40.7927 9.0336 38.412 11.6212C36.0299 9.03494 32.6124 7.41211 28.8162 7.41211C25.0199 7.41211 21.6011 9.0336 19.2204 11.6212C16.8383 9.03494 13.4209 7.41211 9.6246 7.41211C5.82835 7.41211 2.40955 9.0336 0.0288086 11.6212C-2.35329 9.03494 -5.77072 7.41211 -9.56698 7.41211C-13.3632 7.41211 -16.782 9.0336 -19.1628 11.6212C-21.5489 9.0336 -24.9663 7.41211 -28.7639 7.41211C-32.5615 7.41211 -35.979 9.0336 -38.3597 11.6212C-40.7418 9.0336 -44.1593 7.41211 -47.9569 7.41211C-51.7545 7.41211 -55.1719 9.0336 -57.5527 11.6212C-59.9348 9.0336 -63.3508 7.41211 -67.1484 7.41211C-74.3446 7.41211 -80.1792 13.236 -80.1792 20.419C-80.1792 23.8423 -78.854 26.9547 -76.689 29.2773C-78.854 31.5999 -80.1792 34.7136 -80.1792 38.1356C-80.1792 41.8522 -78.6167 45.2055 -76.112 47.5752C-78.6167 49.9462 -80.1792 53.2995 -80.1792 57.0162C-80.1792 60.7328 -78.6167 64.0861 -76.112 66.4558C-78.6167 68.8268 -80.1792 72.1787 -80.1792 75.8967C-80.1792 79.32 -78.854 82.4325 -76.689 84.755C-78.854 87.0776 -80.1792 90.1914 -80.1792 93.6133C-80.1792 100.796 -74.3446 106.62 -67.1484 106.62C-63.3508 106.62 -59.9334 104.999 -57.5527 102.411C-55.1706 104.997 -51.7531 106.62 -47.9569 106.62C-44.1606 106.62 -40.7418 104.999 -38.3611 102.411C-35.979 104.997 -32.5615 106.62 -28.7653 106.62C-24.969 106.62 -21.5503 104.999 -19.1695 102.411C-16.7874 104.997 -13.37 106.62 -9.57372 106.62C-5.77747 106.62 -2.35868 104.999 0.0220718 102.411C2.40417 104.997 5.8216 106.62 9.61786 106.62C13.4141 106.62 16.8329 104.999 19.2137 102.411C21.5957 104.997 25.0132 106.62 28.8094 106.62C32.6057 106.62 36.0245 104.999 38.4052 102.411C40.7873 104.997 44.2048 106.62 48.001 106.62C51.7973 106.62 55.216 104.999 57.5968 102.411C59.9789 104.997 63.3963 106.62 67.1926 106.62C70.9889 106.62 74.4076 104.999 76.7884 102.411C79.1705 104.997 82.5879 106.62 86.3842 106.62C93.5803 106.62 99.4149 100.796 99.4149 93.6133C99.4149 90.19 98.0898 87.0776 95.9247 84.755C98.0898 82.4325 99.4149 79.3187 99.4149 75.8967C99.4149 72.1801 97.8525 68.8268 95.3477 66.4571C97.8525 64.0875 99.4149 60.7341 99.4149 57.0175C99.4149 53.3009 97.8525 49.9476 95.3477 47.5779C97.8525 45.2082 99.4149 41.8549 99.4149 38.1383L99.4217 38.1356Z" fill="#FFCD95" fill-opacity="0.5"/>
<path d="M27.7322 46.0684C29.0352 44.7677 29.0352 42.659 27.7322 41.3584C26.4292 40.0578 24.3166 40.0578 23.0136 41.3584C21.7106 42.659 21.7106 44.7677 23.0136 46.0684C24.3166 47.369 26.4292 47.369 27.7322 46.0684Z" fill="#E89B30" fill-opacity="0.5"/>
<path d="M28.6156 71.0807C29.0389 69.2905 27.9282 67.4968 26.1347 67.0743C24.3412 66.6517 22.5442 67.7604 22.1209 69.5506C21.6976 71.3408 22.8084 73.1345 24.6018 73.557C26.3953 73.9795 28.1923 72.8708 28.6156 71.0807Z" fill="#E89B30" fill-opacity="0.5"/>
<path d="M59.2366 46.0679C60.5396 44.7672 60.5396 42.6585 59.2366 41.3579C57.9336 40.0573 55.821 40.0573 54.518 41.3579C53.215 42.6585 53.215 44.7672 54.518 46.0679C55.821 47.3685 57.9336 47.3685 59.2366 46.0679Z" fill="#E89B30" fill-opacity="0.5"/>
<path d="M60.1195 71.0807C60.5428 69.2905 59.4321 67.4968 57.6386 67.0743C55.8452 66.6517 54.0481 67.7604 53.6248 69.5506C53.2015 71.3408 54.3123 73.1345 56.1057 73.557C57.8992 73.9795 59.6962 72.8708 60.1195 71.0807Z" fill="#E89B30" fill-opacity="0.5"/>
</g>
<g clip-path="url(#clip2_2149_13313)">
<path d="M99.4217 143.122C99.4217 139.699 98.0965 136.586 95.9314 134.264C98.0965 131.941 99.4217 128.827 99.4217 125.405C99.4217 118.222 93.5871 112.398 86.3909 112.398C82.5933 112.398 79.1759 114.02 76.7951 116.608C74.413 114.021 70.9956 112.398 67.1993 112.398C63.4031 112.398 59.9843 114.02 57.6035 116.608C55.2215 114.021 51.804 112.398 48.0078 112.398C44.2115 112.398 40.7927 114.02 38.412 116.608C36.0299 114.021 32.6124 112.398 28.8162 112.398C25.0199 112.398 21.6011 114.02 19.2204 116.608C16.8383 114.021 13.4209 112.398 9.6246 112.398C5.82835 112.398 2.40955 114.02 0.0288086 116.608C-2.35329 114.021 -5.77072 112.398 -9.56698 112.398C-13.3632 112.398 -16.782 114.02 -19.1628 116.608C-21.5489 114.02 -24.9663 112.398 -28.7639 112.398C-32.5615 112.398 -35.979 114.02 -38.3597 116.608C-40.7418 114.02 -44.1593 112.398 -47.9569 112.398C-51.7545 112.398 -55.1719 114.02 -57.5527 116.608C-59.9348 114.02 -63.3508 112.398 -67.1484 112.398C-74.3446 112.398 -80.1792 118.222 -80.1792 125.405C-80.1792 128.829 -78.854 131.941 -76.689 134.264C-78.854 136.586 -80.1792 139.7 -80.1792 143.122C-80.1792 146.839 -78.6167 150.192 -76.112 152.562C-78.6167 154.933 -80.1792 158.286 -80.1792 162.002C-80.1792 165.719 -78.6167 169.072 -76.112 171.442C-78.6167 173.813 -80.1792 177.165 -80.1792 180.883C-80.1792 184.306 -78.854 187.419 -76.689 189.741C-78.854 192.064 -80.1792 195.178 -80.1792 198.6C-80.1792 205.783 -74.3446 211.607 -67.1484 211.607C-63.3508 211.607 -59.9334 209.985 -57.5527 207.397C-55.1706 209.984 -51.7531 211.607 -47.9569 211.607C-44.1606 211.607 -40.7418 209.985 -38.3611 207.397C-35.979 209.984 -32.5615 211.607 -28.7653 211.607C-24.969 211.607 -21.5503 209.985 -19.1695 207.397C-16.7874 209.984 -13.37 211.607 -9.57372 211.607C-5.77747 211.607 -2.35868 209.985 0.0220718 207.397C2.40417 209.984 5.8216 211.607 9.61786 211.607C13.4141 211.607 16.8329 209.985 19.2137 207.397C21.5957 209.984 25.0132 211.607 28.8094 211.607C32.6057 211.607 36.0245 209.985 38.4052 207.397C40.7873 209.984 44.2048 211.607 48.001 211.607C51.7973 211.607 55.216 209.985 57.5968 207.397C59.9789 209.984 63.3963 211.607 67.1926 211.607C70.9889 211.607 74.4076 209.985 76.7884 207.397C79.1705 209.984 82.5879 211.607 86.3842 211.607C93.5803 211.607 99.4149 205.783 99.4149 198.6C99.4149 195.176 98.0898 192.064 95.9247 189.741C98.0898 187.419 99.4149 184.305 99.4149 180.883C99.4149 177.166 97.8525 173.813 95.3477 171.443C97.8525 169.074 99.4149 165.72 99.4149 162.004C99.4149 158.287 97.8525 154.934 95.3477 152.564C97.8525 150.195 99.4149 146.841 99.4149 143.125L99.4217 143.122Z" fill="#FFCD95" fill-opacity="0.5"/>
</g>
<g clip-path="url(#clip3_2149_13313)">
<path d="M284.8 38.1356C284.8 34.7123 283.475 31.5999 281.31 29.2773C283.475 26.9547 284.8 23.8409 284.8 20.419C284.8 13.236 278.965 7.41211 271.769 7.41211C267.972 7.41211 264.554 9.0336 262.174 11.6212C259.791 9.03494 256.374 7.41211 252.578 7.41211C248.781 7.41211 245.363 9.0336 242.982 11.6212C240.6 9.03494 237.182 7.41211 233.386 7.41211C229.59 7.41211 226.171 9.0336 223.79 11.6212C221.408 9.03494 217.991 7.41211 214.195 7.41211C210.398 7.41211 206.98 9.0336 204.599 11.6212C202.217 9.03494 198.799 7.41211 195.003 7.41211C191.207 7.41211 187.788 9.0336 185.407 11.6212C183.025 9.03494 179.608 7.41211 175.811 7.41211C172.015 7.41211 168.596 9.0336 166.216 11.6212C163.83 9.0336 160.412 7.41211 156.614 7.41211C152.817 7.41211 149.399 9.0336 147.019 11.6212C144.637 9.0336 141.219 7.41211 137.422 7.41211C133.624 7.41211 130.207 9.0336 127.826 11.6212C125.444 9.0336 122.028 7.41211 118.23 7.41211C111.034 7.41211 105.199 13.236 105.199 20.419C105.199 23.8423 106.524 26.9547 108.689 29.2773C106.524 31.5999 105.199 34.7136 105.199 38.1356C105.199 41.8522 106.762 45.2055 109.266 47.5752C106.762 49.9462 105.199 53.2995 105.199 57.0162C105.199 60.7328 106.762 64.0861 109.266 66.4558C106.762 68.8268 105.199 72.1787 105.199 75.8967C105.199 79.32 106.524 82.4325 108.689 84.755C106.524 87.0776 105.199 90.1914 105.199 93.6133C105.199 100.796 111.034 106.62 118.23 106.62C122.028 106.62 125.445 104.999 127.826 102.411C130.208 104.997 133.625 106.62 137.422 106.62C141.218 106.62 144.637 104.999 147.017 102.411C149.399 104.997 152.817 106.62 156.613 106.62C160.409 106.62 163.828 104.999 166.209 102.411C168.591 104.997 172.008 106.62 175.805 106.62C179.601 106.62 183.02 104.999 185.4 102.411C187.783 104.997 191.2 106.62 194.996 106.62C198.793 106.62 202.211 104.999 204.592 102.411C206.974 104.997 210.392 106.62 214.188 106.62C217.984 106.62 221.403 104.999 223.784 102.411C226.166 104.997 229.583 106.62 233.379 106.62C237.176 106.62 240.594 104.999 242.975 102.411C245.357 104.997 248.775 106.62 252.571 106.62C256.367 106.62 259.786 104.999 262.167 102.411C264.549 104.997 267.966 106.62 271.763 106.62C278.959 106.62 284.793 100.796 284.793 93.6133C284.793 90.19 283.468 87.0776 281.303 84.755C283.468 82.4325 284.793 79.3187 284.793 75.8967C284.793 72.1801 283.231 68.8268 280.726 66.4571C283.231 64.0875 284.793 60.7341 284.793 57.0175C284.793 53.3009 283.231 49.9476 280.726 47.5779C283.231 45.2082 284.793 41.8549 284.793 38.1383L284.8 38.1356Z" fill="#FFCD95" fill-opacity="0.5"/>
<path d="M150.103 46.0693C151.406 44.7687 151.406 42.66 150.103 41.3594C148.8 40.0588 146.687 40.0588 145.384 41.3594C144.081 42.66 144.081 44.7687 145.384 46.0693C146.687 47.3699 148.8 47.3699 150.103 46.0693Z" fill="#E89B30" fill-opacity="0.5"/>
<path d="M150.989 71.0821C151.412 69.292 150.301 67.4982 148.508 67.0757C146.714 66.6532 144.917 67.7619 144.494 69.5521C144.071 71.3422 145.181 73.136 146.975 73.5585C148.768 73.981 150.565 72.8723 150.989 71.0821Z" fill="#E89B30" fill-opacity="0.5"/>
<path d="M181.607 46.0679C182.91 44.7672 182.91 42.6585 181.607 41.3579C180.304 40.0573 178.191 40.0573 176.888 41.3579C175.585 42.6585 175.585 44.7672 176.888 46.0679C178.191 47.3685 180.304 47.3685 181.607 46.0679Z" fill="#E89B30" fill-opacity="0.5"/>
<path d="M182.492 71.0807C182.915 69.2905 181.804 67.4968 180.011 67.0743C178.217 66.6517 176.42 67.7604 175.997 69.5506C175.574 71.3408 176.684 73.1345 178.478 73.557C180.271 73.9795 182.068 72.8708 182.492 71.0807Z" fill="#E89B30" fill-opacity="0.5"/>
<path d="M213.111 46.0684C214.414 44.7677 214.414 42.659 213.111 41.3584C211.808 40.0578 209.695 40.0578 208.392 41.3584C207.089 42.659 207.089 44.7677 208.392 46.0684C209.695 47.369 211.808 47.369 213.111 46.0684Z" fill="#E89B30" fill-opacity="0.5"/>
<path d="M213.994 71.0807C214.417 69.2905 213.307 67.4968 211.513 67.0743C209.72 66.6517 207.923 67.7604 207.499 69.5506C207.076 71.3408 208.187 73.1345 209.98 73.557C211.774 73.9795 213.571 72.8708 213.994 71.0807Z" fill="#E89B30" fill-opacity="0.5"/>
<path d="M244.615 46.0679C245.918 44.7672 245.918 42.6585 244.615 41.3579C243.312 40.0573 241.199 40.0573 239.896 41.3579C238.593 42.6585 238.593 44.7672 239.896 46.0679C241.199 47.3685 243.312 47.3685 244.615 46.0679Z" fill="#E89B30" fill-opacity="0.5"/>
<path d="M245.498 71.0807C245.921 69.2905 244.81 67.4968 243.017 67.0743C241.224 66.6517 239.427 67.7604 239.003 69.5506C238.58 71.3408 239.691 73.1345 241.484 73.557C243.278 73.9795 245.075 72.8708 245.498 71.0807Z" fill="#E89B30" fill-opacity="0.5"/>
</g>
<g clip-path="url(#clip4_2149_13313)">
<path d="M284.8 143.122C284.8 139.699 283.475 136.586 281.31 134.264C283.475 131.941 284.8 128.827 284.8 125.405C284.8 118.222 278.965 112.398 271.769 112.398C267.972 112.398 264.554 114.02 262.174 116.608C259.791 114.021 256.374 112.398 252.578 112.398C248.781 112.398 245.363 114.02 242.982 116.608C240.6 114.021 237.182 112.398 233.386 112.398C229.59 112.398 226.171 114.02 223.79 116.608C221.408 114.021 217.991 112.398 214.195 112.398C210.398 112.398 206.98 114.02 204.599 116.608C202.217 114.021 198.799 112.398 195.003 112.398C191.207 112.398 187.788 114.02 185.407 116.608C183.025 114.021 179.608 112.398 175.811 112.398C172.015 112.398 168.596 114.02 166.216 116.608C163.83 114.02 160.412 112.398 156.614 112.398C152.817 112.398 149.399 114.02 147.019 116.608C144.637 114.02 141.219 112.398 137.422 112.398C133.624 112.398 130.207 114.02 127.826 116.608C125.444 114.02 122.028 112.398 118.23 112.398C111.034 112.398 105.199 118.222 105.199 125.405C105.199 128.829 106.524 131.941 108.689 134.264C106.524 136.586 105.199 139.7 105.199 143.122C105.199 146.839 106.762 150.192 109.266 152.562C106.762 154.933 105.199 158.286 105.199 162.002C105.199 165.719 106.762 169.072 109.266 171.442C106.762 173.813 105.199 177.165 105.199 180.883C105.199 184.306 106.524 187.419 108.689 189.741C106.524 192.064 105.199 195.178 105.199 198.6C105.199 205.783 111.034 211.607 118.23 211.607C122.028 211.607 125.445 209.985 127.826 207.397C130.208 209.984 133.625 211.607 137.422 211.607C141.218 211.607 144.637 209.985 147.017 207.397C149.399 209.984 152.817 211.607 156.613 211.607C160.409 211.607 163.828 209.985 166.209 207.397C168.591 209.984 172.008 211.607 175.805 211.607C179.601 211.607 183.02 209.985 185.4 207.397C187.783 209.984 191.2 211.607 194.996 211.607C198.793 211.607 202.211 209.985 204.592 207.397C206.974 209.984 210.392 211.607 214.188 211.607C217.984 211.607 221.403 209.985 223.784 207.397C226.166 209.984 229.583 211.607 233.379 211.607C237.176 211.607 240.594 209.985 242.975 207.397C245.357 209.984 248.775 211.607 252.571 211.607C256.367 211.607 259.786 209.985 262.167 207.397C264.549 209.984 267.966 211.607 271.763 211.607C278.959 211.607 284.793 205.783 284.793 198.6C284.793 195.176 283.468 192.064 281.303 189.741C283.468 187.419 284.793 184.305 284.793 180.883C284.793 177.166 283.231 173.813 280.726 171.443C283.231 169.074 284.793 165.72 284.793 162.004C284.793 158.287 283.231 154.934 280.726 152.564C283.231 150.195 284.793 146.841 284.793 143.125L284.8 143.122Z" fill="#FFCD95" fill-opacity="0.5"/>
</g>
<g clip-path="url(#clip5_2149_13313)">
<path d="M470.179 38.1356C470.179 34.7123 468.854 31.5999 466.689 29.2773C468.854 26.9547 470.179 23.8409 470.179 20.419C470.179 13.236 464.344 7.41211 457.148 7.41211C453.351 7.41211 449.933 9.0336 447.552 11.6212C445.17 9.03494 441.753 7.41211 437.957 7.41211C434.16 7.41211 430.742 9.0336 428.361 11.6212C425.979 9.03494 422.561 7.41211 418.765 7.41211C414.969 7.41211 411.55 9.0336 409.169 11.6212C406.787 9.03494 403.37 7.41211 399.574 7.41211C395.777 7.41211 392.358 9.0336 389.978 11.6212C387.596 9.03494 384.178 7.41211 380.382 7.41211C376.586 7.41211 373.167 9.0336 370.786 11.6212C368.404 9.03494 364.987 7.41211 361.19 7.41211C357.394 7.41211 353.975 9.0336 351.595 11.6212C349.208 9.0336 345.791 7.41211 341.993 7.41211C338.196 7.41211 334.778 9.0336 332.398 11.6212C330.015 9.0336 326.598 7.41211 322.8 7.41211C319.003 7.41211 315.585 9.0336 313.205 11.6212C310.823 9.0336 307.406 7.41211 303.609 7.41211C296.413 7.41211 290.578 13.236 290.578 20.419C290.578 23.8423 291.903 26.9547 294.068 29.2773C291.903 31.5999 290.578 34.7136 290.578 38.1356C290.578 41.8522 292.141 45.2055 294.645 47.5752C292.141 49.9462 290.578 53.2995 290.578 57.0162C290.578 60.7328 292.141 64.0861 294.645 66.4558C292.141 68.8268 290.578 72.1787 290.578 75.8967C290.578 79.32 291.903 82.4325 294.068 84.755C291.903 87.0776 290.578 90.1914 290.578 93.6133C290.578 100.796 296.413 106.62 303.609 106.62C307.406 106.62 310.824 104.999 313.205 102.411C315.587 104.997 319.004 106.62 322.8 106.62C326.597 106.62 330.015 104.999 332.396 102.411C334.778 104.997 338.196 106.62 341.992 106.62C345.788 106.62 349.207 104.999 351.588 102.411C353.97 104.997 357.387 106.62 361.184 106.62C364.98 106.62 368.399 104.999 370.779 102.411C373.161 104.997 376.579 106.62 380.375 106.62C384.171 106.62 387.59 104.999 389.971 102.411C392.353 104.997 395.771 106.62 399.567 106.62C403.363 106.62 406.782 104.999 409.163 102.411C411.545 104.997 414.962 106.62 418.758 106.62C422.555 106.62 425.973 104.999 428.354 102.411C430.736 104.997 434.154 106.62 437.95 106.62C441.746 106.62 445.165 104.999 447.546 102.411C449.928 104.997 453.345 106.62 457.141 106.62C464.338 106.62 470.172 100.796 470.172 93.6133C470.172 90.19 468.847 87.0776 466.682 84.755C468.847 82.4325 470.172 79.3187 470.172 75.8967C470.172 72.1801 468.61 68.8268 466.105 66.4571C468.61 64.0875 470.172 60.7341 470.172 57.0175C470.172 53.3009 468.61 49.9476 466.105 47.5779C468.61 45.2082 470.172 41.8549 470.172 38.1383L470.179 38.1356Z" fill="#FFCD95" fill-opacity="0.5"/>
<path d="M335.482 46.0693C336.785 44.7687 336.785 42.66 335.482 41.3594C334.179 40.0588 332.066 40.0588 330.763 41.3594C329.46 42.66 329.46 44.7687 330.763 46.0693C332.066 47.3699 334.179 47.3699 335.482 46.0693Z" fill="#E89B30" fill-opacity="0.5"/>
<path d="M336.368 71.0821C336.791 69.292 335.68 67.4982 333.887 67.0757C332.093 66.6532 330.296 67.7619 329.873 69.5521C329.45 71.3422 330.56 73.136 332.354 73.5585C334.147 73.981 335.944 72.8723 336.368 71.0821Z" fill="#E89B30" fill-opacity="0.5"/>
<path d="M366.986 46.0679C368.289 44.7672 368.289 42.6585 366.986 41.3579C365.683 40.0573 363.57 40.0573 362.267 41.3579C360.964 42.6585 360.964 44.7672 362.267 46.0679C363.57 47.3685 365.683 47.3685 366.986 46.0679Z" fill="#E89B30" fill-opacity="0.5"/>
<path d="M367.87 71.0807C368.294 69.2905 367.183 67.4968 365.39 67.0743C363.596 66.6517 361.799 67.7604 361.376 69.5506C360.953 71.3408 362.063 73.1345 363.857 73.557C365.65 73.9795 367.447 72.8708 367.87 71.0807Z" fill="#E89B30" fill-opacity="0.5"/>
</g>
<g clip-path="url(#clip6_2149_13313)">
<path d="M470.179 143.122C470.179 139.699 468.854 136.586 466.689 134.264C468.854 131.941 470.179 128.827 470.179 125.405C470.179 118.222 464.344 112.398 457.148 112.398C453.351 112.398 449.933 114.02 447.552 116.608C445.17 114.021 441.753 112.398 437.957 112.398C434.16 112.398 430.742 114.02 428.361 116.608C425.979 114.021 422.561 112.398 418.765 112.398C414.969 112.398 411.55 114.02 409.169 116.608C406.787 114.021 403.37 112.398 399.574 112.398C395.777 112.398 392.358 114.02 389.978 116.608C387.596 114.021 384.178 112.398 380.382 112.398C376.586 112.398 373.167 114.02 370.786 116.608C368.404 114.021 364.987 112.398 361.19 112.398C357.394 112.398 353.975 114.02 351.595 116.608C349.208 114.02 345.791 112.398 341.993 112.398C338.196 112.398 334.778 114.02 332.398 116.608C330.015 114.02 326.598 112.398 322.8 112.398C319.003 112.398 315.585 114.02 313.205 116.608C310.823 114.02 307.406 112.398 303.609 112.398C296.413 112.398 290.578 118.222 290.578 125.405C290.578 128.829 291.903 131.941 294.068 134.264C291.903 136.586 290.578 139.7 290.578 143.122C290.578 146.839 292.141 150.192 294.645 152.562C292.141 154.933 290.578 158.286 290.578 162.002C290.578 165.719 292.141 169.072 294.645 171.442C292.141 173.813 290.578 177.165 290.578 180.883C290.578 184.306 291.903 187.419 294.068 189.741C291.903 192.064 290.578 195.178 290.578 198.6C290.578 205.783 296.413 211.607 303.609 211.607C307.406 211.607 310.824 209.985 313.205 207.397C315.587 209.984 319.004 211.607 322.8 211.607C326.597 211.607 330.015 209.985 332.396 207.397C334.778 209.984 338.196 211.607 341.992 211.607C345.788 211.607 349.207 209.985 351.588 207.397C353.97 209.984 357.387 211.607 361.184 211.607C364.98 211.607 368.399 209.985 370.779 207.397C373.161 209.984 376.579 211.607 380.375 211.607C384.171 211.607 387.59 209.985 389.971 207.397C392.353 209.984 395.771 211.607 399.567 211.607C403.363 211.607 406.782 209.985 409.163 207.397C411.545 209.984 414.962 211.607 418.758 211.607C422.555 211.607 425.973 209.985 428.354 207.397C430.736 209.984 434.154 211.607 437.95 211.607C441.746 211.607 445.165 209.985 447.546 207.397C449.928 209.984 453.345 211.607 457.141 211.607C464.338 211.607 470.172 205.783 470.172 198.6C470.172 195.176 468.847 192.064 466.682 189.741C468.847 187.419 470.172 184.305 470.172 180.883C470.172 177.166 468.61 173.813 466.105 171.443C468.61 169.074 470.172 165.72 470.172 162.004C470.172 158.287 468.61 154.934 466.105 152.564C468.61 150.195 470.172 146.841 470.172 143.125L470.179 143.122Z" fill="#FFCD95" fill-opacity="0.5"/>
</g>
</g>
<defs>
<clipPath id="clip0_2149_13313">
<rect width="390" height="120" fill="white" transform="translate(0 0.00195312)"/>
</clipPath>
<clipPath id="clip1_2149_13313">
<rect width="179.601" height="99.2081" fill="white" transform="translate(-80.1792 7.41211)"/>
</clipPath>
<clipPath id="clip2_2149_13313">
<rect width="179.601" height="99.2081" fill="white" transform="translate(-80.1792 112.398)"/>
</clipPath>
<clipPath id="clip3_2149_13313">
<rect width="179.601" height="99.2081" fill="white" transform="translate(105.199 7.41211)"/>
</clipPath>
<clipPath id="clip4_2149_13313">
<rect width="179.601" height="99.2081" fill="white" transform="translate(105.199 112.398)"/>
</clipPath>
<clipPath id="clip5_2149_13313">
<rect width="179.601" height="99.2081" fill="white" transform="translate(290.578 7.41211)"/>
</clipPath>
<clipPath id="clip6_2149_13313">
<rect width="179.601" height="99.2081" fill="white" transform="translate(290.578 112.398)"/>
</clipPath>
</defs>
</svg>
