<svg width="201" height="200" viewBox="0 0 201 200" fill="none" xmlns="http://www.w3.org/2000/svg">
<rect x="0.723633" width="200" height="200" rx="40" fill="#F4FBF8"/>
<path d="M168.72 69.5474C173.198 71.6792 171.68 78.4038 166.719 78.4038C164.149 78.4038 162.065 80.4875 162.065 83.0579V150.172C162.065 153.486 159.379 156.172 156.065 156.172H45.3826C42.0689 156.172 39.3826 153.486 39.3826 150.172V83.0581C39.3826 80.4876 37.2988 78.4038 34.7283 78.4038C29.7679 78.4038 28.2491 71.679 32.728 69.5471L98.1447 38.4096C99.7761 37.633 101.671 37.633 103.302 38.4096L168.72 69.5474Z" fill="#35C284"/>
<path d="M166.719 78.4038L166.928 78.8584L167.219 78.7247V78.4038H166.719ZM166.628 78.4455L166.42 77.9909L166.418 77.992L166.628 78.4455ZM164.961 79.2199L164.75 78.7664L164.734 78.7741L164.718 78.7829L164.961 79.2199ZM163.323 80.1308L163.08 79.6938L163.013 79.7312L162.96 79.7871L163.323 80.1308ZM161.879 81.6572L161.515 81.3136L161.344 81.4943L161.386 81.7398L161.879 81.6572ZM162.229 83.747L162.727 83.787L162.732 83.7254L162.722 83.6644L162.229 83.747ZM162.068 85.747L162.562 85.8239L162.565 85.8055L162.566 85.787L162.068 85.747ZM161.757 87.747L161.263 87.67L161.244 87.788L161.281 87.9016L161.757 87.747ZM162.407 89.747L162.881 89.9045L162.933 89.7486L162.882 89.5924L162.407 89.747ZM161.743 91.747L161.268 91.5895L161.235 91.6911L161.245 91.7977L161.743 91.747ZM161.947 93.747L162.444 93.8039L162.45 93.7501L162.444 93.6963L161.947 93.747ZM161.718 95.747L161.221 95.6901L161.216 95.7361L161.219 95.7823L161.718 95.747ZM161.859 97.747L161.361 97.7823L161.361 97.7923L161.362 97.8024L161.859 97.747ZM162.082 99.747L162.582 99.7399L162.582 99.7157L162.579 99.6916L162.082 99.747ZM162.111 101.747L162.595 101.871L162.612 101.806L162.611 101.74L162.111 101.747ZM161.6 103.747L161.116 103.623L161.097 103.697L161.101 103.774L161.6 103.747ZM161.708 105.747L161.208 105.774L161.212 105.839L161.232 105.901L161.708 105.747ZM162.356 107.747L162.856 107.746L162.856 107.668L162.832 107.593L162.356 107.747ZM162.359 109.747L162.857 109.791L162.859 109.769L162.859 109.746L162.359 109.747ZM162.183 111.747L162.678 111.818L162.68 111.804L162.681 111.791L162.183 111.747ZM161.897 113.747L162.391 113.821L162.392 113.818L161.897 113.747ZM161.595 115.747L161.101 115.673L161.082 115.798L161.125 115.917L161.595 115.747ZM162.316 117.747L162.816 117.749L162.817 117.661L162.787 117.577L162.316 117.747ZM162.307 119.747L162.793 119.866L162.807 119.808L162.807 119.749L162.307 119.747ZM161.818 121.747L161.333 121.628L161.305 121.743L161.331 121.859L161.818 121.747ZM162.277 123.747L162.777 123.764L162.779 123.699L162.765 123.635L162.277 123.747ZM162.209 125.747L162.689 125.886L162.707 125.826L162.709 125.764L162.209 125.747ZM161.628 127.747L161.148 127.607L161.106 127.753L161.151 127.898L161.628 127.747ZM162.26 129.747L162.76 129.724L162.757 129.659L162.737 129.596L162.26 129.747ZM162.353 131.747L161.853 131.77L161.853 131.776L162.353 131.747ZM162.47 133.747L162.931 133.942L162.976 133.834L162.969 133.718L162.47 133.747ZM161.623 135.747L161.163 135.552L161.09 135.725L161.148 135.903L161.623 135.747ZM162.28 137.747L162.764 137.874L162.801 137.731L162.755 137.591L162.28 137.747ZM161.756 139.747L161.272 139.62L161.237 139.754L161.275 139.886L161.756 139.747ZM162.336 141.747L162.832 141.804L162.844 141.704L162.816 141.608L162.336 141.747ZM162.108 143.747L161.611 143.69L161.605 143.742L161.61 143.794L162.108 143.747ZM162.296 145.747L162.794 145.791L162.799 145.746L162.794 145.7L162.296 145.747ZM162.118 147.747L162.615 147.806L162.616 147.799L162.616 147.791L162.118 147.747ZM161.882 149.747L161.385 149.688L161.381 149.725L161.382 149.761L161.882 149.747ZM161.938 151.75L162.369 152.004L162.442 151.88L162.438 151.736L161.938 151.75ZM160.927 153.468L161.309 153.79L161.336 153.758L161.358 153.722L160.927 153.468ZM159.655 154.977L159.955 155.377L160 155.342L160.037 155.299L159.655 154.977ZM157.993 156.223L158.032 156.722L158.177 156.71L158.293 156.623L157.993 156.223ZM155.916 156.386L155.85 156.882L155.902 156.889L155.955 156.884L155.916 156.386ZM153.916 156.122L153.981 155.626L153.896 155.615L153.812 155.633L153.916 156.122ZM151.916 156.545L151.932 157.045L151.976 157.043L152.019 157.034L151.916 156.545ZM149.916 156.609L149.853 157.105L149.892 157.11L149.932 157.109L149.916 156.609ZM147.916 156.357L147.978 155.861L147.958 155.858L147.938 155.858L147.916 156.357ZM145.916 156.268L145.938 155.768L145.91 155.767L145.883 155.769L145.916 156.268ZM143.916 156.4L143.83 156.892L143.889 156.903L143.949 156.899L143.916 156.4ZM141.916 156.053L142.001 155.561L141.895 155.542L141.792 155.569L141.916 156.053ZM139.916 156.566L139.817 157.056L139.929 157.079L140.04 157.05L139.916 156.566ZM137.916 156.162L138.015 155.672L137.979 155.665L137.942 155.663L137.916 156.162ZM135.916 156.055L135.942 155.555L135.885 155.552L135.828 155.562L135.916 156.055ZM133.916 156.41L133.837 156.904L133.92 156.917L134.003 156.903L133.916 156.41ZM131.916 156.092L131.994 155.598L131.912 155.585L131.83 155.599L131.916 156.092ZM129.916 156.44L129.896 156.939L129.949 156.942L130.001 156.932L129.916 156.44ZM127.916 156.361L127.935 155.862L127.92 155.861L127.905 155.861L127.916 156.361ZM125.916 156.405L125.926 156.905L125.927 156.905L125.916 156.405ZM123.916 156.444L123.91 156.944L123.918 156.944L123.926 156.944L123.916 156.444ZM121.916 156.422L121.921 155.922L121.892 155.922L121.862 155.925L121.916 156.422ZM119.916 156.637L119.754 157.11L119.859 157.146L119.969 157.134L119.916 156.637ZM117.916 155.954L118.077 155.481L118.026 155.463L117.972 155.457L117.916 155.954ZM115.916 155.727L115.972 155.23L115.948 155.227L115.923 155.227L115.916 155.727ZM113.916 155.699L113.923 155.199L113.828 155.197L113.739 155.231L113.916 155.699ZM111.916 156.455L111.795 156.941L111.947 156.978L112.093 156.923L111.916 156.455ZM109.916 155.957L110.037 155.472L109.973 155.456L109.907 155.458L109.916 155.957ZM107.916 155.994L107.894 156.493L107.909 156.494L107.925 156.494L107.916 155.994ZM105.916 155.907L105.937 155.408L105.92 155.407L105.902 155.407L105.916 155.907ZM103.916 155.962L103.902 155.462L103.845 155.464L103.789 155.478L103.916 155.962ZM101.916 156.485L101.844 156.98L101.944 156.995L102.042 156.969L101.916 156.485ZM99.9157 156.197L99.9871 155.702L99.9591 155.698L99.9307 155.697L99.9157 156.197ZM97.9157 156.137L97.9307 155.637L97.9126 155.637L97.8944 155.637L97.9157 156.137ZM95.9157 156.222L95.816 156.712L95.8759 156.724L95.937 156.722L95.9157 156.222ZM93.9157 155.815L94.0155 155.325L93.9344 155.309L93.8524 155.319L93.9157 155.815ZM91.9157 156.07L91.8524 155.574L91.8449 155.575L91.8374 155.577L91.9157 156.07ZM89.9157 156.388L89.9446 156.887L89.9695 156.885L89.994 156.881L89.9157 156.388ZM87.9157 156.504L87.7953 156.989L87.8689 157.007L87.9446 157.003L87.9157 156.504ZM85.9157 156.007L86.0361 155.522L86.0086 155.515L85.9805 155.512L85.9157 156.007ZM83.9157 155.746L83.9805 155.25L83.8967 155.239L83.8139 155.257L83.9157 155.746ZM81.9157 156.162L81.9344 156.662L81.9764 156.66L82.0176 156.652L81.9157 156.162ZM79.9157 156.237L79.8953 156.737L79.9149 156.737L79.9344 156.737L79.9157 156.237ZM77.9157 156.155L77.9361 155.656L77.8763 155.653L77.8175 155.665L77.9157 156.155ZM75.9157 156.556L75.8178 157.046L75.9159 157.066L76.0139 157.046L75.9157 156.556ZM73.9157 156.156L74.0136 155.666L73.9033 155.644L73.7941 155.671L73.9157 156.156ZM71.9157 156.658L71.8935 157.157L71.9664 157.161L72.0373 157.143L71.9157 156.658ZM69.9157 156.569L69.938 156.069L69.9248 156.069L69.9116 156.069L69.9157 156.569ZM67.9157 156.585L67.7814 157.067L67.8493 157.086L67.9198 157.085L67.9157 156.585ZM65.9157 156.027L66.05 155.546L65.9828 155.527L65.9129 155.527L65.9157 156.027ZM63.9157 156.039L63.9129 155.538L63.8996 155.539L63.9157 156.039ZM61.9157 156.103L61.8996 155.603L61.89 155.604L61.8803 155.604L61.9157 156.103ZM59.9157 156.245L59.8444 156.74L59.8976 156.747L59.9511 156.744L59.9157 156.245ZM57.9157 155.957L57.987 155.462L57.9135 155.451L57.8401 155.463L57.9157 155.957ZM55.9157 156.263L55.9016 156.763L55.9467 156.764L55.9913 156.757L55.9157 156.263ZM53.9157 156.207L53.9298 155.707L53.9203 155.707L53.9157 156.207ZM51.9157 156.188L51.8015 156.675L51.8556 156.688L51.9112 156.688L51.9157 156.188ZM49.9157 155.719L50.03 155.232L49.9694 155.218L49.9072 155.219L49.9157 155.719ZM47.9157 155.753L47.9072 155.253L47.8705 155.254L47.8344 155.26L47.9157 155.753ZM45.9157 156.083L45.9163 156.583L45.957 156.583L45.9971 156.576L45.9157 156.083ZM43.9073 156.086L43.6501 156.514L43.7692 156.586L43.908 156.586L43.9073 156.086ZM42.1965 155.059L41.9065 155.467L41.9225 155.478L41.9393 155.488L42.1965 155.059ZM40.5728 153.903L40.1102 154.093L40.165 154.226L40.2827 154.31L40.5728 153.903ZM39.8155 152.057L39.3291 152.173L39.3381 152.211L39.3529 152.247L39.8155 152.057ZM39.3567 150.131L38.8568 150.143L38.8581 150.196L38.8703 150.247L39.3567 150.131ZM39.3068 148.131L39.8067 148.118L39.8056 148.076L39.7974 148.034L39.3068 148.131ZM38.9131 146.131L38.4462 145.952L38.3947 146.086L38.4225 146.227L38.9131 146.131ZM39.6799 144.131L40.1468 144.31L40.1731 144.241L40.1786 144.168L39.6799 144.131ZM39.8286 142.131L40.3272 142.168L40.3355 142.056L40.2955 141.952L39.8286 142.131ZM39.0621 140.131L38.5944 139.954L38.5271 140.132L38.5952 140.31L39.0621 140.131ZM39.8178 138.131L40.2855 138.307L40.3168 138.225L40.3178 138.136L39.8178 138.131ZM39.8392 136.131L40.3391 136.136L40.3399 136.066L40.3214 135.998L39.8392 136.131ZM39.2907 134.131L38.8006 134.031L38.777 134.148L38.8085 134.263L39.2907 134.131ZM39.6954 132.131L40.1855 132.23L40.2009 132.154L40.1925 132.077L39.6954 132.131ZM39.4779 130.131L39.975 130.077L39.9705 130.036L39.9594 129.996L39.4779 130.131ZM38.9178 128.131L38.4179 128.123L38.4168 128.196L38.4363 128.266L38.9178 128.131ZM38.9473 126.131L38.471 125.979L38.4485 126.049L38.4474 126.123L38.9473 126.131ZM39.5855 124.131L40.0619 124.283L40.1044 124.149L40.0715 124.013L39.5855 124.131ZM39.1021 122.131L38.6021 122.125L38.6014 122.187L38.6161 122.248L39.1021 122.131ZM39.1247 120.131L38.6542 119.961L38.6256 120.041L38.6247 120.125L39.1247 120.131ZM39.8443 118.131L40.3148 118.3L40.3734 118.137L40.3186 117.973L39.8443 118.131ZM39.1776 116.131L38.6793 116.09L38.6709 116.192L38.7032 116.289L39.1776 116.131ZM39.3413 114.131L38.8509 114.033L38.8453 114.061L38.8429 114.09L39.3413 114.131ZM39.74 112.131L40.2303 112.228L40.254 112.11L40.2207 111.993L39.74 112.131ZM39.1681 110.131L38.6717 110.19L38.6765 110.23L38.6874 110.268L39.1681 110.131ZM38.9277 108.131L38.4562 107.964L38.4174 108.074L38.4313 108.19L38.9277 108.131ZM39.6335 106.131L40.105 106.297L40.1518 106.164L40.1226 106.027L39.6335 106.131ZM39.2091 104.131L38.7111 104.086L38.7044 104.161L38.72 104.234L39.2091 104.131ZM39.3874 102.131L38.8894 102.086L38.8893 102.086L39.3874 102.131ZM39.5685 100.131L40.0664 100.176L40.0715 100.12L40.064 100.064L39.5685 100.131ZM39.2998 98.1307L38.8081 98.0396L38.7936 98.1181L38.8042 98.1972L39.2998 98.1307ZM39.6701 96.1307L40.1617 96.2217L40.1775 96.1365L40.1637 96.0509L39.6701 96.1307ZM39.3469 94.1307L38.8533 94.0507L38.8404 94.1306L38.8533 94.2104L39.3469 94.1307ZM39.6709 92.1307L40.1645 92.2106L40.1776 92.1297L40.1642 92.0489L39.6709 92.1307ZM39.3394 90.1307L38.8399 90.1084L38.8375 90.1607L38.8461 90.2124L39.3394 90.1307ZM39.4285 88.1307L39.928 88.1529L39.9285 88.1417L39.9285 88.1305L39.4285 88.1307ZM39.428 86.1307L39.928 86.1305L39.928 86.092L39.9221 86.054L39.428 86.1307ZM39.1175 84.1307L38.6207 84.1868L38.6218 84.1971L38.6234 84.2074L39.1175 84.1307ZM38.9011 82.2149L39.398 82.1588L39.3892 82.0814L39.3574 82.0104L38.9011 82.2149ZM38.1601 80.5619L38.6164 80.3574L38.6084 80.3396L38.5991 80.3225L38.1601 80.5619ZM37.1615 78.7304L37.6005 78.4911L37.4596 78.2326L37.1652 78.2305L37.1615 78.7304ZM35.0878 78.7153L34.9503 79.196L35.0159 79.2148L35.0842 79.2153L35.0878 78.7153ZM33.1353 78.1567L32.7965 78.5244L32.8837 78.6048L32.9978 78.6374L33.1353 78.1567ZM31.7106 76.844L31.3513 77.1916L31.3612 77.202L31.3718 77.2117L31.7106 76.844ZM30.3524 75.4401L29.868 75.5639L29.9008 75.6924L29.9931 75.7877L30.3524 75.4401ZM29.845 73.4552L29.3611 73.3291L29.3286 73.454L29.3606 73.579L29.845 73.4552ZM30.3715 71.4351L30.0961 71.0178L29.9361 71.1235L29.8877 71.309L30.3715 71.4351ZM32.0778 70.309L32.3532 70.7263L32.4136 70.6865L32.4602 70.6312L32.0778 70.309ZM33.4462 68.6845L33.3742 68.1898L33.1862 68.2171L33.0638 68.3624L33.4462 68.6845ZM35.5177 68.383L35.5897 68.8778L35.7197 68.8589L35.8236 68.7785L35.5177 68.383ZM37.1366 67.1307L36.9044 66.6879L36.8655 66.7083L36.8307 66.7352L37.1366 67.1307ZM38.9092 66.2013L38.7368 65.732L38.7061 65.7433L38.6771 65.7585L38.9092 66.2013ZM40.7946 65.5087L40.967 65.9781L41.0208 65.9583L41.0687 65.9269L40.7946 65.5087ZM42.4829 64.4021L42.4001 63.9091L42.2966 63.9264L42.2088 63.984L42.4829 64.4021ZM44.5339 64.0577L44.6167 64.5508L44.6511 64.545L44.6844 64.5345L44.5339 64.0577ZM46.4597 63.45L46.6102 63.9268L46.7045 63.897L46.7804 63.8336L46.4597 63.45ZM48.044 62.1251L47.8118 61.6823L47.7644 61.7072L47.7233 61.7415L48.044 62.1251ZM49.8166 61.1955L50.0488 61.6383L50.0522 61.6364L49.8166 61.1955ZM51.5824 60.2519L51.3789 59.7952L51.3626 59.8025L51.3468 59.8109L51.5824 60.2519ZM53.4097 59.4374L53.3176 58.9459L53.2599 58.9567L53.2062 58.9807L53.4097 59.4374ZM55.4433 59.0562L55.5354 59.5476L55.6175 59.5322L55.6902 59.491L55.4433 59.0562ZM57.1871 58.0662L57.0102 57.5986L56.9739 57.6123L56.9403 57.6314L57.1871 58.0662ZM59.0641 57.356L59.241 57.8236L59.3214 57.7932L59.3871 57.7377L59.0641 57.356ZM60.643 56.0197L60.4788 55.5475L60.391 55.578L60.32 55.6381L60.643 56.0197ZM62.5434 55.3588L62.7077 55.8311L62.7603 55.8128L62.8075 55.7834L62.5434 55.3588ZM64.2525 54.2958L64.1179 53.8142L64.0491 53.8335L63.9884 53.8712L64.2525 54.2958ZM66.2075 53.7496L66.342 54.2311L66.4333 54.2056L66.5089 54.1485L66.2075 53.7496ZM67.8366 52.5186L67.7414 52.0278L67.6276 52.0498L67.5351 52.1197L67.8366 52.5186ZM69.8644 52.1253L69.9596 52.6161L70.0788 52.593L70.1742 52.5177L69.8644 52.1253ZM71.4744 50.8543L71.2702 50.398L71.2134 50.4234L71.1646 50.4619L71.4744 50.8543ZM73.3005 50.0372L73.2254 49.5429L73.1583 49.5531L73.0963 49.5808L73.3005 50.0372ZM75.3662 49.7237L75.4413 50.218L75.6044 50.1933L75.7207 50.0763L75.3662 49.7237ZM76.8644 48.2176L76.6259 47.7782L76.5615 47.8131L76.5099 47.865L76.8644 48.2176ZM78.6246 47.2622L78.436 46.7991L78.4104 46.8096L78.3861 46.8227L78.6246 47.2622ZM80.4799 46.5065L80.6685 46.9695L80.6689 46.9694L80.4799 46.5065ZM82.3345 45.7492L82.5235 46.2121L82.5461 46.2029L82.5677 46.1915L82.3345 45.7492ZM84.1051 44.8155L83.9988 44.327L83.9322 44.3415L83.8718 44.3733L84.1051 44.8155ZM86.1123 44.379L86.2185 44.8675L86.3403 44.8411L86.4354 44.7605L86.1123 44.379ZM87.6909 43.042L87.6129 42.5481L87.4746 42.5699L87.3677 42.6604L87.6909 43.042ZM89.7511 42.7168L89.829 43.2107L89.9319 43.1944L90.0198 43.1384L89.7511 42.7168ZM91.4507 41.6339L91.2946 41.1588L91.2349 41.1784L91.182 41.2122L91.4507 41.6339ZM93.3662 41.0047L93.5222 41.4797L93.5919 41.4568L93.6522 41.4148L93.3662 41.0047ZM95.0292 39.8451L94.9051 39.3607L94.8175 39.3832L94.7432 39.4349L95.0292 39.8451ZM97.0034 39.3392L97.1275 39.8236L97.179 39.8104L97.2265 39.7867L97.0034 39.3392ZM98.7686 38.4592L98.6766 37.9678L98.608 37.9806L98.5455 38.0118L98.7686 38.4592ZM100.632 38.1106L100.727 37.6195L100.634 37.6017L100.54 37.6191L100.632 38.1106ZM102.485 38.4663L102.39 38.9573L102.427 38.9645L102.465 38.9659L102.485 38.4663ZM104.608 38.5493L104.982 38.2173L104.84 38.058L104.627 38.0497L104.608 38.5493ZM106.05 40.1736L105.676 40.5055L105.768 40.6094L105.901 40.6508L106.05 40.1736ZM107.978 40.7762L108.264 40.3659L108.201 40.3219L108.127 40.299L107.978 40.7762ZM109.641 41.9347L109.356 42.345L109.407 42.3806L109.465 42.4026L109.641 41.9347ZM111.519 42.6432L111.752 42.2008L111.725 42.1864L111.696 42.1754L111.519 42.6432ZM113.29 43.5758L113.057 44.0182L113.123 44.0527L113.195 44.0667L113.29 43.5758ZM115.319 43.9684L115.638 43.5841L115.54 43.5019L115.414 43.4775L115.319 43.9684ZM116.905 45.2887L116.585 45.673L116.678 45.7499L116.795 45.7764L116.905 45.2887ZM118.905 45.7413L119.026 45.2562L119.015 45.2537L118.905 45.7413ZM120.884 46.2373L121.18 45.8344L121.1 45.7762L121.005 45.7523L120.884 46.2373ZM122.525 47.4429L122.832 47.048L122.821 47.04L122.525 47.4429ZM124.141 48.6999L123.835 49.0946L123.868 49.1205L123.905 49.1404L124.141 48.6999ZM125.906 49.647L125.669 50.0875L125.69 50.0988L125.712 50.1081L125.906 49.647ZM127.752 50.4218L127.558 50.8828L127.589 50.8957L127.621 50.9043L127.752 50.4218ZM129.714 50.954L129.869 50.4788L129.857 50.4748L129.844 50.4714L129.714 50.954ZM131.63 51.5815L131.867 51.1411L131.828 51.1202L131.785 51.1064L131.63 51.5815ZM133.393 52.5298L133.157 52.9701L133.184 52.9851L133.214 52.9964L133.393 52.5298ZM135.266 53.2501L135.45 52.7855L135.445 52.7834L135.266 53.2501ZM137.128 53.9909L137.387 53.5635L137.352 53.5418L137.313 53.5264L137.128 53.9909ZM138.847 55.0338L138.587 55.4613L138.614 55.4777L138.643 55.4906L138.847 55.0338ZM140.675 55.847L140.981 55.4516L140.933 55.4147L140.878 55.3901L140.675 55.847ZM142.293 57.1004L141.987 57.4957L142.048 57.5431L142.121 57.5698L142.293 57.1004ZM144.179 57.792L144.399 57.3431L144.376 57.3316L144.351 57.3225L144.179 57.792ZM145.974 58.6732L146.225 58.2408L146.21 58.232L146.195 58.2243L145.974 58.6732ZM147.71 59.6808L147.459 60.1133L147.469 60.1189L147.71 59.6808ZM149.465 60.6467L149.224 61.0848L149.277 61.114L149.336 61.1297L149.465 60.6467ZM151.43 61.1725L151.568 60.6918L151.559 60.6895L151.43 61.1725ZM153.379 61.7315L153.659 61.3172L153.593 61.2727L153.516 61.2508L153.379 61.7315ZM155.055 62.8639L155.342 62.455L155.335 62.4497L155.055 62.8639ZM156.714 64.0318L156.426 64.4407L156.469 64.4712L156.518 64.4919L156.714 64.0318ZM158.556 64.8148L158.36 65.275L158.374 65.2807L158.388 65.2856L158.556 64.8148ZM160.449 65.4921L160.713 65.0674L160.667 65.0393L160.617 65.0214L160.449 65.4921ZM162.158 66.5542L162.445 66.145L162.434 66.1369L162.422 66.1295L162.158 66.5542ZM163.818 67.7201L163.531 68.1292L163.628 68.1973L163.745 68.2147L163.818 67.7201ZM165.887 68.0264L166.035 67.5485L165.998 67.5373L165.961 67.5317L165.887 68.0264ZM167.819 68.6215L168.082 68.1963L168.028 68.1625L167.966 68.1436L167.819 68.6215ZM169.566 69.7027L169.971 69.4087L169.913 69.3292L169.83 69.2775L169.566 69.7027ZM170.781 71.374L171.214 71.1249L171.201 71.1017L171.185 71.08L170.781 71.374ZM171.848 73.2323L172.281 73.4836L172.426 73.2338L172.282 72.9833L171.848 73.2323ZM170.75 75.122L170.317 74.8707L170.313 74.8793L170.75 75.122ZM169.862 76.7203L170.223 77.0663L170.268 77.0196L170.299 76.963L169.862 76.7203ZM168.508 78.1325L168.534 78.6319L168.732 78.6215L168.869 78.4786L168.508 78.1325ZM166.719 78.226L166.693 77.7267L166.219 77.7514V78.226H166.719ZM166.719 78.4038L166.511 77.9493L166.42 77.9909L166.628 78.4455L166.837 78.9L166.928 78.8584L166.719 78.4038ZM166.628 78.4455L166.418 77.992L164.75 78.7664L164.961 79.2199L165.171 79.6734L166.839 78.899L166.628 78.4455ZM164.961 79.2199L164.718 78.7829L163.08 79.6938L163.323 80.1308L163.566 80.5677L165.204 79.6568L164.961 79.2199ZM163.323 80.1308L162.96 79.7871L161.515 81.3136L161.879 81.6572L162.242 82.0009L163.686 80.4745L163.323 80.1308ZM161.879 81.6572L161.386 81.7398L161.735 83.8296L162.229 83.747L162.722 83.6644L162.372 81.5746L161.879 81.6572ZM162.229 83.747L161.73 83.707L161.57 85.707L162.068 85.747L162.566 85.787L162.727 83.787L162.229 83.747ZM162.068 85.747L161.574 85.67L161.263 87.67L161.757 87.747L162.251 87.8239L162.562 85.8239L162.068 85.747ZM161.757 87.747L161.281 87.9016L161.931 89.9016L162.407 89.747L162.882 89.5924L162.232 87.5924L161.757 87.747ZM162.407 89.747L161.932 89.5895L161.268 91.5895L161.743 91.747L162.217 91.9045L162.881 89.9045L162.407 89.747ZM161.743 91.747L161.245 91.7977L161.449 93.7977L161.947 93.747L162.444 93.6963L162.24 91.6963L161.743 91.747ZM161.947 93.747L161.45 93.6901L161.221 95.6901L161.718 95.747L162.215 95.8039L162.444 93.8039L161.947 93.747ZM161.718 95.747L161.219 95.7823L161.361 97.7823L161.859 97.747L162.358 97.7117L162.217 95.7117L161.718 95.747ZM161.859 97.747L161.362 97.8024L161.585 99.8024L162.082 99.747L162.579 99.6916L162.356 97.6916L161.859 97.747ZM162.082 99.747L161.582 99.7541L161.611 101.754L162.111 101.747L162.611 101.74L162.582 99.7399L162.082 99.747ZM162.111 101.747L161.626 101.623L161.116 103.623L161.6 103.747L162.085 103.871L162.595 101.871L162.111 101.747ZM161.6 103.747L161.101 103.774L161.208 105.774L161.708 105.747L162.207 105.72L162.1 103.72L161.6 103.747ZM161.708 105.747L161.232 105.901L161.881 107.901L162.356 107.747L162.832 107.593L162.183 105.593L161.708 105.747ZM162.356 107.747L161.856 107.747L161.859 109.747L162.359 109.747L162.859 109.746L162.856 107.746L162.356 107.747ZM162.359 109.747L161.86 109.703L161.685 111.703L162.183 111.747L162.681 111.791L162.857 109.791L162.359 109.747ZM162.183 111.747L161.688 111.676L161.402 113.676L161.897 113.747L162.392 113.818L162.678 111.818L162.183 111.747ZM161.897 113.747L161.402 113.673L161.101 115.673L161.595 115.747L162.09 115.821L162.391 113.821L161.897 113.747ZM161.595 115.747L161.125 115.917L161.846 117.917L162.316 117.747L162.787 117.577L162.066 115.577L161.595 115.747ZM162.316 117.747L161.816 117.745L161.807 119.745L162.307 119.747L162.807 119.749L162.816 117.749L162.316 117.747ZM162.307 119.747L161.821 119.628L161.333 121.628L161.818 121.747L162.304 121.866L162.793 119.866L162.307 119.747ZM161.818 121.747L161.331 121.859L161.79 123.859L162.277 123.747L162.765 123.635L162.306 121.635L161.818 121.747ZM162.277 123.747L161.778 123.73L161.709 125.73L162.209 125.747L162.709 125.764L162.777 123.764L162.277 123.747ZM162.209 125.747L161.729 125.607L161.148 127.607L161.628 127.747L162.108 127.886L162.689 125.886L162.209 125.747ZM161.628 127.747L161.151 127.898L161.783 129.898L162.26 129.747L162.737 129.596L162.105 127.596L161.628 127.747ZM162.26 129.747L161.761 129.77L161.853 131.77L162.353 131.747L162.852 131.724L162.76 129.724L162.26 129.747ZM162.353 131.747L161.853 131.776L161.971 133.776L162.47 133.747L162.969 133.718L162.852 131.718L162.353 131.747ZM162.47 133.747L162.01 133.552L161.163 135.552L161.623 135.747L162.084 135.942L162.931 133.942L162.47 133.747ZM161.623 135.747L161.148 135.903L161.805 137.903L162.28 137.747L162.755 137.591L162.099 135.591L161.623 135.747ZM162.28 137.747L161.797 137.62L161.272 139.62L161.756 139.747L162.239 139.874L162.764 137.874L162.28 137.747ZM161.756 139.747L161.275 139.886L161.855 141.886L162.336 141.747L162.816 141.608L162.236 139.608L161.756 139.747ZM162.336 141.747L161.839 141.69L161.611 143.69L162.108 143.747L162.605 143.804L162.832 141.804L162.336 141.747ZM162.108 143.747L161.61 143.794L161.799 145.794L162.296 145.747L162.794 145.7L162.606 143.7L162.108 143.747ZM162.296 145.747L161.798 145.703L161.62 147.703L162.118 147.747L162.616 147.791L162.794 145.791L162.296 145.747ZM162.118 147.747L161.622 147.688L161.385 149.688L161.882 149.747L162.378 149.806L162.615 147.806L162.118 147.747ZM161.882 149.747L161.382 149.761L161.439 151.764L161.938 151.75L162.438 151.736L162.382 149.733L161.882 149.747ZM161.938 151.75L161.508 151.496L160.496 153.214L160.927 153.468L161.358 153.722L162.369 152.004L161.938 151.75ZM160.927 153.468L160.544 153.146L159.273 154.654L159.655 154.977L160.037 155.299L161.309 153.79L160.927 153.468ZM159.655 154.977L159.355 154.577L157.693 155.823L157.993 156.223L158.293 156.623L159.955 155.377L159.655 154.977ZM157.993 156.223L157.954 155.725L155.877 155.887L155.916 156.386L155.955 156.884L158.032 156.722L157.993 156.223ZM155.916 156.386L155.981 155.89L153.981 155.626L153.916 156.122L153.85 156.618L155.85 156.882L155.916 156.386ZM153.916 156.122L153.812 155.633L151.812 156.056L151.916 156.545L152.019 157.034L154.019 156.611L153.916 156.122ZM151.916 156.545L151.9 156.045L149.9 156.109L149.916 156.609L149.932 157.109L151.932 157.045L151.916 156.545ZM149.916 156.609L149.978 156.113L147.978 155.861L147.916 156.357L147.853 156.853L149.853 157.105L149.916 156.609ZM147.916 156.357L147.938 155.858L145.938 155.768L145.916 156.268L145.893 156.767L147.893 156.857L147.916 156.357ZM145.916 156.268L145.883 155.769L143.883 155.901L143.916 156.4L143.949 156.899L145.949 156.767L145.916 156.268ZM143.916 156.4L144.001 155.907L142.001 155.561L141.916 156.053L141.83 156.546L143.83 156.892L143.916 156.4ZM141.916 156.053L141.792 155.569L139.792 156.082L139.916 156.566L140.04 157.05L142.04 156.538L141.916 156.053ZM139.916 156.566L140.015 156.076L138.015 155.672L137.916 156.162L137.817 156.652L139.817 157.056L139.916 156.566ZM137.916 156.162L137.942 155.663L135.942 155.555L135.916 156.055L135.889 156.554L137.889 156.661L137.916 156.162ZM135.916 156.055L135.828 155.562L133.828 155.918L133.916 156.41L134.003 156.903L136.003 156.547L135.916 156.055ZM133.916 156.41L133.994 155.917L131.994 155.598L131.916 156.092L131.837 156.586L133.837 156.904L133.916 156.41ZM131.916 156.092L131.83 155.599L129.83 155.947L129.916 156.44L130.001 156.932L132.001 156.585L131.916 156.092ZM129.916 156.44L129.935 155.94L127.935 155.862L127.916 156.361L127.896 156.861L129.896 156.939L129.916 156.44ZM127.916 156.361L127.905 155.861L125.905 155.905L125.916 156.405L125.927 156.905L127.927 156.861L127.916 156.361ZM125.916 156.405L125.906 155.905L123.906 155.944L123.916 156.444L123.926 156.944L125.926 156.905L125.916 156.405ZM123.916 156.444L123.921 155.944L121.921 155.922L121.916 156.422L121.91 156.922L123.91 156.944L123.916 156.444ZM121.916 156.422L121.862 155.925L119.862 156.14L119.916 156.637L119.969 157.134L121.969 156.919L121.916 156.422ZM119.916 156.637L120.077 156.164L118.077 155.481L117.916 155.954L117.754 156.427L119.754 157.11L119.916 156.637ZM117.916 155.954L117.972 155.457L115.972 155.23L115.916 155.727L115.859 156.224L117.859 156.451L117.916 155.954ZM115.916 155.727L115.923 155.227L113.923 155.199L113.916 155.699L113.909 156.199L115.909 156.227L115.916 155.727ZM113.916 155.699L113.739 155.231L111.739 155.988L111.916 156.455L112.093 156.923L114.093 156.166L113.916 155.699ZM111.916 156.455L112.037 155.97L110.037 155.472L109.916 155.957L109.795 156.443L111.795 156.941L111.916 156.455ZM109.916 155.957L109.907 155.458L107.907 155.494L107.916 155.994L107.925 156.494L109.925 156.457L109.916 155.957ZM107.916 155.994L107.937 155.494L105.937 155.408L105.916 155.907L105.894 156.407L107.894 156.493L107.916 155.994ZM105.916 155.907L105.902 155.407L103.902 155.462L103.916 155.962L103.929 156.462L105.929 156.407L105.916 155.907ZM103.916 155.962L103.789 155.478L101.789 156.002L101.916 156.485L102.042 156.969L104.042 156.446L103.916 155.962ZM101.916 156.485L101.987 155.991L99.9871 155.702L99.9157 156.197L99.8443 156.692L101.844 156.98L101.916 156.485ZM99.9157 156.197L99.9307 155.697L97.9307 155.637L97.9157 156.137L97.9007 156.637L99.9007 156.697L99.9157 156.197ZM97.9157 156.137L97.8944 155.637L95.8944 155.723L95.9157 156.222L95.937 156.722L97.937 156.636L97.9157 156.137ZM95.9157 156.222L96.0155 155.732L94.0155 155.325L93.9157 155.815L93.816 156.305L95.816 156.712L95.9157 156.222ZM93.9157 155.815L93.8524 155.319L91.8524 155.574L91.9157 156.07L91.9791 156.566L93.9791 156.311L93.9157 155.815ZM91.9157 156.07L91.8374 155.577L89.8374 155.894L89.9157 156.388L89.994 156.881L91.994 156.564L91.9157 156.07ZM89.9157 156.388L89.8868 155.888L87.8868 156.004L87.9157 156.504L87.9446 157.003L89.9446 156.887L89.9157 156.388ZM87.9157 156.504L88.0361 156.018L86.0361 155.522L85.9157 156.007L85.7953 156.493L87.7953 156.989L87.9157 156.504ZM85.9157 156.007L85.9805 155.512L83.9805 155.25L83.9157 155.746L83.851 156.242L85.851 156.503L85.9157 156.007ZM83.9157 155.746L83.8139 155.257L81.8139 155.673L81.9157 156.162L82.0176 156.652L84.0176 156.236L83.9157 155.746ZM81.9157 156.162L81.897 155.663L79.897 155.737L79.9157 156.237L79.9344 156.737L81.9344 156.662L81.9157 156.162ZM79.9157 156.237L79.9361 155.737L77.9361 155.656L77.9157 156.155L77.8953 156.655L79.8953 156.737L79.9157 156.237ZM77.9157 156.155L77.8175 155.665L75.8175 156.066L75.9157 156.556L76.0139 157.046L78.0139 156.646L77.9157 156.155ZM75.9157 156.556L76.0136 156.066L74.0136 155.666L73.9157 156.156L73.8178 156.647L75.8178 157.046L75.9157 156.556ZM73.9157 156.156L73.7941 155.671L71.7941 156.173L71.9157 156.658L72.0373 157.143L74.0373 156.641L73.9157 156.156ZM71.9157 156.658L71.938 156.158L69.938 156.069L69.9157 156.569L69.8935 157.068L71.8935 157.157L71.9157 156.658ZM69.9157 156.569L69.9116 156.069L67.9116 156.085L67.9157 156.585L67.9198 157.085L69.9198 157.069L69.9157 156.569ZM67.9157 156.585L68.05 156.104L66.05 155.546L65.9157 156.027L65.7814 156.509L67.7814 157.067L67.9157 156.585ZM65.9157 156.027L65.9129 155.527L63.9129 155.539L63.9157 156.039L63.9185 156.539L65.9185 156.527L65.9157 156.027ZM63.9157 156.039L63.8996 155.539L61.8996 155.603L61.9157 156.103L61.9318 156.603L63.9318 156.538L63.9157 156.039ZM61.9157 156.103L61.8803 155.604L59.8803 155.746L59.9157 156.245L59.9511 156.744L61.9511 156.602L61.9157 156.103ZM59.9157 156.245L59.987 155.75L57.987 155.462L57.9157 155.957L57.8444 156.452L59.8444 156.74L59.9157 156.245ZM57.9157 155.957L57.8401 155.463L55.8401 155.769L55.9157 156.263L55.9913 156.757L57.9913 156.451L57.9157 155.957ZM55.9157 156.263L55.9298 155.763L53.9298 155.707L53.9157 156.207L53.9016 156.706L55.9016 156.763L55.9157 156.263ZM53.9157 156.207L53.9203 155.707L51.9203 155.688L51.9157 156.188L51.9112 156.688L53.9112 156.707L53.9157 156.207ZM51.9157 156.188L52.03 155.702L50.03 155.232L49.9157 155.719L49.8015 156.206L51.8015 156.675L51.9157 156.188ZM49.9157 155.719L49.9072 155.219L47.9072 155.253L47.9157 155.753L47.9243 156.253L49.9243 156.219L49.9157 155.719ZM47.9157 155.753L47.8344 155.26L45.8344 155.59L45.9157 156.083L45.9971 156.576L47.9971 156.247L47.9157 155.753ZM45.9157 156.083L45.9151 155.583L43.9067 155.586L43.9073 156.086L43.908 156.586L45.9163 156.583L45.9157 156.083ZM43.9073 156.086L44.1646 155.657L42.4538 154.63L42.1965 155.059L41.9393 155.488L43.6501 156.514L43.9073 156.086ZM42.1965 155.059L42.4866 154.652L40.8628 153.496L40.5728 153.903L40.2827 154.31L41.9065 155.467L42.1965 155.059ZM40.5728 153.903L41.0353 153.713L40.2781 151.867L39.8155 152.057L39.3529 152.247L40.1102 154.093L40.5728 153.903ZM39.8155 152.057L40.3019 151.941L39.8431 150.015L39.3567 150.131L38.8703 150.247L39.3291 152.173L39.8155 152.057ZM39.3567 150.131L39.8565 150.118L39.8067 148.118L39.3068 148.131L38.807 148.143L38.8568 150.143L39.3567 150.131ZM39.3068 148.131L39.7974 148.034L39.4037 146.034L38.9131 146.131L38.4225 146.227L38.8162 148.227L39.3068 148.131ZM38.9131 146.131L39.38 146.31L40.1468 144.31L39.6799 144.131L39.2131 143.952L38.4462 145.952L38.9131 146.131ZM39.6799 144.131L40.1786 144.168L40.3272 142.168L39.8286 142.131L39.33 142.094L39.1813 144.094L39.6799 144.131ZM39.8286 142.131L40.2955 141.952L39.529 139.952L39.0621 140.131L38.5952 140.31L39.3617 142.31L39.8286 142.131ZM39.0621 140.131L39.5298 140.307L40.2855 138.307L39.8178 138.131L39.3501 137.954L38.5944 139.954L39.0621 140.131ZM39.8178 138.131L40.3178 138.136L40.3391 136.136L39.8392 136.131L39.3392 136.125L39.3178 138.125L39.8178 138.131ZM39.8392 136.131L40.3214 135.998L39.7729 133.998L39.2907 134.131L38.8085 134.263L39.357 136.263L39.8392 136.131ZM39.2907 134.131L39.7807 134.23L40.1855 132.23L39.6954 132.131L39.2054 132.031L38.8006 134.031L39.2907 134.131ZM39.6954 132.131L40.1925 132.077L39.975 130.077L39.4779 130.131L38.9809 130.185L39.1984 132.185L39.6954 132.131ZM39.4779 130.131L39.9594 129.996L39.3993 127.996L38.9178 128.131L38.4363 128.266L38.9964 130.266L39.4779 130.131ZM38.9178 128.131L39.4178 128.138L39.4473 126.138L38.9473 126.131L38.4474 126.123L38.4179 128.123L38.9178 128.131ZM38.9473 126.131L39.4237 126.283L40.0619 124.283L39.5855 124.131L39.1092 123.979L38.471 125.979L38.9473 126.131ZM39.5855 124.131L40.0715 124.013L39.5881 122.013L39.1021 122.131L38.6161 122.248L39.0995 124.248L39.5855 124.131ZM39.1021 122.131L39.602 122.136L39.6246 120.136L39.1247 120.131L38.6247 120.125L38.6021 122.125L39.1021 122.131ZM39.1247 120.131L39.5951 120.3L40.3148 118.3L39.8443 118.131L39.3738 117.961L38.6542 119.961L39.1247 120.131ZM39.8443 118.131L40.3186 117.973L39.6519 115.973L39.1776 116.131L38.7032 116.289L39.37 118.289L39.8443 118.131ZM39.1776 116.131L39.6759 116.171L39.8396 114.171L39.3413 114.131L38.8429 114.09L38.6793 116.09L39.1776 116.131ZM39.3413 114.131L39.8316 114.228L40.2303 112.228L39.74 112.131L39.2496 112.033L38.8509 114.033L39.3413 114.131ZM39.74 112.131L40.2207 111.993L39.6489 109.993L39.1681 110.131L38.6874 110.268L39.2592 112.268L39.74 112.131ZM39.1681 110.131L39.6646 110.071L39.4242 108.071L38.9277 108.131L38.4313 108.19L38.6717 110.19L39.1681 110.131ZM38.9277 108.131L39.3992 108.297L40.105 106.297L39.6335 106.131L39.162 105.964L38.4562 107.964L38.9277 108.131ZM39.6335 106.131L40.1226 106.027L39.6982 104.027L39.2091 104.131L38.72 104.234L39.1444 106.234L39.6335 106.131ZM39.2091 104.131L39.7072 104.175L39.8854 102.175L39.3874 102.131L38.8893 102.086L38.7111 104.086L39.2091 104.131ZM39.3874 102.131L39.8853 102.176L40.0664 100.176L39.5685 100.131L39.0705 100.086L38.8894 102.086L39.3874 102.131ZM39.5685 100.131L40.064 100.064L39.7953 98.0641L39.2998 98.1307L38.8042 98.1972L39.0729 100.197L39.5685 100.131ZM39.2998 98.1307L39.7914 98.2217L40.1617 96.2217L39.6701 96.1307L39.1785 96.0396L38.8081 98.0396L39.2998 98.1307ZM39.6701 96.1307L40.1637 96.0509L39.8405 94.0509L39.3469 94.1307L38.8533 94.2104L39.1765 96.2104L39.6701 96.1307ZM39.3469 94.1307L39.8404 94.2106L40.1645 92.2106L39.6709 92.1307L39.1773 92.0507L38.8533 94.0507L39.3469 94.1307ZM39.6709 92.1307L40.1642 92.0489L39.8327 90.0489L39.3394 90.1307L38.8461 90.2124L39.1776 92.2124L39.6709 92.1307ZM39.3394 90.1307L39.8389 90.1529L39.928 88.1529L39.4285 88.1307L38.929 88.1084L38.8399 90.1084L39.3394 90.1307ZM39.4285 88.1307L39.9285 88.1305L39.928 86.1305L39.428 86.1307L38.928 86.1308L38.9285 88.1308L39.4285 88.1307ZM39.428 86.1307L39.9221 86.054L39.6116 84.054L39.1175 84.1307L38.6234 84.2074L38.9339 86.2074L39.428 86.1307ZM39.1175 84.1307L39.6144 84.0745L39.398 82.1588L38.9011 82.2149L38.4043 82.271L38.6207 84.1868L39.1175 84.1307ZM38.9011 82.2149L39.3574 82.0104L38.6164 80.3574L38.1601 80.5619L37.7038 80.7664L38.4449 82.4194L38.9011 82.2149ZM38.1601 80.5619L38.5991 80.3225L37.6005 78.4911L37.1615 78.7304L36.7226 78.9698L37.7211 80.8012L38.1601 80.5619ZM37.1615 78.7304L37.1652 78.2305L35.0915 78.2153L35.0878 78.7153L35.0842 79.2153L37.1579 79.2304L37.1615 78.7304ZM35.0878 78.7153L35.2254 78.2346L33.2728 77.676L33.1353 78.1567L32.9978 78.6374L34.9503 79.196L35.0878 78.7153ZM33.1353 78.1567L33.4741 77.789L32.0494 76.4763L31.7106 76.844L31.3718 77.2117L32.7965 78.5244L33.1353 78.1567ZM31.7106 76.844L32.07 76.4963L30.7118 75.0924L30.3524 75.4401L29.9931 75.7877L31.3513 77.1916L31.7106 76.844ZM30.3524 75.4401L30.8368 75.3162L30.3294 73.3313L29.845 73.4552L29.3606 73.579L29.868 75.5639L30.3524 75.4401ZM29.845 73.4552L30.3288 73.5813L30.8554 71.5613L30.3715 71.4351L29.8877 71.309L29.3611 73.3291L29.845 73.4552ZM30.3715 71.4351L30.647 71.8525L32.3532 70.7263L32.0778 70.309L31.8023 69.8917L30.0961 71.0178L30.3715 71.4351ZM32.0778 70.309L32.4602 70.6312L33.8286 69.0067L33.4462 68.6845L33.0638 68.3624L31.6954 69.9869L32.0778 70.309ZM33.4462 68.6845L33.5182 69.1793L35.5897 68.8778L35.5177 68.383L35.4457 67.8882L33.3742 68.1898L33.4462 68.6845ZM35.5177 68.383L35.8236 68.7785L37.4425 67.5262L37.1366 67.1307L36.8307 66.7352L35.2118 67.9875L35.5177 68.383ZM37.1366 67.1307L37.3688 67.5735L39.1414 66.6441L38.9092 66.2013L38.6771 65.7585L36.9044 66.6879L37.1366 67.1307ZM38.9092 66.2013L39.0817 66.6707L40.967 65.9781L40.7946 65.5087L40.6222 65.0394L38.7368 65.732L38.9092 66.2013ZM40.7946 65.5087L41.0687 65.9269L42.757 64.8203L42.4829 64.4021L42.2088 63.984L40.5205 65.0906L40.7946 65.5087ZM42.4829 64.4021L42.5657 64.8952L44.6167 64.5508L44.5339 64.0577L44.4511 63.5646L42.4001 63.9091L42.4829 64.4021ZM44.5339 64.0577L44.6844 64.5345L46.6102 63.9268L46.4597 63.45L46.3092 62.9732L44.3835 63.5809L44.5339 64.0577ZM46.4597 63.45L46.7804 63.8336L48.3648 62.5086L48.044 62.1251L47.7233 61.7415L46.1389 63.0664L46.4597 63.45ZM48.044 62.1251L48.2763 62.5679L50.0488 61.6382L49.8166 61.1955L49.5843 60.7527L47.8118 61.6823L48.044 62.1251ZM49.8166 61.1955L50.0522 61.6364L51.8181 60.6929L51.5824 60.2519L51.3468 59.8109L49.5809 60.7545L49.8166 61.1955ZM51.5824 60.2519L51.786 60.7086L53.6133 59.894L53.4097 59.4374L53.2062 58.9807L51.3789 59.7952L51.5824 60.2519ZM53.4097 59.4374L53.5019 59.9288L55.5354 59.5476L55.4433 59.0562L55.3512 58.5647L53.3176 58.9459L53.4097 59.4374ZM55.4433 59.0562L55.6902 59.491L57.434 58.501L57.1871 58.0662L56.9403 57.6314L55.1965 58.6214L55.4433 59.0562ZM57.1871 58.0662L57.3641 58.5339L59.241 57.8236L59.0641 57.356L58.8871 56.8884L57.0102 57.5986L57.1871 58.0662ZM59.0641 57.356L59.3871 57.7377L60.966 56.4014L60.643 56.0197L60.32 55.6381L58.7411 56.9743L59.0641 57.356ZM60.643 56.0197L60.8073 56.492L62.7077 55.8311L62.5434 55.3588L62.3792 54.8865L60.4788 55.5475L60.643 56.0197ZM62.5434 55.3588L62.8075 55.7834L64.5165 54.7204L64.2525 54.2958L63.9884 53.8712L62.2794 54.9342L62.5434 55.3588ZM64.2525 54.2958L64.387 54.7774L66.342 54.2311L66.2075 53.7496L66.0729 53.268L64.1179 53.8142L64.2525 54.2958ZM66.2075 53.7496L66.5089 54.1485L68.138 52.9175L67.8366 52.5186L67.5351 52.1197L65.906 53.3507L66.2075 53.7496ZM67.8366 52.5186L67.9318 53.0095L69.9596 52.6161L69.8644 52.1253L69.7691 51.6344L67.7414 52.0278L67.8366 52.5186ZM69.8644 52.1253L70.1742 52.5177L71.7842 51.2468L71.4744 50.8543L71.1646 50.4619L69.5546 51.7328L69.8644 52.1253ZM71.4744 50.8543L71.6786 51.3107L73.5047 50.4936L73.3005 50.0372L73.0963 49.5808L71.2702 50.398L71.4744 50.8543ZM73.3005 50.0372L73.3755 50.5316L75.4413 50.218L75.3662 49.7237L75.2912 49.2294L73.2254 49.5429L73.3005 50.0372ZM75.3662 49.7237L75.7207 50.0763L77.2189 48.5702L76.8644 48.2176L76.5099 47.865L75.0118 49.3711L75.3662 49.7237ZM76.8644 48.2176L77.1029 48.6571L78.8631 47.7016L78.6246 47.2622L78.3861 46.8227L76.6259 47.7782L76.8644 48.2176ZM78.6246 47.2622L78.8132 47.7252L80.6685 46.9695L80.4799 46.5065L80.2913 46.0434L78.436 46.7991L78.6246 47.2622ZM80.4799 46.5065L80.6689 46.9694L82.5235 46.2121L82.3345 45.7492L82.1455 45.2863L80.2909 46.0436L80.4799 46.5065ZM82.3345 45.7492L82.5677 46.1915L84.3383 45.2578L84.1051 44.8155L83.8718 44.3733L82.1012 45.3069L82.3345 45.7492ZM84.1051 44.8155L84.2113 45.3041L86.2185 44.8675L86.1123 44.379L86.006 43.8904L83.9988 44.327L84.1051 44.8155ZM86.1123 44.379L86.4354 44.7605L88.014 43.4235L87.6909 43.042L87.3677 42.6604L85.7891 43.9974L86.1123 44.379ZM87.6909 43.042L87.7688 43.5359L89.829 43.2107L89.7511 42.7168L89.6731 42.2229L87.6129 42.5481L87.6909 43.042ZM89.7511 42.7168L90.0198 43.1384L91.7193 42.0556L91.4507 41.6339L91.182 41.2122L89.4824 42.2951L89.7511 42.7168ZM91.4507 41.6339L91.6067 42.1089L93.5222 41.4797L93.3662 41.0047L93.2101 40.5297L91.2946 41.1588L91.4507 41.6339ZM93.3662 41.0047L93.6522 41.4148L95.3152 40.2552L95.0292 39.8451L94.7432 39.4349L93.0802 40.5945L93.3662 41.0047ZM95.0292 39.8451L95.1533 40.3294L97.1275 39.8236L97.0034 39.3392L96.8793 38.8549L94.9051 39.3607L95.0292 39.8451ZM97.0034 39.3392L97.2265 39.7867L98.9916 38.9067L98.7686 38.4592L98.5455 38.0118L96.7804 38.8917L97.0034 39.3392ZM98.7686 38.4592L98.8605 38.9507L100.724 38.602L100.632 38.1106L100.54 37.6191L98.6766 37.9678L98.7686 38.4592ZM100.632 38.1106L100.538 38.6016L102.39 38.9573L102.485 38.4663L102.579 37.9753L100.727 37.6195L100.632 38.1106ZM102.485 38.4663L102.465 38.9659L104.588 39.0489L104.608 38.5493L104.627 38.0497L102.504 37.9667L102.485 38.4663ZM104.608 38.5493L104.234 38.8812L105.676 40.5055L106.05 40.1736L106.424 39.8416L104.982 38.2173L104.608 38.5493ZM106.05 40.1736L105.901 40.6508L107.829 41.2534L107.978 40.7762L108.127 40.299L106.199 39.6963L106.05 40.1736ZM107.978 40.7762L107.692 41.1865L109.356 42.345L109.641 41.9347L109.927 41.5244L108.264 40.3659L107.978 40.7762ZM109.641 41.9347L109.465 42.4026L111.343 43.111L111.519 42.6432L111.696 42.1754L109.818 41.4669L109.641 41.9347ZM111.519 42.6432L111.286 43.0856L113.057 44.0182L113.29 43.5758L113.523 43.1334L111.752 42.2008L111.519 42.6432ZM113.29 43.5758L113.195 44.0667L115.223 44.4593L115.319 43.9684L115.414 43.4775L113.385 43.0849L113.29 43.5758ZM115.319 43.9684L114.999 44.3527L116.585 45.673L116.905 45.2887L117.225 44.9044L115.638 43.5841L115.319 43.9684ZM116.905 45.2887L116.795 45.7764L118.794 46.229L118.905 45.7413L119.015 45.2537L117.015 44.801L116.905 45.2887ZM118.905 45.7413L118.783 46.2263L120.762 46.7223L120.884 46.2373L121.005 45.7523L119.026 45.2563L118.905 45.7413ZM120.884 46.2373L120.588 46.6403L122.229 47.8459L122.525 47.4429L122.821 47.04L121.18 45.8344L120.884 46.2373ZM122.525 47.4429L122.218 47.8377L123.835 49.0946L124.141 48.6999L124.448 48.3051L122.832 47.0482L122.525 47.4429ZM124.141 48.6999L123.905 49.1404L125.669 50.0875L125.906 49.647L126.142 49.2065L124.378 48.2593L124.141 48.6999ZM125.906 49.647L125.712 50.1081L127.558 50.8828L127.752 50.4218L127.945 49.9607L126.099 49.186L125.906 49.647ZM127.752 50.4218L127.621 50.9043L129.583 51.4365L129.714 50.954L129.844 50.4714L127.883 49.9392L127.752 50.4218ZM129.714 50.954L129.558 51.4291L131.474 52.0567L131.63 51.5815L131.785 51.1064L129.869 50.4788L129.714 50.954ZM131.63 51.5815L131.393 52.0219L133.157 52.9701L133.393 52.5298L133.63 52.0894L131.867 51.1411L131.63 51.5815ZM133.393 52.5298L133.214 52.9964L135.086 53.7167L135.266 53.2501L135.445 52.7834L133.573 52.0631L133.393 52.5298ZM135.266 53.2501L135.081 53.7147L136.943 54.4555L137.128 53.9909L137.313 53.5264L135.45 52.7855L135.266 53.2501ZM137.128 53.9909L136.869 54.4184L138.587 55.4613L138.847 55.0338L139.106 54.6063L137.387 53.5635L137.128 53.9909ZM138.847 55.0338L138.643 55.4906L140.471 56.3038L140.675 55.847L140.878 55.3901L139.05 54.577L138.847 55.0338ZM140.675 55.847L140.368 56.2423L141.987 57.4957L142.293 57.1004L142.599 56.7051L140.981 55.4516L140.675 55.847ZM142.293 57.1004L142.121 57.5698L144.007 58.2614L144.179 57.792L144.351 57.3225L142.465 56.631L142.293 57.1004ZM144.179 57.792L143.958 58.2408L145.754 59.122L145.974 58.6732L146.195 58.2243L144.399 57.3431L144.179 57.792ZM145.974 58.6732L145.723 59.1055L147.459 60.1132L147.71 59.6808L147.961 59.2485L146.225 58.2408L145.974 58.6732ZM147.71 59.6808L147.469 60.1189L149.224 61.0848L149.465 60.6467L149.706 60.2086L147.951 59.2428L147.71 59.6808ZM149.465 60.6467L149.336 61.1297L151.3 61.6555L151.43 61.1725L151.559 60.6895L149.594 60.1637L149.465 60.6467ZM151.43 61.1725L151.292 61.6531L153.241 62.2121L153.379 61.7315L153.516 61.2508L151.568 60.6919L151.43 61.1725ZM153.379 61.7315L153.099 62.1458L154.775 63.2782L155.055 62.8639L155.335 62.4497L153.659 61.3172L153.379 61.7315ZM155.055 62.8639L154.767 63.2728L156.426 64.4407L156.714 64.0318L157.002 63.6229L155.342 62.4551L155.055 62.8639ZM156.714 64.0318L156.518 64.4919L158.36 65.275L158.556 64.8148L158.752 64.3547L156.909 63.5716L156.714 64.0318ZM158.556 64.8148L158.388 65.2856L160.28 65.9629L160.449 65.4921L160.617 65.0214L158.725 64.3441L158.556 64.8148ZM160.449 65.4921L160.185 65.9168L161.894 66.9789L162.158 66.5542L162.422 66.1295L160.713 65.0674L160.449 65.4921ZM162.158 66.5542L161.871 66.9634L163.531 68.1292L163.818 67.7201L164.106 67.3109L162.445 66.145L162.158 66.5542ZM163.818 67.7201L163.745 68.2147L165.814 68.521L165.887 68.0264L165.961 67.5317L163.891 67.2255L163.818 67.7201ZM165.887 68.0264L165.74 68.5042L167.672 69.0993L167.819 68.6215L167.966 68.1436L166.035 67.5485L165.887 68.0264ZM167.819 68.6215L167.556 69.0466L169.303 70.1278L169.566 69.7027L169.83 69.2775L168.082 68.1963L167.819 68.6215ZM169.566 69.7027L169.162 69.9966L170.376 71.6679L170.781 71.374L171.185 71.08L169.971 69.4087L169.566 69.7027ZM170.781 71.374L170.347 71.623L171.415 73.4813L171.848 73.2323L172.282 72.9833L171.214 71.1249L170.781 71.374ZM171.848 73.2323L171.416 72.981L170.318 74.8707L170.75 75.122L171.182 75.3733L172.281 73.4836L171.848 73.2323ZM170.75 75.122L170.313 74.8793L169.425 76.4775L169.862 76.7203L170.299 76.963L171.187 75.3647L170.75 75.122ZM169.862 76.7203L169.501 76.3742L168.147 77.7865L168.508 78.1325L168.869 78.4786L170.223 77.0663L169.862 76.7203ZM168.508 78.1325L168.482 77.6332L166.693 77.7267L166.719 78.226L166.745 78.7253L168.534 78.6319L168.508 78.1325ZM166.719 78.226H166.219V78.4038H166.719H167.219V78.226H166.719Z" fill="#35C284"/>
<path d="M65.3632 111.906C69.0088 111.906 71.0007 114.161 71.0007 118.22C71.0007 120.588 70.3242 122.317 69.084 123.406C70.6249 125.323 71.3765 128.48 71.3765 132.877H67.6182C67.6182 126.751 66.3404 124.647 62.3941 124.647H54.3889V132.877H50.5554V111.906H65.3632ZM54.3889 121.227H63.5216C65.927 121.227 67.2424 120.174 67.2424 118.258C67.2424 116.341 65.927 115.288 63.5216 115.288H54.3889V121.227Z" fill="#FEFEFE"/>
<path d="M86.2155 129.833C91.5147 129.833 93.8824 126.827 93.8824 122.204C93.8824 117.581 91.5147 114.574 86.2155 114.574C80.8786 114.574 78.5109 117.581 78.5109 122.204C78.5109 126.827 80.8786 129.833 86.2155 129.833ZM74.7526 122.204C74.7526 116.153 78.8491 111.192 86.2155 111.192C93.5442 111.192 97.6408 116.153 97.6408 122.204C97.6408 128.255 93.5442 133.216 86.2155 133.216C78.8491 133.216 74.7526 128.255 74.7526 122.204Z" fill="#FEFEFE"/>
<path d="M111.357 129.833C116.656 129.833 119.024 126.827 119.024 122.204C119.024 117.581 116.656 114.574 111.357 114.574C106.02 114.574 103.652 117.581 103.652 122.204C103.652 126.827 106.02 129.833 111.357 129.833ZM99.8937 122.204C99.8937 116.153 103.99 111.192 111.357 111.192C118.685 111.192 122.782 116.153 122.782 122.204C122.782 128.255 118.685 133.216 111.357 133.216C103.99 133.216 99.8937 128.255 99.8937 122.204Z" fill="#FEFEFE"/>
<path d="M130.184 111.906L138.339 124.609H138.715L146.871 111.906H150.892L150.855 111.981V132.84H147.096V117.844L140.557 128.029H136.498L129.996 117.882V132.84H126.237V111.906H130.184Z" fill="#FEFEFE"/>
<path d="M75.3719 81.4978C79.0174 81.4978 82.8885 85.2561 82.8885 92.1338C82.8885 98.6357 79.0174 102.432 75.3719 102.432H60.1882V81.4978H75.3719ZM64.0217 99.0116H73.9061C76.3114 99.0116 79.1302 96.4559 79.1302 92.1338C79.1302 87.3983 76.3114 84.9178 73.9061 84.9178H64.0217V99.0116Z" fill="#FEFEFE"/>
<path d="M96.619 99.425C101.918 99.425 104.286 96.4183 104.286 91.7956C104.286 87.1728 101.918 84.1662 96.619 84.1662C91.2822 84.1662 88.9144 87.1728 88.9144 91.7956C88.9144 96.4183 91.2822 99.425 96.619 99.425ZM85.1561 91.7956C85.1561 85.7447 89.2527 80.7837 96.619 80.7837C103.948 80.7837 108.044 85.7447 108.044 91.7956C108.044 97.8465 103.948 102.807 96.619 102.807C89.2527 102.807 85.1561 97.8465 85.1561 91.7956Z" fill="#FEFEFE"/>
<path d="M126.233 81.4978C129.878 81.4978 131.87 83.7528 131.87 87.8118C131.87 90.1795 131.194 91.9083 129.953 92.9982C131.494 94.915 132.246 98.072 132.246 102.469H128.488C128.488 96.3432 127.21 94.2385 123.263 94.2385H115.258V102.469H111.425V81.4978H126.233ZM115.258 90.8184H124.391C126.796 90.8184 128.112 89.7661 128.112 87.8493C128.112 85.9326 126.796 84.8803 124.391 84.8803H115.258V90.8184Z" fill="#FEFEFE"/>
<path d="M137.501 81.4978H141.259V102.432H137.501V81.4978Z" fill="#FEFEFE"/>
<path d="M105.366 80.1946C105.723 79.9845 106.166 80.2756 106.115 80.6871L105.609 84.7825C105.563 85.1502 105.147 85.3424 104.838 85.139L101.787 83.1344C101.477 82.931 101.489 82.4732 101.808 82.2855L105.366 80.1946Z" fill="#FEFEFE"/>
<path d="M87.8445 80.1946C87.4871 79.9845 87.0441 80.2756 87.095 80.6871L87.6019 84.7825C87.6475 85.1502 88.0631 85.3424 88.3727 85.139L91.4236 83.1344C91.7332 82.931 91.7218 82.4732 91.4024 82.2855L87.8445 80.1946Z" fill="#FEFEFE"/>
</svg>
