<svg width="48" height="48" viewBox="0 0 48 48" fill="none" xmlns="http://www.w3.org/2000/svg">
<rect width="48" height="48" rx="8" fill="#17D6C1" fill-opacity="0.1"/>
<path d="M6.44918 16.469C6.65811 16.2047 6.93291 16.0174 7.21907 15.863C8.05482 15.3894 8.86862 14.8163 9.88078 14.772C10.6068 14.739 11.3324 14.6726 12.0474 14.5186C12.3002 14.4636 12.5754 14.5406 12.8063 14.662C13.477 15.0257 14.1701 14.9597 14.8741 14.8383C15.479 14.728 16.0729 14.5406 16.6887 14.4746C17.2277 14.4197 17.7444 14.3753 18.1736 14.8163C18.3387 14.9927 18.5915 15.0147 18.8224 14.9817C19.7683 14.8273 20.7252 14.7724 21.6711 14.651C22.7601 14.5186 23.6287 13.9456 24.3108 13.0973C24.6519 12.6786 25.0149 12.2819 25.2677 11.7968C25.4218 11.5105 25.4327 11.2568 25.2348 10.9595C24.421 9.75846 25.1246 9.17443 26.3238 8.98709C26.9177 8.89911 27.1156 9.06407 27.3355 9.6261C27.7863 10.7722 28.3583 11.8852 28.7871 13.0423C28.9631 13.5049 29.1611 13.946 29.3151 14.4087C29.8981 16.0728 30.6241 17.6815 31.5037 19.2022C32.6476 21.1746 33.9784 23.0261 35.5511 24.7008C36.2881 25.4831 36.8271 26.4089 37.1348 27.4556C37.2669 27.9072 37.4759 28.3259 37.7507 28.7116C38.3775 29.5819 38.9275 30.4966 39.3673 31.4774C39.5982 31.9954 39.9173 32.4581 40.2693 32.8877C40.6433 33.3394 40.8083 33.8574 40.9181 34.4305C41.0502 35.1688 41.1929 35.9182 41.4571 36.6342C41.501 36.7666 41.5782 36.8875 41.5449 37.0419C41.4128 37.2952 41.2258 37.5155 41.0278 37.7363C40.236 38.64 39.8071 38.8933 38.6962 38.5076C38.6633 38.4966 38.6413 38.4966 38.6084 38.4857C38.1576 38.2983 37.6735 38.4857 37.2227 38.3643C36.8048 38.2539 36.4198 38.3313 36.0239 38.4637C35.7711 38.5516 35.5068 38.5516 35.2321 38.4966C34.913 38.4307 34.6162 38.2653 34.2752 38.2983C34.0114 38.3203 33.7914 38.2213 33.5821 38.067C32.9882 37.6263 32.6143 37.7363 32.3834 38.4197C32.2183 38.9043 31.7785 39.1361 31.2944 38.9927C31.0964 38.9377 30.8985 38.8493 30.7005 38.8054C30.5903 38.7834 30.4806 38.695 30.3594 38.7834C30.2383 38.541 29.9416 38.585 29.7656 38.4417C29.3477 38.111 28.8636 37.979 28.3579 38.023C27.7859 38.067 27.412 37.7917 27.1482 37.3286C27.038 37.1413 26.8843 37.0309 26.6644 37.0533C26.3453 37.0863 26.0266 37.0093 25.7185 36.9209C25.5206 36.8659 25.3336 36.7776 25.2897 36.5242C25.2458 36.2599 25.3998 36.1386 25.5754 36.0172C25.6193 35.9952 25.6632 35.9622 25.7075 35.9512C25.7734 35.9182 25.7844 35.8632 25.7734 35.8079C25.7624 35.7309 25.6966 35.7309 25.6303 35.7309C25.2783 35.7419 24.9263 35.6869 24.5746 35.6205C23.9588 35.5101 23.3759 35.6645 22.8369 35.9732C22.3971 36.2265 21.9682 36.2155 21.5833 35.8518C21.4731 35.7415 21.3743 35.6095 21.2752 35.4882C21.1321 35.3118 20.9561 35.3228 20.7914 35.4222C20.4723 35.6315 20.2744 35.9182 20.2634 36.3039C20.2634 36.4693 20.1975 36.5902 20.0764 36.6896C19.7793 36.8989 19.4386 36.8549 19.1085 36.8549C18.8557 36.8549 18.6025 36.7556 18.4817 36.5242C18.3496 36.2819 18.196 36.3259 17.9866 36.3809C17.6017 36.4912 17.2058 36.6232 16.8098 36.6672C16.4468 36.7112 16.0619 36.7886 15.7099 36.5678C15.5997 36.3805 15.5778 36.1821 15.633 35.9618C15.6879 35.7415 15.6879 35.4991 15.633 35.2784C15.5562 34.9367 15.6111 34.6504 15.82 34.3747C15.996 34.1434 16.1611 33.901 16.381 33.7137C16.9968 33.2066 17.2167 32.5017 17.3818 31.7853C17.4919 31.3006 17.6566 30.8705 18.0305 30.5512C18.1297 30.4633 18.2175 30.3749 18.3053 30.2759C18.6134 29.9342 18.5362 29.5815 18.0964 29.4496C17.6346 29.3172 17.1724 29.1852 16.7875 28.8875C16.4245 28.6012 15.9847 28.5128 15.5558 28.4029C15.4347 28.3699 15.3249 28.3369 15.2148 28.2925C14.5327 28.0172 14.038 27.1684 14.203 26.3861C14.2579 26.1438 14.3022 25.9014 14.3571 25.6587C14.4229 25.339 14.5002 25.0197 14.401 24.678C14.3241 24.4137 14.4668 24.1819 14.731 24.083C14.929 24.017 15.116 23.9286 15.303 23.8187C15.6989 23.5763 15.842 23.1133 15.633 22.8379C15.3473 22.4413 14.9953 22.1436 14.5331 21.9562C13.851 21.6809 13.3892 21.2178 13.3563 20.4245C13.3343 20.0278 13.1144 19.7525 12.7185 19.6641C12.5315 19.6201 12.3445 19.5761 12.1795 19.5097C11.8604 19.3884 11.5527 19.201 11.5088 18.8154C11.4429 18.2863 11.4539 18.2863 10.9368 18.3857C10.86 18.3967 10.7828 18.4407 10.7059 18.4297C10.2771 18.3747 9.92507 18.4517 9.70516 18.8703C9.65028 18.9697 9.52915 19.0247 9.43036 19.1017C9.05639 19.3994 8.58364 19.344 8.30845 18.9473C7.84667 18.2863 7.39547 17.6139 6.73573 17.1183C6.52679 16.9309 6.42762 16.7216 6.44996 16.4683L6.44918 16.469Z" fill="#17D6C1"/>
</svg>
