<svg width="48" height="48" viewBox="0 0 48 48" fill="none" xmlns="http://www.w3.org/2000/svg">
<rect width="48" height="48" rx="8" fill="#A5B4FC" fill-opacity="0.1"/>
<path d="M33.7069 34.8419C33.6205 34.8419 36.0897 30.3633 36.6072 29.2717C37.1237 28.1811 37.2965 28.3818 37.2965 27.6349C37.2965 26.888 37.3829 26.4579 37.67 26.1132C37.957 25.7686 38.4447 25.2232 38.4447 25.2232C38.4447 25.2232 37.6124 24.1893 36.8078 24.075C36.0043 23.9598 35.3438 23.788 35.0855 23.5585C34.8273 23.3291 34.3386 22.755 33.9661 22.755C33.5936 22.755 33.0474 23.042 32.6739 22.9844C32.3004 22.9268 32.5021 22.3815 32.6739 22.0081C32.8457 21.6346 33.1328 20.8599 32.8457 20.7447C32.5587 20.6294 31.9558 20.6294 32.0422 20.4576C32.1286 20.2858 32.7603 20.0553 32.7603 19.7683C32.7603 19.4812 32.1574 18.7919 32.3868 18.2178C32.6163 17.6437 32.7315 17.2703 33.1616 17.1272C33.5927 16.9832 33.994 17.1848 34.138 16.6962C34.281 16.2085 34.425 15.1169 34.3386 15.0305C34.2522 14.9441 33.5063 14.6858 33.3334 14.4276C33.1616 14.1693 32.9888 13.5376 32.9024 13.4224C32.816 13.3072 32.2995 13.3936 31.7542 13.3936C31.2089 13.3936 30.9794 12.9626 30.9794 12.7331C30.9794 12.5037 30.9506 10.9244 30.7788 10.5797C30.6069 10.2351 30.3765 10.4357 29.8024 10.4357C29.2283 10.4357 28.9413 10.4357 28.5102 10.6364C28.0791 10.837 26.9885 10.4069 27.218 9.83282C27.4474 9.25872 27.6202 9.02927 27.5338 8.82766C27.4474 8.62701 26.5863 8.77005 26.3856 8.94286C26.185 9.11471 25.7539 8.71341 25.7539 8.59821C25.7539 8.483 25.151 8.33996 25.1222 8.65581C25.0934 8.97166 25.151 9.31632 25.1222 9.51697C25.0934 9.71762 25.3517 9.97683 24.8928 9.89042C24.4329 9.80402 22.4523 8.88526 22.4235 8.48396C22.3947 8.0817 22.0213 7.39335 21.9358 7.30695C21.8494 7.22055 20.6724 6.79045 20.9307 6.41699C20.9307 6.41699 20.2702 7.22727 20.4497 7.66505C20.6292 8.10283 20.2058 8.75565 20.2058 8.75565C20.2058 8.75565 18.8061 9.75314 18.6343 10.1122C18.4624 10.4712 18.5046 10.8303 18.448 11.0022C18.3904 11.174 17.4428 12.1072 17.0415 12.7245C16.6393 13.3418 16.2236 13.313 15.8069 13.313C15.3903 13.313 15.0312 13.3274 14.9314 13.5136C14.8306 13.6999 15.0034 14.7914 14.9314 14.9777C14.8594 15.1639 14.7595 18.9686 14.7739 19.8153C14.7883 20.6621 14.6443 20.7053 15.7503 21.5232C16.8563 22.3412 18.3491 23.2033 18.5066 23.3032C18.665 23.404 18.7792 23.5182 19.1095 23.4606C19.4397 23.403 19.9994 22.5563 19.985 22.4842C19.9706 22.4122 19.7556 22.2682 20.1569 22.3114C20.5591 22.3546 21.0036 22.3114 21.018 22.2404C21.0324 22.1684 20.6158 21.8669 21.018 21.3216C21.4203 20.7763 21.6497 20.5747 21.9224 20.5603C22.195 20.5459 23.013 20.6477 23.0706 20.6256C23.1282 20.6035 23.5161 21.0922 23.5161 21.5655C23.5161 22.0388 23.7455 22.3834 23.8319 22.4122C23.9183 22.441 23.8607 22.8721 23.7887 23.4462C23.7167 24.0203 23.8175 24.1931 24.0758 24.1499C24.334 24.1067 24.406 23.4462 24.8083 23.7765C25.2105 24.1067 24.9235 24.724 24.7507 24.9823C24.5788 25.2405 24.7795 25.757 24.8227 25.8002C24.8659 25.8434 24.4636 26.6758 24.0335 26.863C23.6025 27.0492 23.445 26.719 23.1148 27.0492C22.7845 27.3795 22.4687 27.4659 22.3967 27.3795C22.3247 27.2931 22.0376 26.7046 22.0376 26.7046C22.0376 26.7046 21.5355 26.4751 21.3051 26.719C21.0756 26.9628 20.0561 27.6234 19.841 27.5225C19.626 27.4217 19.0663 27.2355 19.0797 26.9052C19.0941 26.575 18.592 26.3599 18.2762 26.2591C17.9603 26.1583 17.9027 25.8281 17.9027 25.47C17.9027 25.1119 17.2566 24.8095 17.1279 24.4792C16.9983 24.149 16.6402 23.6757 16.8553 23.5029C17.0703 23.331 17.2287 23.259 16.6546 22.8423C16.0805 22.4257 14.6165 21.2784 14.2286 20.6246C13.8408 19.9709 14.2286 19.8701 14.2286 19.3392C14.2286 18.8083 14.3726 18.0037 13.956 18.0469C13.5393 18.0901 13.8408 18.406 13.2667 18.5634C12.6926 18.7209 12.5341 18.5634 12.1328 18.4338C11.7306 18.3042 11.3859 18.2044 11.3725 18.3762C11.3581 18.5481 11.2861 20.7303 11.6739 21.3053C12.0618 21.8794 12.0618 22.827 12.7367 22.9422C13.4116 23.0574 13.9281 23.2868 13.9281 23.2868C13.9281 23.2868 14.0001 24.076 14.3016 24.0904C14.603 24.1048 15.5362 24.1912 15.6802 24.2766C15.8242 24.3631 16.3263 25.2962 16.3263 25.7839C16.3263 26.2716 16.814 26.7747 16.958 26.8601C17.102 26.9465 16.814 28.0371 16.4838 28.2243C16.1535 28.4106 15.9817 28.5114 16.0537 28.8128C16.1257 29.1143 16.2687 30.1051 16.2831 30.2193C16.2975 30.3345 16.455 30.636 17.0156 30.6504C17.5753 30.6648 17.6473 30.78 17.6905 30.851C17.7337 30.923 18.3222 31.1813 18.4086 31.2821C18.495 31.3829 18.6525 31.7986 18.3942 31.813C18.136 31.8274 17.4467 31.2533 17.3747 31.3109C17.3027 31.3685 17.1884 32.2008 17.0156 32.4159C16.8438 32.6309 16.6854 33.0476 16.5135 32.7029C16.3417 32.3583 15.997 31.956 15.9106 31.9416C15.8242 31.9272 14.8344 31.7554 14.7192 31.9416C14.604 32.1279 14.7624 32.8172 14.9342 32.9324C15.1061 33.0476 14.748 33.1618 14.5464 33.5209C14.3457 33.8799 13.9435 34.2956 14.2737 34.2956C14.604 34.2956 15.0629 34.2524 15.0629 34.2524C15.0629 34.2524 14.6606 34.4108 14.603 34.6835C14.5454 34.9561 14.3016 35.2576 14.6894 35.2C15.0773 35.1424 15.4076 34.6259 15.7522 34.4252C16.0969 34.2246 16.1833 34.1094 16.5846 34.0518C16.9868 33.9942 17.4601 33.8799 17.6473 34.0518C17.8336 34.2236 18.0784 34.3964 17.5897 34.8553C17.102 35.3152 16.4415 35.4295 16.4271 35.4727C16.4127 35.5159 16.3983 36.018 16.4415 36.1908C16.4847 36.3626 16.4415 36.7505 16.3839 36.8945C16.3263 37.0385 16.1977 37.2535 16.4127 37.483C16.6278 37.7124 17.1164 38.0427 17.4179 37.842C17.7193 37.6414 18.0208 37.3255 18.2934 36.8801C18.5661 36.4346 18.5373 36.1908 18.6813 36.2916C18.8253 36.3924 19.0115 36.8081 19.0115 37.0097C19.0115 37.2113 19.1978 37.555 19.1978 37.5982C19.1978 37.6414 17.9056 37.9572 17.6761 38.1435C17.4467 38.3297 17.0444 38.5601 17.0588 38.66C17.0732 38.7608 18.8963 40.3113 18.9539 40.3679C19.0115 40.4255 19.2986 40.4687 19.6289 40.3679C19.9591 40.2671 20.634 39.9945 20.7195 39.3627C20.8059 38.731 20.9345 38.444 20.9921 38.4008C21.0497 38.3576 21.308 37.8987 21.6382 38.0417C21.9685 38.1857 22.5858 38.5726 22.3275 38.8165C22.0693 39.0603 21.4088 38.9739 21.308 39.0747C21.2072 39.1755 21.1361 39.2466 21.1505 39.6488C21.1649 40.0511 20.7195 40.6828 20.6907 40.7538C20.6619 40.8258 20.7463 41.1129 20.898 41.2559C21.0497 41.4 21.7102 41.5142 22.1979 41.2559C22.6856 40.9977 23.2031 40.6674 23.5189 40.5378C23.8348 40.4082 24.5241 40.4514 24.7248 40.6098C24.9254 40.7673 25.7875 41.2761 26.0026 41.4095C26.2176 41.543 26.5479 41.5574 26.8493 41.5286C27.1508 41.4998 27.6673 41.3279 27.6673 41.3279C27.6673 41.3279 28.9019 41.2415 29.0449 40.8681C29.1889 40.4946 29.2312 40.15 29.332 39.9493C29.4328 39.7487 30.1788 39.2312 30.366 38.973C30.5522 38.7147 30.7106 38.0974 30.9401 38.1406C31.1695 38.1838 31.3423 38.4277 31.5718 38.3701C31.8012 38.3125 32.0028 38.155 32.1315 37.9102C32.2611 37.6663 32.8784 36.3165 32.9926 36.0727C33.1078 35.8288 33.2653 35.9719 33.5235 35.8C33.7818 35.6282 33.8538 35.369 33.8826 35.2547C33.9114 35.1395 33.7107 34.8313 33.7107 34.8313L33.7069 34.8419Z" fill="#A5B4FC"/>
</svg>
