<svg width="48" height="48" viewBox="0 0 48 48" fill="none" xmlns="http://www.w3.org/2000/svg">
<rect width="48" height="48" rx="8" fill="#FF77A2" fill-opacity="0.1"/>
<path d="M15.3251 37.6232C15.4503 37.3366 15.3786 37.0678 15.1999 36.8351C14.8067 36.3157 14.4222 35.7871 13.9752 35.3125C13.841 35.1691 13.7964 34.99 13.7608 34.7931C13.6534 34.3184 13.582 33.8259 13.2602 33.4227C13.1796 33.3241 13.1439 33.2168 13.0904 33.1093C13.2246 33.0556 13.3676 33.0017 13.4211 32.8494C13.5642 32.4373 13.7697 32.0702 14.0201 31.721C14.1988 31.4791 14.2434 31.1838 14.0647 30.8882C13.9841 30.7538 13.8503 30.6284 13.8681 30.4582C13.9038 30.1179 13.7518 29.8313 13.6177 29.5357C13.5371 29.3477 13.5193 29.1507 13.582 28.9895C13.7786 28.5059 13.886 27.9955 14.0736 27.5208C14.324 26.8939 14.6548 26.3027 14.9498 25.6937C15.0211 25.5504 15.1196 25.5057 15.2805 25.4789C15.5755 25.4342 15.8973 25.4163 16.085 25.1118C16.228 24.8791 16.4157 24.6907 16.6393 24.5474C16.7378 24.4848 16.7645 24.4041 16.7824 24.2876C16.8448 23.9384 16.8002 23.5981 16.7824 23.2485C16.9076 23.2753 16.863 23.374 16.8719 23.4455C16.8808 23.6424 16.8987 23.8394 16.8719 24.0277C16.8094 24.3769 16.9703 24.5832 17.265 24.7172C17.3457 24.753 17.4259 24.8159 17.4438 24.9052C17.4884 25.1201 17.6671 25.1651 17.828 25.183C17.9621 25.2008 18.0874 25.2455 18.1855 25.3173C18.3999 25.4696 18.6236 25.5232 18.8737 25.4875C19.1954 25.4428 19.3653 25.6397 19.5083 25.8635C19.6068 26.0247 19.7138 26.1859 19.8747 26.2667C20.402 26.5265 20.402 27.0548 20.25 27.458C20.107 27.8429 20.2589 28.0491 20.6703 28.076C21.1529 28.1117 21.6445 28.1385 22.0648 28.4073C22.4312 28.64 22.7619 28.64 23.1286 28.4341C23.4058 28.2818 23.7721 28.264 23.942 27.9237C24.0226 27.9148 24.1118 27.9326 24.1835 27.9684C24.273 28.1832 24.3444 28.3984 24.4696 28.6042C24.6037 28.8191 24.8003 28.9535 25.0058 29.07C25.0325 29.0878 25.0864 29.0878 25.1221 29.07C25.5958 28.873 26.0161 28.9985 26.427 29.2491C26.5166 29.3027 26.6147 29.3745 26.731 29.3834C26.9543 29.4013 27.1512 29.3924 27.321 29.1954C27.4998 28.9806 27.7591 28.8194 27.9914 28.6939C28.2686 28.5506 28.5993 28.4341 28.9567 28.5685C29.1712 28.6493 29.4305 28.6311 29.6271 28.7923C29.7434 29.025 29.7255 29.258 29.6092 29.4728C29.5286 29.6251 29.5825 29.7416 29.6717 29.8488C29.8415 30.0547 30.047 30.2159 30.3242 30.2699C30.4761 30.2967 30.6281 30.3685 30.6995 30.5026C30.789 30.6906 30.8961 30.8697 31.0123 31.0398C31.1643 31.2636 31.3431 31.4519 31.6292 31.5413C32.0851 31.6846 32.3173 31.8548 32.2817 32.4009C32.0583 32.6068 31.8436 32.8309 31.6113 33.0279C31.3074 33.2877 30.9677 33.431 30.5564 33.2966C30.3688 33.2341 29.9575 33.4489 29.8323 33.6101C29.6803 33.8071 29.6892 34.0758 29.5105 34.2728C29.2782 34.5147 28.9561 34.5773 28.6882 34.7475C28.5808 34.819 28.5183 34.8818 28.4827 35.0162C28.4381 35.1774 28.4202 35.3654 28.295 35.4909C27.9019 35.7597 27.4638 35.6878 27.0346 35.6521C26.9451 35.6432 26.8737 35.661 26.8024 35.6789C26.4627 35.7686 26.1766 35.661 25.989 35.3565C25.9533 35.2939 25.9354 35.2132 25.837 35.2221C25.4528 35.24 25.2826 34.9712 25.1128 34.7028C25.0771 34.6402 25.0415 34.5773 24.9965 34.5147C24.9519 34.4522 24.943 34.3089 24.8356 34.3446C24.7015 34.3804 24.6926 34.5416 24.7193 34.6313C24.7818 34.864 24.8178 35.088 24.764 35.3297C24.755 35.3744 24.7907 35.4373 24.8175 35.482C24.9248 35.6968 24.8442 35.8401 24.612 35.8222C24.3259 35.7954 24.0309 35.7507 23.7451 35.6968C23.5396 35.661 23.3787 35.6432 23.2891 35.9027C23.2178 36.1175 23.0209 36.2161 22.8065 36.2698C22.6545 36.3055 22.4936 36.3323 22.4758 36.5296C22.5653 36.5743 22.6456 36.5385 22.7351 36.5207C23.039 36.4581 23.2535 36.5654 23.3519 36.8252C23.4325 37.0221 23.3519 37.2191 23.0747 37.3535C22.8425 37.47 22.8154 37.6044 22.9406 37.8103C23.003 37.9178 23.0569 38.0251 23.0926 38.1416C23.2356 38.5805 22.9584 38.8582 22.601 39.0284C22.2881 39.1806 21.9128 38.9476 21.7876 38.5716C21.7787 38.5448 21.7697 38.5269 21.7608 38.5001C21.6952 38.2554 21.5432 38.1778 21.3049 38.2674C21.0456 38.366 20.7955 38.3389 20.5718 38.1687C20.4109 38.0522 20.3303 38.079 20.2946 38.2763C20.25 38.509 20.107 38.6166 19.8655 38.6166C19.5615 38.6166 19.2843 38.5808 19.0878 38.3031C18.9982 38.1777 18.8373 38.1956 18.7125 38.1777C18.2298 38.1151 18.1224 38.0075 18.0421 37.5418C17.9707 37.1658 18.0243 36.8162 18.1941 36.476C18.2119 36.4492 18.2298 36.4223 18.2387 36.3863C18.2565 36.2966 18.3639 36.1804 18.2476 36.1354C18.1046 36.0817 17.9972 36.1979 17.9704 36.3323C17.9437 36.431 17.9615 36.5382 17.9615 36.6458C17.9526 37.0847 17.6397 37.3263 17.2284 37.192C17.0408 37.1294 16.9334 37.1205 16.8442 37.3532C16.6654 37.7742 16.4778 37.8457 16.0308 37.7113C15.9234 37.6756 15.8253 37.6845 15.7179 37.6934C15.5749 37.7113 15.4318 37.7292 15.3248 37.6216L15.3251 37.6232Z" fill="#FF77A2"/>
<path d="M32.2909 32.4202C32.3266 31.8741 32.0944 31.7036 31.6385 31.5606C31.3523 31.4709 31.1736 31.2829 31.0216 31.0591C30.9054 30.889 30.8072 30.7099 30.7088 30.5219C30.6374 30.3786 30.4854 30.316 30.3335 30.2892C30.0563 30.2355 29.8597 30.0743 29.681 29.8681C29.5914 29.7606 29.5379 29.6444 29.6185 29.4921C29.7348 29.2773 29.7527 29.0443 29.6364 28.8116C29.6453 28.7847 29.6453 28.749 29.6542 28.7219C29.7256 28.7308 29.7348 28.6861 29.7348 28.6232C29.9942 28.4978 30.307 28.471 30.4679 28.1664C30.5393 28.041 30.5036 27.9155 30.5125 27.7904C30.5125 27.656 30.5393 27.5756 30.7002 27.5395C30.8789 27.5037 31.0487 27.3962 31.2185 27.3068C31.317 27.2532 31.424 27.2353 31.5225 27.271C31.7547 27.3518 31.9784 27.4591 32.2017 27.5488C32.2823 27.5845 32.2642 27.6474 32.2823 27.71C32.4165 28.0413 32.6666 28.3995 33.0957 28.1578C33.1582 28.1221 33.2388 28.1399 33.3102 28.131C33.5157 28.1042 33.7215 28.1578 33.927 28.0595C33.9983 28.0237 34.1146 28.0416 34.2131 28.0863C34.3918 28.176 34.5616 28.1578 34.7225 28.0327C34.8923 28.0774 34.9997 28.176 35.0532 28.3461C35.223 28.8476 35.2409 29.3134 34.8299 29.7344C34.5259 30.0479 34.4096 30.0568 34.1328 29.6808C34.1952 30.2719 33.8645 30.7287 33.7664 31.2481C33.7307 31.4182 33.7575 31.6062 33.7396 31.7853C33.7129 32.2421 33.5609 32.4301 33.1317 32.5645C33.0604 32.5824 32.9887 32.6003 32.9262 32.6271C32.7118 32.5556 32.4882 32.5374 32.2916 32.4212L32.2909 32.4202Z" fill="#FF77A2"/>
<path d="M32.2909 32.4202C32.4875 32.5368 32.7111 32.5546 32.9256 32.6172C32.9166 32.7158 32.8542 32.7963 32.8093 32.886C32.7019 33.0919 32.6127 33.307 32.5678 33.5397C32.4693 34.1041 32.0227 34.7846 31.3163 34.7578C31.1287 34.7489 31.0213 34.8654 31.0124 35.0623C31.0035 35.2504 30.941 35.4294 30.8158 35.5728C30.7173 35.6893 30.5835 35.7697 30.4316 35.725C30.1544 35.6353 29.9489 35.7697 29.7434 35.9041C29.6539 35.9667 29.5736 36.0385 29.484 36.0742C29.3499 36.1368 29.1979 36.1189 29.1266 35.9756C29.0192 35.7518 28.8405 35.7068 28.6171 35.7247C28.4562 35.7336 28.331 35.6711 28.2864 35.5009C28.4206 35.3666 28.4295 35.1875 28.4741 35.0263C28.5098 34.8919 28.5725 34.8293 28.6796 34.7575C28.9478 34.5963 29.2696 34.5337 29.5019 34.2828C29.6806 34.0948 29.6717 33.826 29.8237 33.6202C29.9489 33.459 30.351 33.2441 30.5479 33.3067C30.9592 33.4411 31.2988 33.2888 31.6027 33.0379C31.8532 32.8499 32.0676 32.6258 32.2909 32.4199V32.4202Z" fill="#FF77A2"/>
<path d="M26.6864 37.5162C26.6686 37.5969 26.6775 37.7489 26.6058 37.8564C26.436 38.152 26.4806 38.4476 26.5523 38.7521C26.6597 39.2447 26.4899 39.6389 26.0429 39.8984C25.9355 39.961 25.9444 40.0507 25.9355 40.1493C25.8998 40.4985 25.7746 40.7941 25.4261 40.9464C25.1667 41.054 25.0058 40.9911 24.9166 40.7226C24.8809 40.615 24.8271 40.5435 24.7379 40.4807C24.4785 40.3016 24.4518 40.1314 24.6484 39.8716C24.684 39.8269 24.7197 39.7819 24.7557 39.7372C24.7914 39.6925 24.8182 39.6386 24.7914 39.576C24.7557 39.5045 24.693 39.5403 24.6394 39.5492C24.3979 39.576 24.1657 39.5671 23.9513 39.4595C23.6473 39.2983 23.567 39.0206 23.7725 38.7521C23.9959 38.4565 24.3358 38.1431 24.8363 38.3222C24.9077 38.349 25.0061 38.4029 25.0597 38.3222C25.1043 38.2596 25.0418 38.1878 25.0151 38.1163C24.872 37.7402 25.024 37.3907 25.4175 37.2656C25.6408 37.1941 25.7928 37.0865 25.8734 36.8535C25.9718 36.5668 26.1684 36.5311 26.4007 36.7191C26.624 36.8982 26.6778 37.1669 26.6868 37.5162H26.6864Z" fill="#FF77A2"/>
<path d="M15.8702 39.9787C15.888 39.7278 15.8434 39.4951 15.745 39.2621C15.6108 38.9307 15.6108 38.5726 16.0222 38.3753C16.1206 38.3306 16.1741 38.2409 16.2455 38.1605C16.4332 37.9367 16.6297 37.8738 16.8445 37.9814C17.05 38.08 17.1663 38.3664 17.1038 38.6083C17.0681 38.7338 17.0143 38.8503 16.9697 38.9754C16.8623 39.2621 16.9608 39.468 17.2469 39.5666C17.4078 39.6202 17.5687 39.6381 17.7474 39.6202C17.9529 39.5934 18.1676 39.5755 18.3731 39.6202C18.7038 39.701 18.8112 39.8801 18.7038 40.1935C18.6232 40.4262 18.5786 40.6414 18.6143 40.9009C18.6767 41.268 18.239 41.5457 17.8455 41.4202C17.5594 41.3216 17.3628 41.1336 17.3004 40.8201C17.2379 40.5156 17.1395 40.4709 16.8623 40.6142C16.7999 40.65 16.7371 40.6857 16.6747 40.7308C16.3083 40.9727 15.9326 40.8205 15.8523 40.3905C15.8523 40.2561 15.8702 40.1217 15.8702 39.9784V39.9787Z" fill="#FF77A2"/>
<path d="M25.0953 7.74643C25.1938 7.67493 25.283 7.74643 25.3725 7.76431C25.5334 7.80006 25.6943 7.87188 25.8552 7.91657C26.2576 8.03309 26.6061 7.84507 26.7402 7.45084C26.9279 6.90468 27.2318 6.81498 27.7145 7.16419C27.8843 7.28964 28.0631 7.37009 28.2778 7.35221C28.555 7.3254 28.7962 7.46872 29.0555 7.51341C29.2788 7.5581 29.4936 7.5581 29.6991 7.4866C30.0209 7.37008 30.3337 7.31646 30.6734 7.40584C31.0398 7.50447 31.4332 7.35221 31.7996 7.50447C31.8175 7.51341 31.8442 7.51341 31.871 7.52235C32.7739 7.84475 33.1224 7.62992 33.766 6.89542C33.918 6.71634 34.0789 6.5462 34.1863 6.33105C34.365 6.49226 34.4724 6.71602 34.6065 6.9133C34.6779 7.02087 34.6511 7.16419 34.5886 7.28932C34.4813 7.53129 34.4634 7.7908 34.508 8.05064C34.5259 8.14034 34.5348 8.22972 34.5259 8.31942C34.4724 8.99997 34.6689 9.6269 34.9461 10.2449C35.2857 11.0151 35.3125 11.7943 34.9104 12.5646C34.7852 12.8066 34.6689 13.0571 34.6243 13.3348C34.553 13.7198 34.6422 14.114 34.6511 14.499C34.6689 15.0991 34.7317 15.6992 34.7763 16.299C34.7941 16.5767 34.7139 16.8363 34.5708 17.0604C34.2669 17.544 34.1777 18.0812 34.1417 18.6366C34.1238 18.9054 34.1149 19.1738 34.097 19.4426C34.0792 19.7203 34.1417 19.962 34.2936 20.195C34.5351 20.5621 34.6422 20.9653 34.4456 21.3952C34.4278 21.431 34.4099 21.4667 34.3831 21.5028C34.1598 21.7895 34.1687 21.9328 34.4367 22.1923C34.5351 22.2909 34.6511 22.3714 34.7495 22.4611C34.8209 22.5236 34.8748 22.4968 34.9461 22.4611C35.1427 22.3446 35.3214 22.2102 35.4466 22.0132C35.5718 21.8341 35.7238 21.6729 35.9026 21.5475C36.153 21.3595 36.3496 21.422 36.4388 21.7176C36.5551 22.1208 36.4566 22.4879 36.26 22.8371C36.0456 23.231 35.813 23.6074 35.7238 24.0552C35.6703 24.324 35.6971 24.5924 35.6703 24.8523C35.5718 25.7119 35.295 26.5182 34.9821 27.3242C34.8926 27.5569 34.8123 27.79 34.7228 28.0316C34.5619 28.1571 34.3921 28.1749 34.2133 28.0852C34.1238 28.0405 34.0078 28.0137 33.9272 28.0584C33.7307 28.166 33.5159 28.1121 33.3104 28.1299C33.2391 28.1389 33.1584 28.121 33.096 28.1567C32.6668 28.3987 32.4167 28.0313 32.2826 27.7089C32.2559 27.6553 32.2826 27.5834 32.202 27.5477C31.9698 27.458 31.755 27.3507 31.5228 27.27C31.4243 27.2342 31.3173 27.2521 31.2188 27.3057C31.049 27.3954 30.8792 27.4937 30.7004 27.5384C30.5396 27.5742 30.5128 27.6549 30.5128 27.7893C30.5128 27.9148 30.5396 28.0402 30.4682 28.1654C30.3073 28.4699 29.9944 28.5056 29.7351 28.6221C29.6637 28.6132 29.6366 28.649 29.6545 28.7208C29.6456 28.7476 29.6456 28.7833 29.6366 28.8105C29.4401 28.6493 29.1807 28.6672 28.9663 28.5867C28.6088 28.4523 28.2781 28.5688 28.0009 28.7122C27.7687 28.8287 27.5093 28.9899 27.3306 29.2136C27.1697 29.4195 26.9642 29.4195 26.7406 29.4017C26.6243 29.3927 26.5261 29.3209 26.4366 29.2673C26.0253 29.0253 25.6054 28.9002 25.1316 29.0882C25.0959 29.1061 25.0421 29.1061 25.0153 29.0882C24.8098 28.9717 24.6129 28.8373 24.4791 28.6225C24.3539 28.4255 24.2915 28.2014 24.193 27.9866C24.8544 27.3775 25.2119 26.6612 24.899 25.7208C25.1224 25.8731 25.0956 26.0969 25.1584 26.2852C25.2925 26.6973 25.6232 26.7956 25.9718 26.5272C26.3203 26.2495 26.3742 25.8556 26.3742 25.4524C26.3742 25.1747 26.4455 24.942 26.6603 24.7629C26.8212 24.6285 26.8836 24.4584 26.8836 24.2435C26.8836 24.0287 26.8568 23.8225 26.7495 23.6345C26.687 23.5359 26.6781 23.4286 26.696 23.3031C26.7944 22.8285 26.3474 22.2731 25.8558 22.2641C25.4534 22.2552 25.0424 22.2552 24.64 22.3177C23.9518 22.4074 23.755 22.667 23.8712 23.3478C23.8891 23.4286 23.8891 23.518 23.8445 23.5805C23.6925 23.8404 23.4781 24.082 23.5405 24.4223C23.5405 24.4312 23.5316 24.4491 23.5138 24.467C23.2277 24.7268 23.2815 25.0314 23.3975 25.3448C23.4688 25.5328 23.451 25.6762 23.2723 25.8105C23.0219 25.9986 22.9683 26.2316 23.0935 26.5272C23.1471 26.6526 23.1381 26.7241 23.04 26.8228C22.7985 27.0737 22.8434 27.3961 23.1206 27.593C23.2904 27.7185 23.4959 27.7542 23.6928 27.79C23.8091 27.8078 23.8894 27.8525 23.9522 27.9512C23.7824 28.2825 23.416 28.3004 23.1388 28.4616C22.7724 28.6675 22.4328 28.6675 22.075 28.4348C21.6547 28.166 21.1631 28.1392 20.6805 28.1034C20.2691 28.0766 20.1172 27.8615 20.2602 27.4854C20.4033 27.0915 20.4033 26.5629 19.8849 26.2941C19.7151 26.2134 19.6166 26.0432 19.5185 25.891C19.3755 25.6583 19.1967 25.4699 18.8839 25.515C18.6424 25.5507 18.4101 25.4971 18.1957 25.3448C18.0972 25.2733 17.9813 25.2283 17.8382 25.2104C17.6773 25.1926 17.4986 25.1479 17.454 24.9327C17.4361 24.843 17.3555 24.7894 17.2753 24.7447C16.9802 24.6103 16.8193 24.4044 16.8821 24.0552C16.9178 23.8672 16.891 23.6702 16.8821 23.473C16.8821 23.4015 16.9178 23.3028 16.7926 23.276C16.6941 23.0701 16.6049 22.855 16.5692 22.6312C16.5871 22.5058 16.6588 22.4253 16.7836 22.3985C16.8999 22.3717 16.9535 22.282 16.9802 22.1747C17.0516 21.8791 17.1768 21.6014 17.3109 21.333C17.4005 21.1539 17.5075 20.9838 17.4005 20.7507C17.302 20.5448 17.4811 20.3476 17.7133 20.3476C17.7939 20.3476 17.8742 20.3565 17.9548 20.3386C18.1246 20.3208 18.2766 20.1238 18.2052 19.9716C18.1517 19.855 18.1606 19.7388 18.1517 19.6134C18.116 19.2284 17.8389 18.9775 17.4814 19.094C17.1864 19.1927 17.0255 19.0672 16.8646 18.8881C16.6412 18.6283 16.3641 18.6372 16.069 18.7359C15.9884 18.7627 15.9081 18.8166 15.8457 18.727C15.7832 18.6373 15.7472 18.5389 15.8189 18.4314C15.8995 18.3148 15.9887 18.1987 16.0693 18.0821C16.1946 17.8941 16.2748 17.7061 16.1318 17.4731C16.0693 17.3745 16.0244 17.2404 16.0512 17.1328C16.1853 16.5956 16.1764 16.0312 16.3997 15.5119C16.4893 15.306 16.4087 15.1358 16.2656 14.9836C16.0958 14.7956 15.8814 14.7059 15.6666 14.5897C15.4701 14.4821 15.4522 14.4195 15.6399 14.3298C15.926 14.1776 16.0779 13.9359 16.221 13.6493C16.3462 13.3984 16.4443 13.112 16.7394 12.9866C16.784 12.9866 16.8378 12.9955 16.8735 12.9508C16.9809 12.7986 17.1418 12.7896 17.3026 12.7986C17.5888 12.8075 17.8749 12.8075 18.1517 12.8075C18.3572 12.8075 18.679 12.4494 18.5987 12.2971C18.42 11.9658 18.572 11.7149 18.715 11.4464C18.9027 11.4285 19.0725 11.3478 19.2066 11.2226C19.3675 11.0793 19.5462 11.0167 19.761 11.0525C20.0917 11.1151 20.351 10.9989 20.5565 10.7301C20.7531 10.4792 20.9229 10.5153 21.0749 10.8016C21.2715 11.1866 21.5219 11.4911 22.0224 11.4375C22.1744 11.4196 22.2996 11.3567 22.4337 11.321C23.104 11.1151 23.2382 10.882 23.0327 10.0939C22.9881 9.92377 23.0238 9.79832 23.1311 9.7C23.8553 9.08201 24.3558 8.30282 25.0975 7.74771L25.0953 7.74643Z" fill="#FF77A2"/>
<path d="M24.2013 27.9778C24.1299 27.9331 24.0493 27.9242 23.9598 27.9331C23.8973 27.8345 23.8167 27.7898 23.7004 27.7719C23.5039 27.7451 23.298 27.7004 23.1282 27.575C22.851 27.3691 22.8064 27.0467 23.0476 26.8047C23.1461 26.7061 23.155 26.6435 23.1011 26.5091C22.9759 26.2225 23.0298 25.9809 23.2799 25.7925C23.4586 25.6581 23.4765 25.5148 23.4051 25.3268C23.2888 25.0133 23.2353 24.7088 23.5214 24.449C23.5303 24.44 23.5481 24.4221 23.5481 24.4043C23.4857 24.064 23.7001 23.822 23.8521 23.5625C23.8967 23.491 23.8878 23.4103 23.8789 23.3298C23.7626 22.6493 23.9595 22.3894 24.6476 22.2997C25.05 22.2461 25.4521 22.2461 25.8634 22.2461C26.355 22.255 26.802 22.8105 26.7036 23.2851C26.6768 23.4016 26.6946 23.5089 26.7571 23.6165C26.8645 23.8045 26.8912 24.0104 26.8912 24.2255C26.8912 24.4407 26.8288 24.6105 26.6679 24.7449C26.4535 24.9239 26.3818 25.157 26.3818 25.4344C26.3818 25.8375 26.3283 26.2314 25.9794 26.5091C25.6398 26.7869 25.3091 26.6882 25.166 26.2672C25.1036 26.0792 25.1303 25.8551 24.9067 25.7028C25.2195 26.6522 24.8621 27.3688 24.2006 27.9775L24.2013 27.9778Z" fill="#FF77A2"/>
</svg>
