<svg width="48" height="48" viewBox="0 0 48 48" fill="none" xmlns="http://www.w3.org/2000/svg">
<rect width="48" height="48" rx="8" fill="#7595EA" fill-opacity="0.1"/>
<path d="M16.2343 21.4611C17.6669 21.2113 20.0947 17.5383 20.0322 17.226C19.9697 16.9136 19.0369 16.289 20.7776 16.4764C22.5225 16.6638 24.4506 16.4764 24.5131 16.1682C24.5755 15.8559 22.7682 14.5483 24.5131 12.1829C26.2579 9.81757 27.2532 8.94306 28.4359 8.88059C29.6186 8.81813 33.1666 9.25955 33.4165 9.16377C33.6663 9.06799 35.3487 11.1876 35.3487 13.2407C35.3487 15.2937 36.344 16.7887 36.7188 16.9136C37.0936 17.0386 36.8437 18.9084 36.5314 21.3987C36.2191 23.8889 36.6563 24.6385 37.7765 24.4511C38.8968 24.2637 39.2091 21.3987 40.954 22.8312C42.6988 24.2637 41.4537 26.9414 40.7041 28.0616C39.9587 29.1818 40.829 31.4264 41.0164 31.6097C41.2038 31.7971 39.4589 35.4075 37.5933 36.2196C35.7235 37.0275 35.0406 35.5949 33.608 37.0275C32.1755 38.46 30.8054 38.8348 30.4931 38.46C30.1808 38.0852 28.9356 35.5325 28.9356 35.5325C28.9356 35.5325 26.7577 34.5372 25.7582 35.5949C24.7629 36.6527 20.3404 39.5178 19.4076 39.0805C18.4747 38.6433 16.0469 37.8354 16.1052 36.4028C16.1677 34.9703 13.9897 34.0375 12.6197 33.6002C11.2496 33.163 10.9997 31.7304 10.9997 30.1771C10.9997 28.6238 8.19711 27.312 7.63492 25.8795C7.07273 24.447 5.51943 22.3939 6.45224 21.6443C6.45224 21.6443 6.8895 21.0239 7.1352 21.0447C7.3809 21.0655 8.5844 20.9822 9.01749 21.1904C9.45475 21.3987 11.4661 22.9145 11.8826 23.4517C12.299 23.9931 14.0189 25.03 14.4145 25.259C14.8101 25.4881 15.264 26.0044 15.847 25.6546C16.43 25.3007 16.6549 23.993 16.4717 23.1643C16.2843 22.3356 16.2302 21.4611 16.2302 21.4611H16.2343Z" fill="#7595EA"/>
</svg>
