<svg width="48" height="48" viewBox="0 0 48 48" fill="none" xmlns="http://www.w3.org/2000/svg">
<rect width="48" height="48" rx="8" fill="#FDCB3D" fill-opacity="0.1"/>
<path d="M34.6593 28.5885C34.3332 28.5668 33.9854 28.6428 33.703 28.3925C33.5725 28.2835 33.4532 28.3382 33.3769 28.4469C33.1487 28.7628 32.8335 28.8823 32.4423 28.8388C32.225 28.8171 32.1816 28.9149 32.2684 29.1C32.3989 29.3611 32.4857 29.6227 32.5728 29.9056C32.6925 30.2867 33.0291 30.4718 33.3877 30.4935C34.3115 30.5587 34.344 31.2231 34.0179 31.7893C33.6809 32.3663 33.3006 32.8782 32.529 32.8999C32.2901 32.9108 32.1378 33.0633 32.0511 33.281C31.9643 33.4661 31.888 33.662 31.7796 33.8363C31.5731 34.1413 31.2904 34.1522 31.0406 33.8689C30.7582 33.553 30.6602 32.7691 30.9538 32.388C31.5297 31.6585 31.1494 31.0597 30.8016 30.4392C30.7365 30.3193 30.6277 30.2541 30.5192 30.3849C30.1389 30.8529 29.628 31.1144 29.085 31.343C28.7697 31.4738 28.7697 31.5281 28.9982 31.7458C29.2155 31.9418 29.2697 32.2029 29.3026 32.4645C29.3352 32.7039 29.4332 32.889 29.585 33.0633C29.9654 33.4878 30.226 33.9345 29.987 34.5441C29.8674 34.8383 29.6826 34.9904 29.3569 34.9795C29.2155 34.9687 29.0854 34.9578 28.944 34.9687C28.6725 34.9795 28.5636 35.1646 28.6725 35.4149C28.7159 35.5019 28.7592 35.5892 28.8138 35.6761C29.1074 36.1224 29.0745 36.46 28.705 36.8519C28.4877 37.0805 28.2271 37.233 27.9226 37.3199C27.4664 37.4507 27.0422 37.2217 26.8249 36.7429C26.7707 36.6121 26.7161 36.4926 26.651 36.3618C26.5643 36.1767 26.4121 36.1115 26.2165 36.1224C26.1622 36.1224 26.0968 36.1332 26.0426 36.1441C25.6839 36.155 25.4341 36.0351 25.3578 35.7956C25.271 35.5345 25.4337 35.1534 25.6947 34.9683C25.8795 34.8484 26.0859 34.7832 26.3032 34.7397C26.5639 34.6854 26.6619 34.5329 26.6185 34.2608C26.5205 33.6186 26.89 33.1937 27.5423 33.1937C27.629 33.1937 27.727 33.1937 27.8029 33.1611C27.8897 33.1176 27.966 33.0412 27.9443 32.9216C27.9226 32.8126 27.8246 32.8347 27.7487 32.8234C27.4334 32.8126 27.1619 32.6818 26.8792 32.5731C26.5314 32.4315 26.4121 32.4862 26.3249 32.8452C26.1727 33.4657 25.749 33.8142 25.173 34.0101C24.7059 34.1735 24.271 34.4021 23.8798 34.718C23.7492 34.827 23.6516 34.9574 23.6191 35.1316C23.5432 35.4693 23.4126 35.7956 23.1954 36.068C22.8801 36.4382 22.8584 36.928 22.6736 37.3529C22.5869 37.5597 22.478 37.7449 22.3041 37.8756C22.0868 38.039 21.8479 38.0607 21.6414 37.9082C21.3591 37.7123 21.0655 37.5706 20.761 37.4181C20.3915 37.2221 20.3156 36.961 20.5004 36.5799C20.5984 36.3731 20.7394 36.1771 20.794 35.9376C20.8482 35.6873 20.7614 35.4914 20.6201 35.3063C20.4787 35.132 20.3485 35.1646 20.2506 35.3497C20.1526 35.5348 20.0875 35.7308 20.0658 35.9376C19.979 36.8523 19.4899 37.5272 18.7834 38.0499C18.3705 38.3549 18.0769 38.6704 18.0227 39.204C17.9793 39.6285 17.6966 39.9661 17.3925 40.249C17.0772 40.5319 16.7949 40.4776 16.6101 40.0965C16.5013 39.8571 16.3165 39.7046 16.0884 39.6064C15.9904 39.5629 15.882 39.5303 15.7948 39.4756C15.4795 39.3014 15.447 39.0619 15.708 38.8225C16.0703 38.4813 16.0739 38.1255 15.7189 37.7553C15.5016 37.5268 15.5016 37.3199 15.7189 37.0801C15.8603 36.9276 16.0342 36.8081 16.1318 36.623C16.2077 36.4596 16.2731 36.2745 16.1535 36.122C16.0446 35.9695 15.8599 36.0351 15.7189 36.0785C15.2735 36.2419 14.8494 36.1767 14.4365 35.9586C14.2083 35.8387 13.9585 35.7626 13.73 35.6645C13.4802 35.5554 13.2629 35.4142 13.1107 35.1856C12.9476 34.9244 12.7737 34.6737 12.6106 34.4126C12.4367 34.1297 12.4801 33.879 12.7086 33.6395C12.7845 33.5635 12.8717 33.4979 12.9585 33.4327C13.4147 33.1168 13.6649 33.1607 13.9473 33.6395C14.0887 33.879 14.1863 34.1405 14.3819 34.3365C14.4907 34.4455 14.6317 34.5977 14.7839 34.4347C14.9361 34.2713 14.7947 34.1518 14.6751 34.0427C14.5554 33.9446 14.4361 33.8359 14.3272 33.716C14.2076 33.5852 14.1425 33.4331 14.2184 33.2589C14.2943 33.0737 14.4465 33.0194 14.6204 33.0086C14.9357 32.9868 15.2072 33.1176 15.4245 33.3353C15.6093 33.5204 15.7615 33.7164 15.9246 33.9123C16.0113 34.0214 16.1093 34.1192 16.2615 34.1301C16.4137 34.1518 16.6202 34.1844 16.6961 34.0431C16.772 33.9019 16.5873 33.8254 16.4897 33.7272C16.1202 33.3679 15.6747 33.1502 15.2072 32.9542C15.1205 32.9108 15.0225 32.889 14.9249 32.856C14.6859 32.7691 14.4795 32.6601 14.512 32.3659C14.5445 32.1265 14.8164 31.9414 15.1205 31.9631C15.2944 31.974 15.4791 31.9957 15.6422 32.0392C15.8812 32.0935 16.0876 32.0283 16.2181 31.8323C16.4571 31.4621 16.8158 31.3313 17.207 31.2336C17.4243 31.1792 17.5548 31.1028 17.4026 30.8525C17.3158 30.7 17.3158 30.5149 17.3046 30.3298C17.2937 30.199 17.2612 30.0686 17.1198 30.0247C16.9676 29.9813 16.8483 30.0465 16.7503 30.1555C16.609 30.2972 16.5547 30.4714 16.4788 30.6456C16.1202 31.3426 15.4249 31.669 14.7944 31.4295C14.3598 31.2662 14.2076 30.8633 14.4682 30.4823C14.6421 30.232 14.6747 30.0034 14.5662 29.7092C14.4465 29.3934 14.5771 29.1105 14.7835 28.8602C14.8269 28.8167 14.914 28.762 14.8377 28.6859C14.7835 28.6316 14.7072 28.6642 14.6421 28.7077C14.4791 28.8167 14.3052 28.9145 14.0987 28.9145C13.7184 28.9145 13.5119 28.6533 13.675 28.3157C13.7947 28.0654 13.8597 27.8368 13.8706 27.5536C13.8814 27.1507 14.2401 26.9113 14.6313 26.9765C14.7401 26.9982 14.8486 27.02 14.9357 26.9222C15.2072 26.628 15.2944 26.2469 15.3486 25.8663C15.3595 25.7572 15.2835 25.7138 15.1856 25.692C14.4899 25.5286 14.2184 25.028 14.0445 24.3745C13.7509 23.3074 14.2943 22.5782 14.914 21.8486C14.9466 21.8052 15.012 21.7943 15.0663 21.7726C15.4358 21.7726 15.8161 21.7835 16.1856 21.7835C16.229 21.7835 16.2724 21.7835 16.3053 21.7943C16.729 21.9686 17.1419 21.936 17.5331 21.7291C17.7504 21.6201 17.9677 21.6201 18.1741 21.7183C18.25 21.7509 18.3263 21.7617 18.4023 21.7726C19.0979 21.8925 19.8477 21.2499 20.0433 20.771C20.1847 20.4551 20.2932 20.1505 20.6627 20.0306C20.7715 19.998 20.9016 20.0306 20.9779 19.9654C21.2278 19.7694 21.4234 19.9654 21.619 20.0414C21.8471 20.1396 21.9776 20.3682 22.0318 20.5859C22.1078 20.8579 22.2274 21.0648 22.4122 21.2499C22.5969 21.435 22.7709 21.435 23.0207 21.3368C23.2922 21.2277 23.401 20.9883 23.5858 20.8032C23.7163 20.7923 23.8139 20.5855 23.9661 20.7706C24.1075 20.934 24.0529 21.0535 23.977 21.2169C23.7814 21.6414 23.977 22.0881 24.4224 22.3492C24.5092 22.3601 24.5204 22.4253 24.5421 22.4909C24.6726 22.7959 24.8899 22.9698 25.2377 22.948C25.3574 22.9372 25.4875 22.9372 25.5855 22.9806C25.8679 23.1005 26.1289 22.9915 26.3788 22.9154C26.8242 22.7847 27.27 22.7629 27.6937 22.9154C28.1391 23.0788 28.5195 23.0897 28.9653 22.872C29.3565 22.6869 29.6392 22.2732 30.1714 22.3167C30.5409 22.3493 30.867 22.3275 31.1494 22.6325C31.345 22.8394 31.5623 23.0462 31.8776 23.0788C31.9426 23.2096 31.9864 23.3508 32.084 23.4599C32.4752 23.9388 32.562 24.5488 32.6925 25.1258C32.7467 25.3653 32.8013 25.583 32.9531 25.7572C33.4966 26.3343 33.9745 26.9765 34.442 27.6083C34.7135 27.9133 34.8115 28.2397 34.6593 28.5881V28.5885ZM15.153 33.782C15.1856 33.8363 15.1964 33.9345 15.3052 33.9019C15.2835 33.8367 15.2293 33.7928 15.153 33.782C15.1205 33.6186 15.0008 33.5643 14.8594 33.5534V33.5425L14.8703 33.5534C14.9462 33.6403 15.0225 33.7602 15.1526 33.782H15.153Z" fill="#FDCB3D"/>
<path d="M36.4522 11.1031C36.4631 11.5277 36.5281 11.9414 36.4522 12.3663C36.4305 12.4971 36.398 12.5949 36.2783 12.6822C36.0068 12.8564 35.7783 13.0958 35.6044 13.3683C35.3762 13.7276 34.985 13.7602 34.6264 13.8145C34.4308 13.8471 34.3111 13.8906 34.2243 14.0757C33.8657 14.8161 33.4528 15.5348 33.1592 16.297C32.9311 16.874 32.8006 17.5054 32.5616 18.0825C32.4857 18.2784 32.4965 18.5179 32.605 18.7464C32.768 19.1058 32.9419 19.4543 32.9094 19.8679C32.8877 20.0748 33.0508 20.2273 33.1484 20.3907C33.3548 20.75 33.3006 21.1093 33.0941 21.4031C32.7897 21.8276 32.5399 22.2852 32.366 22.7749C32.3009 22.96 32.1378 23.0252 31.9639 23.0908C31.6487 23.0691 31.4314 22.8622 31.2358 22.6445C30.9534 22.3395 30.6273 22.3616 30.2578 22.3286C29.7252 22.2852 29.4429 22.6988 29.0517 22.884C28.5954 23.1017 28.2259 23.0908 27.7801 22.9274C27.3564 22.7749 26.9106 22.7966 26.4651 22.9274C26.2153 23.0035 25.9543 23.1125 25.6719 22.9926C25.5739 22.9491 25.4438 22.96 25.3241 22.96C24.9763 22.9817 24.759 22.8075 24.6285 22.5029C24.5959 22.4377 24.5851 22.3721 24.5088 22.3612C24.5088 22.3069 24.5196 22.2413 24.4979 22.2196C24.1935 21.9037 24.2043 21.5226 24.2698 21.1307C24.2806 21.0325 24.2915 20.9347 24.2698 20.8365C24.2264 20.6188 24.0634 20.5754 23.8678 20.5862C23.7047 20.5971 23.6179 20.6406 23.683 20.8257C23.5091 21.0108 23.3894 21.2502 23.1179 21.3593C22.8789 21.4574 22.6942 21.4574 22.5094 21.2723C22.3247 21.0872 22.1941 20.8695 22.1291 20.6084C22.0748 20.3907 21.9443 20.1621 21.7162 20.0639C21.5206 19.9878 21.325 19.7919 21.0752 19.9878C20.9993 20.0422 20.8687 20.0204 20.7599 20.053C20.3904 20.1729 20.2707 20.4776 20.1406 20.7935C19.9341 21.2615 19.1951 21.915 18.4995 21.795C18.4236 21.7842 18.3473 21.7733 18.2713 21.7407C18.0541 21.6425 17.8476 21.6317 17.6303 21.7516C17.2283 21.9584 16.8154 21.991 16.4025 21.8168C16.37 21.8059 16.3266 21.8059 16.2828 21.8059C15.9133 21.795 15.533 21.795 15.1635 21.795C15.1526 21.6317 15.0004 21.5556 14.9353 21.4248C14.7398 21.0764 14.7506 20.7279 14.9679 20.4124C15.2502 19.9987 15.4788 19.5524 15.6197 19.0732C15.772 18.5943 16.0977 18.4201 16.5544 18.4201C16.9022 18.4092 17.2062 18.344 17.4781 18.1259C17.6629 17.9734 17.891 17.9734 18.13 18.039C18.293 18.0933 18.4995 18.2458 18.6079 17.9955C18.6947 17.7778 18.4449 17.4402 18.2167 17.3859C17.7822 17.2877 17.3584 17.375 16.9235 17.4293C16.6736 17.4511 16.4343 17.4837 16.1953 17.4076C15.8041 17.2877 15.4671 16.6781 15.9672 16.3187C16.4126 15.992 16.8584 15.6765 17.3147 15.3606C17.5428 15.2081 17.7059 15.0121 17.7926 14.7509C17.9123 14.4025 18.173 14.163 18.4666 13.9562C18.6947 13.7819 18.9337 13.8254 19.1513 13.9888C19.2927 14.0978 19.4229 14.2174 19.5642 14.3155C19.7056 14.4137 19.8687 14.5441 20.0313 14.3481C20.1619 14.1739 20.1181 13.858 19.9446 13.7385C19.8249 13.6516 19.6948 13.5751 19.5642 13.5099C19.3361 13.3791 19.2273 13.1614 19.2706 12.922C19.314 12.6278 19.553 12.5301 19.8249 12.5627C20.1619 12.5953 20.4117 12.4319 20.6507 12.2468C20.7049 12.2142 20.7703 12.1707 20.7487 12.0834C20.727 12.0073 20.6619 11.9743 20.5964 11.9635C20.4225 11.9418 20.2486 11.9526 20.0747 12.0178C19.5421 12.2247 18.9987 12.3663 18.4119 12.3228C17.9665 12.2902 17.836 12.1921 17.738 11.7566C17.6946 11.5607 17.5533 11.4955 17.3685 11.4846C17.1404 11.4738 16.9122 11.5063 16.7058 11.3864C16.4668 11.2557 16.4234 11.0597 16.619 10.8746C16.7713 10.7221 16.9668 10.6569 17.1841 10.6569C17.8581 10.646 18.5208 10.6243 19.1943 10.5478C19.5855 10.5044 19.9442 10.3519 20.2157 10.0798C20.4547 9.84039 20.7157 9.70962 21.0523 9.70962C21.2045 9.70962 21.2913 9.64442 21.3238 9.50278C21.1499 9.41585 20.9218 9.53538 20.7696 9.36114C20.813 9.04526 21.1282 8.78409 21.4869 8.76236C21.9432 8.72976 22.3673 8.54465 22.8018 8.44647C23.2256 8.35955 23.6168 8.16357 24.0626 8.16357C24.4755 8.16357 24.6819 8.37042 24.6819 8.78409C24.6819 9.1543 24.8775 9.35027 25.2362 9.35027C25.7033 9.35027 26.1274 9.13257 26.5728 9.04526C26.964 8.9692 27.3335 8.76236 27.6813 8.55513C27.7355 8.52254 27.8335 8.51167 27.8444 8.55513C27.8661 8.76197 28.0834 8.77283 28.1705 8.92534C28.3553 9.24122 28.6376 9.49153 28.9204 9.70923C29.1485 9.8726 29.3224 10.0577 29.4204 10.308C29.4638 10.4171 29.5292 10.504 29.6377 10.5257C29.92 10.58 30.2028 10.6348 30.4851 10.6456C31.0177 10.6674 31.4848 10.4931 31.9086 10.1555C32.0391 10.0465 32.1475 9.92693 32.2672 9.82875C32.4194 9.91568 32.5608 10.0682 32.7343 10.0573C32.995 10.0465 33.158 10.1881 33.3211 10.3515C33.734 10.7434 34.1906 10.7977 34.6686 10.504C34.7991 10.4171 34.9401 10.3732 35.114 10.3949C35.4076 10.4384 35.7117 10.5148 35.9944 10.3297C36.0812 10.2754 36.19 10.3189 36.2768 10.3623C36.2225 10.5909 36.331 10.8525 36.4507 11.1028L36.4522 11.1031Z" fill="#FDCB3D"/>
</svg>
