<svg width="48" height="48" viewBox="0 0 48 48" fill="none" xmlns="http://www.w3.org/2000/svg">
<rect width="48" height="48" rx="8" fill="#FB923C" fill-opacity="0.1"/>
<path d="M6.1362 25.7727C6.1362 25.7727 8.63319 24.6544 9.62116 23.5362C10.6111 22.418 9.89171 22.3378 10.8496 21.2977C11.8095 20.2596 12.3426 19.6204 13.3546 19.2997C14.3666 18.9791 15.7234 18.42 16.9238 18.3398C18.1222 18.2596 20.7995 17.3799 21.9177 16.8609C23.036 16.3418 24.8736 15.8228 24.8736 15.8228C24.8736 15.8228 27.9097 14.3438 29.4288 14.2236C30.9478 14.1033 32.545 13.945 33.7434 13.945C34.9418 13.945 34.3827 12.7867 36.3406 13.5462C38.2985 14.3057 38.539 15.1434 39.0179 15.2637C39.4969 15.3839 40.1362 14.8248 40.6171 15.3438C41.0961 15.8629 42.1362 16.422 42.056 17.0212C41.9758 17.6204 41.4648 18.5803 42.06 19.1394C42.6552 19.6985 42.9337 21.0572 42.4949 21.8168C42.056 22.5763 40.2965 24.7727 39.8576 25.7727C39.4187 26.7727 40.1782 27.4901 39.1782 28.2095C38.1802 28.929 36.6612 29.0893 35.9017 29.2095C35.1422 29.3298 34.1442 30.3678 33.064 30.5282C31.9859 30.6885 29.7474 30.8087 29.1883 30.8488C28.6292 30.8889 29.1883 32.6063 27.1903 32.6063C25.1923 32.6063 23.9137 32.5662 23.3145 32.6063C22.7153 32.6464 22.2364 33.6464 20.7574 33.0853C19.2785 32.5262 19.4388 32.1674 18.3206 32.1674C17.2023 32.1674 15.8035 32.446 15.4047 32.5662C15.0059 32.6865 12.9278 32.2075 12.8075 32.2857C12.6873 32.3658 11.6893 32.6444 11.6492 33.444C11.6091 34.2436 11.0901 35.3618 10.6893 34.963C10.2905 34.5642 9.0901 33.0853 8.29251 32.2857C7.49291 31.4861 6.69331 31.1274 6.1342 30.2877C5.57508 29.448 5.3346 29.2095 5.535 28.2496C5.7354 27.2897 6.1342 25.7727 6.1342 25.7727H6.1362Z" fill="#FB923C"/>
</svg>
