<svg width="48" height="48" viewBox="0 0 48 48" fill="none" xmlns="http://www.w3.org/2000/svg">
<rect width="48" height="48" rx="8" fill="#A0D643" fill-opacity="0.1"/>
<path d="M32.9083 12.3056C33.0754 12.198 33.2779 12.1867 33.4327 12.3779C33.5403 12.5096 33.6481 12.6526 33.7676 12.7724C34.1857 13.1793 34.6513 13.1793 35.129 12.9042C35.7262 12.569 36.3479 12.402 37.0167 12.5214C37.3986 12.593 37.7687 12.6415 38.1622 12.6415C38.2217 12.6415 38.3063 12.6412 38.3184 12.7245C38.3303 12.7962 38.3177 12.8569 38.2461 12.8808L38.1026 12.9521C37.9115 13.0838 37.7449 13.2155 37.793 13.5029C37.8407 13.7777 38.055 13.8738 38.2579 13.9335C38.5924 14.029 38.9269 14.1009 39.2852 14.0771C39.5239 14.0532 39.6914 14.1727 39.8106 14.3759C40.097 14.8901 40.4914 15.1784 41.1241 15.1308C41.6856 15.083 42.1996 15.2258 42.6534 15.5849C42.8445 15.7405 43.1663 15.6931 43.2979 15.956C42.3184 16.6981 41.6383 17.7394 40.7188 18.5292C40.5754 18.661 40.5274 18.8283 40.587 19.0556C40.8614 20.1202 40.6698 20.4188 39.7862 20.6943C39.6072 20.7539 39.4283 20.8266 39.2374 20.8505C38.5686 20.9222 38.2334 20.5152 37.9708 20.0009C37.7796 19.6179 37.541 19.57 37.2784 19.9052C36.992 20.2642 36.6575 20.4193 36.2159 20.3359C35.9294 20.2762 35.702 20.36 35.4747 20.5634C35.2955 20.731 35.0681 20.8383 34.8174 20.8622C34.5551 20.8505 34.4473 20.9942 34.4473 21.2333V21.9755C34.4473 22.3226 34.2325 22.5497 33.8741 22.5497C33.4562 22.5497 33.0264 22.4543 32.6085 22.5497C32.4173 22.5975 32.1065 22.538 32.1661 22.9091C31.7839 23.0768 31.641 23.4601 31.4737 23.7948C31.2945 24.1658 31.0795 24.5006 30.6973 24.704C30.4587 24.8357 30.4822 24.9191 30.7325 25.0507C31.007 25.2064 31.3064 25.3259 31.5333 25.5771C31.7243 25.7805 31.832 26.0081 31.7129 26.2831C31.4145 26.9771 31.4144 27.7313 31.2471 28.4491C31.2114 28.5808 31.2827 28.7719 31.3545 28.9032C31.5457 29.2022 31.4374 29.4665 31.2706 29.7177C31.163 29.8731 31.0441 30.0281 30.9366 30.1835C30.8413 30.3272 30.8884 30.4592 30.9717 30.579C31.0552 30.6869 31.1633 30.6266 31.2706 30.5907C31.6646 30.459 32.0228 30.4472 32.3331 30.7939C32.548 31.045 32.7633 31.2009 33.1573 31.0693C33.6349 30.9136 34.018 31.2492 34.0538 31.7636C34.0656 31.9192 34.0536 32.0746 34.1251 32.2421C34.2201 32.4336 34.0169 32.7085 33.7901 32.7323C33.6825 32.7442 33.5754 32.7322 33.4678 32.7441C33.1575 32.7441 32.9183 33.0076 33.0499 33.2831C33.1931 33.5938 33.0493 33.809 32.9297 34.0605C32.7506 34.4195 32.5837 34.7906 32.4883 35.1855C32.4526 35.3291 32.3804 35.4484 32.2256 35.4843C32.0583 35.5201 31.9624 35.6167 31.9385 35.7958C31.831 35.76 31.7242 35.7003 31.629 35.7597C31.3187 35.9631 30.9838 35.8792 30.6612 35.831C30.4702 35.8071 30.3267 35.8553 30.1719 35.9511C29.6466 36.2744 29.1443 36.2258 28.6905 35.7831C28.5114 35.6157 28.344 35.4481 28.046 35.4599C27.8548 35.4718 27.6872 35.3164 27.5323 35.2089C27.4127 35.0294 27.3175 34.8018 27.1622 34.6581C26.8038 34.323 26.744 33.8808 26.6368 33.4501C26.5291 33.0074 26.3381 32.6122 26.087 32.2411C25.9554 32.0496 25.7641 31.9662 25.5372 31.9423C25.0478 31.8706 24.618 31.4994 24.8682 30.8417C24.8868 30.7897 24.9041 30.7352 24.9219 30.6806C24.8979 30.7525 24.8733 30.823 24.8467 30.8905C24.6079 31.5486 25.0261 31.9195 25.5157 31.9911C25.7426 32.027 25.9339 32.1118 26.0655 32.2909C26.316 32.6618 26.5066 33.0446 26.6143 33.4989C26.7096 33.9177 26.7819 34.3727 27.1397 34.7079C27.2946 34.8155 27.3781 35.03 27.4971 35.2206C27.3537 35.3285 27.2341 35.4721 27.1026 35.58C26.6369 35.951 26.123 36.1429 25.5381 36.1191C25.2281 36.1071 24.9176 36.0473 24.6075 35.9872C24.4879 35.9634 24.4159 35.8674 24.3682 35.748C24.2605 35.4609 24.0696 35.2693 23.8184 35.0898C23.4958 34.8505 23.1853 34.5755 22.9942 34.2284C22.8988 34.0608 22.6596 34.0366 22.6358 33.8212C22.6237 33.7736 22.5166 33.7855 22.4571 33.8212C22.0748 34.0485 21.6683 34.2763 21.2383 34.3603C20.737 34.4559 20.2828 34.6952 19.7696 34.6952C19.3755 34.6952 19.1603 34.4799 19.1602 34.0732C19.1602 33.3792 19.1602 33.3905 18.4795 33.3905C17.9901 33.3906 17.5599 33.5946 17.0938 33.7021C16.6044 33.81 16.1379 34.0125 15.6485 34.0488C15.2545 34.0728 14.9081 34.36 14.8604 34.707C14.6217 34.6712 14.5139 34.8747 14.3829 34.9941C13.8814 35.4726 13.2602 35.4962 12.6153 35.4843C12.4719 35.4843 12.4003 35.4129 12.3526 35.2812C12.2092 34.8386 11.9708 34.4675 11.6368 34.1327C11.5891 34.085 11.5408 34.001 11.5284 33.9413C11.4569 33.5107 11.1348 33.3185 10.7764 33.1747C10.2269 32.9474 10.1076 32.4694 10.5733 32.1103C10.7642 31.9547 10.7165 31.7992 10.5733 31.6318C10.1792 31.1533 10.1669 30.7941 10.5489 30.2919C10.74 30.0526 10.716 29.8489 10.501 29.6454C10.0593 29.2148 10.048 29.1191 10.3702 28.5566C10.4536 28.4129 10.4171 28.353 10.2979 28.2695C9.72485 27.8268 9.79683 27.1445 10.4415 26.8212C10.489 26.7974 10.537 26.7619 10.585 26.7499C10.6446 26.7261 10.7169 26.6901 10.7051 26.6181C10.6932 26.5102 10.5852 26.5466 10.5137 26.5585C10.4303 26.5705 10.3462 26.6064 10.2627 26.6064C9.845 26.654 9.54672 26.4026 9.57037 25.996C9.58228 25.6251 9.47508 25.3258 9.29595 25.0146C9.14057 24.7514 9.04487 24.4632 9.20025 24.1523C9.27175 24.0086 9.36821 23.8773 9.52349 23.8534C9.86961 23.8056 9.79791 23.5783 9.73834 23.3749C9.67874 23.1596 9.58267 22.9445 9.48736 22.7411C9.35582 22.4541 9.35622 22.1786 9.46392 21.8915C9.52351 21.7359 9.60712 21.4962 9.41607 21.4364C9.1892 21.3648 9.16529 21.6521 9.15337 21.7958C9.11763 22.1066 8.99778 22.4059 8.96197 22.7167C8.90239 23.1831 8.72343 23.4224 8.36529 23.4345C8.00699 23.4584 7.63684 23.1601 7.55279 22.7773C7.49319 22.4902 7.45714 22.2022 7.42095 21.9032C7.3971 21.7118 7.33744 21.6525 7.15826 21.7958C6.95535 21.9752 6.74037 22.0824 6.45416 21.9394C6.28686 21.8558 6.13137 21.9038 5.98834 22.0595C5.77327 22.3106 5.29568 22.4297 5.00884 22.2861C4.79387 22.1782 4.63845 21.9869 4.74615 21.7353C4.88943 21.3883 4.87729 21.1252 4.61431 20.8144C4.25607 20.3837 4.34003 20.0367 4.81744 19.7616C5.0561 19.618 5.13986 19.3906 5.18755 19.1396C5.23523 18.9242 5.28348 18.7208 5.5108 18.6611C5.76149 18.5894 5.92907 18.7323 6.0606 18.9238C6.16819 19.0793 6.28678 19.247 6.37017 19.414C6.52552 19.7372 6.78841 19.8565 7.13482 19.8447C7.31404 19.8447 7.34986 19.773 7.33794 19.6054C7.29034 19.0914 7.36207 18.9837 7.86334 18.912C8.01871 18.8882 8.09029 18.8163 8.06646 18.6845C7.93494 18.0623 8.30499 17.5837 8.55572 17.081C8.61532 16.9731 8.67578 16.9013 8.79498 16.9013C8.93836 16.9013 9.04595 16.961 9.10552 17.0927C9.24895 17.4036 9.33169 17.7272 9.35552 18.0624C9.36742 18.218 9.36761 18.3733 9.5108 18.4931C9.65425 18.3494 9.64281 18.1573 9.69048 17.9902C9.83395 17.5119 10.0849 17.2846 10.67 17.6073C10.6938 17.6193 10.7299 17.6313 10.8018 17.6552C10.6703 17.1886 10.5506 16.7577 10.2637 16.3866C10.1204 16.1953 10.0012 15.9921 10.001 15.7411C10.0129 15.394 10.2044 15.2259 10.5508 15.3095C11.2915 15.4891 11.6499 16.0163 11.8292 16.7226C11.8767 16.9016 11.8647 16.902 11.9961 17.0575C12.0676 17.0098 12.0799 16.9377 12.0919 16.8661C12.1872 16.3876 12.4619 16.2199 12.9395 16.3398C13.5605 16.4955 13.9784 17.0101 13.9903 17.6562C13.9903 17.8714 13.9669 18.0506 14.3008 17.9189C14.5873 17.7991 14.7422 18.0273 14.8379 18.2665C14.9932 18.6375 15.0053 19.0443 15.0411 19.4511C15.053 19.6544 15.0892 19.8339 15.292 19.9413C15.507 20.0611 15.6744 20.0012 15.6983 19.7382C15.7221 19.5228 15.6503 19.3069 15.5665 19.1034C15.3755 18.649 15.4592 18.3498 15.9014 18.2304C16.3552 18.1105 16.7732 17.9068 17.2032 17.7157C17.2866 17.68 17.3708 17.6802 17.4542 17.704C17.4662 18.0391 17.9669 18.3619 18.3252 18.2548C18.8386 18.0872 19.4006 18.0989 19.8663 17.788C19.9859 17.7044 20.0815 17.836 20.1768 17.9081C20.4632 18.1474 20.6904 18.4463 21.0606 18.6015C21.2517 18.6731 21.443 18.6497 21.6221 18.6855C21.8609 19.0803 22.147 19.4514 22.3624 19.87C22.7699 20.6659 22.7838 21.1129 22.3487 21.6054C22.8186 21.0977 22.8154 20.649 22.3975 19.8329C22.1825 19.4141 21.8955 19.0423 21.6563 18.6474C21.8117 18.6713 21.9195 18.5759 22.0391 18.5038C22.457 18.2647 22.9345 18.1811 23.3643 17.9902C23.5792 17.8947 23.7821 17.7624 23.8419 17.5234C23.9495 17.1046 24.3315 16.9603 24.6065 16.6972C24.6899 16.6136 24.7504 16.5656 24.7862 16.4462C24.8577 16.2069 25.0132 16.0155 25.3116 16.0155C25.6938 16.0273 26.2191 15.5845 26.3506 15.2255C26.506 14.7828 26.745 14.3759 27.0196 14.0048C27.1272 13.8492 27.2106 13.6452 27.3897 13.5497C27.772 13.789 28.1898 13.7059 28.584 13.6581C29.014 13.6104 29.4443 13.4789 29.8624 13.3476C30.0891 13.276 30.2561 13.2394 30.3995 13.5029C30.5429 13.754 30.8056 13.8503 31.0801 13.8622C31.4384 13.8622 31.8083 13.9215 32.1309 13.6825C32.2624 13.587 32.334 13.4551 32.334 13.2636C32.346 12.8448 32.5617 12.521 32.9083 12.3056ZM25.0001 27.7421C24.9405 27.5387 24.8326 27.4545 24.5938 27.5859C24.5651 27.6018 24.5363 27.6158 24.5079 27.6288C24.5287 27.6189 24.5504 27.61 24.5713 27.5986C24.81 27.4668 24.918 27.5387 24.9776 27.7538C25.0853 28.089 25.2401 28.3523 25.6221 28.4599C25.7894 28.5076 25.8014 28.6869 25.67 28.7948C25.4192 29.0222 25.2993 29.3218 25.1563 29.6093C25.0971 29.6214 25.0492 29.6687 25.0372 29.7284H25.0254C25.0016 29.7404 24.9653 29.7651 24.9415 29.789C24.7347 30.0281 24.5 30.0593 24.2374 29.8837C23.724 29.5367 23.2577 29.7647 23.21 30.3749C23.1741 30.7577 22.8517 30.9132 22.5176 30.7099C22.255 30.5423 22.0043 30.3507 21.7413 30.1835C21.6568 30.127 21.6207 30.0626 21.6143 29.9941C21.6113 30.076 21.6446 30.1553 21.7422 30.2206C22.0048 30.4001 22.2556 30.5918 22.5186 30.747C22.853 30.9502 23.1751 30.7828 23.211 30.412C23.2587 29.8017 23.7245 29.5737 24.2383 29.9208C24.501 30.0962 24.7356 30.0649 24.9424 29.8261C24.9663 29.8022 24.9907 29.7894 25.0264 29.7655C25.0622 29.9629 25.05 30.1607 25.0127 30.3505C25.0574 30.1455 25.0803 29.9314 25.0479 29.7167H25.0596C25.1431 29.7167 25.1917 29.6806 25.1797 29.5966C25.3231 29.3097 25.442 29.0104 25.6924 28.7831C25.824 28.6633 25.8119 28.4954 25.6446 28.4472C25.2628 28.3515 25.1073 28.0766 25.0001 27.7421ZM22.3936 28.2245C22.394 28.3353 22.4141 28.4539 22.459 28.582C22.5113 28.7389 22.5267 28.8658 22.5108 28.9745C22.5377 28.8578 22.5208 28.7199 22.4581 28.5448C22.4181 28.431 22.3978 28.3245 22.3936 28.2245ZM23.3409 27.1083C23.5337 27.6536 23.9953 27.8635 24.4913 27.6376C23.9948 27.8562 23.5534 27.6329 23.3633 27.0956C23.2984 26.998 23.2535 26.8899 23.21 26.7812C23.2534 26.8903 23.2971 26.9992 23.3409 27.1083ZM21.2237 24.1904C21.1719 24.395 21.268 24.5174 21.5264 24.6327C21.8248 24.7765 22.1359 24.9083 22.2794 25.2197C22.4466 25.6025 22.6974 25.901 23.0557 26.1044C23.044 26.3405 23.0669 26.5654 23.171 26.7782C23.179 26.7688 23.1887 26.7607 23.1963 26.7509V26.7489H23.1973C23.0778 26.5337 23.0663 26.3064 23.0782 26.0673C23.2216 25.3376 23.3761 24.6312 23.1016 23.8896C22.8392 23.1725 22.565 22.4545 22.1719 21.7851C22.1694 21.7874 22.1667 21.7896 22.1641 21.7919L22.3008 22.0351C22.6212 22.6292 22.86 23.2499 23.0899 23.8886C23.3644 24.6307 23.2099 25.3486 23.0665 26.0663C22.708 25.8509 22.4574 25.5636 22.2901 25.1806C22.1585 24.8575 21.8359 24.7264 21.5372 24.5947C21.2958 24.4782 21.1941 24.3685 21.2237 24.1904ZM20.8487 21.5497C20.8153 21.6352 20.8514 21.7311 20.8936 21.8329C21.037 22.1561 21.1801 22.491 21.3116 22.8261C21.4277 23.1214 21.4693 23.4164 21.3985 23.7167C21.4821 23.4062 21.4433 23.104 21.3223 22.787C21.1908 22.4519 21.0478 22.129 20.9044 21.7939C20.8676 21.7052 20.8343 21.6257 20.8487 21.5497Z" fill="#A0D643"/>
</svg>
