<svg width="390" height="520" viewBox="0 0 390 520" fill="none" xmlns="http://www.w3.org/2000/svg">
<g clip-path="url(#clip0_2095_14608)">
<rect width="390" height="520" fill="#FEFEFE"/>
<rect width="19.5" height="520" fill="#FEF2F2"/>
<rect x="19.5" width="19.5" height="520" fill="#FEFAE8"/>
<rect x="39" width="19.5" height="520" fill="#FEF0E2"/>
<rect x="58.5" width="19.5" height="520" fill="#FEF2F2"/>
<rect x="78" width="19.5" height="520" fill="#FEFAE8"/>
<rect x="97.5" width="19.5" height="520" fill="#FEF0E2"/>
<rect x="117" width="19.5" height="520" fill="#FEF2F2"/>
<rect x="136.5" width="19.5" height="520" fill="#FEFAE8"/>
<rect x="156" width="19.5" height="520" fill="#FEF0E2"/>
<rect x="175.5" width="19.5" height="520" fill="#FEF2F2"/>
<rect x="195" width="19.5" height="520" fill="#FEFAE8"/>
<rect x="214.5" width="19.5" height="520" fill="#FEF0E2"/>
<rect x="234" width="19.5" height="520" fill="#FEF2F2"/>
<rect x="253.5" width="19.5" height="520" fill="#FEFAE8"/>
<rect x="273" width="19.5" height="520" fill="#FEF0E2"/>
<rect x="292.5" width="19.5" height="520" fill="#FEF2F2"/>
<rect x="312" width="19.5" height="520" fill="#FEFAE8"/>
<rect x="331.5" width="19.5" height="520" fill="#FEF0E2"/>
<rect x="351" width="19.5" height="520" fill="#FEF2F2"/>
<rect x="370.5" width="19.5" height="520" fill="#FEFAE8"/>
</g>
<defs>
<clipPath id="clip0_2095_14608">
<rect width="390" height="520" fill="white"/>
</clipPath>
</defs>
</svg>
